<svg width="1440" height="3000" viewBox="0 0 1440 3000" fill="none" xmlns="http://www.w3.org/2000/svg">
<g clip-path="url(#clip0_813_31)">
<rect width="1440" height="3000" fill="white"/>
<path d="M1131 720.5L1381 720.276L1381 883.5L1260 883.5" stroke="#F43C04" stroke-width="7"/>
<path d="M961.492 733.5L961.499 883.623L1261.1 883.242" stroke="#FBB20E" stroke-width="7"/>
<path d="M660 623.5V883.5H961" stroke="#0C55EF" stroke-width="7"/>
<path d="M365 667.5V883.5H661" stroke="#38AF33" stroke-width="7"/>
<path d="M123.023 617.5H61L61 883.5H361" stroke="#F763A2" stroke-width="7"/>
<path d="M943.534 713V702.091H952.114V713H950.438V703.653H945.21V713H943.534ZM959.607 713.227C958.622 713.227 957.758 712.993 957.014 712.524C956.276 712.055 955.698 711.4 955.281 710.557C954.869 709.714 954.663 708.729 954.663 707.602C954.663 706.466 954.869 705.474 955.281 704.626C955.698 703.779 956.276 703.121 957.014 702.652C957.758 702.183 958.622 701.949 959.607 701.949C960.591 701.949 961.453 702.183 962.192 702.652C962.935 703.121 963.513 703.779 963.925 704.626C964.341 705.474 964.55 706.466 964.55 707.602C964.55 708.729 964.341 709.714 963.925 710.557C963.513 711.4 962.935 712.055 962.192 712.524C961.453 712.993 960.591 713.227 959.607 713.227ZM959.607 711.722C960.355 711.722 960.97 711.53 961.453 711.146C961.936 710.763 962.294 710.259 962.526 709.634C962.758 709.009 962.874 708.331 962.874 707.602C962.874 706.873 962.758 706.194 962.526 705.564C962.294 704.934 961.936 704.425 961.453 704.037C960.97 703.649 960.355 703.455 959.607 703.455C958.858 703.455 958.243 703.649 957.76 704.037C957.277 704.425 956.92 704.934 956.688 705.564C956.455 706.194 956.339 706.873 956.339 707.602C956.339 708.331 956.455 709.009 956.688 709.634C956.92 710.259 957.277 710.763 957.76 711.146C958.243 711.53 958.858 711.722 959.607 711.722ZM965.944 716.125V711.438H966.853C967.075 711.205 967.267 710.955 967.428 710.685C967.589 710.415 967.729 710.095 967.847 709.726C967.97 709.352 968.074 708.897 968.159 708.362C968.245 707.822 968.32 707.171 968.387 706.409L968.756 702.091H975.688V711.438H977.364V716.125H975.688V713H967.62V716.125H965.944ZM968.756 711.438H974.012V703.653H970.319L970.034 706.409C969.916 707.55 969.769 708.547 969.594 709.399C969.419 710.251 969.14 710.931 968.756 711.438ZM979.589 717.091V702.091H981.208V703.824H981.407C981.53 703.634 981.701 703.393 981.918 703.099C982.141 702.801 982.458 702.536 982.87 702.304C983.287 702.067 983.85 701.949 984.56 701.949C985.479 701.949 986.289 702.179 986.989 702.638C987.69 703.097 988.237 703.748 988.63 704.591C989.023 705.434 989.219 706.428 989.219 707.574C989.219 708.729 989.023 709.731 988.63 710.578C988.237 711.421 987.692 712.074 986.996 712.538C986.3 712.998 985.498 713.227 984.589 713.227C983.888 713.227 983.327 713.111 982.906 712.879C982.484 712.643 982.16 712.375 981.933 712.077C981.705 711.774 981.53 711.523 981.407 711.324H981.265V717.091H979.589ZM981.237 707.545C981.237 708.369 981.357 709.096 981.599 709.726C981.84 710.351 982.193 710.841 982.657 711.196C983.121 711.546 983.689 711.722 984.362 711.722C985.062 711.722 985.647 711.537 986.116 711.168C986.589 710.794 986.944 710.292 987.181 709.662C987.423 709.027 987.543 708.322 987.543 707.545C987.543 706.778 987.425 706.087 987.188 705.472C986.956 704.851 986.603 704.361 986.13 704.001C985.661 703.637 985.072 703.455 984.362 703.455C983.68 703.455 983.107 703.627 982.643 703.973C982.179 704.314 981.828 704.792 981.592 705.408C981.355 706.018 981.237 706.731 981.237 707.545ZM996.208 713.227C995.223 713.227 994.359 712.993 993.616 712.524C992.877 712.055 992.299 711.4 991.883 710.557C991.471 709.714 991.265 708.729 991.265 707.602C991.265 706.466 991.471 705.474 991.883 704.626C992.299 703.779 992.877 703.121 993.616 702.652C994.359 702.183 995.223 701.949 996.208 701.949C997.193 701.949 998.055 702.183 998.793 702.652C999.537 703.121 1000.11 703.779 1000.53 704.626C1000.94 705.474 1001.15 706.466 1001.15 707.602C1001.15 708.729 1000.94 709.714 1000.53 710.557C1000.11 711.4 999.537 712.055 998.793 712.524C998.055 712.993 997.193 713.227 996.208 713.227ZM996.208 711.722C996.956 711.722 997.572 711.53 998.055 711.146C998.538 710.763 998.895 710.259 999.127 709.634C999.359 709.009 999.475 708.331 999.475 707.602C999.475 706.873 999.359 706.194 999.127 705.564C998.895 704.934 998.538 704.425 998.055 704.037C997.572 703.649 996.956 703.455 996.208 703.455C995.46 703.455 994.844 703.649 994.362 704.037C993.879 704.425 993.521 704.934 993.289 705.564C993.057 706.194 992.941 706.873 992.941 707.602C992.941 708.331 993.057 709.009 993.289 709.634C993.521 710.259 993.879 710.763 994.362 711.146C994.844 711.53 995.46 711.722 996.208 711.722ZM1011.81 698L1012.66 699.023C1012.33 699.345 1011.94 699.57 1011.51 699.697C1011.07 699.825 1010.58 699.903 1010.03 699.932C1009.48 699.96 1008.87 699.989 1008.2 700.017C1007.44 700.045 1006.81 700.23 1006.32 700.571C1005.82 700.912 1005.44 701.404 1005.17 702.048C1004.9 702.692 1004.72 703.483 1004.65 704.42H1004.79C1005.16 703.739 1005.67 703.237 1006.32 702.915C1006.98 702.593 1007.68 702.432 1008.43 702.432C1009.28 702.432 1010.05 702.631 1010.73 703.028C1011.41 703.426 1011.95 704.016 1012.35 704.797C1012.74 705.578 1012.94 706.542 1012.94 707.688C1012.94 708.829 1012.74 709.813 1012.33 710.642C1011.93 711.471 1011.36 712.11 1010.63 712.56C1009.91 713.005 1009.06 713.227 1008.08 713.227C1007.11 713.227 1006.25 712.998 1005.52 712.538C1004.79 712.074 1004.22 711.388 1003.81 710.479C1003.4 709.565 1003.2 708.436 1003.2 707.091V705.926C1003.2 703.497 1003.61 701.655 1004.43 700.401C1005.26 699.146 1006.51 698.497 1008.17 698.455C1008.76 698.436 1009.28 698.431 1009.74 698.44C1010.2 698.45 1010.6 698.429 1010.94 698.376C1011.28 698.324 1011.57 698.199 1011.81 698ZM1008.08 711.722C1008.74 711.722 1009.31 711.556 1009.78 711.224C1010.26 710.893 1010.63 710.427 1010.88 709.825C1011.14 709.219 1011.27 708.507 1011.27 707.688C1011.27 706.892 1011.14 706.215 1010.88 705.656C1010.62 705.098 1010.25 704.671 1009.78 704.378C1009.3 704.084 1008.72 703.938 1008.06 703.938C1007.57 703.938 1007.13 704.02 1006.74 704.186C1006.35 704.352 1006.02 704.596 1005.75 704.918C1005.47 705.24 1005.26 705.633 1005.11 706.097C1004.96 706.561 1004.88 707.091 1004.87 707.688C1004.87 708.909 1005.16 709.887 1005.73 710.621C1006.31 711.355 1007.09 711.722 1008.08 711.722ZM1022.81 706.778V708.341H1016.79V706.778H1022.81ZM1017.18 702.091V713H1015.51V702.091H1017.18ZM1024.09 702.091V713H1022.41V702.091H1024.09ZM1031.72 713.227C1030.67 713.227 1029.76 712.995 1029 712.531C1028.24 712.062 1027.66 711.409 1027.25 710.571C1026.84 709.728 1026.64 708.748 1026.64 707.631C1026.64 706.513 1026.84 705.528 1027.25 704.676C1027.66 703.819 1028.23 703.152 1028.97 702.673C1029.7 702.19 1030.57 701.949 1031.55 701.949C1032.12 701.949 1032.68 702.044 1033.23 702.233C1033.79 702.422 1034.29 702.73 1034.75 703.156C1035.2 703.578 1035.56 704.136 1035.83 704.832C1036.1 705.528 1036.24 706.385 1036.24 707.403V708.114H1027.83V706.665H1034.53C1034.53 706.049 1034.41 705.5 1034.16 705.017C1033.92 704.534 1033.58 704.153 1033.13 703.874C1032.68 703.594 1032.16 703.455 1031.55 703.455C1030.88 703.455 1030.31 703.62 1029.82 703.952C1029.33 704.278 1028.96 704.705 1028.7 705.23C1028.44 705.756 1028.31 706.319 1028.31 706.92V707.886C1028.31 708.71 1028.45 709.409 1028.74 709.982C1029.03 710.55 1029.43 710.983 1029.94 711.281C1030.45 711.575 1031.04 711.722 1031.72 711.722C1032.16 711.722 1032.56 711.66 1032.91 711.537C1033.27 711.409 1033.58 711.22 1033.84 710.969C1034.11 710.713 1034.31 710.396 1034.45 710.017L1036.07 710.472C1035.9 711.021 1035.61 711.504 1035.21 711.92C1034.81 712.332 1034.31 712.654 1033.72 712.886C1033.13 713.114 1032.46 713.227 1031.72 713.227ZM1043.36 713.227C1042.31 713.227 1041.4 712.995 1040.64 712.531C1039.88 712.062 1039.3 711.409 1038.89 710.571C1038.48 709.728 1038.28 708.748 1038.28 707.631C1038.28 706.513 1038.48 705.528 1038.89 704.676C1039.3 703.819 1039.87 703.152 1040.61 702.673C1041.34 702.19 1042.21 701.949 1043.19 701.949C1043.76 701.949 1044.32 702.044 1044.87 702.233C1045.43 702.422 1045.93 702.73 1046.39 703.156C1046.84 703.578 1047.2 704.136 1047.47 704.832C1047.74 705.528 1047.88 706.385 1047.88 707.403V708.114H1039.47V706.665H1046.17C1046.17 706.049 1046.05 705.5 1045.81 705.017C1045.56 704.534 1045.22 704.153 1044.77 703.874C1044.32 703.594 1043.8 703.455 1043.19 703.455C1042.52 703.455 1041.95 703.62 1041.46 703.952C1040.98 704.278 1040.6 704.705 1040.34 705.23C1040.08 705.756 1039.95 706.319 1039.95 706.92V707.886C1039.95 708.71 1040.09 709.409 1040.38 709.982C1040.67 710.55 1041.07 710.983 1041.58 711.281C1042.09 711.575 1042.68 711.722 1043.36 711.722C1043.8 711.722 1044.2 711.66 1044.56 711.537C1044.91 711.409 1045.23 711.22 1045.49 710.969C1045.75 710.713 1045.95 710.396 1046.09 710.017L1047.71 710.472C1047.54 711.021 1047.25 711.504 1046.85 711.92C1046.45 712.332 1045.95 712.654 1045.36 712.886C1044.77 713.114 1044.1 713.227 1043.36 713.227Z" fill="white"/>
<path d="M1093 698.904C1092.94 698.354 1092.45 697.951 1091.9 698.005L1082.95 698.872C1082.4 698.925 1081.99 699.414 1082.05 699.963C1082.1 700.513 1082.59 700.915 1083.14 700.862L1091.1 700.092L1091.87 708.054C1091.92 708.604 1092.41 709.007 1092.96 708.953C1093.51 708.9 1093.92 708.412 1093.86 707.862L1093 698.904ZM1078 716L1078.77 716.636L1092.77 699.636L1092 699L1091.23 698.364L1077.23 715.364L1078 716Z" fill="white"/>
<circle cx="364.5" cy="882.5" r="7.5" transform="rotate(180 364.5 882.5)" fill="#86C655"/>
<circle cx="659.5" cy="882.5" r="7.5" transform="rotate(180 659.5 882.5)" fill="#228291"/>
<circle cx="961.5" cy="882.5" r="7.5" transform="rotate(180 961.5 882.5)" fill="#84847F"/>
<circle cx="1261.5" cy="883.5" r="7.5" transform="rotate(180 1261.5 883.5)" fill="#F27107"/>
<line x1="780.5" y1="2460" x2="780.5" y2="1560" stroke="#B2AAAA"/>
<line x1="64.5" y1="1560" x2="64.5" y2="1869" stroke="#F763A2" stroke-width="7"/>
<line x1="64.5" y1="1869" x2="64.5" y2="2210" stroke="#0C55EF" stroke-width="7"/>
<path d="M64.5 2185V2586H1449" stroke="#FBB20E" stroke-width="7"/>
<circle cx="64.5" cy="1871.5" r="7.5" transform="rotate(180 64.5 1871.5)" fill="#825CC9"/>
<circle cx="64.5" cy="2184.5" r="7.5" transform="rotate(180 64.5 2184.5)" fill="#84847F"/>
<line x1="784.5" y1="2589" x2="784.5" y2="3002" stroke="#F763A2" stroke-width="7"/>
<line x1="1294.5" y1="2589" x2="1294.5" y2="3002" stroke="#38AF33" stroke-width="7"/>
<circle cx="1295.5" cy="2587.5" r="7.5" transform="rotate(180 1295.5 2587.5)" fill="#9AB121"/>
<circle cx="784.5" cy="2586.5" r="7.5" fill="#F98B58"/>
<path d="M1176.77 2643V2637.55H1177.58V2638.4H1177.65C1177.76 2638.11 1177.94 2637.88 1178.2 2637.72C1178.45 2637.56 1178.76 2637.47 1179.11 2637.47C1179.47 2637.47 1179.77 2637.56 1180.01 2637.72C1180.25 2637.88 1180.44 2638.11 1180.57 2638.4H1180.63C1180.77 2638.12 1180.98 2637.89 1181.26 2637.73C1181.54 2637.56 1181.87 2637.47 1182.26 2637.47C1182.75 2637.47 1183.15 2637.63 1183.46 2637.93C1183.77 2638.24 1183.93 2638.71 1183.93 2639.35V2643H1183.09V2639.35C1183.09 2638.95 1182.98 2638.66 1182.76 2638.49C1182.54 2638.31 1182.28 2638.23 1181.98 2638.23C1181.6 2638.23 1181.3 2638.34 1181.09 2638.58C1180.88 2638.8 1180.77 2639.1 1180.77 2639.45V2643H1179.92V2639.26C1179.92 2638.95 1179.82 2638.7 1179.62 2638.51C1179.42 2638.32 1179.16 2638.23 1178.84 2638.23C1178.62 2638.23 1178.42 2638.29 1178.23 2638.4C1178.04 2638.52 1177.89 2638.68 1177.78 2638.88C1177.66 2639.09 1177.61 2639.32 1177.61 2639.59V2643H1176.77ZM1185.46 2643V2637.55H1186.27V2638.4H1186.34C1186.45 2638.11 1186.64 2637.88 1186.89 2637.72C1187.14 2637.56 1187.45 2637.47 1187.8 2637.47C1188.16 2637.47 1188.46 2637.56 1188.7 2637.72C1188.94 2637.88 1189.13 2638.11 1189.27 2638.4H1189.32C1189.46 2638.12 1189.67 2637.89 1189.95 2637.73C1190.23 2637.56 1190.56 2637.47 1190.96 2637.47C1191.44 2637.47 1191.84 2637.63 1192.15 2637.93C1192.46 2638.24 1192.62 2638.71 1192.62 2639.35V2643H1191.78V2639.35C1191.78 2638.95 1191.67 2638.66 1191.45 2638.49C1191.23 2638.31 1190.97 2638.23 1190.67 2638.23C1190.29 2638.23 1189.99 2638.34 1189.78 2638.58C1189.57 2638.8 1189.46 2639.1 1189.46 2639.45V2643H1188.61V2639.26C1188.61 2638.95 1188.51 2638.7 1188.31 2638.51C1188.11 2638.32 1187.85 2638.23 1187.53 2638.23C1187.31 2638.23 1187.11 2638.29 1186.92 2638.4C1186.73 2638.52 1186.58 2638.68 1186.47 2638.88C1186.35 2639.09 1186.3 2639.32 1186.3 2639.59V2643H1185.46ZM1194.15 2643V2637.55H1194.96V2638.4H1195.03C1195.14 2638.11 1195.33 2637.88 1195.58 2637.72C1195.83 2637.56 1196.14 2637.47 1196.49 2637.47C1196.85 2637.47 1197.15 2637.56 1197.39 2637.72C1197.63 2637.88 1197.82 2638.11 1197.96 2638.4H1198.01C1198.15 2638.12 1198.36 2637.89 1198.64 2637.73C1198.92 2637.56 1199.26 2637.47 1199.65 2637.47C1200.13 2637.47 1200.53 2637.63 1200.84 2637.93C1201.15 2638.24 1201.31 2638.71 1201.31 2639.35V2643H1200.47V2639.35C1200.47 2638.95 1200.36 2638.66 1200.14 2638.49C1199.92 2638.31 1199.66 2638.23 1199.36 2638.23C1198.98 2638.23 1198.68 2638.34 1198.47 2638.58C1198.26 2638.8 1198.16 2639.1 1198.16 2639.45V2643H1197.3V2639.26C1197.3 2638.95 1197.2 2638.7 1197 2638.51C1196.8 2638.32 1196.54 2638.23 1196.22 2638.23C1196.01 2638.23 1195.8 2638.29 1195.61 2638.4C1195.43 2638.52 1195.27 2638.68 1195.16 2638.88C1195.04 2639.09 1194.99 2639.32 1194.99 2639.59V2643H1194.15ZM1205.65 2643V2637.55H1206.49V2643H1205.65ZM1206.08 2636.64C1205.92 2636.64 1205.78 2636.58 1205.66 2636.47C1205.54 2636.36 1205.48 2636.22 1205.48 2636.07C1205.48 2635.91 1205.54 2635.78 1205.66 2635.67C1205.78 2635.56 1205.92 2635.5 1206.08 2635.5C1206.24 2635.5 1206.38 2635.56 1206.5 2635.67C1206.62 2635.78 1206.68 2635.91 1206.68 2636.07C1206.68 2636.22 1206.62 2636.36 1206.5 2636.47C1206.38 2636.58 1206.24 2636.64 1206.08 2636.64ZM1210.09 2643.11C1209.63 2643.11 1209.23 2643 1208.88 2642.77C1208.53 2642.54 1208.26 2642.21 1208.07 2641.79C1207.87 2641.37 1207.77 2640.86 1207.77 2640.29C1207.77 2639.71 1207.87 2639.22 1208.07 2638.8C1208.26 2638.37 1208.54 2638.05 1208.89 2637.82C1209.24 2637.59 1209.64 2637.47 1210.1 2637.47C1210.46 2637.47 1210.74 2637.53 1210.94 2637.65C1211.15 2637.77 1211.31 2637.9 1211.42 2638.05C1211.53 2638.2 1211.62 2638.32 1211.68 2638.41H1211.75V2635.73H1212.59V2643H1211.78V2642.16H1211.68C1211.62 2642.26 1211.53 2642.39 1211.41 2642.54C1211.3 2642.69 1211.14 2642.82 1210.93 2642.94C1210.72 2643.06 1210.44 2643.11 1210.09 2643.11ZM1210.2 2642.36C1210.54 2642.36 1210.82 2642.27 1211.05 2642.1C1211.28 2641.92 1211.46 2641.68 1211.58 2641.36C1211.7 2641.05 1211.76 2640.68 1211.76 2640.27C1211.76 2639.87 1211.7 2639.51 1211.59 2639.2C1211.47 2638.9 1211.29 2638.66 1211.06 2638.49C1210.83 2638.31 1210.54 2638.23 1210.2 2638.23C1209.84 2638.23 1209.55 2638.32 1209.31 2638.5C1209.08 2638.68 1208.9 2638.93 1208.78 2639.24C1208.67 2639.54 1208.61 2639.89 1208.61 2640.27C1208.61 2640.66 1208.67 2641.01 1208.79 2641.33C1208.91 2641.65 1209.09 2641.9 1209.32 2642.08C1209.56 2642.27 1209.85 2642.36 1210.2 2642.36ZM1215.02 2641.01L1215 2639.97H1215.18L1217.56 2637.55H1218.6L1216.06 2640.12H1215.98L1215.02 2641.01ZM1214.24 2643V2635.73H1215.08V2643H1214.24ZM1217.7 2643L1215.57 2640.3L1216.17 2639.72L1218.77 2643H1217.7ZM1226.35 2638.77L1225.6 2638.98C1225.55 2638.85 1225.48 2638.73 1225.39 2638.61C1225.3 2638.49 1225.18 2638.39 1225.02 2638.32C1224.87 2638.24 1224.67 2638.2 1224.42 2638.2C1224.09 2638.2 1223.81 2638.28 1223.59 2638.43C1223.37 2638.58 1223.26 2638.77 1223.26 2639.01C1223.26 2639.22 1223.33 2639.38 1223.48 2639.5C1223.64 2639.62 1223.87 2639.72 1224.19 2639.8L1225 2640C1225.49 2640.12 1225.85 2640.3 1226.09 2640.55C1226.33 2640.79 1226.45 2641.1 1226.45 2641.48C1226.45 2641.79 1226.36 2642.07 1226.18 2642.32C1226.01 2642.56 1225.76 2642.76 1225.44 2642.9C1225.12 2643.04 1224.75 2643.11 1224.32 2643.11C1223.77 2643.11 1223.31 2642.99 1222.94 2642.75C1222.58 2642.51 1222.35 2642.16 1222.25 2641.69L1223.04 2641.49C1223.12 2641.79 1223.26 2642.01 1223.47 2642.15C1223.69 2642.3 1223.96 2642.38 1224.31 2642.38C1224.7 2642.38 1225.01 2642.29 1225.24 2642.13C1225.47 2641.96 1225.59 2641.76 1225.59 2641.52C1225.59 2641.33 1225.52 2641.17 1225.39 2641.05C1225.25 2640.92 1225.05 2640.82 1224.78 2640.76L1223.87 2640.54C1223.37 2640.42 1223 2640.24 1222.77 2639.99C1222.53 2639.74 1222.42 2639.43 1222.42 2639.05C1222.42 2638.74 1222.51 2638.47 1222.68 2638.23C1222.85 2638 1223.09 2637.81 1223.39 2637.68C1223.69 2637.54 1224.04 2637.47 1224.42 2637.47C1224.96 2637.47 1225.39 2637.59 1225.69 2637.83C1226 2638.07 1226.22 2638.38 1226.35 2638.77ZM1228.55 2639.72V2643H1227.71V2635.73H1228.55V2638.4H1228.62C1228.75 2638.12 1228.94 2637.89 1229.2 2637.73C1229.46 2637.56 1229.8 2637.47 1230.23 2637.47C1230.6 2637.47 1230.93 2637.55 1231.21 2637.7C1231.48 2637.84 1231.7 2638.07 1231.85 2638.38C1232.01 2638.68 1232.09 2639.07 1232.09 2639.53V2643H1231.25V2639.59C1231.25 2639.16 1231.14 2638.82 1230.91 2638.59C1230.69 2638.35 1230.38 2638.23 1229.99 2638.23C1229.71 2638.23 1229.47 2638.29 1229.25 2638.4C1229.03 2638.52 1228.86 2638.69 1228.74 2638.91C1228.61 2639.13 1228.55 2639.4 1228.55 2639.72ZM1235.91 2643.11C1235.38 2643.11 1234.93 2643 1234.55 2642.77C1234.17 2642.53 1233.88 2642.2 1233.67 2641.79C1233.47 2641.36 1233.37 2640.87 1233.37 2640.32C1233.37 2639.76 1233.47 2639.26 1233.67 2638.84C1233.88 2638.41 1234.16 2638.08 1234.53 2637.84C1234.9 2637.6 1235.33 2637.47 1235.82 2637.47C1236.11 2637.47 1236.39 2637.52 1236.67 2637.62C1236.94 2637.71 1237.19 2637.87 1237.42 2638.08C1237.65 2638.29 1237.83 2638.57 1237.97 2638.92C1238.1 2639.26 1238.17 2639.69 1238.17 2640.2V2640.56H1233.96V2639.83H1237.32C1237.32 2639.52 1237.25 2639.25 1237.13 2639.01C1237.01 2638.77 1236.84 2638.58 1236.61 2638.44C1236.39 2638.3 1236.13 2638.23 1235.82 2638.23C1235.49 2638.23 1235.2 2638.31 1234.96 2638.48C1234.72 2638.64 1234.53 2638.85 1234.4 2639.12C1234.27 2639.38 1234.2 2639.66 1234.2 2639.96V2640.44C1234.2 2640.86 1234.28 2641.2 1234.42 2641.49C1234.56 2641.77 1234.76 2641.99 1235.02 2642.14C1235.27 2642.29 1235.57 2642.36 1235.91 2642.36C1236.13 2642.36 1236.33 2642.33 1236.51 2642.27C1236.69 2642.2 1236.84 2642.11 1236.97 2641.98C1237.1 2641.86 1237.2 2641.7 1237.27 2641.51L1238.08 2641.74C1238 2642.01 1237.85 2642.25 1237.65 2642.46C1237.45 2642.67 1237.2 2642.83 1236.91 2642.94C1236.61 2643.06 1236.28 2643.11 1235.91 2643.11ZM1243.31 2638.77L1242.55 2638.98C1242.51 2638.85 1242.44 2638.73 1242.34 2638.61C1242.25 2638.49 1242.13 2638.39 1241.97 2638.32C1241.82 2638.24 1241.62 2638.2 1241.37 2638.2C1241.04 2638.2 1240.76 2638.28 1240.54 2638.43C1240.32 2638.58 1240.21 2638.77 1240.21 2639.01C1240.21 2639.22 1240.29 2639.38 1240.44 2639.5C1240.59 2639.62 1240.83 2639.72 1241.15 2639.8L1241.96 2640C1242.44 2640.12 1242.81 2640.3 1243.05 2640.55C1243.29 2640.79 1243.41 2641.1 1243.41 2641.48C1243.41 2641.79 1243.32 2642.07 1243.14 2642.32C1242.96 2642.56 1242.71 2642.76 1242.39 2642.9C1242.07 2643.04 1241.7 2643.11 1241.28 2643.11C1240.72 2643.11 1240.26 2642.99 1239.89 2642.75C1239.53 2642.51 1239.3 2642.16 1239.2 2641.69L1240 2641.49C1240.07 2641.79 1240.22 2642.01 1240.43 2642.15C1240.64 2642.3 1240.92 2642.38 1241.26 2642.38C1241.65 2642.38 1241.96 2642.29 1242.19 2642.13C1242.42 2641.96 1242.54 2641.76 1242.54 2641.52C1242.54 2641.33 1242.47 2641.17 1242.34 2641.05C1242.21 2640.92 1242 2640.82 1241.73 2640.76L1240.82 2640.54C1240.32 2640.42 1239.95 2640.24 1239.72 2639.99C1239.49 2639.74 1239.37 2639.43 1239.37 2639.05C1239.37 2638.74 1239.46 2638.47 1239.63 2638.23C1239.81 2638 1240.04 2637.81 1240.34 2637.68C1240.65 2637.54 1240.99 2637.47 1241.37 2637.47C1241.91 2637.47 1242.34 2637.59 1242.65 2637.83C1242.96 2638.07 1243.18 2638.38 1243.31 2638.77ZM1249.7 2643.11C1249.2 2643.11 1248.77 2643 1248.4 2642.76C1248.03 2642.53 1247.74 2642.2 1247.53 2641.78C1247.33 2641.36 1247.22 2640.86 1247.22 2640.3C1247.22 2639.73 1247.33 2639.24 1247.53 2638.81C1247.74 2638.39 1248.03 2638.06 1248.4 2637.83C1248.77 2637.59 1249.2 2637.47 1249.7 2637.47C1250.19 2637.47 1250.62 2637.59 1250.99 2637.83C1251.36 2638.06 1251.65 2638.39 1251.85 2638.81C1252.06 2639.24 1252.17 2639.73 1252.17 2640.3C1252.17 2640.86 1252.06 2641.36 1251.85 2641.78C1251.65 2642.2 1251.36 2642.53 1250.99 2642.76C1250.62 2643 1250.19 2643.11 1249.7 2643.11ZM1249.7 2642.36C1250.07 2642.36 1250.38 2642.26 1250.62 2642.07C1250.86 2641.88 1251.04 2641.63 1251.16 2641.32C1251.27 2641 1251.33 2640.67 1251.33 2640.3C1251.33 2639.94 1251.27 2639.6 1251.16 2639.28C1251.04 2638.97 1250.86 2638.71 1250.62 2638.52C1250.38 2638.32 1250.07 2638.23 1249.7 2638.23C1249.32 2638.23 1249.01 2638.32 1248.77 2638.52C1248.53 2638.71 1248.35 2638.97 1248.24 2639.28C1248.12 2639.6 1248.06 2639.94 1248.06 2640.3C1248.06 2640.67 1248.12 2641 1248.24 2641.32C1248.35 2641.63 1248.53 2641.88 1248.77 2642.07C1249.01 2642.26 1249.32 2642.36 1249.7 2642.36ZM1254.23 2641.01L1254.21 2639.97H1254.38L1256.77 2637.55H1257.81L1255.26 2640.12H1255.19L1254.23 2641.01ZM1253.45 2643V2635.73H1254.28V2643H1253.45ZM1256.91 2643L1254.78 2640.3L1255.38 2639.72L1257.98 2643H1256.91ZM1259.5 2643.06C1259.32 2643.06 1259.17 2642.99 1259.05 2642.87C1258.92 2642.74 1258.86 2642.59 1258.86 2642.42C1258.86 2642.24 1258.92 2642.09 1259.05 2641.97C1259.17 2641.84 1259.32 2641.78 1259.5 2641.78C1259.67 2641.78 1259.82 2641.84 1259.95 2641.97C1260.07 2642.09 1260.14 2642.24 1260.14 2642.42C1260.14 2642.53 1260.11 2642.64 1260.05 2642.74C1259.99 2642.83 1259.91 2642.91 1259.82 2642.97C1259.72 2643.03 1259.62 2643.06 1259.5 2643.06ZM1262.25 2643.06C1262.08 2643.06 1261.93 2642.99 1261.8 2642.87C1261.67 2642.74 1261.61 2642.59 1261.61 2642.42C1261.61 2642.24 1261.67 2642.09 1261.8 2641.97C1261.93 2641.84 1262.08 2641.78 1262.25 2641.78C1262.43 2641.78 1262.58 2641.84 1262.7 2641.97C1262.83 2642.09 1262.89 2642.24 1262.89 2642.42C1262.89 2642.53 1262.86 2642.64 1262.8 2642.74C1262.74 2642.83 1262.67 2642.91 1262.57 2642.97C1262.48 2643.03 1262.37 2643.06 1262.25 2643.06Z" fill="black"/>
<path d="M1278.58 2606.1C1278.59 2605.55 1278.15 2605.09 1277.6 2605.08L1268.6 2604.93C1268.05 2604.92 1267.59 2605.36 1267.58 2605.91C1267.57 2606.47 1268.01 2606.92 1268.56 2606.93L1276.56 2607.07L1276.43 2615.06C1276.42 2615.62 1276.86 2616.07 1277.41 2616.08C1277.96 2616.09 1278.42 2615.65 1278.43 2615.1L1278.58 2606.1ZM1259 2624.04L1259.7 2624.76L1278.28 2606.8L1277.58 2606.08L1276.89 2605.36L1258.31 2623.32L1259 2624.04Z" fill="black"/>
<path d="M1290 945L1288.34 939.545H1289.22L1290.4 943.722H1290.46L1291.62 939.545H1292.52L1293.67 943.707H1293.72L1294.9 939.545H1295.78L1294.12 945H1293.3L1292.11 940.81H1292.02L1290.83 945H1290ZM1297.73 941.719V945H1296.89V937.727H1297.73V940.398H1297.8C1297.93 940.116 1298.12 939.892 1298.38 939.727C1298.63 939.558 1298.98 939.474 1299.41 939.474C1299.78 939.474 1300.1 939.549 1300.38 939.698C1300.66 939.845 1300.88 940.071 1301.03 940.376C1301.19 940.679 1301.27 941.065 1301.27 941.534V945H1300.43V941.591C1300.43 941.158 1300.32 940.823 1300.09 940.586C1299.87 940.347 1299.56 940.227 1299.16 940.227C1298.89 940.227 1298.64 940.285 1298.43 940.401C1298.21 940.517 1298.04 940.687 1297.91 940.909C1297.79 941.132 1297.73 941.402 1297.73 941.719ZM1304.41 945.128C1304.06 945.128 1303.75 945.063 1303.46 944.933C1303.18 944.8 1302.96 944.609 1302.79 944.361C1302.63 944.11 1302.54 943.807 1302.54 943.452C1302.54 943.139 1302.61 942.886 1302.73 942.692C1302.85 942.495 1303.02 942.341 1303.22 942.23C1303.43 942.119 1303.66 942.036 1303.9 941.982C1304.16 941.925 1304.41 941.88 1304.66 941.847C1304.99 941.804 1305.26 941.772 1305.47 941.751C1305.68 941.727 1305.83 941.688 1305.92 941.634C1306.02 941.579 1306.07 941.484 1306.07 941.349V941.321C1306.07 940.971 1305.97 940.698 1305.78 940.504C1305.59 940.31 1305.3 940.213 1304.92 940.213C1304.52 940.213 1304.2 940.301 1303.98 940.476C1303.75 940.651 1303.59 940.838 1303.5 941.037L1302.7 940.753C1302.84 940.421 1303.03 940.163 1303.27 939.979C1303.51 939.792 1303.77 939.661 1304.05 939.588C1304.33 939.512 1304.61 939.474 1304.89 939.474C1305.06 939.474 1305.26 939.496 1305.49 939.538C1305.72 939.579 1305.94 939.663 1306.16 939.79C1306.37 939.918 1306.55 940.111 1306.69 940.369C1306.83 940.627 1306.91 940.973 1306.91 941.406V945H1306.07V944.261H1306.02C1305.97 944.38 1305.87 944.506 1305.74 944.641C1305.61 944.776 1305.43 944.891 1305.21 944.986C1304.99 945.08 1304.72 945.128 1304.41 945.128ZM1304.53 944.375C1304.86 944.375 1305.14 944.31 1305.37 944.18C1305.6 944.049 1305.77 943.881 1305.89 943.675C1306.01 943.469 1306.07 943.253 1306.07 943.026V942.259C1306.03 942.301 1305.95 942.34 1305.83 942.376C1305.71 942.409 1305.58 942.438 1305.42 942.464C1305.27 942.488 1305.12 942.509 1304.97 942.528C1304.83 942.545 1304.71 942.559 1304.62 942.571C1304.4 942.599 1304.2 942.646 1304.01 942.71C1303.82 942.771 1303.67 942.865 1303.55 942.99C1303.44 943.113 1303.38 943.281 1303.38 943.494C1303.38 943.786 1303.49 944.006 1303.71 944.155C1303.92 944.302 1304.2 944.375 1304.53 944.375ZM1310.81 939.545V940.256H1307.98V939.545H1310.81ZM1308.8 938.239H1309.64V943.438C1309.64 943.674 1309.68 943.852 1309.75 943.97C1309.82 944.086 1309.91 944.164 1310.02 944.205C1310.13 944.242 1310.24 944.261 1310.37 944.261C1310.46 944.261 1310.53 944.257 1310.59 944.247C1310.65 944.235 1310.7 944.226 1310.74 944.219L1310.91 944.972C1310.85 944.993 1310.77 945.014 1310.67 945.036C1310.57 945.059 1310.44 945.071 1310.28 945.071C1310.04 945.071 1309.81 945.02 1309.59 944.918C1309.36 944.817 1309.17 944.661 1309.02 944.453C1308.88 944.245 1308.8 943.982 1308.8 943.665V938.239ZM1316.49 945.128C1316.14 945.128 1315.83 945.063 1315.54 944.933C1315.26 944.8 1315.04 944.609 1314.87 944.361C1314.71 944.11 1314.62 943.807 1314.62 943.452C1314.62 943.139 1314.69 942.886 1314.81 942.692C1314.93 942.495 1315.1 942.341 1315.3 942.23C1315.51 942.119 1315.74 942.036 1315.98 941.982C1316.24 941.925 1316.49 941.88 1316.74 941.847C1317.07 941.804 1317.34 941.772 1317.55 941.751C1317.76 941.727 1317.91 941.688 1318 941.634C1318.1 941.579 1318.15 941.484 1318.15 941.349V941.321C1318.15 940.971 1318.05 940.698 1317.86 940.504C1317.67 940.31 1317.38 940.213 1317 940.213C1316.6 940.213 1316.28 940.301 1316.06 940.476C1315.83 940.651 1315.67 940.838 1315.58 941.037L1314.78 940.753C1314.92 940.421 1315.11 940.163 1315.35 939.979C1315.59 939.792 1315.85 939.661 1316.13 939.588C1316.41 939.512 1316.69 939.474 1316.97 939.474C1317.14 939.474 1317.34 939.496 1317.57 939.538C1317.8 939.579 1318.02 939.663 1318.24 939.79C1318.45 939.918 1318.63 940.111 1318.77 940.369C1318.91 940.627 1318.99 940.973 1318.99 941.406V945H1318.15V944.261H1318.1C1318.05 944.38 1317.95 944.506 1317.82 944.641C1317.69 944.776 1317.51 944.891 1317.29 944.986C1317.07 945.08 1316.8 945.128 1316.49 945.128ZM1316.61 944.375C1316.94 944.375 1317.22 944.31 1317.45 944.18C1317.68 944.049 1317.85 943.881 1317.97 943.675C1318.09 943.469 1318.15 943.253 1318.15 943.026V942.259C1318.11 942.301 1318.03 942.34 1317.91 942.376C1317.79 942.409 1317.66 942.438 1317.5 942.464C1317.35 942.488 1317.2 942.509 1317.05 942.528C1316.91 942.545 1316.79 942.559 1316.7 942.571C1316.48 942.599 1316.28 942.646 1316.09 942.71C1315.9 942.771 1315.75 942.865 1315.63 942.99C1315.52 943.113 1315.46 943.281 1315.46 943.494C1315.46 943.786 1315.57 944.006 1315.79 944.155C1316 944.302 1316.28 944.375 1316.61 944.375ZM1324.17 941.719V945H1323.33V939.545H1324.14V940.398H1324.21C1324.34 940.121 1324.53 939.898 1324.79 939.73C1325.05 939.56 1325.39 939.474 1325.8 939.474C1326.17 939.474 1326.49 939.55 1326.77 939.702C1327.05 939.851 1327.26 940.078 1327.41 940.384C1327.57 940.687 1327.65 941.07 1327.65 941.534V945H1326.81V941.591C1326.81 941.162 1326.7 940.829 1326.47 940.589C1326.25 940.348 1325.95 940.227 1325.56 940.227C1325.29 940.227 1325.05 940.285 1324.84 940.401C1324.63 940.517 1324.47 940.687 1324.35 940.909C1324.23 941.132 1324.17 941.402 1324.17 941.719ZM1329.18 945V939.545H1330.02V945H1329.18ZM1329.6 938.636C1329.44 938.636 1329.3 938.581 1329.18 938.469C1329.06 938.358 1329.01 938.224 1329.01 938.068C1329.01 937.912 1329.06 937.778 1329.18 937.667C1329.3 937.556 1329.44 937.5 1329.6 937.5C1329.77 937.5 1329.91 937.556 1330.02 937.667C1330.14 937.778 1330.2 937.912 1330.2 938.068C1330.2 938.224 1330.14 938.358 1330.02 938.469C1329.91 938.581 1329.77 938.636 1329.6 938.636ZM1333.75 947.159C1333.35 947.159 1333 947.107 1332.71 947.003C1332.42 946.901 1332.17 946.766 1331.98 946.598C1331.79 946.432 1331.64 946.255 1331.52 946.065L1332.19 945.597C1332.27 945.696 1332.36 945.81 1332.48 945.938C1332.59 946.068 1332.75 946.18 1332.95 946.275C1333.16 946.372 1333.42 946.42 1333.75 946.42C1334.19 946.42 1334.56 946.314 1334.84 946.101C1335.13 945.888 1335.27 945.554 1335.27 945.099V943.991H1335.2C1335.14 944.091 1335.05 944.214 1334.94 944.361C1334.83 944.505 1334.67 944.634 1334.46 944.748C1334.25 944.859 1333.97 944.915 1333.61 944.915C1333.17 944.915 1332.77 944.811 1332.42 944.602C1332.08 944.394 1331.8 944.091 1331.6 943.693C1331.4 943.295 1331.29 942.812 1331.29 942.244C1331.29 941.686 1331.39 941.199 1331.59 940.785C1331.79 940.368 1332.06 940.046 1332.41 939.819C1332.76 939.589 1333.16 939.474 1333.62 939.474C1333.98 939.474 1334.26 939.534 1334.47 939.652C1334.68 939.768 1334.84 939.901 1334.95 940.05C1335.07 940.196 1335.15 940.317 1335.22 940.412H1335.3V939.545H1336.11V945.156C1336.11 945.625 1336 946.006 1335.79 946.3C1335.58 946.596 1335.3 946.812 1334.94 946.95C1334.58 947.089 1334.19 947.159 1333.75 947.159ZM1333.72 944.162C1334.06 944.162 1334.34 944.085 1334.58 943.931C1334.81 943.777 1334.98 943.556 1335.1 943.267C1335.23 942.978 1335.29 942.633 1335.29 942.23C1335.29 941.837 1335.23 941.49 1335.11 941.19C1334.99 940.889 1334.81 940.653 1334.58 940.483C1334.35 940.312 1334.06 940.227 1333.72 940.227C1333.37 940.227 1333.07 940.317 1332.84 940.497C1332.6 940.677 1332.43 940.919 1332.31 941.222C1332.19 941.525 1332.13 941.861 1332.13 942.23C1332.13 942.609 1332.19 942.944 1332.31 943.235C1332.43 943.524 1332.61 943.751 1332.84 943.917C1333.08 944.08 1333.37 944.162 1333.72 944.162ZM1338.48 941.719V945H1337.64V937.727H1338.48V940.398H1338.55C1338.68 940.116 1338.87 939.892 1339.13 939.727C1339.39 939.558 1339.73 939.474 1340.16 939.474C1340.53 939.474 1340.86 939.549 1341.13 939.698C1341.41 939.845 1341.63 940.071 1341.78 940.376C1341.94 940.679 1342.02 941.065 1342.02 941.534V945H1341.18V941.591C1341.18 941.158 1341.07 940.823 1340.84 940.586C1340.62 940.347 1340.31 940.227 1339.92 940.227C1339.64 940.227 1339.4 940.285 1339.18 940.401C1338.96 940.517 1338.79 940.687 1338.67 940.909C1338.54 941.132 1338.48 941.402 1338.48 941.719ZM1345.92 939.545V940.256H1343.1V939.545H1345.92ZM1343.92 938.239H1344.76V943.438C1344.76 943.674 1344.79 943.852 1344.86 943.97C1344.93 944.086 1345.02 944.164 1345.13 944.205C1345.24 944.242 1345.36 944.261 1345.48 944.261C1345.58 944.261 1345.65 944.257 1345.71 944.247C1345.77 944.235 1345.82 944.226 1345.85 944.219L1346.02 944.972C1345.97 944.993 1345.89 945.014 1345.79 945.036C1345.68 945.059 1345.56 945.071 1345.4 945.071C1345.16 945.071 1344.93 945.02 1344.7 944.918C1344.48 944.817 1344.29 944.661 1344.14 944.453C1343.99 944.245 1343.92 943.982 1343.92 943.665V938.239ZM1351.6 945.128C1351.26 945.128 1350.94 945.063 1350.66 944.933C1350.38 944.8 1350.16 944.609 1349.99 944.361C1349.82 944.11 1349.74 943.807 1349.74 943.452C1349.74 943.139 1349.8 942.886 1349.93 942.692C1350.05 942.495 1350.21 942.341 1350.42 942.23C1350.63 942.119 1350.85 942.036 1351.1 941.982C1351.35 941.925 1351.6 941.88 1351.86 941.847C1352.19 941.804 1352.46 941.772 1352.66 941.751C1352.87 941.727 1353.02 941.688 1353.12 941.634C1353.22 941.579 1353.26 941.484 1353.26 941.349V941.321C1353.26 940.971 1353.17 940.698 1352.98 940.504C1352.79 940.31 1352.5 940.213 1352.11 940.213C1351.71 940.213 1351.4 940.301 1351.17 940.476C1350.95 940.651 1350.79 940.838 1350.69 941.037L1349.9 940.753C1350.04 940.421 1350.23 940.163 1350.47 939.979C1350.71 939.792 1350.97 939.661 1351.25 939.588C1351.53 939.512 1351.81 939.474 1352.09 939.474C1352.26 939.474 1352.46 939.496 1352.69 939.538C1352.92 939.579 1353.14 939.663 1353.35 939.79C1353.57 939.918 1353.75 940.111 1353.89 940.369C1354.03 940.627 1354.1 940.973 1354.1 941.406V945H1353.26V944.261H1353.22C1353.17 944.38 1353.07 944.506 1352.94 944.641C1352.81 944.776 1352.63 944.891 1352.41 944.986C1352.19 945.08 1351.92 945.128 1351.6 945.128ZM1351.73 944.375C1352.06 944.375 1352.34 944.31 1352.57 944.18C1352.8 944.049 1352.97 943.881 1353.09 943.675C1353.21 943.469 1353.26 943.253 1353.26 943.026V942.259C1353.23 942.301 1353.15 942.34 1353.03 942.376C1352.91 942.409 1352.77 942.438 1352.62 942.464C1352.46 942.488 1352.31 942.509 1352.17 942.528C1352.02 942.545 1351.91 942.559 1351.82 942.571C1351.6 942.599 1351.39 942.646 1351.2 942.71C1351.02 942.771 1350.87 942.865 1350.75 942.99C1350.64 943.113 1350.58 943.281 1350.58 943.494C1350.58 943.786 1350.69 944.006 1350.9 944.155C1351.12 944.302 1351.4 944.375 1351.73 944.375ZM1356.47 941.719V945H1355.63V937.727H1356.47V940.398H1356.54C1356.67 940.116 1356.86 939.892 1357.12 939.727C1357.37 939.558 1357.72 939.474 1358.15 939.474C1358.52 939.474 1358.84 939.549 1359.12 939.698C1359.4 939.845 1359.62 940.071 1359.77 940.376C1359.93 940.679 1360.01 941.065 1360.01 941.534V945H1359.17V941.591C1359.17 941.158 1359.06 940.823 1358.83 940.586C1358.61 940.347 1358.3 940.227 1357.91 940.227C1357.63 940.227 1357.38 940.285 1357.17 940.401C1356.95 940.517 1356.78 940.687 1356.66 940.909C1356.53 941.132 1356.47 941.402 1356.47 941.719Z" fill="black"/>
<path d="M1279.08 905.003C1278.53 904.961 1278.05 905.373 1278 905.923L1277.31 914.897C1277.27 915.447 1277.68 915.928 1278.23 915.971C1278.78 916.013 1279.26 915.601 1279.31 915.05L1279.92 907.074L1287.9 907.687C1288.45 907.73 1288.93 907.318 1288.97 906.767C1289.01 906.216 1288.6 905.736 1288.05 905.693L1279.08 905.003ZM1297 927L1297.76 926.349L1279.76 905.349L1279 906L1278.24 906.651L1296.24 927.651L1297 927Z" fill="black"/>
<path d="M80.767 2572V2566.55H81.6051V2572H80.767ZM81.1932 2565.64C81.0298 2565.64 80.889 2565.58 80.7706 2565.47C80.6546 2565.36 80.5966 2565.22 80.5966 2565.07C80.5966 2564.91 80.6546 2564.78 80.7706 2564.67C80.889 2564.56 81.0298 2564.5 81.1932 2564.5C81.3565 2564.5 81.4962 2564.56 81.6122 2564.67C81.7306 2564.78 81.7898 2564.91 81.7898 2565.07C81.7898 2565.22 81.7306 2565.36 81.6122 2565.47C81.4962 2565.58 81.3565 2565.64 81.1932 2565.64ZM88.3248 2566.55V2567.26H85.498V2566.55H88.3248ZM86.3219 2565.24H87.16V2570.44C87.16 2570.67 87.1943 2570.85 87.263 2570.97C87.334 2571.09 87.4239 2571.16 87.5328 2571.2C87.6441 2571.24 87.7613 2571.26 87.8844 2571.26C87.9767 2571.26 88.0525 2571.26 88.1117 2571.25C88.1709 2571.24 88.2182 2571.23 88.2537 2571.22L88.4242 2571.97C88.3674 2571.99 88.2881 2572.01 88.1863 2572.04C88.0845 2572.06 87.9554 2572.07 87.7992 2572.07C87.5624 2572.07 87.3304 2572.02 87.1032 2571.92C86.8783 2571.82 86.6912 2571.66 86.5421 2571.45C86.3953 2571.24 86.3219 2570.98 86.3219 2570.66V2565.24ZM90.5407 2568.72V2572H89.7026V2564.73H90.5407V2567.4H90.6117C90.7395 2567.12 90.9313 2566.89 91.187 2566.73C91.445 2566.56 91.7883 2566.47 92.2168 2566.47C92.5885 2566.47 92.914 2566.55 93.1934 2566.7C93.4727 2566.84 93.6893 2567.07 93.8432 2567.38C93.9995 2567.68 94.0776 2568.07 94.0776 2568.53V2572H93.2395V2568.59C93.2395 2568.16 93.1271 2567.82 92.9022 2567.59C92.6796 2567.35 92.3707 2567.23 91.9753 2567.23C91.7007 2567.23 91.4545 2567.29 91.2367 2567.4C91.0212 2567.52 90.8508 2567.69 90.7253 2567.91C90.6022 2568.13 90.5407 2568.4 90.5407 2568.72ZM95.6108 2572V2566.55H96.4489V2572H95.6108ZM96.0369 2565.64C95.8736 2565.64 95.7327 2565.58 95.6143 2565.47C95.4983 2565.36 95.4403 2565.22 95.4403 2565.07C95.4403 2564.91 95.4983 2564.78 95.6143 2564.67C95.7327 2564.56 95.8736 2564.5 96.0369 2564.5C96.2003 2564.5 96.34 2564.56 96.456 2564.67C96.5743 2564.78 96.6335 2564.91 96.6335 2565.07C96.6335 2565.22 96.5743 2565.36 96.456 2565.47C96.34 2565.58 96.2003 2565.64 96.0369 2565.64ZM98.8219 2568.72V2572H97.9838V2566.55H98.7935V2567.4H98.8645C98.9924 2567.12 99.1865 2566.9 99.4469 2566.73C99.7073 2566.56 100.044 2566.47 100.455 2566.47C100.825 2566.47 101.148 2566.55 101.425 2566.7C101.702 2566.85 101.917 2567.08 102.071 2567.38C102.225 2567.69 102.302 2568.07 102.302 2568.53V2572H101.464V2568.59C101.464 2568.16 101.353 2567.83 101.13 2567.59C100.908 2567.35 100.602 2567.23 100.214 2567.23C99.9464 2567.23 99.7073 2567.29 99.4966 2567.4C99.2883 2567.52 99.1238 2567.69 99.003 2567.91C98.8823 2568.13 98.8219 2568.4 98.8219 2568.72ZM104.615 2570.01L104.6 2568.97H104.771L107.157 2566.55H108.194L105.652 2569.12H105.581L104.615 2570.01ZM103.833 2572V2564.73H104.672V2572H103.833ZM107.299 2572L105.169 2569.3L105.765 2568.72L108.365 2572H107.299ZM112.923 2568.72V2572H112.085V2564.73H112.923V2567.4H112.994C113.122 2567.12 113.314 2566.89 113.57 2566.73C113.828 2566.56 114.171 2566.47 114.6 2566.47C114.971 2566.47 115.297 2566.55 115.576 2566.7C115.856 2566.84 116.072 2567.07 116.226 2567.38C116.382 2567.68 116.46 2568.07 116.46 2568.53V2572H115.622V2568.59C115.622 2568.16 115.51 2567.82 115.285 2567.59C115.062 2567.35 114.753 2567.23 114.358 2567.23C114.084 2567.23 113.837 2567.29 113.619 2567.4C113.404 2567.52 113.234 2567.69 113.108 2567.91C112.985 2568.13 112.923 2568.4 112.923 2568.72ZM120.281 2572.11C119.755 2572.11 119.302 2572 118.92 2571.77C118.542 2571.53 118.249 2571.2 118.043 2570.79C117.84 2570.36 117.738 2569.87 117.738 2569.32C117.738 2568.76 117.84 2568.26 118.043 2567.84C118.249 2567.41 118.536 2567.08 118.903 2566.84C119.272 2566.6 119.703 2566.47 120.195 2566.47C120.479 2566.47 120.76 2566.52 121.037 2566.62C121.314 2566.71 121.566 2566.87 121.793 2567.08C122.021 2567.29 122.202 2567.57 122.337 2567.92C122.472 2568.26 122.539 2568.69 122.539 2569.2V2569.56H118.335V2568.83H121.687C121.687 2568.52 121.625 2568.25 121.502 2568.01C121.381 2567.77 121.209 2567.58 120.984 2567.44C120.761 2567.3 120.498 2567.23 120.195 2567.23C119.862 2567.23 119.573 2567.31 119.329 2567.48C119.087 2567.64 118.902 2567.85 118.771 2568.12C118.641 2568.38 118.576 2568.66 118.576 2568.96V2569.44C118.576 2569.86 118.647 2570.2 118.789 2570.49C118.933 2570.77 119.134 2570.99 119.389 2571.14C119.645 2571.29 119.942 2571.36 120.281 2571.36C120.501 2571.36 120.7 2571.33 120.877 2571.27C121.057 2571.2 121.212 2571.11 121.342 2570.98C121.473 2570.86 121.573 2570.7 121.644 2570.51L122.454 2570.74C122.369 2571.01 122.225 2571.25 122.024 2571.46C121.823 2571.67 121.574 2571.83 121.278 2571.94C120.982 2572.06 120.65 2572.11 120.281 2572.11ZM127.464 2564.73V2572H126.626V2564.73H127.464ZM128.999 2572V2566.55H129.838V2572H128.999ZM129.426 2565.64C129.262 2565.64 129.121 2565.58 129.003 2565.47C128.887 2565.36 128.829 2565.22 128.829 2565.07C128.829 2564.91 128.887 2564.78 129.003 2564.67C129.121 2564.56 129.262 2564.5 129.426 2564.5C129.589 2564.5 129.729 2564.56 129.845 2564.67C129.963 2564.78 130.022 2564.91 130.022 2565.07C130.022 2565.22 129.963 2565.36 129.845 2565.47C129.729 2565.58 129.589 2565.64 129.426 2565.64ZM132.154 2570.01L132.14 2568.97H132.31L134.696 2566.55H135.733L133.191 2569.12H133.12L132.154 2570.01ZM131.373 2572V2564.73H132.211V2572H131.373ZM134.838 2572L132.708 2569.3L133.304 2568.72L135.904 2572H134.838ZM138.874 2572.11C138.349 2572.11 137.895 2572 137.514 2571.77C137.135 2571.53 136.843 2571.2 136.637 2570.79C136.433 2570.36 136.332 2569.87 136.332 2569.32C136.332 2568.76 136.433 2568.26 136.637 2567.84C136.843 2567.41 137.129 2567.08 137.496 2566.84C137.866 2566.6 138.297 2566.47 138.789 2566.47C139.073 2566.47 139.354 2566.52 139.631 2566.62C139.908 2566.71 140.16 2566.87 140.387 2567.08C140.614 2567.29 140.795 2567.57 140.93 2567.92C141.065 2568.26 141.133 2568.69 141.133 2569.2V2569.56H136.928V2568.83H140.281C140.281 2568.52 140.219 2568.25 140.096 2568.01C139.975 2567.77 139.802 2567.58 139.577 2567.44C139.355 2567.3 139.092 2567.23 138.789 2567.23C138.455 2567.23 138.166 2567.31 137.923 2567.48C137.681 2567.64 137.495 2567.85 137.365 2568.12C137.235 2568.38 137.17 2568.66 137.17 2568.96V2569.44C137.17 2569.86 137.241 2570.2 137.383 2570.49C137.527 2570.77 137.727 2570.99 137.983 2571.14C138.239 2571.29 138.536 2571.36 138.874 2571.36C139.094 2571.36 139.293 2571.33 139.471 2571.27C139.651 2571.2 139.806 2571.11 139.936 2570.98C140.066 2570.86 140.167 2570.7 140.238 2570.51L141.048 2570.74C140.962 2571.01 140.819 2571.25 140.618 2571.46C140.417 2571.67 140.168 2571.83 139.872 2571.94C139.576 2572.06 139.244 2572.11 138.874 2572.11ZM146.271 2567.77L145.518 2567.98C145.471 2567.85 145.401 2567.73 145.309 2567.61C145.219 2567.49 145.096 2567.39 144.94 2567.32C144.783 2567.24 144.583 2567.2 144.339 2567.2C144.006 2567.2 143.728 2567.28 143.505 2567.43C143.285 2567.58 143.175 2567.77 143.175 2568.01C143.175 2568.22 143.25 2568.38 143.402 2568.5C143.554 2568.62 143.79 2568.72 144.112 2568.8L144.922 2569C145.41 2569.12 145.773 2569.3 146.012 2569.55C146.251 2569.79 146.371 2570.1 146.371 2570.48C146.371 2570.79 146.281 2571.07 146.101 2571.32C145.923 2571.56 145.675 2571.76 145.355 2571.9C145.036 2572.04 144.664 2572.11 144.24 2572.11C143.684 2572.11 143.223 2571.99 142.859 2571.75C142.494 2571.51 142.263 2571.16 142.166 2570.69L142.962 2570.49C143.037 2570.79 143.181 2571.01 143.391 2571.15C143.604 2571.3 143.883 2571.38 144.226 2571.38C144.616 2571.38 144.927 2571.29 145.156 2571.13C145.388 2570.96 145.504 2570.76 145.504 2570.52C145.504 2570.33 145.438 2570.17 145.305 2570.05C145.173 2569.92 144.969 2569.82 144.695 2569.76L143.786 2569.54C143.286 2569.42 142.919 2569.24 142.685 2568.99C142.453 2568.74 142.337 2568.43 142.337 2568.05C142.337 2567.74 142.423 2567.47 142.596 2567.23C142.771 2567 143.009 2566.81 143.31 2566.68C143.613 2566.54 143.956 2566.47 144.339 2566.47C144.879 2566.47 145.303 2566.59 145.611 2566.83C145.921 2567.07 146.141 2567.38 146.271 2567.77ZM150.445 2572V2566.55H151.254V2567.4H151.325C151.439 2567.11 151.623 2566.88 151.876 2566.72C152.129 2566.56 152.433 2566.47 152.789 2566.47C153.148 2566.47 153.448 2566.56 153.687 2566.72C153.928 2566.88 154.117 2567.11 154.252 2567.4H154.308C154.448 2567.12 154.658 2566.89 154.937 2566.73C155.216 2566.56 155.551 2566.47 155.942 2566.47C156.43 2566.47 156.829 2566.63 157.139 2566.93C157.449 2567.24 157.604 2567.71 157.604 2568.35V2572H156.766V2568.35C156.766 2567.95 156.656 2567.66 156.436 2567.49C156.215 2567.31 155.956 2567.23 155.658 2567.23C155.274 2567.23 154.977 2567.34 154.767 2567.58C154.556 2567.8 154.45 2568.1 154.45 2568.45V2572H153.598V2568.26C153.598 2567.95 153.498 2567.7 153.296 2567.51C153.095 2567.32 152.836 2567.23 152.519 2567.23C152.301 2567.23 152.097 2567.29 151.908 2567.4C151.721 2567.52 151.569 2567.68 151.453 2567.88C151.34 2568.09 151.283 2568.32 151.283 2568.59V2572H150.445ZM161.423 2572.11C160.898 2572.11 160.444 2572 160.063 2571.77C159.684 2571.53 159.392 2571.2 159.186 2570.79C158.982 2570.36 158.881 2569.87 158.881 2569.32C158.881 2568.76 158.982 2568.26 159.186 2567.84C159.392 2567.41 159.678 2567.08 160.045 2566.84C160.415 2566.6 160.845 2566.47 161.338 2566.47C161.622 2566.47 161.903 2566.52 162.18 2566.62C162.456 2566.71 162.709 2566.87 162.936 2567.08C163.163 2567.29 163.344 2567.57 163.479 2567.92C163.614 2568.26 163.682 2568.69 163.682 2569.2V2569.56H159.477V2568.83H162.829C162.829 2568.52 162.768 2568.25 162.645 2568.01C162.524 2567.77 162.351 2567.58 162.126 2567.44C161.904 2567.3 161.641 2567.23 161.338 2567.23C161.004 2567.23 160.715 2567.31 160.471 2567.48C160.23 2567.64 160.044 2567.85 159.914 2568.12C159.784 2568.38 159.719 2568.66 159.719 2568.96V2569.44C159.719 2569.86 159.79 2570.2 159.932 2570.49C160.076 2570.77 160.276 2570.99 160.532 2571.14C160.787 2571.29 161.085 2571.36 161.423 2571.36C161.643 2571.36 161.842 2571.33 162.02 2571.27C162.2 2571.2 162.355 2571.11 162.485 2570.98C162.615 2570.86 162.716 2570.7 162.787 2570.51L163.596 2570.74C163.511 2571.01 163.368 2571.25 163.167 2571.46C162.965 2571.67 162.717 2571.83 162.421 2571.94C162.125 2572.06 161.792 2572.11 161.423 2572.11Z" fill="black"/>
<path d="M1210.63 708.767L1209.88 708.98C1209.83 708.855 1209.76 708.733 1209.67 708.614C1209.58 708.494 1209.46 708.394 1209.3 708.316C1209.14 708.238 1208.94 708.199 1208.7 708.199C1208.37 708.199 1208.09 708.276 1207.86 708.43C1207.64 708.581 1207.53 708.774 1207.53 709.009C1207.53 709.217 1207.61 709.381 1207.76 709.502C1207.91 709.623 1208.15 709.723 1208.47 709.804L1209.28 710.003C1209.77 710.121 1210.13 710.302 1210.37 710.546C1210.61 710.788 1210.73 711.099 1210.73 711.48C1210.73 711.793 1210.64 712.072 1210.46 712.318C1210.28 712.564 1210.03 712.759 1209.71 712.901C1209.39 713.043 1209.02 713.114 1208.6 713.114C1208.04 713.114 1207.58 712.993 1207.22 712.751C1206.85 712.51 1206.62 712.157 1206.53 711.693L1207.32 711.494C1207.4 711.788 1207.54 712.008 1207.75 712.155C1207.96 712.302 1208.24 712.375 1208.59 712.375C1208.98 712.375 1209.29 712.292 1209.52 712.126C1209.75 711.958 1209.86 711.757 1209.86 711.523C1209.86 711.333 1209.8 711.175 1209.66 711.047C1209.53 710.917 1209.33 710.82 1209.05 710.756L1208.14 710.543C1207.65 710.424 1207.28 710.241 1207.04 709.992C1206.81 709.741 1206.7 709.428 1206.7 709.051C1206.7 708.743 1206.78 708.471 1206.96 708.234C1207.13 707.998 1207.37 707.812 1207.67 707.677C1207.97 707.542 1208.32 707.474 1208.7 707.474C1209.24 707.474 1209.66 707.593 1209.97 707.83C1210.28 708.066 1210.5 708.379 1210.63 708.767ZM1212.83 709.719V713H1211.99V705.727H1212.83V708.398H1212.9C1213.03 708.116 1213.22 707.892 1213.48 707.727C1213.73 707.558 1214.08 707.474 1214.51 707.474C1214.88 707.474 1215.2 707.549 1215.48 707.698C1215.76 707.845 1215.98 708.071 1216.13 708.376C1216.29 708.679 1216.37 709.065 1216.37 709.534V713H1215.53V709.591C1215.53 709.158 1215.42 708.823 1215.19 708.586C1214.97 708.347 1214.66 708.227 1214.26 708.227C1213.99 708.227 1213.74 708.285 1213.53 708.401C1213.31 708.517 1213.14 708.687 1213.01 708.909C1212.89 709.132 1212.83 709.402 1212.83 709.719ZM1220.12 713.114C1219.62 713.114 1219.19 712.996 1218.82 712.762C1218.45 712.528 1218.16 712.2 1217.95 711.778C1217.75 711.357 1217.64 710.865 1217.64 710.301C1217.64 709.733 1217.75 709.237 1217.95 708.813C1218.16 708.389 1218.45 708.06 1218.82 707.826C1219.19 707.592 1219.62 707.474 1220.12 707.474C1220.61 707.474 1221.04 707.592 1221.41 707.826C1221.78 708.06 1222.07 708.389 1222.27 708.813C1222.48 709.237 1222.59 709.733 1222.59 710.301C1222.59 710.865 1222.48 711.357 1222.27 711.778C1222.07 712.2 1221.78 712.528 1221.41 712.762C1221.04 712.996 1220.61 713.114 1220.12 713.114ZM1220.12 712.361C1220.49 712.361 1220.8 712.265 1221.04 712.073C1221.28 711.881 1221.46 711.629 1221.58 711.317C1221.69 711.004 1221.75 710.666 1221.75 710.301C1221.75 709.937 1221.69 709.597 1221.58 709.282C1221.46 708.967 1221.28 708.713 1221.04 708.518C1220.8 708.324 1220.49 708.227 1220.12 708.227C1219.74 708.227 1219.43 708.324 1219.19 708.518C1218.95 708.713 1218.77 708.967 1218.66 709.282C1218.54 709.597 1218.48 709.937 1218.48 710.301C1218.48 710.666 1218.54 711.004 1218.66 711.317C1218.77 711.629 1218.95 711.881 1219.19 712.073C1219.43 712.265 1219.74 712.361 1220.12 712.361ZM1227.3 710.77V707.545H1228.14V713H1227.3V712.077H1227.25C1227.12 712.354 1226.92 712.589 1226.65 712.783C1226.38 712.975 1226.04 713.071 1225.63 713.071C1225.29 713.071 1224.98 712.996 1224.72 712.847C1224.45 712.696 1224.25 712.469 1224.09 712.165C1223.94 711.86 1223.87 711.475 1223.87 711.011V707.545H1224.7V710.955C1224.7 711.352 1224.82 711.67 1225.04 711.906C1225.26 712.143 1225.55 712.261 1225.9 712.261C1226.11 712.261 1226.32 712.208 1226.53 712.102C1226.75 711.995 1226.93 711.832 1227.08 711.612C1227.23 711.391 1227.3 711.111 1227.3 710.77ZM1230.52 705.727V713H1229.68V705.727H1230.52ZM1234.11 713.114C1233.66 713.114 1233.25 712.999 1232.91 712.769C1232.56 712.537 1232.29 712.21 1232.09 711.789C1231.89 711.365 1231.79 710.865 1231.79 710.287C1231.79 709.714 1231.89 709.217 1232.09 708.795C1232.29 708.374 1232.56 708.049 1232.91 707.819C1233.26 707.589 1233.66 707.474 1234.12 707.474C1234.48 707.474 1234.76 707.534 1234.97 707.652C1235.17 707.768 1235.33 707.901 1235.44 708.05C1235.55 708.196 1235.64 708.317 1235.7 708.412H1235.77V705.727H1236.61V713H1235.8V712.162H1235.7C1235.64 712.261 1235.55 712.387 1235.44 712.538C1235.32 712.687 1235.16 712.821 1234.95 712.94C1234.74 713.056 1234.46 713.114 1234.11 713.114ZM1234.22 712.361C1234.56 712.361 1234.84 712.273 1235.08 712.098C1235.31 711.92 1235.48 711.675 1235.6 711.363C1235.73 711.048 1235.79 710.685 1235.79 710.273C1235.79 709.866 1235.73 709.509 1235.61 709.204C1235.49 708.896 1235.31 708.657 1235.08 708.487C1234.85 708.314 1234.56 708.227 1234.22 708.227C1233.87 708.227 1233.57 708.318 1233.34 708.501C1233.1 708.681 1232.93 708.926 1232.81 709.236C1232.69 709.544 1232.63 709.889 1232.63 710.273C1232.63 710.661 1232.69 711.014 1232.81 711.331C1232.93 711.646 1233.11 711.897 1233.34 712.084C1233.58 712.268 1233.87 712.361 1234.22 712.361ZM1241.07 713V707.545H1241.91V713H1241.07ZM1241.5 706.636C1241.34 706.636 1241.2 706.581 1241.08 706.469C1240.96 706.358 1240.9 706.224 1240.9 706.068C1240.9 705.912 1240.96 705.778 1241.08 705.667C1241.2 705.556 1241.34 705.5 1241.5 705.5C1241.66 705.5 1241.8 705.556 1241.92 705.667C1242.04 705.778 1242.1 705.912 1242.1 706.068C1242.1 706.224 1242.04 706.358 1241.92 706.469C1241.8 706.581 1241.66 706.636 1241.5 706.636ZM1244.54 710.955V710.912C1244.55 710.46 1244.59 710.1 1244.68 709.832C1244.77 709.565 1244.9 709.348 1245.07 709.183C1245.23 709.017 1245.43 708.864 1245.66 708.724C1245.8 708.639 1245.93 708.539 1246.04 708.423C1246.15 708.304 1246.24 708.168 1246.3 708.014C1246.37 707.86 1246.4 707.69 1246.4 707.503C1246.4 707.271 1246.35 707.07 1246.24 706.899C1246.13 706.729 1245.98 706.597 1245.8 706.505C1245.62 706.413 1245.42 706.366 1245.19 706.366C1245 706.366 1244.81 706.407 1244.63 706.487C1244.45 706.568 1244.3 706.694 1244.18 706.867C1244.06 707.04 1243.99 707.266 1243.97 707.545H1243.08C1243.1 707.143 1243.2 706.799 1243.39 706.512C1243.58 706.226 1243.83 706.007 1244.15 705.855C1244.46 705.704 1244.81 705.628 1245.19 705.628C1245.61 705.628 1245.97 705.711 1246.28 705.876C1246.59 706.042 1246.83 706.269 1247 706.558C1247.17 706.847 1247.25 707.176 1247.25 707.545C1247.25 707.806 1247.21 708.041 1247.13 708.252C1247.05 708.463 1246.94 708.651 1246.79 708.817C1246.65 708.982 1246.47 709.129 1246.26 709.257C1246.05 709.387 1245.88 709.525 1245.76 709.669C1245.63 709.811 1245.54 709.98 1245.49 710.177C1245.43 710.373 1245.4 710.618 1245.39 710.912V710.955H1244.54ZM1245 713.057C1244.82 713.057 1244.67 712.994 1244.54 712.869C1244.42 712.743 1244.36 712.593 1244.36 712.418C1244.36 712.242 1244.42 712.092 1244.54 711.967C1244.67 711.841 1244.82 711.778 1245 711.778C1245.17 711.778 1245.32 711.841 1245.45 711.967C1245.57 712.092 1245.63 712.242 1245.63 712.418C1245.63 712.534 1245.6 712.64 1245.55 712.737C1245.49 712.834 1245.41 712.912 1245.31 712.972C1245.22 713.028 1245.11 713.057 1245 713.057Z" fill="black"/>
<path d="M793 2820.77H798.455V2821.61H793V2820.77ZM799.364 2821.19C799.364 2821.03 799.419 2820.89 799.531 2820.77C799.642 2820.65 799.776 2820.6 799.932 2820.6C800.088 2820.6 800.222 2820.65 800.333 2820.77C800.444 2820.89 800.5 2821.03 800.5 2821.19C800.5 2821.36 800.444 2821.5 800.333 2821.61C800.222 2821.73 800.088 2821.79 799.932 2821.79C799.776 2821.79 799.642 2821.73 799.531 2821.61C799.419 2821.5 799.364 2821.36 799.364 2821.19ZM793 2827.19L798.455 2825.53V2826.41L794.278 2827.59V2827.64L798.455 2828.81V2829.7L794.293 2830.85V2830.91L798.455 2832.09V2832.97L793 2831.31V2830.48L797.19 2829.29V2829.21L793 2828.01V2827.19ZM792.886 2836.11C792.886 2835.62 793.004 2835.18 793.238 2834.81C793.472 2834.44 793.8 2834.15 794.222 2833.95C794.643 2833.74 795.135 2833.64 795.699 2833.64C796.267 2833.64 796.763 2833.74 797.187 2833.95C797.611 2834.15 797.94 2834.44 798.174 2834.81C798.408 2835.18 798.526 2835.62 798.526 2836.11C798.526 2836.6 798.408 2837.03 798.174 2837.4C797.94 2837.77 797.611 2838.06 797.187 2838.27C796.763 2838.48 796.267 2838.58 795.699 2838.58C795.135 2838.58 794.643 2838.48 794.222 2838.27C793.8 2838.06 793.472 2837.77 793.238 2837.4C793.004 2837.03 792.886 2836.6 792.886 2836.11ZM793.639 2836.11C793.639 2836.48 793.735 2836.79 793.927 2837.03C794.119 2837.27 794.371 2837.45 794.683 2837.57C794.996 2837.68 795.334 2837.74 795.699 2837.74C796.063 2837.74 796.403 2837.68 796.718 2837.57C797.033 2837.45 797.287 2837.27 797.482 2837.03C797.676 2836.79 797.773 2836.48 797.773 2836.11C797.773 2835.73 797.676 2835.43 797.482 2835.18C797.287 2834.94 797.033 2834.76 796.718 2834.65C796.403 2834.53 796.063 2834.47 795.699 2834.47C795.334 2834.47 794.996 2834.53 794.683 2834.65C794.371 2834.76 794.119 2834.94 793.927 2835.18C793.735 2835.43 793.639 2835.73 793.639 2836.11ZM796.281 2840.7H793V2839.86H798.455V2840.67H797.602V2840.74C797.879 2840.87 798.102 2841.06 798.27 2841.32C798.44 2841.58 798.526 2841.92 798.526 2842.33C798.526 2842.7 798.45 2843.02 798.298 2843.3C798.149 2843.58 797.922 2843.79 797.616 2843.95C797.313 2844.1 796.93 2844.18 796.466 2844.18H793V2843.34H796.409C796.838 2843.34 797.171 2843.23 797.411 2843.01C797.652 2842.78 797.773 2842.48 797.773 2842.09C797.773 2841.82 797.715 2841.58 797.599 2841.37C797.483 2841.16 797.313 2841 797.091 2840.88C796.868 2840.76 796.598 2840.7 796.281 2840.7ZM798.455 2848.08H797.744V2845.25H798.455V2848.08ZM799.761 2846.08V2846.92H794.562C794.326 2846.92 794.148 2846.95 794.03 2847.02C793.914 2847.09 793.836 2847.18 793.795 2847.29C793.758 2847.4 793.739 2847.52 793.739 2847.64C793.739 2847.73 793.743 2847.81 793.753 2847.87C793.765 2847.93 793.774 2847.97 793.781 2848.01L793.028 2848.18C793.007 2848.12 792.986 2848.04 792.964 2847.94C792.941 2847.84 792.929 2847.71 792.929 2847.56C792.929 2847.32 792.98 2847.09 793.082 2846.86C793.183 2846.63 793.339 2846.45 793.547 2846.3C793.755 2846.15 794.018 2846.08 794.335 2846.08H799.761ZM790.841 2854.36C790.841 2853.95 790.893 2853.6 790.997 2853.31C791.099 2853.02 791.234 2852.78 791.402 2852.58C791.568 2852.39 791.745 2852.24 791.935 2852.13L792.403 2852.79C792.304 2852.87 792.19 2852.96 792.062 2853.08C791.932 2853.2 791.82 2853.36 791.725 2853.56C791.628 2853.76 791.58 2854.03 791.58 2854.36C791.58 2854.8 791.686 2855.16 791.899 2855.45C792.112 2855.73 792.446 2855.88 792.901 2855.88H794.009V2855.8C793.909 2855.74 793.786 2855.66 793.639 2855.54C793.495 2855.43 793.366 2855.27 793.252 2855.06C793.141 2854.85 793.085 2854.57 793.085 2854.21C793.085 2853.77 793.189 2853.38 793.398 2853.03C793.606 2852.68 793.909 2852.4 794.307 2852.2C794.705 2852 795.188 2851.9 795.756 2851.9C796.314 2851.9 796.801 2852 797.215 2852.19C797.632 2852.39 797.954 2852.66 798.181 2853.01C798.411 2853.36 798.526 2853.77 798.526 2854.23C798.526 2854.58 798.466 2854.86 798.348 2855.07C798.232 2855.28 798.099 2855.44 797.95 2855.56C797.804 2855.67 797.683 2855.76 797.588 2855.82V2855.9H798.455V2856.71H792.844C792.375 2856.71 791.994 2856.61 791.7 2856.39C791.404 2856.18 791.188 2855.9 791.05 2855.54C790.911 2855.19 790.841 2854.79 790.841 2854.36ZM793.838 2854.33C793.838 2854.66 793.915 2854.95 794.069 2855.18C794.223 2855.41 794.444 2855.59 794.733 2855.71C795.022 2855.83 795.367 2855.89 795.77 2855.89C796.163 2855.89 796.51 2855.83 796.81 2855.71C797.111 2855.59 797.347 2855.42 797.517 2855.19C797.688 2854.95 797.773 2854.67 797.773 2854.33C797.773 2853.97 797.683 2853.68 797.503 2853.44C797.323 2853.2 797.081 2853.03 796.778 2852.91C796.475 2852.79 796.139 2852.74 795.77 2852.74C795.391 2852.74 795.056 2852.8 794.765 2852.91C794.476 2853.03 794.249 2853.21 794.083 2853.45C793.92 2853.68 793.838 2853.98 793.838 2854.33ZM792.886 2860.46C792.886 2859.97 793.004 2859.54 793.238 2859.17C793.472 2858.8 793.8 2858.51 794.222 2858.3C794.643 2858.09 795.135 2857.99 795.699 2857.99C796.267 2857.99 796.763 2858.09 797.187 2858.3C797.611 2858.51 797.94 2858.8 798.174 2859.17C798.408 2859.54 798.526 2859.97 798.526 2860.46C798.526 2860.96 798.408 2861.39 798.174 2861.76C797.94 2862.13 797.611 2862.42 797.187 2862.62C796.763 2862.83 796.267 2862.94 795.699 2862.94C795.135 2862.94 794.643 2862.83 794.222 2862.62C793.8 2862.42 793.472 2862.13 793.238 2861.76C793.004 2861.39 792.886 2860.96 792.886 2860.46ZM793.639 2860.46C793.639 2860.84 793.735 2861.15 793.927 2861.39C794.119 2861.63 794.371 2861.81 794.683 2861.92C794.996 2862.04 795.334 2862.1 795.699 2862.1C796.063 2862.1 796.403 2862.04 796.718 2861.92C797.033 2861.81 797.287 2861.63 797.482 2861.39C797.676 2861.15 797.773 2860.84 797.773 2860.46C797.773 2860.09 797.676 2859.78 797.482 2859.54C797.287 2859.3 797.033 2859.12 796.718 2859C796.403 2858.89 796.063 2858.83 795.699 2858.83C795.334 2858.83 794.996 2858.89 794.683 2859C794.371 2859.12 794.119 2859.3 793.927 2859.54C793.735 2859.78 793.639 2860.09 793.639 2860.46Z" fill="black"/>
<path d="M75.25 915.199C74.1799 915.199 73.2685 914.908 72.5156 914.325C71.7628 913.738 71.1875 912.888 70.7898 911.776C70.392 910.658 70.1932 909.309 70.1932 907.727C70.1932 906.155 70.392 904.813 70.7898 903.7C71.1922 902.583 71.7699 901.731 72.5227 901.143C73.2803 900.552 74.1894 900.256 75.25 900.256C76.3106 900.256 77.2173 900.552 77.9702 901.143C78.7277 901.731 79.3054 902.583 79.7031 903.7C80.1056 904.813 80.3068 906.155 80.3068 907.727C80.3068 909.309 80.108 910.658 79.7102 911.776C79.3125 912.888 78.7372 913.738 77.9844 914.325C77.2315 914.908 76.3201 915.199 75.25 915.199ZM75.25 913.636C76.3106 913.636 77.1345 913.125 77.7216 912.102C78.3087 911.08 78.6023 909.621 78.6023 907.727C78.6023 906.468 78.4673 905.395 78.1974 904.51C77.9323 903.625 77.5488 902.95 77.0469 902.486C76.5497 902.022 75.9508 901.79 75.25 901.79C74.1989 901.79 73.3774 902.308 72.7855 903.345C72.1937 904.377 71.8977 905.838 71.8977 907.727C71.8977 908.987 72.0303 910.057 72.2955 910.938C72.5606 911.818 72.9418 912.488 73.4389 912.947C73.9408 913.407 74.5445 913.636 75.25 913.636ZM88.1193 900.455V915H86.358V902.301H86.2727L82.7216 904.659V902.869L86.358 900.455H88.1193Z" fill="black"/>
<path d="M377.25 915.199C376.18 915.199 375.268 914.908 374.516 914.325C373.763 913.738 373.188 912.888 372.79 911.776C372.392 910.658 372.193 909.309 372.193 907.727C372.193 906.155 372.392 904.813 372.79 903.7C373.192 902.583 373.77 901.731 374.523 901.143C375.28 900.552 376.189 900.256 377.25 900.256C378.311 900.256 379.217 900.552 379.97 901.143C380.728 901.731 381.305 902.583 381.703 903.7C382.106 904.813 382.307 906.155 382.307 907.727C382.307 909.309 382.108 910.658 381.71 911.776C381.312 912.888 380.737 913.738 379.984 914.325C379.232 914.908 378.32 915.199 377.25 915.199ZM377.25 913.636C378.311 913.636 379.134 913.125 379.722 912.102C380.309 911.08 380.602 909.621 380.602 907.727C380.602 906.468 380.467 905.395 380.197 904.51C379.932 903.625 379.549 902.95 379.047 902.486C378.55 902.022 377.951 901.79 377.25 901.79C376.199 901.79 375.377 902.308 374.786 903.345C374.194 904.377 373.898 905.838 373.898 907.727C373.898 908.987 374.03 910.057 374.295 910.938C374.561 911.818 374.942 912.488 375.439 912.947C375.941 913.407 376.545 913.636 377.25 913.636ZM385.006 915V913.722L389.807 908.466C390.37 907.85 390.834 907.315 391.199 906.861C391.563 906.402 391.833 905.971 392.009 905.568C392.188 905.161 392.278 904.735 392.278 904.29C392.278 903.778 392.155 903.336 391.909 902.962C391.668 902.588 391.336 902.299 390.915 902.095C390.493 901.892 390.02 901.79 389.494 901.79C388.936 901.79 388.448 901.906 388.031 902.138C387.619 902.365 387.3 902.685 387.072 903.097C386.85 903.509 386.739 903.991 386.739 904.545H385.062C385.062 903.693 385.259 902.945 385.652 902.301C386.045 901.657 386.58 901.155 387.257 900.795C387.939 900.436 388.704 900.256 389.551 900.256C390.403 900.256 391.159 900.436 391.817 900.795C392.475 901.155 392.991 901.641 393.365 902.251C393.739 902.862 393.926 903.542 393.926 904.29C393.926 904.825 393.829 905.348 393.635 905.859C393.446 906.366 393.114 906.932 392.641 907.557C392.172 908.177 391.521 908.935 390.688 909.83L387.42 913.324V913.438H394.182V915H385.006Z" fill="black"/>
<path d="M677.25 915.199C676.18 915.199 675.268 914.908 674.516 914.325C673.763 913.738 673.188 912.888 672.79 911.776C672.392 910.658 672.193 909.309 672.193 907.727C672.193 906.155 672.392 904.813 672.79 903.7C673.192 902.583 673.77 901.731 674.523 901.143C675.28 900.552 676.189 900.256 677.25 900.256C678.311 900.256 679.217 900.552 679.97 901.143C680.728 901.731 681.305 902.583 681.703 903.7C682.106 904.813 682.307 906.155 682.307 907.727C682.307 909.309 682.108 910.658 681.71 911.776C681.312 912.888 680.737 913.738 679.984 914.325C679.232 914.908 678.32 915.199 677.25 915.199ZM677.25 913.636C678.311 913.636 679.134 913.125 679.722 912.102C680.309 911.08 680.602 909.621 680.602 907.727C680.602 906.468 680.467 905.395 680.197 904.51C679.932 903.625 679.549 902.95 679.047 902.486C678.55 902.022 677.951 901.79 677.25 901.79C676.199 901.79 675.377 902.308 674.786 903.345C674.194 904.377 673.898 905.838 673.898 907.727C673.898 908.987 674.03 910.057 674.295 910.938C674.561 911.818 674.942 912.488 675.439 912.947C675.941 913.407 676.545 913.636 677.25 913.636ZM689.92 915.199C688.983 915.199 688.147 915.038 687.413 914.716C686.684 914.394 686.104 913.946 685.673 913.374C685.247 912.796 685.015 912.126 684.977 911.364H686.767C686.805 911.832 686.966 912.237 687.25 912.578C687.534 912.914 687.906 913.175 688.365 913.359C688.824 913.544 689.333 913.636 689.892 913.636C690.517 913.636 691.071 913.527 691.554 913.31C692.037 913.092 692.416 912.789 692.69 912.401C692.965 912.012 693.102 911.562 693.102 911.051C693.102 910.516 692.97 910.045 692.705 909.638C692.439 909.226 692.051 908.904 691.54 908.672C691.028 908.44 690.403 908.324 689.665 908.324H688.5V906.761H689.665C690.242 906.761 690.749 906.657 691.185 906.449C691.625 906.241 691.968 905.947 692.214 905.568C692.465 905.189 692.591 904.744 692.591 904.233C692.591 903.741 692.482 903.312 692.264 902.947C692.046 902.583 691.739 902.299 691.341 902.095C690.948 901.892 690.484 901.79 689.949 901.79C689.447 901.79 688.973 901.882 688.528 902.067C688.088 902.247 687.728 902.509 687.449 902.855C687.17 903.196 687.018 903.608 686.994 904.091H685.29C685.318 903.329 685.548 902.661 685.979 902.088C686.41 901.51 686.973 901.061 687.669 900.739C688.37 900.417 689.139 900.256 689.977 900.256C690.877 900.256 691.649 900.438 692.293 900.803C692.937 901.162 693.431 901.638 693.777 902.23C694.123 902.822 694.295 903.461 694.295 904.148C694.295 904.967 694.08 905.665 693.649 906.243C693.223 906.821 692.643 907.221 691.909 907.443V907.557C692.828 907.708 693.545 908.099 694.061 908.729C694.577 909.354 694.835 910.128 694.835 911.051C694.835 911.842 694.62 912.552 694.189 913.182C693.763 913.807 693.18 914.299 692.442 914.659C691.703 915.019 690.863 915.199 689.92 915.199Z" fill="black"/>
<path d="M972.25 914.199C971.18 914.199 970.268 913.908 969.516 913.325C968.763 912.738 968.188 911.888 967.79 910.776C967.392 909.658 967.193 908.309 967.193 906.727C967.193 905.155 967.392 903.813 967.79 902.7C968.192 901.583 968.77 900.731 969.523 900.143C970.28 899.552 971.189 899.256 972.25 899.256C973.311 899.256 974.217 899.552 974.97 900.143C975.728 900.731 976.305 901.583 976.703 902.7C977.106 903.813 977.307 905.155 977.307 906.727C977.307 908.309 977.108 909.658 976.71 910.776C976.312 911.888 975.737 912.738 974.984 913.325C974.232 913.908 973.32 914.199 972.25 914.199ZM972.25 912.636C973.311 912.636 974.134 912.125 974.722 911.102C975.309 910.08 975.602 908.621 975.602 906.727C975.602 905.468 975.467 904.395 975.197 903.51C974.932 902.625 974.549 901.95 974.047 901.486C973.55 901.022 972.951 900.79 972.25 900.79C971.199 900.79 970.377 901.308 969.786 902.345C969.194 903.377 968.898 904.838 968.898 906.727C968.898 907.987 969.03 909.057 969.295 909.938C969.561 910.818 969.942 911.488 970.439 911.947C970.941 912.407 971.545 912.636 972.25 912.636ZM979.665 911.017V909.568L986.057 899.455H987.108V901.699H986.398L981.568 909.341V909.455H990.176V911.017H979.665ZM986.511 914V910.577V909.902V899.455H988.188V914H986.511Z" fill="black"/>
<path d="M519.631 828.767L518.878 828.98C518.83 828.855 518.761 828.733 518.668 828.614C518.578 828.494 518.455 828.394 518.299 828.316C518.143 828.238 517.943 828.199 517.699 828.199C517.365 828.199 517.087 828.276 516.864 828.43C516.644 828.581 516.534 828.774 516.534 829.009C516.534 829.217 516.61 829.381 516.761 829.502C516.913 829.623 517.15 829.723 517.472 829.804L518.281 830.003C518.769 830.121 519.132 830.302 519.371 830.546C519.611 830.788 519.73 831.099 519.73 831.48C519.73 831.793 519.64 832.072 519.46 832.318C519.283 832.564 519.034 832.759 518.714 832.901C518.395 833.043 518.023 833.114 517.599 833.114C517.043 833.114 516.583 832.993 516.218 832.751C515.853 832.51 515.623 832.157 515.526 831.693L516.321 831.494C516.397 831.788 516.54 832.008 516.751 832.155C516.964 832.302 517.242 832.375 517.585 832.375C517.976 832.375 518.286 832.292 518.516 832.126C518.748 831.958 518.864 831.757 518.864 831.523C518.864 831.333 518.797 831.175 518.665 831.047C518.532 830.917 518.329 830.82 518.054 830.756L517.145 830.543C516.645 830.424 516.278 830.241 516.044 829.992C515.812 829.741 515.696 829.428 515.696 829.051C515.696 828.743 515.782 828.471 515.955 828.234C516.13 827.998 516.368 827.812 516.669 827.677C516.972 827.542 517.315 827.474 517.699 827.474C518.239 827.474 518.662 827.593 518.97 827.83C519.28 828.066 519.5 828.379 519.631 828.767ZM521.83 829.719V833H520.992V825.727H521.83V828.398H521.901C522.029 828.116 522.22 827.892 522.476 827.727C522.734 827.558 523.077 827.474 523.506 827.474C523.878 827.474 524.203 827.549 524.482 827.698C524.762 827.845 524.978 828.071 525.132 828.376C525.289 828.679 525.367 829.065 525.367 829.534V833H524.529V829.591C524.529 829.158 524.416 828.823 524.191 828.586C523.969 828.347 523.66 828.227 523.264 828.227C522.99 828.227 522.744 828.285 522.526 828.401C522.31 828.517 522.14 828.687 522.014 828.909C521.891 829.132 521.83 829.402 521.83 829.719ZM529.187 833.114C528.661 833.114 528.208 832.998 527.827 832.766C527.448 832.531 527.156 832.205 526.95 831.786C526.746 831.364 526.644 830.874 526.644 830.315C526.644 829.757 526.746 829.264 526.95 828.838C527.156 828.41 527.442 828.076 527.809 827.837C528.178 827.595 528.609 827.474 529.102 827.474C529.386 827.474 529.666 827.522 529.943 827.616C530.22 827.711 530.472 827.865 530.7 828.078C530.927 828.289 531.108 828.568 531.243 828.916C531.378 829.264 531.445 829.693 531.445 830.202V830.557H527.241V829.832H530.593C530.593 829.525 530.531 829.25 530.408 829.009C530.288 828.767 530.115 828.576 529.89 828.437C529.667 828.297 529.405 828.227 529.102 828.227C528.768 828.227 528.479 828.31 528.235 828.476C527.994 828.639 527.808 828.852 527.678 829.115C527.547 829.378 527.482 829.66 527.482 829.96V830.443C527.482 830.855 527.553 831.204 527.695 831.491C527.84 831.775 528.04 831.991 528.295 832.141C528.551 832.287 528.848 832.361 529.187 832.361C529.407 832.361 529.606 832.33 529.783 832.268C529.963 832.205 530.118 832.11 530.249 831.984C530.379 831.857 530.479 831.698 530.55 831.509L531.36 831.736C531.275 832.01 531.132 832.252 530.93 832.46C530.729 832.666 530.481 832.827 530.185 832.943C529.889 833.057 529.556 833.114 529.187 833.114ZM535.533 833V827.545H536.342V828.398H536.413C536.527 828.107 536.71 827.88 536.964 827.719C537.217 827.556 537.521 827.474 537.876 827.474C538.236 827.474 538.536 827.556 538.775 827.719C539.016 827.88 539.205 828.107 539.339 828.398H539.396C539.536 828.116 539.746 827.892 540.025 827.727C540.304 827.558 540.639 827.474 541.03 827.474C541.518 827.474 541.916 827.627 542.227 827.933C542.537 828.236 542.692 828.708 542.692 829.349V833H541.854V829.349C541.854 828.947 541.744 828.659 541.523 828.487C541.303 828.314 541.044 828.227 540.746 828.227C540.362 828.227 540.065 828.343 539.854 828.575C539.644 828.805 539.538 829.096 539.538 829.449V833H538.686V829.264C538.686 828.954 538.585 828.704 538.384 828.515C538.183 828.323 537.924 828.227 537.607 828.227C537.389 828.227 537.185 828.285 536.996 828.401C536.809 828.517 536.657 828.678 536.541 828.884C536.428 829.088 536.371 829.323 536.371 829.591V833H535.533ZM545.829 833.128C545.484 833.128 545.17 833.063 544.888 832.933C544.606 832.8 544.383 832.609 544.217 832.361C544.051 832.11 543.968 831.807 543.968 831.452C543.968 831.139 544.03 830.886 544.153 830.692C544.276 830.495 544.441 830.341 544.647 830.23C544.853 830.119 545.08 830.036 545.328 829.982C545.579 829.925 545.832 829.88 546.085 829.847C546.416 829.804 546.685 829.772 546.891 829.751C547.099 829.727 547.251 829.688 547.346 829.634C547.443 829.579 547.491 829.484 547.491 829.349V829.321C547.491 828.971 547.395 828.698 547.203 828.504C547.014 828.31 546.726 828.213 546.341 828.213C545.94 828.213 545.627 828.301 545.4 828.476C545.172 828.651 545.012 828.838 544.92 829.037L544.125 828.753C544.267 828.421 544.456 828.163 544.693 827.979C544.932 827.792 545.192 827.661 545.474 827.588C545.758 827.512 546.038 827.474 546.312 827.474C546.487 827.474 546.689 827.496 546.916 827.538C547.145 827.579 547.367 827.663 547.58 827.79C547.795 827.918 547.974 828.111 548.116 828.369C548.258 828.627 548.329 828.973 548.329 829.406V833H547.491V832.261H547.449C547.392 832.38 547.297 832.506 547.164 832.641C547.032 832.776 546.855 832.891 546.635 832.986C546.415 833.08 546.146 833.128 545.829 833.128ZM545.957 832.375C546.288 832.375 546.568 832.31 546.795 832.18C547.025 832.049 547.198 831.881 547.314 831.675C547.432 831.469 547.491 831.253 547.491 831.026V830.259C547.456 830.301 547.377 830.34 547.257 830.376C547.138 830.409 547.001 830.438 546.845 830.464C546.691 830.488 546.541 830.509 546.394 830.528C546.249 830.545 546.132 830.559 546.042 830.571C545.824 830.599 545.621 830.646 545.431 830.71C545.244 830.771 545.093 830.865 544.977 830.99C544.863 831.113 544.806 831.281 544.806 831.494C544.806 831.786 544.914 832.006 545.13 832.155C545.347 832.302 545.623 832.375 545.957 832.375ZM550.64 831.011L550.626 829.974H550.796L553.183 827.545H554.22L551.677 830.116H551.606L550.64 831.011ZM549.859 833V825.727H550.697V833H549.859ZM553.325 833L551.194 830.301L551.791 829.719L554.39 833H553.325ZM557.361 833.114C556.835 833.114 556.382 832.998 556.001 832.766C555.622 832.531 555.329 832.205 555.123 831.786C554.92 831.364 554.818 830.874 554.818 830.315C554.818 829.757 554.92 829.264 555.123 828.838C555.329 828.41 555.616 828.076 555.983 827.837C556.352 827.595 556.783 827.474 557.275 827.474C557.559 827.474 557.84 827.522 558.117 827.616C558.394 827.711 558.646 827.865 558.873 828.078C559.101 828.289 559.282 828.568 559.417 828.916C559.552 829.264 559.619 829.693 559.619 830.202V830.557H555.415V829.832H558.767C558.767 829.525 558.705 829.25 558.582 829.009C558.461 828.767 558.289 828.576 558.064 828.437C557.841 828.297 557.578 828.227 557.275 828.227C556.942 828.227 556.653 828.31 556.409 828.476C556.167 828.639 555.982 828.852 555.851 829.115C555.721 829.378 555.656 829.66 555.656 829.96V830.443C555.656 830.855 555.727 831.204 555.869 831.491C556.014 831.775 556.214 831.991 556.469 832.141C556.725 832.287 557.022 832.361 557.361 832.361C557.581 832.361 557.78 832.33 557.957 832.268C558.137 832.205 558.292 832.11 558.422 831.984C558.553 831.857 558.653 831.698 558.724 831.509L559.534 831.736C559.449 832.01 559.305 832.252 559.104 832.46C558.903 832.666 558.654 832.827 558.358 832.943C558.063 833.057 557.73 833.114 557.361 833.114ZM564.758 828.767L564.005 828.98C563.957 828.855 563.888 828.733 563.795 828.614C563.705 828.494 563.582 828.394 563.426 828.316C563.27 828.238 563.07 828.199 562.826 828.199C562.492 828.199 562.214 828.276 561.991 828.43C561.771 828.581 561.661 828.774 561.661 829.009C561.661 829.217 561.737 829.381 561.888 829.502C562.04 829.623 562.277 829.723 562.599 829.804L563.408 830.003C563.896 830.121 564.259 830.302 564.498 830.546C564.738 830.788 564.857 831.099 564.857 831.48C564.857 831.793 564.767 832.072 564.587 832.318C564.41 832.564 564.161 832.759 563.841 832.901C563.522 833.043 563.15 833.114 562.726 833.114C562.17 833.114 561.71 832.993 561.345 832.751C560.98 832.51 560.75 832.157 560.653 831.693L561.448 831.494C561.524 831.788 561.667 832.008 561.878 832.155C562.091 832.302 562.369 832.375 562.712 832.375C563.103 832.375 563.413 832.292 563.643 832.126C563.875 831.958 563.991 831.757 563.991 831.523C563.991 831.333 563.924 831.175 563.792 831.047C563.659 830.917 563.456 830.82 563.181 830.756L562.272 830.543C561.772 830.424 561.405 830.241 561.171 829.992C560.939 829.741 560.823 829.428 560.823 829.051C560.823 828.743 560.909 828.471 561.082 828.234C561.257 827.998 561.495 827.812 561.796 827.677C562.099 827.542 562.442 827.474 562.826 827.474C563.366 827.474 563.789 827.593 564.097 827.83C564.407 828.066 564.627 828.379 564.758 828.767ZM568.931 833V827.545H569.741V828.398H569.812C569.925 828.107 570.109 827.88 570.362 827.719C570.616 827.556 570.92 827.474 571.275 827.474C571.635 827.474 571.934 827.556 572.173 827.719C572.415 827.88 572.603 828.107 572.738 828.398H572.795C572.934 828.116 573.144 827.892 573.423 827.727C573.703 827.558 574.038 827.474 574.428 827.474C574.916 827.474 575.315 827.627 575.625 827.933C575.935 828.236 576.09 828.708 576.09 829.349V833H575.252V829.349C575.252 828.947 575.142 828.659 574.922 828.487C574.702 828.314 574.442 828.227 574.144 828.227C573.761 828.227 573.464 828.343 573.253 828.575C573.042 828.805 572.937 829.096 572.937 829.449V833H572.085V829.264C572.085 828.954 571.984 828.704 571.783 828.515C571.581 828.323 571.322 828.227 571.005 828.227C570.787 828.227 570.584 828.285 570.394 828.401C570.207 828.517 570.056 828.678 569.94 828.884C569.826 829.088 569.769 829.323 569.769 829.591V833H568.931ZM579.909 833.114C579.384 833.114 578.931 832.998 578.549 832.766C578.171 832.531 577.878 832.205 577.672 831.786C577.469 831.364 577.367 830.874 577.367 830.315C577.367 829.757 577.469 829.264 577.672 828.838C577.878 828.41 578.165 828.076 578.532 827.837C578.901 827.595 579.332 827.474 579.824 827.474C580.108 827.474 580.389 827.522 580.666 827.616C580.943 827.711 581.195 827.865 581.422 828.078C581.65 828.289 581.831 828.568 581.966 828.916C582.1 829.264 582.168 829.693 582.168 830.202V830.557H577.963V829.832H581.316C581.316 829.525 581.254 829.25 581.131 829.009C581.01 828.767 580.837 828.576 580.613 828.437C580.39 828.297 580.127 828.227 579.824 828.227C579.49 828.227 579.202 828.31 578.958 828.476C578.716 828.639 578.53 828.852 578.4 829.115C578.27 829.378 578.205 829.66 578.205 829.96V830.443C578.205 830.855 578.276 831.204 578.418 831.491C578.562 831.775 578.762 831.991 579.018 832.141C579.274 832.287 579.571 832.361 579.909 832.361C580.13 832.361 580.328 832.33 580.506 832.268C580.686 832.205 580.841 832.11 580.971 831.984C581.101 831.857 581.202 831.698 581.273 831.509L582.083 831.736C581.998 832.01 581.854 832.252 581.653 832.46C581.452 832.666 581.203 832.827 580.907 832.943C580.611 833.057 580.279 833.114 579.909 833.114ZM588.471 833.114C587.96 833.114 587.52 832.993 587.15 832.751C586.781 832.51 586.497 832.177 586.298 831.754C586.099 831.33 586 830.846 586 830.301C586 829.747 586.101 829.258 586.305 828.835C586.511 828.408 586.797 828.076 587.164 827.837C587.534 827.595 587.965 827.474 588.457 827.474C588.841 827.474 589.186 827.545 589.494 827.688C589.802 827.83 590.054 828.028 590.25 828.284C590.447 828.54 590.569 828.838 590.616 829.179H589.778C589.714 828.93 589.572 828.71 589.352 828.518C589.134 828.324 588.841 828.227 588.471 828.227C588.145 828.227 587.858 828.312 587.612 828.483C587.368 828.651 587.177 828.889 587.04 829.197C586.905 829.502 586.838 829.861 586.838 830.273C586.838 830.694 586.904 831.061 587.037 831.374C587.172 831.686 587.361 831.929 587.605 832.102C587.851 832.274 588.14 832.361 588.471 832.361C588.689 832.361 588.887 832.323 589.064 832.247C589.242 832.171 589.392 832.062 589.515 831.92C589.638 831.778 589.726 831.608 589.778 831.409H590.616C590.569 831.731 590.452 832.021 590.265 832.279C590.08 832.535 589.835 832.738 589.529 832.89C589.226 833.039 588.874 833.114 588.471 833.114ZM591.841 833V827.545H592.651V828.369H592.708C592.807 828.099 592.987 827.88 593.248 827.712C593.508 827.544 593.801 827.46 594.128 827.46C594.19 827.46 594.267 827.461 594.359 827.464C594.451 827.466 594.521 827.47 594.569 827.474V828.327C594.54 828.32 594.475 828.309 594.373 828.295C594.274 828.278 594.168 828.27 594.057 828.27C593.792 828.27 593.555 828.326 593.347 828.437C593.141 828.546 592.978 828.697 592.857 828.891C592.739 829.083 592.679 829.302 592.679 829.548V833H591.841ZM597.167 833.128C596.821 833.128 596.508 833.063 596.226 832.933C595.944 832.8 595.721 832.609 595.555 832.361C595.389 832.11 595.306 831.807 595.306 831.452C595.306 831.139 595.368 830.886 595.491 830.692C595.614 830.495 595.779 830.341 595.985 830.23C596.191 830.119 596.418 830.036 596.666 829.982C596.917 829.925 597.169 829.88 597.423 829.847C597.754 829.804 598.023 829.772 598.229 829.751C598.437 829.727 598.589 829.688 598.683 829.634C598.78 829.579 598.829 829.484 598.829 829.349V829.321C598.829 828.971 598.733 828.698 598.541 828.504C598.352 828.31 598.064 828.213 597.678 828.213C597.278 828.213 596.965 828.301 596.737 828.476C596.51 828.651 596.35 828.838 596.258 829.037L595.463 828.753C595.605 828.421 595.794 828.163 596.031 827.979C596.27 827.792 596.53 827.661 596.812 827.588C597.096 827.512 597.375 827.474 597.65 827.474C597.825 827.474 598.026 827.496 598.254 827.538C598.483 827.579 598.705 827.663 598.918 827.79C599.133 827.918 599.312 828.111 599.454 828.369C599.596 828.627 599.667 828.973 599.667 829.406V833H598.829V832.261H598.786C598.73 832.38 598.635 832.506 598.502 832.641C598.37 832.776 598.193 832.891 597.973 832.986C597.753 833.08 597.484 833.128 597.167 833.128ZM597.295 832.375C597.626 832.375 597.906 832.31 598.133 832.18C598.363 832.049 598.535 831.881 598.651 831.675C598.77 831.469 598.829 831.253 598.829 831.026V830.259C598.794 830.301 598.715 830.34 598.595 830.376C598.476 830.409 598.339 830.438 598.183 830.464C598.029 830.488 597.878 830.509 597.732 830.528C597.587 830.545 597.47 830.559 597.38 830.571C597.162 830.599 596.959 830.646 596.769 830.71C596.582 830.771 596.431 830.865 596.315 830.99C596.201 831.113 596.144 831.281 596.144 831.494C596.144 831.786 596.252 832.006 596.468 832.155C596.685 832.302 596.961 832.375 597.295 832.375ZM601.04 833V832.361L604.137 828.384V828.327H601.14V827.545H605.217V828.213L602.205 832.162V832.219H605.316V833H601.04ZM607.147 835.045C607.005 835.045 606.878 835.034 606.767 835.01C606.655 834.989 606.578 834.967 606.536 834.946L606.749 834.207C606.953 834.259 607.132 834.278 607.289 834.264C607.445 834.25 607.583 834.18 607.704 834.055C607.827 833.932 607.94 833.732 608.042 833.455L608.198 833.028L606.181 827.545H607.09L608.596 831.892H608.652L610.158 827.545H611.067L608.752 833.795C608.648 834.077 608.519 834.31 608.365 834.495C608.211 834.682 608.032 834.821 607.828 834.911C607.627 835 607.4 835.045 607.147 835.045Z" fill="black"/>
<path d="M634.691 861.579C635.243 861.605 635.711 861.178 635.737 860.627L636.158 851.636C636.184 851.085 635.758 850.617 635.206 850.591C634.654 850.565 634.186 850.991 634.16 851.543L633.786 859.534L625.795 859.16C625.243 859.134 624.775 859.56 624.749 860.112C624.723 860.664 625.15 861.132 625.701 861.158L634.691 861.579ZM616 840L615.261 840.673L633.999 861.253L634.738 860.58L635.478 859.907L616.739 839.327L616 840Z" fill="black"/>
</g>
<defs>
<clipPath id="clip0_813_31">
<rect width="1440" height="3000" fill="white"/>
</clipPath>
</defs>
</svg>
