<svg width="414" height="2512" viewBox="0 0 414 2512" fill="none" xmlns="http://www.w3.org/2000/svg">
<g clip-path="url(#clip0_914_1901)">
<rect width="414" height="2512" fill="white"/>
<path d="M297.013 488.398V482.365H301.758V488.398H300.831V483.229H297.94V488.398H297.013ZM305.902 488.524C305.357 488.524 304.879 488.395 304.468 488.135C304.059 487.876 303.74 487.513 303.509 487.047C303.282 486.581 303.168 486.036 303.168 485.413C303.168 484.785 303.282 484.236 303.509 483.767C303.74 483.299 304.059 482.935 304.468 482.675C304.879 482.416 305.357 482.286 305.902 482.286C306.446 482.286 306.923 482.416 307.331 482.675C307.743 482.935 308.062 483.299 308.29 483.767C308.52 484.236 308.636 484.785 308.636 485.413C308.636 486.036 308.52 486.581 308.29 487.047C308.062 487.513 307.743 487.876 307.331 488.135C306.923 488.395 306.446 488.524 305.902 488.524ZM305.902 487.691C306.315 487.691 306.656 487.585 306.923 487.373C307.19 487.161 307.388 486.882 307.516 486.537C307.644 486.191 307.709 485.816 307.709 485.413C307.709 485.01 307.644 484.634 307.516 484.286C307.388 483.938 307.19 483.656 306.923 483.441C306.656 483.227 306.315 483.119 305.902 483.119C305.488 483.119 305.147 483.227 304.88 483.441C304.613 483.656 304.416 483.938 304.287 484.286C304.159 484.634 304.095 485.01 304.095 485.413C304.095 485.816 304.159 486.191 304.287 486.537C304.416 486.882 304.613 487.161 304.88 487.373C305.147 487.585 305.488 487.691 305.902 487.691ZM309.406 490.127V487.534H309.909C310.032 487.406 310.138 487.267 310.227 487.118C310.316 486.969 310.394 486.792 310.459 486.588C310.527 486.381 310.585 486.129 310.632 485.833C310.679 485.535 310.721 485.175 310.758 484.753L310.962 482.365H314.796V487.534H315.723V490.127H314.796V488.398H310.333V490.127H309.406ZM310.962 487.534H313.869V483.229H311.826L311.669 484.753C311.604 485.384 311.522 485.936 311.425 486.407C311.329 486.878 311.174 487.254 310.962 487.534ZM316.953 490.661V482.365H317.849V483.323H317.959C318.027 483.219 318.121 483.085 318.242 482.923C318.365 482.758 318.54 482.611 318.768 482.483C318.998 482.352 319.31 482.286 319.703 482.286C320.211 482.286 320.659 482.413 321.046 482.667C321.434 482.921 321.736 483.282 321.954 483.748C322.171 484.214 322.28 484.764 322.28 485.397C322.28 486.036 322.171 486.59 321.954 487.059C321.736 487.525 321.435 487.886 321.05 488.143C320.665 488.397 320.221 488.524 319.718 488.524C319.331 488.524 319.021 488.46 318.788 488.332C318.554 488.201 318.375 488.053 318.249 487.888C318.124 487.72 318.027 487.581 317.959 487.471H317.88V490.661H316.953ZM317.864 485.382C317.864 485.837 317.931 486.239 318.065 486.588C318.198 486.933 318.393 487.204 318.65 487.401C318.907 487.595 319.221 487.691 319.593 487.691C319.98 487.691 320.304 487.589 320.563 487.385C320.825 487.178 321.021 486.901 321.152 486.552C321.286 486.201 321.353 485.811 321.353 485.382C321.353 484.957 321.287 484.575 321.156 484.235C321.028 483.892 320.833 483.621 320.571 483.422C320.312 483.22 319.986 483.119 319.593 483.119C319.216 483.119 318.899 483.215 318.642 483.406C318.386 483.594 318.192 483.859 318.061 484.199C317.93 484.537 317.864 484.931 317.864 485.382ZM326.145 488.524C325.6 488.524 325.122 488.395 324.711 488.135C324.303 487.876 323.983 487.513 323.753 487.047C323.525 486.581 323.411 486.036 323.411 485.413C323.411 484.785 323.525 484.236 323.753 483.767C323.983 483.299 324.303 482.935 324.711 482.675C325.122 482.416 325.6 482.286 326.145 482.286C326.689 482.286 327.166 482.416 327.575 482.675C327.986 482.935 328.305 483.299 328.533 483.767C328.763 484.236 328.879 484.785 328.879 485.413C328.879 486.036 328.763 486.581 328.533 487.047C328.305 487.513 327.986 487.876 327.575 488.135C327.166 488.395 326.689 488.524 326.145 488.524ZM326.145 487.691C326.559 487.691 326.899 487.585 327.166 487.373C327.433 487.161 327.631 486.882 327.759 486.537C327.887 486.191 327.952 485.816 327.952 485.413C327.952 485.01 327.887 484.634 327.759 484.286C327.631 483.938 327.433 483.656 327.166 483.441C326.899 483.227 326.559 483.119 326.145 483.119C325.731 483.119 325.391 483.227 325.123 483.441C324.856 483.656 324.659 483.938 324.53 484.286C324.402 484.634 324.338 485.01 324.338 485.413C324.338 485.816 324.402 486.191 324.53 486.537C324.659 486.882 324.856 487.161 325.123 487.373C325.391 487.585 325.731 487.691 326.145 487.691ZM334.772 480.102L335.243 480.668C335.06 480.846 334.848 480.971 334.607 481.041C334.366 481.112 334.093 481.155 333.79 481.171C333.486 481.187 333.148 481.202 332.776 481.218C332.357 481.234 332.01 481.336 331.735 481.524C331.46 481.713 331.248 481.985 331.099 482.341C330.95 482.698 330.854 483.135 330.812 483.653H330.891C331.095 483.276 331.378 482.999 331.739 482.821C332.101 482.643 332.488 482.554 332.902 482.554C333.373 482.554 333.798 482.664 334.175 482.883C334.552 483.103 334.85 483.429 335.07 483.862C335.29 484.294 335.4 484.827 335.4 485.46C335.4 486.091 335.288 486.636 335.062 487.094C334.84 487.553 334.527 487.906 334.124 488.155C333.723 488.401 333.253 488.524 332.713 488.524C332.174 488.524 331.701 488.397 331.295 488.143C330.889 487.886 330.574 487.507 330.349 487.004C330.124 486.499 330.011 485.874 330.011 485.13V484.486C330.011 483.143 330.239 482.124 330.694 481.43C331.153 480.736 331.841 480.377 332.761 480.354C333.085 480.343 333.375 480.341 333.629 480.346C333.883 480.351 334.104 480.339 334.292 480.311C334.481 480.282 334.641 480.212 334.772 480.102ZM332.713 487.691C333.077 487.691 333.39 487.6 333.652 487.416C333.917 487.233 334.12 486.975 334.261 486.643C334.402 486.307 334.473 485.913 334.473 485.46C334.473 485.02 334.401 484.646 334.257 484.337C334.116 484.028 333.913 483.792 333.648 483.63C333.384 483.467 333.067 483.386 332.698 483.386C332.428 483.386 332.186 483.432 331.971 483.524C331.756 483.615 331.573 483.75 331.421 483.928C331.269 484.106 331.151 484.324 331.068 484.58C330.986 484.837 330.943 485.13 330.938 485.46C330.938 486.136 331.096 486.677 331.413 487.083C331.73 487.488 332.163 487.691 332.713 487.691ZM340.856 484.957V485.822H337.525V484.957H340.856ZM337.745 482.365V488.398H336.818V482.365H337.745ZM341.563 482.365V488.398H340.636V482.365H341.563ZM345.786 488.524C345.205 488.524 344.703 488.396 344.281 488.139C343.862 487.88 343.539 487.519 343.311 487.055C343.086 486.589 342.973 486.047 342.973 485.429C342.973 484.811 343.086 484.266 343.311 483.795C343.539 483.321 343.856 482.952 344.262 482.687C344.67 482.42 345.147 482.286 345.692 482.286C346.006 482.286 346.316 482.339 346.623 482.444C346.929 482.548 347.208 482.719 347.459 482.954C347.711 483.187 347.911 483.496 348.06 483.881C348.209 484.266 348.284 484.74 348.284 485.303V485.696H343.633V484.895H347.341C347.341 484.554 347.273 484.25 347.137 483.983C347.004 483.716 346.812 483.505 346.564 483.351C346.317 483.196 346.027 483.119 345.692 483.119C345.322 483.119 345.003 483.211 344.733 483.394C344.466 483.575 344.26 483.81 344.116 484.101C343.972 484.392 343.9 484.703 343.9 485.036V485.57C343.9 486.026 343.979 486.412 344.136 486.729C344.296 487.043 344.517 487.283 344.8 487.448C345.083 487.61 345.411 487.691 345.786 487.691C346.029 487.691 346.249 487.657 346.446 487.589C346.645 487.519 346.816 487.414 346.96 487.275C347.104 487.134 347.216 486.958 347.294 486.749L348.19 487C348.096 487.304 347.937 487.571 347.715 487.801C347.492 488.029 347.217 488.207 346.89 488.336C346.562 488.461 346.194 488.524 345.786 488.524ZM352.224 488.524C351.643 488.524 351.141 488.396 350.719 488.139C350.3 487.88 349.977 487.519 349.749 487.055C349.524 486.589 349.411 486.047 349.411 485.429C349.411 484.811 349.524 484.266 349.749 483.795C349.977 483.321 350.294 482.952 350.7 482.687C351.108 482.42 351.585 482.286 352.13 482.286C352.444 482.286 352.754 482.339 353.061 482.444C353.367 482.548 353.646 482.719 353.897 482.954C354.149 483.187 354.349 483.496 354.498 483.881C354.648 484.266 354.722 484.74 354.722 485.303V485.696H350.071V484.895H353.779C353.779 484.554 353.711 484.25 353.575 483.983C353.442 483.716 353.25 483.505 353.002 483.351C352.756 483.196 352.465 483.119 352.13 483.119C351.76 483.119 351.441 483.211 351.171 483.394C350.904 483.575 350.699 483.81 350.555 484.101C350.41 484.392 350.338 484.703 350.338 485.036V485.57C350.338 486.026 350.417 486.412 350.574 486.729C350.734 487.043 350.955 487.283 351.238 487.448C351.521 487.61 351.849 487.691 352.224 487.691C352.467 487.691 352.687 487.657 352.884 487.589C353.083 487.519 353.254 487.414 353.398 487.275C353.542 487.134 353.654 486.958 353.732 486.749L354.628 487C354.534 487.304 354.375 487.571 354.153 487.801C353.93 488.029 353.655 488.207 353.328 488.336C353 488.461 352.632 488.524 352.224 488.524Z" fill="white"/>
<path d="M378.559 480.115C378.53 479.811 378.259 479.588 377.955 479.618L373.001 480.097C372.697 480.127 372.474 480.397 372.504 480.701C372.533 481.005 372.803 481.228 373.107 481.198L377.511 480.772L377.938 485.176C377.967 485.48 378.237 485.703 378.541 485.673C378.845 485.644 379.068 485.373 379.039 485.069L378.559 480.115ZM370.266 489.57L370.693 489.922L378.435 480.52L378.009 480.168L377.582 479.817L369.839 489.219L370.266 489.57Z" fill="white"/>
<path d="M17.2764 557.428C16.7382 557.428 16.2798 557.282 15.9011 556.989C15.5224 556.693 15.2331 556.266 15.033 555.706C14.833 555.144 14.733 554.466 14.733 553.67C14.733 552.879 14.833 552.204 15.033 551.645C15.2355 551.083 15.526 550.654 15.9047 550.359C16.2857 550.061 16.743 549.912 17.2764 549.912C17.8099 549.912 18.2659 550.061 18.6446 550.359C19.0256 550.654 19.3162 551.083 19.5162 551.645C19.7187 552.204 19.8199 552.879 19.8199 553.67C19.8199 554.466 19.7199 555.144 19.5198 555.706C19.3198 556.266 19.0304 556.693 18.6517 556.989C18.2731 557.282 17.8146 557.428 17.2764 557.428ZM17.2764 556.642C17.8099 556.642 18.2243 556.385 18.5196 555.871C18.8149 555.356 18.9625 554.623 18.9625 553.67C18.9625 553.037 18.8947 552.497 18.7589 552.052C18.6255 551.607 18.4326 551.267 18.1802 551.034C17.9301 550.8 17.6289 550.684 17.2764 550.684C16.7477 550.684 16.3345 550.944 16.0368 551.466C15.7391 551.985 15.5903 552.72 15.5903 553.67C15.5903 554.304 15.657 554.842 15.7903 555.285C15.9237 555.728 16.1154 556.065 16.3655 556.296C16.6179 556.527 16.9216 556.642 17.2764 556.642ZM23.7494 550.012V557.328H22.8635V550.941H22.8206L21.0345 552.127V551.227L22.8635 550.012H23.7494Z" fill="black"/>
<line x1="35" y1="677.307" x2="351.741" y2="677.307" stroke="#B2AAAA" stroke-width="1.38514"/>
<line x1="350.742" y1="827.691" x2="35" y2="827.691" stroke="#B2AAAA" stroke-width="1.38295"/>
<line x1="351.742" y1="979.691" x2="36" y2="979.691" stroke="#B2AAAA" stroke-width="1.38295"/>
<path d="M34.6299 978.868L36.3516 978.885L32.903 978.713L34.6299 978.868ZM34.634 978.922L36.3557 978.94L36.3516 978.885L34.6299 978.868L32.9082 978.85L32.9123 978.905L34.634 978.922ZM34.6299 978.868L32.903 978.713L33.0957 1129.4L34.8226 1129.56L36.5495 1129.72L36.3568 979.023L34.6299 978.868Z" fill="#FBB20E"/>
<path d="M34.7266 826.735L34.7266 978.852" stroke="#0C55EF" stroke-width="3.52084"/>
<path d="M34.7266 678.116V678.116L34.7266 828.484" stroke="#38AF33" stroke-width="3.52084"/>
<path d="M35 501.002L35 676.375" stroke="#F763A2" stroke-width="3.52084"/>
<circle cx="34.4969" cy="676.495" r="3.49694" transform="rotate(-90 34.4969 676.495)" fill="#86C655"/>
<circle cx="34.7235" cy="826.737" r="3.49694" transform="rotate(-90 34.7235 826.737)" fill="#228291"/>
<circle cx="34.7235" cy="978.855" r="3.49694" transform="rotate(-90 34.7235 978.855)" fill="#84847F"/>
<circle cx="34.6923" cy="1128.79" r="3.49694" transform="rotate(-90 34.6923 1128.79)" fill="#FBB20E"/>
<path d="M17.1905 695.241C16.6523 695.241 16.1938 695.094 15.8152 694.801C15.4365 694.506 15.1471 694.078 14.9471 693.519C14.747 692.957 14.647 692.278 14.647 691.483C14.647 690.692 14.747 690.017 14.9471 689.457C15.1495 688.895 15.4401 688.466 15.8187 688.171C16.1998 687.873 16.657 687.725 17.1905 687.725C17.7239 687.725 18.18 687.873 18.5587 688.171C18.9397 688.466 19.2303 688.895 19.4303 689.457C19.6327 690.017 19.7339 690.692 19.7339 691.483C19.7339 692.278 19.6339 692.957 19.4339 693.519C19.2338 694.078 18.9445 694.506 18.5658 694.801C18.1871 695.094 17.7287 695.241 17.1905 695.241ZM17.1905 694.455C17.7239 694.455 18.1383 694.198 18.4336 693.683C18.7289 693.169 18.8766 692.435 18.8766 691.483C18.8766 690.849 18.8087 690.31 18.673 689.864C18.5396 689.419 18.3467 689.08 18.0943 688.846C17.8442 688.613 17.5429 688.496 17.1905 688.496C16.6618 688.496 16.2486 688.757 15.9509 689.279C15.6532 689.798 15.5044 690.532 15.5044 691.483C15.5044 692.116 15.571 692.654 15.7044 693.097C15.8378 693.54 16.0295 693.877 16.2795 694.108C16.532 694.339 16.8356 694.455 17.1905 694.455ZM21.0914 695.141V694.498L23.5063 691.854C23.7897 691.545 24.0231 691.275 24.2064 691.047C24.3898 690.816 24.5256 690.599 24.6137 690.397C24.7042 690.192 24.7494 689.977 24.7494 689.754C24.7494 689.496 24.6875 689.274 24.5637 689.086C24.4422 688.897 24.2755 688.752 24.0635 688.65C23.8516 688.547 23.6134 688.496 23.3491 688.496C23.0681 688.496 22.8228 688.555 22.6132 688.671C22.406 688.786 22.2453 688.946 22.1309 689.153C22.019 689.361 21.963 689.604 21.963 689.882H21.12C21.12 689.454 21.2188 689.077 21.4165 688.753C21.6142 688.43 21.8833 688.177 22.2238 687.996C22.5668 687.815 22.9514 687.725 23.3777 687.725C23.8063 687.725 24.1862 687.815 24.5172 687.996C24.8483 688.177 25.1078 688.421 25.296 688.728C25.4841 689.036 25.5782 689.377 25.5782 689.754C25.5782 690.023 25.5294 690.286 25.4317 690.543C25.3365 690.798 25.1698 691.083 24.9316 691.397C24.6958 691.709 24.3684 692.09 23.9492 692.54L22.306 694.298V694.355H25.7068V695.141H21.0914Z" fill="black"/>
<path d="M18.2764 844.53C17.7382 844.53 17.2798 844.383 16.9011 844.09C16.5224 843.795 16.2331 843.368 16.033 842.808C15.833 842.246 15.733 841.567 15.733 840.772C15.733 839.981 15.833 839.306 16.033 838.746C16.2355 838.184 16.526 837.755 16.9047 837.46C17.2857 837.162 17.743 837.014 18.2764 837.014C18.8099 837.014 19.2659 837.162 19.6446 837.46C20.0256 837.755 20.3162 838.184 20.5162 838.746C20.7187 839.306 20.8199 839.981 20.8199 840.772C20.8199 841.567 20.7199 842.246 20.5198 842.808C20.3198 843.368 20.0304 843.795 19.6517 844.09C19.2731 844.383 18.8146 844.53 18.2764 844.53ZM18.2764 843.744C18.8099 843.744 19.2243 843.487 19.5196 842.972C19.8149 842.458 19.9625 841.724 19.9625 840.772C19.9625 840.138 19.8947 839.599 19.7589 839.153C19.6255 838.708 19.4326 838.369 19.1802 838.135C18.9301 837.902 18.6289 837.785 18.2764 837.785C17.7477 837.785 17.3345 838.046 17.0368 838.568C16.7391 839.087 16.5903 839.821 16.5903 840.772C16.5903 841.405 16.657 841.943 16.7903 842.386C16.9237 842.829 17.1154 843.166 17.3655 843.397C17.6179 843.628 17.9216 843.744 18.2764 843.744ZM24.6494 844.53C24.1778 844.53 23.7575 844.449 23.3883 844.287C23.0216 844.125 22.7299 843.9 22.5131 843.612C22.2988 843.321 22.1821 842.984 22.1631 842.601H23.0633C23.0823 842.836 23.1633 843.04 23.3062 843.212C23.4491 843.381 23.636 843.512 23.867 843.604C24.098 843.697 24.3541 843.744 24.6351 843.744C24.9494 843.744 25.2281 843.689 25.471 843.579C25.7139 843.47 25.9044 843.318 26.0425 843.122C26.1807 842.927 26.2497 842.701 26.2497 842.444C26.2497 842.174 26.1831 841.937 26.0497 841.733C25.9163 841.525 25.721 841.363 25.4638 841.247C25.2066 841.13 24.8923 841.072 24.5208 841.072H23.9349V840.286H24.5208C24.8113 840.286 25.0661 840.233 25.2852 840.129C25.5067 840.024 25.6794 839.876 25.8032 839.686C25.9294 839.495 25.9925 839.271 25.9925 839.014C25.9925 838.766 25.9378 838.551 25.8282 838.368C25.7187 838.184 25.5639 838.041 25.3638 837.939C25.1662 837.836 24.9328 837.785 24.6637 837.785C24.4112 837.785 24.1731 837.832 23.9492 837.925C23.7277 838.015 23.5467 838.147 23.4062 838.321C23.2657 838.493 23.1895 838.7 23.1776 838.943H22.3202C22.3345 838.559 22.45 838.223 22.6667 837.935C22.8835 837.645 23.1669 837.418 23.5169 837.257C23.8694 837.095 24.2564 837.014 24.6779 837.014C25.1304 837.014 25.5186 837.105 25.8425 837.289C26.1664 837.47 26.4153 837.709 26.5891 838.007C26.763 838.304 26.8499 838.626 26.8499 838.971C26.8499 839.383 26.7415 839.735 26.5248 840.025C26.3105 840.316 26.0187 840.517 25.6496 840.629V840.686C26.1116 840.762 26.4724 840.959 26.732 841.275C26.9916 841.59 27.1214 841.979 27.1214 842.444C27.1214 842.841 27.013 843.198 26.7963 843.515C26.582 843.83 26.289 844.077 25.9175 844.258C25.546 844.439 25.1233 844.53 24.6494 844.53Z" fill="black"/>
<path d="M17.6124 992.084C17.0741 992.084 16.6157 991.938 16.237 991.645C15.8584 991.35 15.569 990.922 15.369 990.363C15.1689 989.801 15.0689 989.122 15.0689 988.326C15.0689 987.536 15.1689 986.861 15.369 986.301C15.5714 985.739 15.8619 985.31 16.2406 985.015C16.6216 984.717 17.0789 984.568 17.6124 984.568C18.1458 984.568 18.6019 984.717 18.9805 985.015C19.3616 985.31 19.6521 985.739 19.8522 986.301C20.0546 986.861 20.1558 987.536 20.1558 988.326C20.1558 989.122 20.0558 989.801 19.8557 990.363C19.6557 990.922 19.3663 991.35 18.9877 991.645C18.609 991.938 18.1506 992.084 17.6124 992.084ZM17.6124 991.298C18.1458 991.298 18.5602 991.041 18.8555 990.527C19.1508 990.012 19.2985 989.279 19.2985 988.326C19.2985 987.693 19.2306 987.153 19.0949 986.708C18.9615 986.263 18.7686 985.923 18.5161 985.69C18.2661 985.457 17.9648 985.34 17.6124 985.34C17.0837 985.34 16.6705 985.601 16.3728 986.122C16.0751 986.641 15.9262 987.376 15.9262 988.326C15.9262 988.96 15.9929 989.498 16.1263 989.941C16.2597 990.384 16.4514 990.721 16.7014 990.952C16.9539 991.183 17.2575 991.298 17.6124 991.298ZM21.3418 990.484V989.755L24.5569 984.668H25.0856V985.797H24.7283L22.2992 989.641V989.698H26.6288V990.484H21.3418ZM24.7855 991.984V990.263V989.923V984.668H25.6285V991.984H24.7855Z" fill="black"/>
<line x1="392" y1="1740.02" x2="392" y2="1130.98" stroke="#F43C04" stroke-width="3"/>
<path d="M47.3434 2228.09V2221.32H52.6721V2228.09H51.6311V2222.29H48.3845V2228.09H47.3434ZM57.3259 2228.23C56.7143 2228.23 56.1776 2228.09 55.7159 2227.8C55.2571 2227.51 54.8983 2227.1 54.6395 2226.58C54.3837 2226.05 54.2558 2225.44 54.2558 2224.74C54.2558 2224.04 54.3837 2223.42 54.6395 2222.89C54.8983 2222.37 55.2571 2221.96 55.7159 2221.67C56.1776 2221.38 56.7143 2221.23 57.3259 2221.23C57.9376 2221.23 58.4728 2221.38 58.9316 2221.67C59.3933 2221.96 59.7521 2222.37 60.0079 2222.89C60.2667 2223.42 60.3961 2224.04 60.3961 2224.74C60.3961 2225.44 60.2667 2226.05 60.0079 2226.58C59.7521 2227.1 59.3933 2227.51 58.9316 2227.8C58.4728 2228.09 57.9376 2228.23 57.3259 2228.23ZM57.3259 2227.3C57.7906 2227.3 58.1729 2227.18 58.4728 2226.94C58.7728 2226.7 58.9948 2226.39 59.1389 2226C59.283 2225.61 59.3551 2225.19 59.3551 2224.74C59.3551 2224.29 59.283 2223.87 59.1389 2223.48C58.9948 2223.08 58.7728 2222.77 58.4728 2222.53C58.1729 2222.29 57.7906 2222.17 57.3259 2222.17C56.8613 2222.17 56.479 2222.29 56.179 2222.53C55.8791 2222.77 55.657 2223.08 55.5129 2223.48C55.3688 2223.87 55.2968 2224.29 55.2968 2224.74C55.2968 2225.19 55.3688 2225.61 55.5129 2226C55.657 2226.39 55.8791 2226.7 56.179 2226.94C56.479 2227.18 56.8613 2227.3 57.3259 2227.3ZM61.2618 2230.03V2227.12H61.8264C61.9647 2226.98 62.0838 2226.82 62.1837 2226.66C62.2837 2226.49 62.3705 2226.29 62.444 2226.06C62.5205 2225.83 62.5852 2225.55 62.6381 2225.21C62.691 2224.88 62.7381 2224.47 62.7793 2224L63.0086 2221.32H67.3139V2227.12H68.355V2230.03H67.3139V2228.09H62.3028V2230.03H61.2618ZM63.0086 2227.12H66.2729V2222.29H63.9791L63.8026 2224C63.7291 2224.71 63.638 2225.33 63.5292 2225.86C63.4203 2226.39 63.2468 2226.81 63.0086 2227.12ZM69.7368 2230.63V2221.32H70.7425V2222.39H70.866C70.9425 2222.28 71.0484 2222.13 71.1837 2221.94C71.3219 2221.76 71.5189 2221.59 71.7747 2221.45C72.0335 2221.3 72.3835 2221.23 72.8246 2221.23C73.3951 2221.23 73.898 2221.37 74.3332 2221.66C74.7685 2221.94 75.1081 2222.35 75.3522 2222.87C75.5963 2223.39 75.7183 2224.01 75.7183 2224.72C75.7183 2225.44 75.5963 2226.06 75.3522 2226.59C75.1081 2227.11 74.7699 2227.52 74.3376 2227.81C73.9053 2228.09 73.4069 2228.23 72.8423 2228.23C72.407 2228.23 72.0585 2228.16 71.7968 2228.02C71.5351 2227.87 71.3336 2227.71 71.1925 2227.52C71.0513 2227.33 70.9425 2227.18 70.866 2227.05H70.7778V2230.63H69.7368ZM70.7602 2224.71C70.7602 2225.22 70.8352 2225.67 70.9851 2226.06C71.1351 2226.45 71.3542 2226.75 71.6424 2226.97C71.9306 2227.19 72.2835 2227.3 72.7011 2227.3C73.1363 2227.3 73.4995 2227.19 73.7907 2226.96C74.0847 2226.72 74.3053 2226.41 74.4523 2226.02C74.6023 2225.63 74.6773 2225.19 74.6773 2224.71C74.6773 2224.23 74.6038 2223.8 74.4567 2223.42C74.3126 2223.03 74.0936 2222.73 73.7995 2222.5C73.5083 2222.28 73.1422 2222.17 72.7011 2222.17C72.2776 2222.17 71.9218 2222.27 71.6336 2222.49C71.3454 2222.7 71.1278 2223 70.9807 2223.38C70.8337 2223.76 70.7602 2224.2 70.7602 2224.71ZM80.0589 2228.23C79.4473 2228.23 78.9106 2228.09 78.4489 2227.8C77.9901 2227.51 77.6313 2227.1 77.3725 2226.58C77.1167 2226.05 76.9888 2225.44 76.9888 2224.74C76.9888 2224.04 77.1167 2223.42 77.3725 2222.89C77.6313 2222.37 77.9901 2221.96 78.4489 2221.67C78.9106 2221.38 79.4473 2221.23 80.0589 2221.23C80.6706 2221.23 81.2058 2221.38 81.6646 2221.67C82.1263 2221.96 82.4851 2222.37 82.7409 2222.89C82.9997 2223.42 83.1291 2224.04 83.1291 2224.74C83.1291 2225.44 82.9997 2226.05 82.7409 2226.58C82.4851 2227.1 82.1263 2227.51 81.6646 2227.8C81.2058 2228.09 80.6706 2228.23 80.0589 2228.23ZM80.0589 2227.3C80.5236 2227.3 80.9059 2227.18 81.2058 2226.94C81.5058 2226.7 81.7278 2226.39 81.8719 2226C82.016 2225.61 82.0881 2225.19 82.0881 2224.74C82.0881 2224.29 82.016 2223.87 81.8719 2223.48C81.7278 2223.08 81.5058 2222.77 81.2058 2222.53C80.9059 2222.29 80.5236 2222.17 80.0589 2222.17C79.5943 2222.17 79.212 2222.29 78.912 2222.53C78.6121 2222.77 78.39 2223.08 78.2459 2223.48C78.1018 2223.87 78.0298 2224.29 78.0298 2224.74C78.0298 2225.19 78.1018 2225.61 78.2459 2226C78.39 2226.39 78.6121 2226.7 78.912 2226.94C79.212 2227.18 79.5943 2227.3 80.0589 2227.3ZM89.747 2218.78L90.2763 2219.41C90.0705 2219.61 89.8323 2219.75 89.5617 2219.83C89.2912 2219.91 88.9853 2219.96 88.6442 2219.98C88.3031 2219.99 87.9237 2220.01 87.5061 2220.03C87.0356 2220.05 86.6459 2220.16 86.3371 2220.37C86.0284 2220.59 85.7902 2220.89 85.6225 2221.29C85.4549 2221.69 85.3476 2222.18 85.3005 2222.77H85.3887C85.6181 2222.34 85.9357 2222.03 86.3416 2221.83C86.7474 2221.63 87.1826 2221.53 87.6473 2221.53C88.1766 2221.53 88.653 2221.65 89.0765 2221.9C89.5 2222.15 89.8352 2222.51 90.0822 2223C90.3293 2223.48 90.4528 2224.08 90.4528 2224.79C90.4528 2225.5 90.3263 2226.11 90.0734 2226.63C89.8234 2227.14 89.472 2227.54 89.0191 2227.82C88.5692 2228.1 88.0413 2228.23 87.4355 2228.23C86.8297 2228.23 86.2989 2228.09 85.8431 2227.81C85.3873 2227.52 85.0329 2227.09 84.78 2226.53C84.5271 2225.96 84.4006 2225.26 84.4006 2224.42V2223.7C84.4006 2222.19 84.6565 2221.05 85.1682 2220.27C85.6828 2219.49 86.4562 2219.09 87.4885 2219.06C87.8531 2219.05 88.1781 2219.04 88.4633 2219.05C88.7486 2219.06 88.9971 2219.04 89.2088 2219.01C89.4206 2218.98 89.5999 2218.9 89.747 2218.78ZM87.4355 2227.3C87.8443 2227.3 88.1957 2227.2 88.4898 2226.99C88.7868 2226.79 89.0147 2226.5 89.1735 2226.12C89.3323 2225.75 89.4117 2225.3 89.4117 2224.79C89.4117 2224.3 89.3309 2223.88 89.1691 2223.53C89.0103 2223.19 88.7824 2222.92 88.4854 2222.74C88.1884 2222.56 87.8325 2222.47 87.4179 2222.47C87.115 2222.47 86.843 2222.52 86.6018 2222.62C86.3607 2222.72 86.1548 2222.87 85.9843 2223.07C85.8137 2223.27 85.6814 2223.52 85.5872 2223.81C85.4961 2224.09 85.4476 2224.42 85.4417 2224.79C85.4417 2225.55 85.6196 2226.16 85.9754 2226.62C86.3313 2227.07 86.818 2227.3 87.4355 2227.3ZM96.5799 2224.23V2225.2H92.8392V2224.23H96.5799ZM93.0863 2221.32V2228.09H92.0452V2221.32H93.0863ZM97.3739 2221.32V2228.09H96.3329V2221.32H97.3739ZM102.116 2228.23C101.463 2228.23 100.9 2228.09 100.426 2227.8C99.9559 2227.51 99.5927 2227.11 99.3369 2226.59C99.084 2226.06 98.9575 2225.45 98.9575 2224.76C98.9575 2224.06 99.084 2223.45 99.3369 2222.92C99.5927 2222.39 99.9486 2221.98 100.404 2221.68C100.863 2221.38 101.398 2221.23 102.01 2221.23C102.363 2221.23 102.711 2221.29 103.056 2221.41C103.4 2221.52 103.713 2221.72 103.995 2221.98C104.277 2222.24 104.502 2222.59 104.67 2223.02C104.838 2223.45 104.921 2223.99 104.921 2224.62V2225.06H99.6986V2224.16H103.863C103.863 2223.78 103.786 2223.44 103.633 2223.14C103.483 2222.84 103.269 2222.6 102.989 2222.43C102.713 2222.25 102.386 2222.17 102.01 2222.17C101.595 2222.17 101.237 2222.27 100.934 2222.47C100.634 2222.68 100.403 2222.94 100.241 2223.27C100.079 2223.59 99.9986 2223.94 99.9986 2224.32V2224.92C99.9986 2225.43 100.087 2225.86 100.263 2226.22C100.443 2226.57 100.691 2226.84 101.009 2227.03C101.326 2227.21 101.695 2227.3 102.116 2227.3C102.389 2227.3 102.636 2227.26 102.857 2227.19C103.081 2227.11 103.273 2226.99 103.435 2226.83C103.597 2226.67 103.722 2226.48 103.81 2226.24L104.816 2226.52C104.71 2226.86 104.532 2227.16 104.282 2227.42C104.032 2227.68 103.723 2227.88 103.355 2228.02C102.988 2228.16 102.575 2228.23 102.116 2228.23ZM109.346 2228.23C108.693 2228.23 108.13 2228.09 107.656 2227.8C107.186 2227.51 106.823 2227.11 106.567 2226.59C106.314 2226.06 106.187 2225.45 106.187 2224.76C106.187 2224.06 106.314 2223.45 106.567 2222.92C106.823 2222.39 107.178 2221.98 107.634 2221.68C108.093 2221.38 108.628 2221.23 109.24 2221.23C109.593 2221.23 109.941 2221.29 110.285 2221.41C110.63 2221.52 110.943 2221.72 111.225 2221.98C111.507 2222.24 111.732 2222.59 111.9 2223.02C112.068 2223.45 112.151 2223.99 112.151 2224.62V2225.06H106.929V2224.16H111.093C111.093 2223.78 111.016 2223.44 110.863 2223.14C110.713 2222.84 110.499 2222.6 110.219 2222.43C109.943 2222.25 109.616 2222.17 109.24 2222.17C108.825 2222.17 108.467 2222.27 108.164 2222.47C107.864 2222.68 107.633 2222.94 107.471 2223.27C107.309 2223.59 107.228 2223.94 107.228 2224.32V2224.92C107.228 2225.43 107.317 2225.86 107.493 2226.22C107.673 2226.57 107.921 2226.84 108.239 2227.03C108.556 2227.21 108.925 2227.3 109.346 2227.3C109.619 2227.3 109.866 2227.26 110.087 2227.19C110.31 2227.11 110.503 2226.99 110.665 2226.83C110.827 2226.67 110.952 2226.48 111.04 2226.24L112.045 2226.52C111.94 2226.86 111.762 2227.16 111.512 2227.42C111.262 2227.68 110.953 2227.88 110.585 2228.02C110.218 2228.16 109.805 2228.23 109.346 2228.23Z" fill="white"/>
<path d="M140.196 2219.14C140.163 2218.8 139.86 2218.55 139.518 2218.58L133.954 2219.12C133.613 2219.15 133.363 2219.46 133.396 2219.8C133.429 2220.14 133.733 2220.39 134.074 2220.36L139.02 2219.88L139.498 2224.82C139.531 2225.16 139.835 2225.41 140.176 2225.38C140.518 2225.35 140.768 2225.04 140.735 2224.7L140.196 2219.14ZM130.883 2229.76L131.362 2230.15L140.058 2219.59L139.578 2219.2L139.099 2218.8L130.403 2229.36L130.883 2229.76Z" fill="white"/>
<line x1="18.3457" y1="1812.34" x2="18.3457" y2="2004.26" stroke="#F763A2" stroke-width="4.34766"/>
<line x1="18.3457" y1="2002.34" x2="18.3457" y2="2214.14" stroke="#0C55EF" stroke-width="4.34766"/>
<path d="M18 2203V2386H396.5V2512" stroke="#FBB20E" stroke-width="4.34766"/>
<circle cx="18.6543" cy="2002.69" r="4.6582" transform="rotate(180 18.6543 2002.69)" fill="#825CC9"/>
<circle cx="18.6543" cy="1812.69" r="4.6582" transform="rotate(180 18.6543 1812.69)" fill="#F763A2"/>
<circle cx="18.6543" cy="2201.32" r="4.6582" transform="rotate(180 18.6543 2201.32)" fill="#84847F"/>
<line x1="18.5" y1="1810" x2="18.5" y2="1740" stroke="#F763A2" stroke-width="3"/>
<line x1="394" y1="1741.5" x2="18" y2="1741.5" stroke="#38AF33" stroke-width="3"/>
<circle cx="18.4969" cy="1741.5" r="3.49694" transform="rotate(-90 18.4969 1741.5)" fill="#86C655"/>
<circle cx="391.5" cy="1740.5" r="3.5" transform="rotate(180 391.5 1740.5)" fill="#A4510D"/>
<line x1="31.9999" y1="1129.53" x2="390" y2="1129.5" stroke="#FBB20E" stroke-width="3"/>
<circle cx="392.5" cy="1129.5" r="3.5" transform="rotate(180 392.5 1129.5)" fill="#F27107"/>
</g>
<defs>
<clipPath id="clip0_914_1901">
<rect width="414" height="2512" fill="white"/>
</clipPath>
</defs>
</svg>
