<svg width="1440" height="3582" viewBox="0 0 1440 3582" fill="none" xmlns="http://www.w3.org/2000/svg">
<g clip-path="url(#clip0_842_245)">
<rect width="1440" height="3582" fill="white"/>
<line x1="364" y1="1619.5" x2="600" y2="1619.5" stroke="#F43C04" stroke-width="7"/>
<line x1="601" y1="1619.5" x2="837" y2="1619.5" stroke="#F763A2" stroke-width="7"/>
<path d="M765.312 301.125L663.314 301.124L663.314 600.997L61.5 600.997L61.5 1020" stroke="#F763A2" stroke-width="7"/>
<path d="M1356.77 281.5H1397V1288H57.5V1444.5" stroke="#FBB20E" stroke-width="7"/>
<path d="M120 1619.5H359.5" stroke="#0C55EF" stroke-width="7"/>
<circle cx="119.5" cy="1619.5" r="7.5" fill="#0C55EF"/>
<circle cx="59.5" cy="2038.5" r="7.5" fill="#38AF33"/>
<circle cx="57.5" cy="1447.5" r="7.5" fill="#FBB20E"/>
<circle cx="839.5" cy="1619.5" r="7.5" fill="#F763A2"/>
<circle cx="61.5" cy="1018.5" r="7.5" fill="#F763A2"/>
<circle cx="361.5" cy="1619.5" r="7.5" transform="rotate(180 361.5 1619.5)" fill="#AA1CC4"/>
<path d="M960.526 656.54L960.527 716.54L1369 716.541L1369 1866L59.9967 1866L60.0032 2039.5" stroke="#38AF33" stroke-width="7"/>
<path d="M1218.44 199.895V180H31L31 2584.3H1393L1393 3302.51H902.32V3589" stroke="#0C55EF" stroke-width="7"/>
<path d="M613.003 2573L611.341 2567.55H612.222L613.401 2571.72H613.457L614.622 2567.55H615.517L616.668 2571.71H616.724L617.903 2567.55H618.784L617.122 2573H616.298L615.105 2568.81H615.02L613.827 2573H613.003ZM620.73 2569.72V2573H619.892V2565.73H620.73V2568.4H620.801C620.929 2568.12 621.121 2567.89 621.376 2567.73C621.634 2567.56 621.978 2567.47 622.406 2567.47C622.778 2567.47 623.103 2567.55 623.383 2567.7C623.662 2567.84 623.879 2568.07 624.033 2568.38C624.189 2568.68 624.267 2569.07 624.267 2569.53V2573H623.429V2569.59C623.429 2569.16 623.317 2568.82 623.092 2568.59C622.869 2568.35 622.56 2568.23 622.165 2568.23C621.89 2568.23 621.644 2568.29 621.426 2568.4C621.211 2568.52 621.04 2568.69 620.915 2568.91C620.792 2569.13 620.73 2569.4 620.73 2569.72ZM627.405 2573.13C627.06 2573.13 626.746 2573.06 626.464 2572.93C626.183 2572.8 625.959 2572.61 625.793 2572.36C625.627 2572.11 625.545 2571.81 625.545 2571.45C625.545 2571.14 625.606 2570.89 625.729 2570.69C625.852 2570.5 626.017 2570.34 626.223 2570.23C626.429 2570.12 626.656 2570.04 626.905 2569.98C627.156 2569.92 627.408 2569.88 627.661 2569.85C627.992 2569.8 628.261 2569.77 628.467 2569.75C628.675 2569.73 628.827 2569.69 628.922 2569.63C629.019 2569.58 629.067 2569.48 629.067 2569.35V2569.32C629.067 2568.97 628.971 2568.7 628.78 2568.5C628.59 2568.31 628.303 2568.21 627.917 2568.21C627.517 2568.21 627.203 2568.3 626.976 2568.48C626.748 2568.65 626.589 2568.84 626.496 2569.04L625.701 2568.75C625.843 2568.42 626.032 2568.16 626.269 2567.98C626.508 2567.79 626.769 2567.66 627.05 2567.59C627.334 2567.51 627.614 2567.47 627.888 2567.47C628.064 2567.47 628.265 2567.5 628.492 2567.54C628.722 2567.58 628.943 2567.66 629.156 2567.79C629.372 2567.92 629.55 2568.11 629.692 2568.37C629.834 2568.63 629.905 2568.97 629.905 2569.41V2573H629.067V2572.26H629.025C628.968 2572.38 628.873 2572.51 628.741 2572.64C628.608 2572.78 628.432 2572.89 628.211 2572.99C627.991 2573.08 627.723 2573.13 627.405 2573.13ZM627.533 2572.38C627.865 2572.38 628.144 2572.31 628.371 2572.18C628.601 2572.05 628.774 2571.88 628.89 2571.68C629.008 2571.47 629.067 2571.25 629.067 2571.03V2570.26C629.032 2570.3 628.954 2570.34 628.833 2570.38C628.715 2570.41 628.577 2570.44 628.421 2570.46C628.267 2570.49 628.117 2570.51 627.97 2570.53C627.826 2570.54 627.708 2570.56 627.618 2570.57C627.401 2570.6 627.197 2570.65 627.008 2570.71C626.821 2570.77 626.669 2570.86 626.553 2570.99C626.439 2571.11 626.383 2571.28 626.383 2571.49C626.383 2571.79 626.49 2572.01 626.706 2572.15C626.924 2572.3 627.199 2572.38 627.533 2572.38ZM633.807 2567.55V2568.26H630.98V2567.55H633.807ZM631.804 2566.24H632.642V2571.44C632.642 2571.67 632.677 2571.85 632.745 2571.97C632.816 2572.09 632.906 2572.16 633.015 2572.2C633.127 2572.24 633.244 2572.26 633.367 2572.26C633.459 2572.26 633.535 2572.26 633.594 2572.25C633.653 2572.24 633.701 2572.23 633.736 2572.22L633.907 2572.97C633.85 2572.99 633.77 2573.01 633.669 2573.04C633.567 2573.06 633.438 2573.07 633.282 2573.07C633.045 2573.07 632.813 2573.02 632.586 2572.92C632.361 2572.82 632.174 2572.66 632.025 2572.45C631.878 2572.24 631.804 2571.98 631.804 2571.66V2566.24ZM641.744 2568.77L640.991 2568.98C640.944 2568.85 640.874 2568.73 640.782 2568.61C640.692 2568.49 640.569 2568.39 640.412 2568.32C640.256 2568.24 640.056 2568.2 639.812 2568.2C639.478 2568.2 639.2 2568.28 638.978 2568.43C638.757 2568.58 638.647 2568.77 638.647 2569.01C638.647 2569.22 638.723 2569.38 638.875 2569.5C639.026 2569.62 639.263 2569.72 639.585 2569.8L640.395 2570C640.882 2570.12 641.246 2570.3 641.485 2570.55C641.724 2570.79 641.843 2571.1 641.843 2571.48C641.843 2571.79 641.753 2572.07 641.574 2572.32C641.396 2572.56 641.147 2572.76 640.828 2572.9C640.508 2573.04 640.136 2573.11 639.713 2573.11C639.156 2573.11 638.696 2572.99 638.331 2572.75C637.967 2572.51 637.736 2572.16 637.639 2571.69L638.434 2571.49C638.51 2571.79 638.653 2572.01 638.864 2572.15C639.077 2572.3 639.355 2572.38 639.699 2572.38C640.089 2572.38 640.399 2572.29 640.629 2572.13C640.861 2571.96 640.977 2571.76 640.977 2571.52C640.977 2571.33 640.911 2571.17 640.778 2571.05C640.645 2570.92 640.442 2570.82 640.167 2570.76L639.258 2570.54C638.759 2570.42 638.392 2570.24 638.157 2569.99C637.925 2569.74 637.809 2569.43 637.809 2569.05C637.809 2568.74 637.896 2568.47 638.069 2568.23C638.244 2568 638.482 2567.81 638.782 2567.68C639.085 2567.54 639.429 2567.47 639.812 2567.47C640.352 2567.47 640.776 2567.59 641.083 2567.83C641.394 2568.07 641.614 2568.38 641.744 2568.77ZM643.943 2569.72V2573H643.105V2565.73H643.943V2568.4H644.014C644.142 2568.12 644.334 2567.89 644.589 2567.73C644.847 2567.56 645.191 2567.47 645.619 2567.47C645.991 2567.47 646.316 2567.55 646.596 2567.7C646.875 2567.84 647.092 2568.07 647.246 2568.38C647.402 2568.68 647.48 2569.07 647.48 2569.53V2573H646.642V2569.59C646.642 2569.16 646.529 2568.82 646.305 2568.59C646.082 2568.35 645.773 2568.23 645.378 2568.23C645.103 2568.23 644.857 2568.29 644.639 2568.4C644.424 2568.52 644.253 2568.69 644.128 2568.91C644.005 2569.13 643.943 2569.4 643.943 2569.72ZM651.229 2573.11C650.737 2573.11 650.305 2573 649.933 2572.76C649.564 2572.53 649.275 2572.2 649.066 2571.78C648.86 2571.36 648.757 2570.86 648.757 2570.3C648.757 2569.73 648.86 2569.24 649.066 2568.81C649.275 2568.39 649.564 2568.06 649.933 2567.83C650.305 2567.59 650.737 2567.47 651.229 2567.47C651.721 2567.47 652.152 2567.59 652.522 2567.83C652.893 2568.06 653.182 2568.39 653.388 2568.81C653.596 2569.24 653.701 2569.73 653.701 2570.3C653.701 2570.86 653.596 2571.36 653.388 2571.78C653.182 2572.2 652.893 2572.53 652.522 2572.76C652.152 2573 651.721 2573.11 651.229 2573.11ZM651.229 2572.36C651.603 2572.36 651.911 2572.26 652.152 2572.07C652.394 2571.88 652.573 2571.63 652.689 2571.32C652.805 2571 652.863 2570.67 652.863 2570.3C652.863 2569.94 652.805 2569.6 652.689 2569.28C652.573 2568.97 652.394 2568.71 652.152 2568.52C651.911 2568.32 651.603 2568.23 651.229 2568.23C650.855 2568.23 650.547 2568.32 650.306 2568.52C650.064 2568.71 649.886 2568.97 649.77 2569.28C649.654 2569.6 649.596 2569.94 649.596 2570.3C649.596 2570.67 649.654 2571 649.77 2571.32C649.886 2571.63 650.064 2571.88 650.306 2572.07C650.547 2572.26 650.855 2572.36 651.229 2572.36ZM658.417 2570.77V2567.55H659.256V2573H658.417V2572.08H658.361C658.233 2572.35 658.034 2572.59 657.764 2572.78C657.494 2572.98 657.153 2573.07 656.741 2573.07C656.4 2573.07 656.097 2573 655.832 2572.85C655.567 2572.7 655.359 2572.47 655.207 2572.17C655.056 2571.86 654.98 2571.48 654.98 2571.01V2567.55H655.818V2570.95C655.818 2571.35 655.929 2571.67 656.152 2571.91C656.377 2572.14 656.663 2572.26 657.011 2572.26C657.22 2572.26 657.431 2572.21 657.647 2572.1C657.865 2572 658.047 2571.83 658.194 2571.61C658.343 2571.39 658.417 2571.11 658.417 2570.77ZM661.629 2565.73V2573H660.79V2565.73H661.629ZM665.223 2573.11C664.769 2573.11 664.367 2573 664.019 2572.77C663.671 2572.54 663.399 2572.21 663.203 2571.79C663.006 2571.37 662.908 2570.86 662.908 2570.29C662.908 2569.71 663.006 2569.22 663.203 2568.8C663.399 2568.37 663.673 2568.05 664.023 2567.82C664.373 2567.59 664.778 2567.47 665.237 2567.47C665.593 2567.47 665.873 2567.53 666.079 2567.65C666.287 2567.77 666.446 2567.9 666.555 2568.05C666.666 2568.2 666.753 2568.32 666.814 2568.41H666.885V2565.73H667.723V2573H666.914V2572.16H666.814C666.753 2572.26 666.665 2572.39 666.551 2572.54C666.438 2572.69 666.276 2572.82 666.065 2572.94C665.854 2573.06 665.574 2573.11 665.223 2573.11ZM665.337 2572.36C665.673 2572.36 665.957 2572.27 666.189 2572.1C666.421 2571.92 666.597 2571.68 666.718 2571.36C666.839 2571.05 666.899 2570.68 666.899 2570.27C666.899 2569.87 666.84 2569.51 666.722 2569.2C666.603 2568.9 666.428 2568.66 666.196 2568.49C665.964 2568.31 665.678 2568.23 665.337 2568.23C664.982 2568.23 664.686 2568.32 664.449 2568.5C664.215 2568.68 664.038 2568.93 663.92 2569.24C663.804 2569.54 663.746 2569.89 663.746 2570.27C663.746 2570.66 663.805 2571.01 663.923 2571.33C664.044 2571.65 664.222 2571.9 664.456 2572.08C664.693 2572.27 664.986 2572.36 665.337 2572.36ZM672.187 2573V2567.55H673.025V2573H672.187ZM672.613 2566.64C672.45 2566.64 672.309 2566.58 672.191 2566.47C672.075 2566.36 672.017 2566.22 672.017 2566.07C672.017 2565.91 672.075 2565.78 672.191 2565.67C672.309 2565.56 672.45 2565.5 672.613 2565.5C672.776 2565.5 672.916 2565.56 673.032 2565.67C673.151 2565.78 673.21 2565.91 673.21 2566.07C673.21 2566.22 673.151 2566.36 673.032 2566.47C672.916 2566.58 672.776 2566.64 672.613 2566.64ZM679.432 2573.11C678.978 2573.11 678.576 2573 678.228 2572.77C677.88 2572.54 677.608 2572.21 677.412 2571.79C677.215 2571.37 677.117 2570.86 677.117 2570.29C677.117 2569.71 677.215 2569.22 677.412 2568.8C677.608 2568.37 677.882 2568.05 678.232 2567.82C678.582 2567.59 678.987 2567.47 679.446 2567.47C679.801 2567.47 680.082 2567.53 680.288 2567.65C680.496 2567.77 680.655 2567.9 680.764 2568.05C680.875 2568.2 680.962 2568.32 681.023 2568.41H681.094V2565.73H681.932V2573H681.123V2572.16H681.023C680.962 2572.26 680.874 2572.39 680.76 2572.54C680.647 2572.69 680.484 2572.82 680.274 2572.94C680.063 2573.06 679.783 2573.11 679.432 2573.11ZM679.546 2572.36C679.882 2572.36 680.166 2572.27 680.398 2572.1C680.63 2571.92 680.806 2571.68 680.927 2571.36C681.048 2571.05 681.108 2570.68 681.108 2570.27C681.108 2569.87 681.049 2569.51 680.931 2569.2C680.812 2568.9 680.637 2568.66 680.405 2568.49C680.173 2568.31 679.887 2568.23 679.546 2568.23C679.191 2568.23 678.895 2568.32 678.658 2568.5C678.424 2568.68 678.247 2568.93 678.129 2569.24C678.013 2569.54 677.955 2569.89 677.955 2570.27C677.955 2570.66 678.014 2571.01 678.132 2571.33C678.253 2571.65 678.431 2571.9 678.665 2572.08C678.902 2572.27 679.195 2572.36 679.546 2572.36ZM685.799 2573.11C685.307 2573.11 684.875 2573 684.503 2572.76C684.134 2572.53 683.845 2572.2 683.637 2571.78C683.431 2571.36 683.328 2570.86 683.328 2570.3C683.328 2569.73 683.431 2569.24 683.637 2568.81C683.845 2568.39 684.134 2568.06 684.503 2567.83C684.875 2567.59 685.307 2567.47 685.799 2567.47C686.292 2567.47 686.723 2567.59 687.092 2567.83C687.464 2568.06 687.752 2568.39 687.958 2568.81C688.167 2569.24 688.271 2569.73 688.271 2570.3C688.271 2570.86 688.167 2571.36 687.958 2571.78C687.752 2572.2 687.464 2572.53 687.092 2572.76C686.723 2573 686.292 2573.11 685.799 2573.11ZM685.799 2572.36C686.173 2572.36 686.481 2572.26 686.723 2572.07C686.964 2571.88 687.143 2571.63 687.259 2571.32C687.375 2571 687.433 2570.67 687.433 2570.3C687.433 2569.94 687.375 2569.6 687.259 2569.28C687.143 2568.97 686.964 2568.71 686.723 2568.52C686.481 2568.32 686.173 2568.23 685.799 2568.23C685.425 2568.23 685.118 2568.32 684.876 2568.52C684.635 2568.71 684.456 2568.97 684.34 2569.28C684.224 2569.6 684.166 2569.94 684.166 2570.3C684.166 2570.67 684.224 2571 684.34 2571.32C684.456 2571.63 684.635 2571.88 684.876 2572.07C685.118 2572.26 685.425 2572.36 685.799 2572.36ZM690.644 2570.95V2570.91C690.649 2570.46 690.696 2570.1 690.786 2569.83C690.876 2569.56 691.004 2569.35 691.17 2569.18C691.335 2569.02 691.534 2568.86 691.766 2568.72C691.906 2568.64 692.031 2568.54 692.143 2568.42C692.254 2568.3 692.341 2568.17 692.405 2568.01C692.472 2567.86 692.505 2567.69 692.505 2567.5C692.505 2567.27 692.45 2567.07 692.341 2566.9C692.233 2566.73 692.087 2566.6 691.905 2566.5C691.722 2566.41 691.52 2566.37 691.297 2566.37C691.103 2566.37 690.916 2566.41 690.736 2566.49C690.556 2566.57 690.406 2566.69 690.285 2566.87C690.165 2567.04 690.095 2567.27 690.076 2567.55H689.181C689.2 2567.14 689.304 2566.8 689.493 2566.51C689.685 2566.23 689.937 2566.01 690.25 2565.86C690.565 2565.7 690.914 2565.63 691.297 2565.63C691.714 2565.63 692.076 2565.71 692.384 2565.88C692.694 2566.04 692.933 2566.27 693.101 2566.56C693.272 2566.85 693.357 2567.18 693.357 2567.55C693.357 2567.81 693.317 2568.04 693.236 2568.25C693.158 2568.46 693.045 2568.65 692.895 2568.82C692.749 2568.98 692.571 2569.13 692.363 2569.26C692.154 2569.39 691.988 2569.52 691.862 2569.67C691.737 2569.81 691.645 2569.98 691.589 2570.18C691.532 2570.37 691.501 2570.62 691.496 2570.91V2570.95H690.644ZM691.099 2573.06C690.923 2573.06 690.773 2572.99 690.648 2572.87C690.522 2572.74 690.459 2572.59 690.459 2572.42C690.459 2572.24 690.522 2572.09 690.648 2571.97C690.773 2571.84 690.923 2571.78 691.099 2571.78C691.274 2571.78 691.424 2571.84 691.55 2571.97C691.675 2572.09 691.738 2572.24 691.738 2572.42C691.738 2572.53 691.708 2572.64 691.649 2572.74C691.592 2572.83 691.515 2572.91 691.418 2572.97C691.323 2573.03 691.217 2573.06 691.099 2573.06ZM695.712 2570.95V2570.91C695.717 2570.46 695.764 2570.1 695.854 2569.83C695.944 2569.56 696.072 2569.35 696.238 2569.18C696.404 2569.02 696.603 2568.86 696.835 2568.72C696.974 2568.64 697.1 2568.54 697.211 2568.42C697.322 2568.3 697.41 2568.17 697.474 2568.01C697.54 2567.86 697.573 2567.69 697.573 2567.5C697.573 2567.27 697.519 2567.07 697.41 2566.9C697.301 2566.73 697.155 2566.6 696.973 2566.5C696.791 2566.41 696.588 2566.37 696.366 2566.37C696.172 2566.37 695.985 2566.41 695.805 2566.49C695.625 2566.57 695.474 2566.69 695.354 2566.87C695.233 2567.04 695.163 2567.27 695.144 2567.55H694.249C694.268 2567.14 694.372 2566.8 694.562 2566.51C694.754 2566.23 695.006 2566.01 695.318 2565.86C695.633 2565.7 695.982 2565.63 696.366 2565.63C696.782 2565.63 697.145 2565.71 697.452 2565.88C697.763 2566.04 698.002 2566.27 698.17 2566.56C698.34 2566.85 698.425 2567.18 698.425 2567.55C698.425 2567.81 698.385 2568.04 698.305 2568.25C698.227 2568.46 698.113 2568.65 697.964 2568.82C697.817 2568.98 697.639 2569.13 697.431 2569.26C697.223 2569.39 697.056 2569.52 696.93 2569.67C696.805 2569.81 696.714 2569.98 696.657 2570.18C696.6 2570.37 696.569 2570.62 696.565 2570.91V2570.95H695.712ZM696.167 2573.06C695.992 2573.06 695.841 2572.99 695.716 2572.87C695.59 2572.74 695.528 2572.59 695.528 2572.42C695.528 2572.24 695.59 2572.09 695.716 2571.97C695.841 2571.84 695.992 2571.78 696.167 2571.78C696.342 2571.78 696.492 2571.84 696.618 2571.97C696.743 2572.09 696.806 2572.24 696.806 2572.42C696.806 2572.53 696.777 2572.64 696.717 2572.74C696.661 2572.83 696.584 2572.91 696.487 2572.97C696.392 2573.03 696.285 2573.06 696.167 2573.06Z" fill="black"/>
<path d="M953.767 3318V3312.55H954.605V3318H953.767ZM954.193 3311.64C954.03 3311.64 953.889 3311.58 953.771 3311.47C953.655 3311.36 953.597 3311.22 953.597 3311.07C953.597 3310.91 953.655 3310.78 953.771 3310.67C953.889 3310.56 954.03 3310.5 954.193 3310.5C954.357 3310.5 954.496 3310.56 954.612 3310.67C954.731 3310.78 954.79 3310.91 954.79 3311.07C954.79 3311.22 954.731 3311.36 954.612 3311.47C954.496 3311.58 954.357 3311.64 954.193 3311.64ZM958.512 3312.55V3313.26H955.686V3312.55H958.512ZM956.509 3311.24H957.347V3316.44C957.347 3316.67 957.382 3316.85 957.45 3316.97C957.521 3317.09 957.611 3317.16 957.72 3317.2C957.832 3317.24 957.949 3317.26 958.072 3317.26C958.164 3317.26 958.24 3317.26 958.299 3317.25C958.358 3317.24 958.406 3317.23 958.441 3317.22L958.612 3317.97C958.555 3317.99 958.476 3318.01 958.374 3318.04C958.272 3318.06 958.143 3318.07 957.987 3318.07C957.75 3318.07 957.518 3318.02 957.291 3317.92C957.066 3317.82 956.879 3317.66 956.73 3317.45C956.583 3317.24 956.509 3316.98 956.509 3316.66V3311.24ZM966.449 3313.77L965.696 3313.98C965.649 3313.85 965.579 3313.73 965.487 3313.61C965.397 3313.49 965.274 3313.39 965.117 3313.32C964.961 3313.24 964.761 3313.2 964.517 3313.2C964.183 3313.2 963.905 3313.28 963.683 3313.43C963.463 3313.58 963.352 3313.77 963.352 3314.01C963.352 3314.22 963.428 3314.38 963.58 3314.5C963.731 3314.62 963.968 3314.72 964.29 3314.8L965.1 3315C965.587 3315.12 965.951 3315.3 966.19 3315.55C966.429 3315.79 966.548 3316.1 966.548 3316.48C966.548 3316.79 966.459 3317.07 966.279 3317.32C966.101 3317.56 965.852 3317.76 965.533 3317.9C965.213 3318.04 964.842 3318.11 964.418 3318.11C963.861 3318.11 963.401 3317.99 963.036 3317.75C962.672 3317.51 962.441 3317.16 962.344 3316.69L963.139 3316.49C963.215 3316.79 963.358 3317.01 963.569 3317.15C963.782 3317.3 964.06 3317.38 964.404 3317.38C964.794 3317.38 965.104 3317.29 965.334 3317.13C965.566 3316.96 965.682 3316.76 965.682 3316.52C965.682 3316.33 965.616 3316.17 965.483 3316.05C965.351 3315.92 965.147 3315.82 964.872 3315.76L963.963 3315.54C963.464 3315.42 963.097 3315.24 962.862 3314.99C962.63 3314.74 962.514 3314.43 962.514 3314.05C962.514 3313.74 962.601 3313.47 962.774 3313.23C962.949 3313 963.187 3312.81 963.487 3312.68C963.79 3312.54 964.134 3312.47 964.517 3312.47C965.057 3312.47 965.481 3312.59 965.789 3312.83C966.099 3313.07 966.319 3313.38 966.449 3313.77ZM974.486 3313.77L973.733 3313.98C973.686 3313.85 973.616 3313.73 973.524 3313.61C973.434 3313.49 973.311 3313.39 973.154 3313.32C972.998 3313.24 972.798 3313.2 972.554 3313.2C972.221 3313.2 971.942 3313.28 971.72 3313.43C971.5 3313.58 971.39 3313.77 971.39 3314.01C971.39 3314.22 971.465 3314.38 971.617 3314.5C971.768 3314.62 972.005 3314.72 972.327 3314.8L973.137 3315C973.624 3315.12 973.988 3315.3 974.227 3315.55C974.466 3315.79 974.586 3316.1 974.586 3316.48C974.586 3316.79 974.496 3317.07 974.316 3317.32C974.138 3317.56 973.89 3317.76 973.57 3317.9C973.25 3318.04 972.879 3318.11 972.455 3318.11C971.899 3318.11 971.438 3317.99 971.074 3317.75C970.709 3317.51 970.478 3317.16 970.381 3316.69L971.176 3316.49C971.252 3316.79 971.395 3317.01 971.606 3317.15C971.819 3317.3 972.097 3317.38 972.441 3317.38C972.831 3317.38 973.141 3317.29 973.371 3317.13C973.603 3316.96 973.719 3316.76 973.719 3316.52C973.719 3316.33 973.653 3316.17 973.52 3316.05C973.388 3315.92 973.184 3315.82 972.909 3315.76L972 3315.54C971.501 3315.42 971.134 3315.24 970.9 3314.99C970.667 3314.74 970.551 3314.43 970.551 3314.05C970.551 3313.74 970.638 3313.47 970.811 3313.23C970.986 3313 971.224 3312.81 971.525 3312.68C971.828 3312.54 972.171 3312.47 972.554 3312.47C973.094 3312.47 973.518 3312.59 973.826 3312.83C974.136 3313.07 974.356 3313.38 974.486 3313.77ZM978.063 3318.11C977.571 3318.11 977.139 3318 976.767 3317.76C976.398 3317.53 976.109 3317.2 975.9 3316.78C975.694 3316.36 975.591 3315.86 975.591 3315.3C975.591 3314.73 975.694 3314.24 975.9 3313.81C976.109 3313.39 976.398 3313.06 976.767 3312.83C977.139 3312.59 977.571 3312.47 978.063 3312.47C978.555 3312.47 978.986 3312.59 979.356 3312.83C979.727 3313.06 980.016 3313.39 980.222 3313.81C980.43 3314.24 980.535 3314.73 980.535 3315.3C980.535 3315.86 980.43 3316.36 980.222 3316.78C980.016 3317.2 979.727 3317.53 979.356 3317.76C978.986 3318 978.555 3318.11 978.063 3318.11ZM978.063 3317.36C978.437 3317.36 978.745 3317.26 978.986 3317.07C979.228 3316.88 979.407 3316.63 979.523 3316.32C979.639 3316 979.697 3315.67 979.697 3315.3C979.697 3314.94 979.639 3314.6 979.523 3314.28C979.407 3313.97 979.228 3313.71 978.986 3313.52C978.745 3313.32 978.437 3313.23 978.063 3313.23C977.689 3313.23 977.381 3313.32 977.14 3313.52C976.898 3313.71 976.72 3313.97 976.604 3314.28C976.488 3314.6 976.43 3314.94 976.43 3315.3C976.43 3315.67 976.488 3316 976.604 3316.32C976.72 3316.63 976.898 3316.88 977.14 3317.07C977.381 3317.26 977.689 3317.36 978.063 3317.36ZM984.626 3318V3312.55H985.436V3313.4H985.507C985.621 3313.11 985.804 3312.88 986.058 3312.72C986.311 3312.56 986.615 3312.47 986.97 3312.47C987.33 3312.47 987.629 3312.56 987.869 3312.72C988.11 3312.88 988.298 3313.11 988.433 3313.4H988.49C988.63 3313.12 988.839 3312.89 989.119 3312.73C989.398 3312.56 989.733 3312.47 990.124 3312.47C990.611 3312.47 991.01 3312.63 991.32 3312.93C991.63 3313.24 991.786 3313.71 991.786 3314.35V3318H990.947V3314.35C990.947 3313.95 990.837 3313.66 990.617 3313.49C990.397 3313.31 990.138 3313.23 989.839 3313.23C989.456 3313.23 989.159 3313.34 988.948 3313.58C988.737 3313.8 988.632 3314.1 988.632 3314.45V3318H987.78V3314.26C987.78 3313.95 987.679 3313.7 987.478 3313.51C987.277 3313.32 987.018 3313.23 986.7 3313.23C986.482 3313.23 986.279 3313.29 986.089 3313.4C985.902 3313.52 985.751 3313.68 985.635 3313.88C985.521 3314.09 985.464 3314.32 985.464 3314.59V3318H984.626ZM995.605 3318.11C995.079 3318.11 994.626 3318 994.245 3317.77C993.866 3317.53 993.574 3317.2 993.368 3316.79C993.164 3316.36 993.062 3315.87 993.062 3315.32C993.062 3314.76 993.164 3314.26 993.368 3313.84C993.574 3313.41 993.86 3313.08 994.227 3312.84C994.596 3312.6 995.027 3312.47 995.52 3312.47C995.804 3312.47 996.084 3312.52 996.361 3312.62C996.638 3312.71 996.89 3312.87 997.118 3313.08C997.345 3313.29 997.526 3313.57 997.661 3313.92C997.796 3314.26 997.863 3314.69 997.863 3315.2V3315.56H993.659V3314.83H997.011C997.011 3314.52 996.949 3314.25 996.826 3314.01C996.706 3313.77 996.533 3313.58 996.308 3313.44C996.085 3313.3 995.823 3313.23 995.52 3313.23C995.186 3313.23 994.897 3313.31 994.653 3313.48C994.412 3313.64 994.226 3313.85 994.096 3314.12C993.965 3314.38 993.9 3314.66 993.9 3314.96V3315.44C993.9 3315.86 993.971 3316.2 994.113 3316.49C994.258 3316.77 994.458 3316.99 994.713 3317.14C994.969 3317.29 995.266 3317.36 995.605 3317.36C995.825 3317.36 996.024 3317.33 996.201 3317.27C996.381 3317.2 996.536 3317.11 996.667 3316.98C996.797 3316.86 996.897 3316.7 996.968 3316.51L997.778 3316.74C997.693 3317.01 997.55 3317.25 997.348 3317.46C997.147 3317.67 996.899 3317.83 996.603 3317.94C996.307 3318.06 995.974 3318.11 995.605 3318.11ZM1003 3313.77L1002.25 3313.98C1002.2 3313.85 1002.13 3313.73 1002.04 3313.61C1001.95 3313.49 1001.83 3313.39 1001.67 3313.32C1001.51 3313.24 1001.31 3313.2 1001.07 3313.2C1000.74 3313.2 1000.46 3313.28 1000.24 3313.43C1000.02 3313.58 999.905 3313.77 999.905 3314.01C999.905 3314.22 999.981 3314.38 1000.13 3314.5C1000.28 3314.62 1000.52 3314.72 1000.84 3314.8L1001.65 3315C1002.14 3315.12 1002.5 3315.3 1002.74 3315.55C1002.98 3315.79 1003.1 3316.1 1003.1 3316.48C1003.1 3316.79 1003.01 3317.07 1002.83 3317.32C1002.65 3317.56 1002.41 3317.76 1002.09 3317.9C1001.77 3318.04 1001.39 3318.11 1000.97 3318.11C1000.41 3318.11 999.954 3317.99 999.589 3317.75C999.225 3317.51 998.994 3317.16 998.897 3316.69L999.692 3316.49C999.768 3316.79 999.911 3317.01 1000.12 3317.15C1000.33 3317.3 1000.61 3317.38 1000.96 3317.38C1001.35 3317.38 1001.66 3317.29 1001.89 3317.13C1002.12 3316.96 1002.23 3316.76 1002.23 3316.52C1002.23 3316.33 1002.17 3316.17 1002.04 3316.05C1001.9 3315.92 1001.7 3315.82 1001.43 3315.76L1000.52 3315.54C1000.02 3315.42 999.65 3315.24 999.415 3314.99C999.183 3314.74 999.067 3314.43 999.067 3314.05C999.067 3313.74 999.154 3313.47 999.326 3313.23C999.502 3313 999.739 3312.81 1000.04 3312.68C1000.34 3312.54 1000.69 3312.47 1001.07 3312.47C1001.61 3312.47 1002.03 3312.59 1002.34 3312.83C1002.65 3313.07 1002.87 3313.38 1003 3313.77ZM1008.23 3313.77L1007.47 3313.98C1007.43 3313.85 1007.36 3313.73 1007.26 3313.61C1007.17 3313.49 1007.05 3313.39 1006.89 3313.32C1006.74 3313.24 1006.54 3313.2 1006.29 3313.2C1005.96 3313.2 1005.68 3313.28 1005.46 3313.43C1005.24 3313.58 1005.13 3313.77 1005.13 3314.01C1005.13 3314.22 1005.21 3314.38 1005.36 3314.5C1005.51 3314.62 1005.75 3314.72 1006.07 3314.8L1006.88 3315C1007.36 3315.12 1007.73 3315.3 1007.97 3315.55C1008.21 3315.79 1008.33 3316.1 1008.33 3316.48C1008.33 3316.79 1008.24 3317.07 1008.06 3317.32C1007.88 3317.56 1007.63 3317.76 1007.31 3317.9C1006.99 3318.04 1006.62 3318.11 1006.2 3318.11C1005.64 3318.11 1005.18 3317.99 1004.81 3317.75C1004.45 3317.51 1004.22 3317.16 1004.12 3316.69L1004.92 3316.49C1004.99 3316.79 1005.14 3317.01 1005.35 3317.15C1005.56 3317.3 1005.84 3317.38 1006.18 3317.38C1006.57 3317.38 1006.88 3317.29 1007.11 3317.13C1007.34 3316.96 1007.46 3316.76 1007.46 3316.52C1007.46 3316.33 1007.39 3316.17 1007.26 3316.05C1007.13 3315.92 1006.92 3315.82 1006.65 3315.76L1005.74 3315.54C1005.24 3315.42 1004.87 3315.24 1004.64 3314.99C1004.41 3314.74 1004.29 3314.43 1004.29 3314.05C1004.29 3313.74 1004.38 3313.47 1004.55 3313.23C1004.73 3313 1004.96 3312.81 1005.26 3312.68C1005.57 3312.54 1005.91 3312.47 1006.29 3312.47C1006.83 3312.47 1007.26 3312.59 1007.57 3312.83C1007.88 3313.07 1008.1 3313.38 1008.23 3313.77ZM1011.87 3318.11C1011.35 3318.11 1010.9 3318 1010.51 3317.77C1010.14 3317.53 1009.84 3317.2 1009.64 3316.79C1009.43 3316.36 1009.33 3315.87 1009.33 3315.32C1009.33 3314.76 1009.43 3314.26 1009.64 3313.84C1009.84 3313.41 1010.13 3313.08 1010.5 3312.84C1010.87 3312.6 1011.3 3312.47 1011.79 3312.47C1012.07 3312.47 1012.35 3312.52 1012.63 3312.62C1012.91 3312.71 1013.16 3312.87 1013.39 3313.08C1013.61 3313.29 1013.8 3313.57 1013.93 3313.92C1014.07 3314.26 1014.13 3314.69 1014.13 3315.2V3315.56H1009.93V3314.83H1013.28C1013.28 3314.52 1013.22 3314.25 1013.1 3314.01C1012.98 3313.77 1012.8 3313.58 1012.58 3313.44C1012.35 3313.3 1012.09 3313.23 1011.79 3313.23C1011.46 3313.23 1011.17 3313.31 1010.92 3313.48C1010.68 3313.64 1010.5 3313.85 1010.37 3314.12C1010.23 3314.38 1010.17 3314.66 1010.17 3314.96V3315.44C1010.17 3315.86 1010.24 3316.2 1010.38 3316.49C1010.53 3316.77 1010.73 3316.99 1010.98 3317.14C1011.24 3317.29 1011.54 3317.36 1011.87 3317.36C1012.09 3317.36 1012.29 3317.33 1012.47 3317.27C1012.65 3317.2 1012.81 3317.11 1012.94 3316.98C1013.07 3316.86 1013.17 3316.7 1013.24 3316.51L1014.05 3316.74C1013.96 3317.01 1013.82 3317.25 1013.62 3317.46C1013.42 3317.67 1013.17 3317.83 1012.87 3317.94C1012.58 3318.06 1012.24 3318.11 1011.87 3318.11ZM1017.47 3318.11C1017.01 3318.11 1016.61 3318 1016.26 3317.77C1015.92 3317.54 1015.64 3317.21 1015.45 3316.79C1015.25 3316.37 1015.15 3315.86 1015.15 3315.29C1015.15 3314.71 1015.25 3314.22 1015.45 3313.8C1015.64 3313.37 1015.92 3313.05 1016.27 3312.82C1016.62 3312.59 1017.02 3312.47 1017.48 3312.47C1017.84 3312.47 1018.12 3312.53 1018.32 3312.65C1018.53 3312.77 1018.69 3312.9 1018.8 3313.05C1018.91 3313.2 1019 3313.32 1019.06 3313.41H1019.13V3310.73H1019.97V3318H1019.16V3317.16H1019.06C1019 3317.26 1018.91 3317.39 1018.8 3317.54C1018.68 3317.69 1018.52 3317.82 1018.31 3317.94C1018.1 3318.06 1017.82 3318.11 1017.47 3318.11ZM1017.58 3317.36C1017.92 3317.36 1018.2 3317.27 1018.43 3317.1C1018.67 3316.92 1018.84 3316.68 1018.96 3316.36C1019.08 3316.05 1019.14 3315.68 1019.14 3315.27C1019.14 3314.87 1019.08 3314.51 1018.97 3314.2C1018.85 3313.9 1018.67 3313.66 1018.44 3313.49C1018.21 3313.31 1017.92 3313.23 1017.58 3313.23C1017.23 3313.23 1016.93 3313.32 1016.69 3313.5C1016.46 3313.68 1016.28 3313.93 1016.16 3314.24C1016.05 3314.54 1015.99 3314.89 1015.99 3315.27C1015.99 3315.66 1016.05 3316.01 1016.17 3316.33C1016.29 3316.65 1016.47 3316.9 1016.7 3317.08C1016.94 3317.27 1017.23 3317.36 1017.58 3317.36ZM1027.87 3315.77V3312.55H1028.71V3318H1027.87V3317.08H1027.81C1027.68 3317.35 1027.49 3317.59 1027.22 3317.78C1026.95 3317.98 1026.6 3318.07 1026.19 3318.07C1025.85 3318.07 1025.55 3318 1025.28 3317.85C1025.02 3317.7 1024.81 3317.47 1024.66 3317.17C1024.51 3316.86 1024.43 3316.48 1024.43 3316.01V3312.55H1025.27V3315.95C1025.27 3316.35 1025.38 3316.67 1025.6 3316.91C1025.83 3317.14 1026.11 3317.26 1026.46 3317.26C1026.67 3317.26 1026.88 3317.21 1027.1 3317.1C1027.32 3317 1027.5 3316.83 1027.64 3316.61C1027.79 3316.39 1027.87 3316.11 1027.87 3315.77ZM1030.24 3320.05V3312.55H1031.05V3313.41H1031.15C1031.21 3313.32 1031.3 3313.2 1031.41 3313.05C1031.52 3312.9 1031.68 3312.77 1031.88 3312.65C1032.09 3312.53 1032.37 3312.47 1032.73 3312.47C1033.19 3312.47 1033.59 3312.59 1033.94 3312.82C1034.29 3313.05 1034.57 3313.37 1034.76 3313.8C1034.96 3314.22 1035.06 3314.71 1035.06 3315.29C1035.06 3315.86 1034.96 3316.37 1034.76 3316.79C1034.57 3317.21 1034.29 3317.54 1033.95 3317.77C1033.6 3318 1033.2 3318.11 1032.74 3318.11C1032.39 3318.11 1032.11 3318.06 1031.9 3317.94C1031.69 3317.82 1031.53 3317.69 1031.41 3317.54C1031.3 3317.39 1031.21 3317.26 1031.15 3317.16H1031.08V3320.05H1030.24ZM1031.07 3315.27C1031.07 3315.68 1031.13 3316.05 1031.25 3316.36C1031.37 3316.68 1031.54 3316.92 1031.78 3317.1C1032.01 3317.27 1032.29 3317.36 1032.63 3317.36C1032.98 3317.36 1033.27 3317.27 1033.51 3317.08C1033.74 3316.9 1033.92 3316.65 1034.04 3316.33C1034.16 3316.01 1034.22 3315.66 1034.22 3315.27C1034.22 3314.89 1034.16 3314.54 1034.04 3314.24C1033.93 3313.93 1033.75 3313.68 1033.51 3313.5C1033.28 3313.32 1032.98 3313.23 1032.63 3313.23C1032.29 3313.23 1032 3313.31 1031.77 3313.49C1031.54 3313.66 1031.36 3313.9 1031.24 3314.2C1031.12 3314.51 1031.07 3314.87 1031.07 3315.27ZM1036.34 3320.05V3312.55H1037.15V3313.41H1037.24C1037.31 3313.32 1037.39 3313.2 1037.5 3313.05C1037.61 3312.9 1037.77 3312.77 1037.98 3312.65C1038.18 3312.53 1038.47 3312.47 1038.82 3312.47C1039.28 3312.47 1039.69 3312.59 1040.04 3312.82C1040.39 3313.05 1040.66 3313.37 1040.86 3313.8C1041.05 3314.22 1041.15 3314.71 1041.15 3315.29C1041.15 3315.86 1041.05 3316.37 1040.86 3316.79C1040.66 3317.21 1040.39 3317.54 1040.04 3317.77C1039.69 3318 1039.29 3318.11 1038.84 3318.11C1038.49 3318.11 1038.2 3318.06 1037.99 3317.94C1037.78 3317.82 1037.62 3317.69 1037.51 3317.54C1037.39 3317.39 1037.31 3317.26 1037.24 3317.16H1037.17V3320.05H1036.34ZM1037.16 3315.27C1037.16 3315.68 1037.22 3316.05 1037.34 3316.36C1037.46 3316.68 1037.64 3316.92 1037.87 3317.1C1038.1 3317.27 1038.39 3317.36 1038.72 3317.36C1039.07 3317.36 1039.36 3317.27 1039.6 3317.08C1039.84 3316.9 1040.01 3316.65 1040.13 3316.33C1040.25 3316.01 1040.31 3315.66 1040.31 3315.27C1040.31 3314.89 1040.25 3314.54 1040.14 3314.24C1040.02 3313.93 1039.84 3313.68 1039.61 3313.5C1039.37 3313.32 1039.08 3313.23 1038.72 3313.23C1038.38 3313.23 1038.09 3313.31 1037.86 3313.49C1037.63 3313.66 1037.46 3313.9 1037.34 3314.2C1037.22 3314.51 1037.16 3314.87 1037.16 3315.27ZM1042.43 3320.05V3312.55H1043.24V3313.41H1043.34C1043.4 3313.32 1043.49 3313.2 1043.59 3313.05C1043.71 3312.9 1043.86 3312.77 1044.07 3312.65C1044.28 3312.53 1044.56 3312.47 1044.91 3312.47C1045.37 3312.47 1045.78 3312.59 1046.13 3312.82C1046.48 3313.05 1046.75 3313.37 1046.95 3313.8C1047.15 3314.22 1047.24 3314.71 1047.24 3315.29C1047.24 3315.86 1047.15 3316.37 1046.95 3316.79C1046.75 3317.21 1046.48 3317.54 1046.13 3317.77C1045.78 3318 1045.38 3318.11 1044.93 3318.11C1044.58 3318.11 1044.3 3318.06 1044.09 3317.94C1043.88 3317.82 1043.71 3317.69 1043.6 3317.54C1043.49 3317.39 1043.4 3317.26 1043.34 3317.16H1043.27V3320.05H1042.43ZM1043.25 3315.27C1043.25 3315.68 1043.31 3316.05 1043.43 3316.36C1043.55 3316.68 1043.73 3316.92 1043.96 3317.1C1044.2 3317.27 1044.48 3317.36 1044.82 3317.36C1045.17 3317.36 1045.46 3317.27 1045.69 3317.08C1045.93 3316.9 1046.11 3316.65 1046.23 3316.33C1046.35 3316.01 1046.41 3315.66 1046.41 3315.27C1046.41 3314.89 1046.35 3314.54 1046.23 3314.24C1046.11 3313.93 1045.94 3313.68 1045.7 3313.5C1045.47 3313.32 1045.17 3313.23 1044.82 3313.23C1044.47 3313.23 1044.19 3313.31 1043.96 3313.49C1043.72 3313.66 1043.55 3313.9 1043.43 3314.2C1043.31 3314.51 1043.25 3314.87 1043.25 3315.27ZM1049.13 3318.06C1048.96 3318.06 1048.81 3317.99 1048.68 3317.87C1048.56 3317.74 1048.49 3317.59 1048.49 3317.42C1048.49 3317.24 1048.56 3317.09 1048.68 3316.97C1048.81 3316.84 1048.96 3316.78 1049.13 3316.78C1049.31 3316.78 1049.46 3316.84 1049.58 3316.97C1049.71 3317.09 1049.77 3317.24 1049.77 3317.42C1049.77 3317.53 1049.74 3317.64 1049.68 3317.74C1049.63 3317.83 1049.55 3317.91 1049.45 3317.97C1049.36 3318.03 1049.25 3318.06 1049.13 3318.06ZM1051.89 3318.06C1051.71 3318.06 1051.56 3317.99 1051.44 3317.87C1051.31 3317.74 1051.25 3317.59 1051.25 3317.42C1051.25 3317.24 1051.31 3317.09 1051.44 3316.97C1051.56 3316.84 1051.71 3316.78 1051.89 3316.78C1052.06 3316.78 1052.21 3316.84 1052.34 3316.97C1052.46 3317.09 1052.53 3317.24 1052.53 3317.42C1052.53 3317.53 1052.5 3317.64 1052.44 3317.74C1052.38 3317.83 1052.3 3317.91 1052.21 3317.97C1052.11 3318.03 1052.01 3318.06 1051.89 3318.06ZM1054.64 3318.06C1054.47 3318.06 1054.32 3317.99 1054.19 3317.87C1054.07 3317.74 1054 3317.59 1054 3317.42C1054 3317.24 1054.07 3317.09 1054.19 3316.97C1054.32 3316.84 1054.47 3316.78 1054.64 3316.78C1054.82 3316.78 1054.97 3316.84 1055.09 3316.97C1055.22 3317.09 1055.28 3317.24 1055.28 3317.42C1055.28 3317.53 1055.25 3317.64 1055.19 3317.74C1055.14 3317.83 1055.06 3317.91 1054.96 3317.97C1054.87 3318.03 1054.76 3318.06 1054.64 3318.06Z" fill="black"/>
<path d="M862.003 1860L860.341 1854.55H861.222L862.401 1858.72H862.457L863.622 1854.55H864.517L865.668 1858.71H865.724L866.903 1854.55H867.784L866.122 1860H865.298L864.105 1855.81H864.02L862.827 1860H862.003ZM869.73 1856.72V1860H868.892V1852.73H869.73V1855.4H869.801C869.929 1855.12 870.121 1854.89 870.376 1854.73C870.634 1854.56 870.978 1854.47 871.406 1854.47C871.778 1854.47 872.103 1854.55 872.383 1854.7C872.662 1854.84 872.879 1855.07 873.033 1855.38C873.189 1855.68 873.267 1856.07 873.267 1856.53V1860H872.429V1856.59C872.429 1856.16 872.317 1855.82 872.092 1855.59C871.869 1855.35 871.56 1855.23 871.165 1855.23C870.89 1855.23 870.644 1855.29 870.426 1855.4C870.211 1855.52 870.04 1855.69 869.915 1855.91C869.792 1856.13 869.73 1856.4 869.73 1856.72ZM876.405 1860.13C876.06 1860.13 875.746 1860.06 875.464 1859.93C875.183 1859.8 874.959 1859.61 874.793 1859.36C874.627 1859.11 874.545 1858.81 874.545 1858.45C874.545 1858.14 874.606 1857.89 874.729 1857.69C874.852 1857.5 875.017 1857.34 875.223 1857.23C875.429 1857.12 875.656 1857.04 875.905 1856.98C876.156 1856.92 876.408 1856.88 876.661 1856.85C876.992 1856.8 877.261 1856.77 877.467 1856.75C877.675 1856.73 877.827 1856.69 877.922 1856.63C878.019 1856.58 878.067 1856.48 878.067 1856.35V1856.32C878.067 1855.97 877.971 1855.7 877.78 1855.5C877.59 1855.31 877.303 1855.21 876.917 1855.21C876.517 1855.21 876.203 1855.3 875.976 1855.48C875.748 1855.65 875.589 1855.84 875.496 1856.04L874.701 1855.75C874.843 1855.42 875.032 1855.16 875.269 1854.98C875.508 1854.79 875.769 1854.66 876.05 1854.59C876.334 1854.51 876.614 1854.47 876.888 1854.47C877.064 1854.47 877.265 1854.5 877.492 1854.54C877.722 1854.58 877.943 1854.66 878.156 1854.79C878.372 1854.92 878.55 1855.11 878.692 1855.37C878.834 1855.63 878.905 1855.97 878.905 1856.41V1860H878.067V1859.26H878.025C877.968 1859.38 877.873 1859.51 877.741 1859.64C877.608 1859.78 877.432 1859.89 877.211 1859.99C876.991 1860.08 876.723 1860.13 876.405 1860.13ZM876.533 1859.38C876.865 1859.38 877.144 1859.31 877.371 1859.18C877.601 1859.05 877.774 1858.88 877.89 1858.68C878.008 1858.47 878.067 1858.25 878.067 1858.03V1857.26C878.032 1857.3 877.954 1857.34 877.833 1857.38C877.715 1857.41 877.577 1857.44 877.421 1857.46C877.267 1857.49 877.117 1857.51 876.97 1857.53C876.826 1857.54 876.708 1857.56 876.618 1857.57C876.401 1857.6 876.197 1857.65 876.008 1857.71C875.821 1857.77 875.669 1857.86 875.553 1857.99C875.439 1858.11 875.383 1858.28 875.383 1858.49C875.383 1858.79 875.49 1859.01 875.706 1859.15C875.924 1859.3 876.199 1859.38 876.533 1859.38ZM882.807 1854.55V1855.26H879.98V1854.55H882.807ZM880.804 1853.24H881.642V1858.44C881.642 1858.67 881.677 1858.85 881.745 1858.97C881.816 1859.09 881.906 1859.16 882.015 1859.2C882.127 1859.24 882.244 1859.26 882.367 1859.26C882.459 1859.26 882.535 1859.26 882.594 1859.25C882.653 1859.24 882.701 1859.23 882.736 1859.22L882.907 1859.97C882.85 1859.99 882.77 1860.01 882.669 1860.04C882.567 1860.06 882.438 1860.07 882.282 1860.07C882.045 1860.07 881.813 1860.02 881.586 1859.92C881.361 1859.82 881.174 1859.66 881.025 1859.45C880.878 1859.24 880.804 1858.98 880.804 1858.66V1853.24ZM888.116 1860L886.454 1854.55H887.335L888.514 1858.72H888.571L889.735 1854.55H890.63L891.781 1858.71H891.838L893.017 1854.55H893.897L892.235 1860H891.412L890.218 1855.81H890.133L888.94 1860H888.116ZM896.61 1860.13C896.265 1860.13 895.951 1860.06 895.669 1859.93C895.388 1859.8 895.164 1859.61 894.998 1859.36C894.833 1859.11 894.75 1858.81 894.75 1858.45C894.75 1858.14 894.811 1857.89 894.934 1857.69C895.057 1857.5 895.222 1857.34 895.428 1857.23C895.634 1857.12 895.861 1857.04 896.11 1856.98C896.361 1856.92 896.613 1856.88 896.866 1856.85C897.198 1856.8 897.466 1856.77 897.672 1856.75C897.881 1856.73 898.032 1856.69 898.127 1856.63C898.224 1856.58 898.272 1856.48 898.272 1856.35V1856.32C898.272 1855.97 898.176 1855.7 897.985 1855.5C897.795 1855.31 897.508 1855.21 897.122 1855.21C896.722 1855.21 896.408 1855.3 896.181 1855.48C895.953 1855.65 895.794 1855.84 895.701 1856.04L894.906 1855.75C895.048 1855.42 895.237 1855.16 895.474 1854.98C895.713 1854.79 895.974 1854.66 896.255 1854.59C896.539 1854.51 896.819 1854.47 897.093 1854.47C897.269 1854.47 897.47 1854.5 897.697 1854.54C897.927 1854.58 898.148 1854.66 898.361 1854.79C898.577 1854.92 898.755 1855.11 898.897 1855.37C899.039 1855.63 899.11 1855.97 899.11 1856.41V1860H898.272V1859.26H898.23C898.173 1859.38 898.078 1859.51 897.946 1859.64C897.813 1859.78 897.637 1859.89 897.417 1859.99C897.196 1860.08 896.928 1860.13 896.61 1860.13ZM896.738 1859.38C897.07 1859.38 897.349 1859.31 897.576 1859.18C897.806 1859.05 897.979 1858.88 898.095 1858.68C898.213 1858.47 898.272 1858.25 898.272 1858.03V1857.26C898.237 1857.3 898.159 1857.34 898.038 1857.38C897.92 1857.41 897.782 1857.44 897.626 1857.46C897.472 1857.49 897.322 1857.51 897.175 1857.53C897.031 1857.54 896.913 1857.56 896.824 1857.57C896.606 1857.6 896.402 1857.65 896.213 1857.71C896.026 1857.77 895.874 1857.86 895.758 1857.99C895.645 1858.11 895.588 1858.28 895.588 1858.49C895.588 1858.79 895.695 1859.01 895.911 1859.15C896.129 1859.3 896.404 1859.38 896.738 1859.38ZM904.504 1855.77L903.751 1855.98C903.704 1855.85 903.634 1855.73 903.541 1855.61C903.451 1855.49 903.328 1855.39 903.172 1855.32C903.016 1855.24 902.816 1855.2 902.572 1855.2C902.238 1855.2 901.96 1855.28 901.737 1855.43C901.517 1855.58 901.407 1855.77 901.407 1856.01C901.407 1856.22 901.483 1856.38 901.634 1856.5C901.786 1856.62 902.023 1856.72 902.345 1856.8L903.154 1857C903.642 1857.12 904.005 1857.3 904.244 1857.55C904.484 1857.79 904.603 1858.1 904.603 1858.48C904.603 1858.79 904.513 1859.07 904.333 1859.32C904.156 1859.56 903.907 1859.76 903.588 1859.9C903.268 1860.04 902.896 1860.11 902.472 1860.11C901.916 1860.11 901.456 1859.99 901.091 1859.75C900.727 1859.51 900.496 1859.16 900.399 1858.69L901.194 1858.49C901.27 1858.79 901.413 1859.01 901.624 1859.15C901.837 1859.3 902.115 1859.38 902.458 1859.38C902.849 1859.38 903.159 1859.29 903.389 1859.13C903.621 1858.96 903.737 1858.76 903.737 1858.52C903.737 1858.33 903.67 1858.17 903.538 1858.05C903.405 1857.92 903.202 1857.82 902.927 1857.76L902.018 1857.54C901.518 1857.42 901.151 1857.24 900.917 1856.99C900.685 1856.74 900.569 1856.43 900.569 1856.05C900.569 1855.74 900.655 1855.47 900.828 1855.23C901.003 1855 901.241 1854.81 901.542 1854.68C901.845 1854.54 902.188 1854.47 902.572 1854.47C903.112 1854.47 903.535 1854.59 903.843 1854.83C904.153 1855.07 904.374 1855.38 904.504 1855.77ZM908.677 1860V1854.55H909.515V1860H908.677ZM909.103 1853.64C908.94 1853.64 908.799 1853.58 908.681 1853.47C908.565 1853.36 908.507 1853.22 908.507 1853.07C908.507 1852.91 908.565 1852.78 908.681 1852.67C908.799 1852.56 908.94 1852.5 909.103 1852.5C909.267 1852.5 909.406 1852.56 909.522 1852.67C909.641 1852.78 909.7 1852.91 909.7 1853.07C909.7 1853.22 909.641 1853.36 909.522 1853.47C909.406 1853.58 909.267 1853.64 909.103 1853.64ZM913.422 1854.55V1855.26H910.596V1854.55H913.422ZM911.42 1853.24H912.258V1858.44C912.258 1858.67 912.292 1858.85 912.361 1858.97C912.432 1859.09 912.522 1859.16 912.631 1859.2C912.742 1859.24 912.859 1859.26 912.982 1859.26C913.074 1859.26 913.15 1859.26 913.209 1859.25C913.269 1859.24 913.316 1859.23 913.351 1859.22L913.522 1859.97C913.465 1859.99 913.386 1860.01 913.284 1860.04C913.182 1860.06 913.053 1860.07 912.897 1860.07C912.66 1860.07 912.428 1860.02 912.201 1859.92C911.976 1859.82 911.789 1859.66 911.64 1859.45C911.493 1859.24 911.42 1858.98 911.42 1858.66V1853.24ZM915.777 1857.95V1857.91C915.782 1857.46 915.829 1857.1 915.919 1856.83C916.009 1856.56 916.137 1856.35 916.302 1856.18C916.468 1856.02 916.667 1855.86 916.899 1855.72C917.039 1855.64 917.164 1855.54 917.275 1855.42C917.387 1855.3 917.474 1855.17 917.538 1855.01C917.604 1854.86 917.638 1854.69 917.638 1854.5C917.638 1854.27 917.583 1854.07 917.474 1853.9C917.365 1853.73 917.22 1853.6 917.037 1853.5C916.855 1853.41 916.653 1853.37 916.43 1853.37C916.236 1853.37 916.049 1853.41 915.869 1853.49C915.689 1853.57 915.539 1853.69 915.418 1853.87C915.297 1854.04 915.228 1854.27 915.209 1854.55H914.314C914.333 1854.14 914.437 1853.8 914.626 1853.51C914.818 1853.23 915.07 1853.01 915.383 1852.86C915.698 1852.7 916.047 1852.63 916.43 1852.63C916.847 1852.63 917.209 1852.71 917.517 1852.88C917.827 1853.04 918.066 1853.27 918.234 1853.56C918.405 1853.85 918.49 1854.18 918.49 1854.55C918.49 1854.81 918.45 1855.04 918.369 1855.25C918.291 1855.46 918.177 1855.65 918.028 1855.82C917.881 1855.98 917.704 1856.13 917.496 1856.26C917.287 1856.39 917.12 1856.52 916.995 1856.67C916.869 1856.81 916.778 1856.98 916.721 1857.18C916.665 1857.37 916.634 1857.62 916.629 1857.91V1857.95H915.777ZM916.231 1860.06C916.056 1860.06 915.906 1859.99 915.78 1859.87C915.655 1859.74 915.592 1859.59 915.592 1859.42C915.592 1859.24 915.655 1859.09 915.78 1858.97C915.906 1858.84 916.056 1858.78 916.231 1858.78C916.407 1858.78 916.557 1858.84 916.682 1858.97C916.808 1859.09 916.871 1859.24 916.871 1859.42C916.871 1859.53 916.841 1859.64 916.782 1859.74C916.725 1859.83 916.648 1859.91 916.551 1859.97C916.456 1860.03 916.35 1860.06 916.231 1860.06ZM920.845 1857.95V1857.91C920.85 1857.46 920.897 1857.1 920.987 1856.83C921.077 1856.56 921.205 1856.35 921.371 1856.18C921.536 1856.02 921.735 1855.86 921.967 1855.72C922.107 1855.64 922.232 1855.54 922.344 1855.42C922.455 1855.3 922.543 1855.17 922.607 1855.01C922.673 1854.86 922.706 1854.69 922.706 1854.5C922.706 1854.27 922.652 1854.07 922.543 1853.9C922.434 1853.73 922.288 1853.6 922.106 1853.5C921.924 1853.41 921.721 1853.37 921.499 1853.37C921.304 1853.37 921.117 1853.41 920.938 1853.49C920.758 1853.57 920.607 1853.69 920.487 1853.87C920.366 1854.04 920.296 1854.27 920.277 1854.55H919.382C919.401 1854.14 919.505 1853.8 919.695 1853.51C919.886 1853.23 920.138 1853.01 920.451 1852.86C920.766 1852.7 921.115 1852.63 921.499 1852.63C921.915 1852.63 922.277 1852.71 922.585 1852.88C922.895 1853.04 923.134 1853.27 923.303 1853.56C923.473 1853.85 923.558 1854.18 923.558 1854.55C923.558 1854.81 923.518 1855.04 923.438 1855.25C923.359 1855.46 923.246 1855.65 923.097 1855.82C922.95 1855.98 922.772 1856.13 922.564 1856.26C922.356 1856.39 922.189 1856.52 922.063 1856.67C921.938 1856.81 921.847 1856.98 921.79 1857.18C921.733 1857.37 921.702 1857.62 921.697 1857.91V1857.95H920.845ZM921.3 1860.06C921.125 1860.06 920.974 1859.99 920.849 1859.87C920.723 1859.74 920.661 1859.59 920.661 1859.42C920.661 1859.24 920.723 1859.09 920.849 1858.97C920.974 1858.84 921.125 1858.78 921.3 1858.78C921.475 1858.78 921.625 1858.84 921.751 1858.97C921.876 1859.09 921.939 1859.24 921.939 1859.42C921.939 1859.53 921.909 1859.64 921.85 1859.74C921.793 1859.83 921.716 1859.91 921.619 1859.97C921.525 1860.03 921.418 1860.06 921.3 1860.06Z" fill="black"/>
<path d="M75.767 1279V1273.55H76.5767V1274.4H76.6477C76.7614 1274.11 76.9448 1273.88 77.1982 1273.72C77.4515 1273.56 77.7557 1273.47 78.1108 1273.47C78.4706 1273.47 78.7701 1273.56 79.0092 1273.72C79.2507 1273.88 79.4389 1274.11 79.5739 1274.4H79.6307C79.7704 1274.12 79.9799 1273.89 80.2592 1273.73C80.5386 1273.56 80.8736 1273.47 81.2642 1273.47C81.7519 1273.47 82.1508 1273.63 82.4609 1273.93C82.7711 1274.24 82.9261 1274.71 82.9261 1275.35V1279H82.0881V1275.35C82.0881 1274.95 81.978 1274.66 81.7578 1274.49C81.5376 1274.31 81.2784 1274.23 80.9801 1274.23C80.5966 1274.23 80.2995 1274.34 80.0888 1274.58C79.8781 1274.8 79.7727 1275.1 79.7727 1275.45V1279H78.9205V1275.26C78.9205 1274.95 78.8198 1274.7 78.6186 1274.51C78.4174 1274.32 78.1581 1274.23 77.8409 1274.23C77.6231 1274.23 77.4195 1274.29 77.2301 1274.4C77.0431 1274.52 76.8916 1274.68 76.7756 1274.88C76.6619 1275.09 76.6051 1275.32 76.6051 1275.59V1279H75.767ZM84.4585 1279V1273.55H85.2681V1274.4H85.3391C85.4528 1274.11 85.6362 1273.88 85.8896 1273.72C86.1429 1273.56 86.4471 1273.47 86.8022 1273.47C87.1621 1273.47 87.4615 1273.56 87.7006 1273.72C87.9421 1273.88 88.1303 1274.11 88.2653 1274.4H88.3221C88.4618 1274.12 88.6713 1273.89 88.9506 1273.73C89.23 1273.56 89.565 1273.47 89.9556 1273.47C90.4433 1273.47 90.8422 1273.63 91.1523 1273.93C91.4625 1274.24 91.6175 1274.71 91.6175 1275.35V1279H90.7795V1275.35C90.7795 1274.95 90.6694 1274.66 90.4492 1274.49C90.229 1274.31 89.9698 1274.23 89.6715 1274.23C89.288 1274.23 88.9909 1274.34 88.7802 1274.58C88.5695 1274.8 88.4641 1275.1 88.4641 1275.45V1279H87.6119V1275.26C87.6119 1274.95 87.5112 1274.7 87.31 1274.51C87.1088 1274.32 86.8496 1274.23 86.5323 1274.23C86.3145 1274.23 86.1109 1274.29 85.9215 1274.4C85.7345 1274.52 85.583 1274.68 85.467 1274.88C85.3533 1275.09 85.2965 1275.32 85.2965 1275.59V1279H84.4585ZM93.1499 1279V1273.55H93.9595V1274.4H94.0305C94.1442 1274.11 94.3277 1273.88 94.581 1273.72C94.8343 1273.56 95.1385 1273.47 95.4936 1273.47C95.8535 1273.47 96.1529 1273.56 96.392 1273.72C96.6335 1273.88 96.8217 1274.11 96.9567 1274.4H97.0135C97.1532 1274.12 97.3627 1273.89 97.642 1273.73C97.9214 1273.56 98.2564 1273.47 98.647 1273.47C99.1347 1273.47 99.5336 1273.63 99.8438 1273.93C100.154 1274.24 100.309 1274.71 100.309 1275.35V1279H99.4709V1275.35C99.4709 1274.95 99.3608 1274.66 99.1406 1274.49C98.9205 1274.31 98.6612 1274.23 98.3629 1274.23C97.9794 1274.23 97.6823 1274.34 97.4716 1274.58C97.2609 1274.8 97.1555 1275.1 97.1555 1275.45V1279H96.3033V1275.26C96.3033 1274.95 96.2027 1274.7 96.0014 1274.51C95.8002 1274.32 95.541 1274.23 95.2237 1274.23C95.0059 1274.23 94.8023 1274.29 94.6129 1274.4C94.4259 1274.52 94.2744 1274.68 94.1584 1274.88C94.0447 1275.09 93.9879 1275.32 93.9879 1275.59V1279H93.1499ZM104.654 1279V1273.55H105.492V1279H104.654ZM105.08 1272.64C104.917 1272.64 104.776 1272.58 104.657 1272.47C104.541 1272.36 104.483 1272.22 104.483 1272.07C104.483 1271.91 104.541 1271.78 104.657 1271.67C104.776 1271.56 104.917 1271.5 105.08 1271.5C105.243 1271.5 105.383 1271.56 105.499 1271.67C105.617 1271.78 105.676 1271.91 105.676 1272.07C105.676 1272.22 105.617 1272.36 105.499 1272.47C105.383 1272.58 105.243 1272.64 105.08 1272.64ZM109.086 1279.11C108.632 1279.11 108.231 1279 107.883 1278.77C107.535 1278.54 107.262 1278.21 107.066 1277.79C106.869 1277.37 106.771 1276.86 106.771 1276.29C106.771 1275.71 106.869 1275.22 107.066 1274.8C107.262 1274.37 107.536 1274.05 107.886 1273.82C108.237 1273.59 108.641 1273.47 109.101 1273.47C109.456 1273.47 109.736 1273.53 109.942 1273.65C110.151 1273.77 110.309 1273.9 110.418 1274.05C110.529 1274.2 110.616 1274.32 110.677 1274.41H110.748V1271.73H111.586V1279H110.777V1278.16H110.677C110.616 1278.26 110.528 1278.39 110.415 1278.54C110.301 1278.69 110.139 1278.82 109.928 1278.94C109.717 1279.06 109.437 1279.11 109.086 1279.11ZM109.2 1278.36C109.536 1278.36 109.82 1278.27 110.052 1278.1C110.284 1277.92 110.461 1277.68 110.581 1277.36C110.702 1277.05 110.763 1276.68 110.763 1276.27C110.763 1275.87 110.703 1275.51 110.585 1275.2C110.467 1274.9 110.291 1274.66 110.059 1274.49C109.827 1274.31 109.541 1274.23 109.2 1274.23C108.845 1274.23 108.549 1274.32 108.312 1274.5C108.078 1274.68 107.902 1274.93 107.783 1275.24C107.667 1275.54 107.609 1275.89 107.609 1276.27C107.609 1276.66 107.668 1277.01 107.787 1277.33C107.907 1277.65 108.085 1277.9 108.319 1278.08C108.556 1278.27 108.85 1278.36 109.2 1278.36ZM114.019 1277.01L114.005 1275.97H114.175L116.562 1273.55H117.599L115.056 1276.12H114.985L114.019 1277.01ZM113.238 1279V1271.73H114.076V1279H113.238ZM116.704 1279L114.573 1276.3L115.17 1275.72L117.769 1279H116.704ZM125.353 1274.77L124.6 1274.98C124.553 1274.85 124.483 1274.73 124.391 1274.61C124.301 1274.49 124.178 1274.39 124.022 1274.32C123.865 1274.24 123.665 1274.2 123.422 1274.2C123.088 1274.2 122.81 1274.28 122.587 1274.43C122.367 1274.58 122.257 1274.77 122.257 1275.01C122.257 1275.22 122.333 1275.38 122.484 1275.5C122.636 1275.62 122.872 1275.72 123.194 1275.8L124.004 1276C124.492 1276.12 124.855 1276.3 125.094 1276.55C125.333 1276.79 125.453 1277.1 125.453 1277.48C125.453 1277.79 125.363 1278.07 125.183 1278.32C125.005 1278.56 124.757 1278.76 124.437 1278.9C124.118 1279.04 123.746 1279.11 123.322 1279.11C122.766 1279.11 122.305 1278.99 121.941 1278.75C121.576 1278.51 121.345 1278.16 121.248 1277.69L122.044 1277.49C122.119 1277.79 122.263 1278.01 122.473 1278.15C122.686 1278.3 122.965 1278.38 123.308 1278.38C123.699 1278.38 124.009 1278.29 124.238 1278.13C124.47 1277.96 124.586 1277.76 124.586 1277.52C124.586 1277.33 124.52 1277.17 124.387 1277.05C124.255 1276.92 124.051 1276.82 123.777 1276.76L122.868 1276.54C122.368 1276.42 122.001 1276.24 121.767 1275.99C121.535 1275.74 121.419 1275.43 121.419 1275.05C121.419 1274.74 121.505 1274.47 121.678 1274.23C121.853 1274 122.091 1273.81 122.392 1273.68C122.695 1273.54 123.038 1273.47 123.422 1273.47C123.961 1273.47 124.385 1273.59 124.693 1273.83C125.003 1274.07 125.223 1274.38 125.353 1274.77ZM127.552 1275.72V1279H126.714V1271.73H127.552V1274.4H127.623C127.751 1274.12 127.943 1273.89 128.199 1273.73C128.457 1273.56 128.8 1273.47 129.229 1273.47C129.6 1273.47 129.926 1273.55 130.205 1273.7C130.484 1273.84 130.701 1274.07 130.855 1274.38C131.011 1274.68 131.089 1275.07 131.089 1275.53V1279H130.251V1275.59C130.251 1275.16 130.139 1274.82 129.914 1274.59C129.691 1274.35 129.382 1274.23 128.987 1274.23C128.712 1274.23 128.466 1274.29 128.248 1274.4C128.033 1274.52 127.863 1274.69 127.737 1274.91C127.614 1275.13 127.552 1275.4 127.552 1275.72ZM134.909 1279.11C134.384 1279.11 133.931 1279 133.549 1278.77C133.171 1278.53 132.878 1278.2 132.672 1277.79C132.469 1277.36 132.367 1276.87 132.367 1276.32C132.367 1275.76 132.469 1275.26 132.672 1274.84C132.878 1274.41 133.165 1274.08 133.532 1273.84C133.901 1273.6 134.332 1273.47 134.824 1273.47C135.108 1273.47 135.389 1273.52 135.666 1273.62C135.943 1273.71 136.195 1273.87 136.422 1274.08C136.65 1274.29 136.831 1274.57 136.966 1274.92C137.1 1275.26 137.168 1275.69 137.168 1276.2V1276.56H132.963V1275.83H136.316C136.316 1275.52 136.254 1275.25 136.131 1275.01C136.01 1274.77 135.837 1274.58 135.613 1274.44C135.39 1274.3 135.127 1274.23 134.824 1274.23C134.49 1274.23 134.202 1274.31 133.958 1274.48C133.716 1274.64 133.53 1274.85 133.4 1275.12C133.27 1275.38 133.205 1275.66 133.205 1275.96V1276.44C133.205 1276.86 133.276 1277.2 133.418 1277.49C133.562 1277.77 133.762 1277.99 134.018 1278.14C134.274 1278.29 134.571 1278.36 134.909 1278.36C135.13 1278.36 135.328 1278.33 135.506 1278.27C135.686 1278.2 135.841 1278.11 135.971 1277.98C136.101 1277.86 136.202 1277.7 136.273 1277.51L137.083 1277.74C136.998 1278.01 136.854 1278.25 136.653 1278.46C136.452 1278.67 136.203 1278.83 135.907 1278.94C135.611 1279.06 135.279 1279.11 134.909 1279.11ZM142.306 1274.77L141.554 1274.98C141.506 1274.85 141.436 1274.73 141.344 1274.61C141.254 1274.49 141.131 1274.39 140.975 1274.32C140.819 1274.24 140.618 1274.2 140.375 1274.2C140.041 1274.2 139.763 1274.28 139.54 1274.43C139.32 1274.58 139.21 1274.77 139.21 1275.01C139.21 1275.22 139.286 1275.38 139.437 1275.5C139.589 1275.62 139.825 1275.72 140.147 1275.8L140.957 1276C141.445 1276.12 141.808 1276.3 142.047 1276.55C142.286 1276.79 142.406 1277.1 142.406 1277.48C142.406 1277.79 142.316 1278.07 142.136 1278.32C141.958 1278.56 141.71 1278.76 141.39 1278.9C141.071 1279.04 140.699 1279.11 140.275 1279.11C139.719 1279.11 139.258 1278.99 138.894 1278.75C138.529 1278.51 138.298 1278.16 138.201 1277.69L138.997 1277.49C139.073 1277.79 139.216 1278.01 139.426 1278.15C139.64 1278.3 139.918 1278.38 140.261 1278.38C140.652 1278.38 140.962 1278.29 141.191 1278.13C141.423 1277.96 141.539 1277.76 141.539 1277.52C141.539 1277.33 141.473 1277.17 141.341 1277.05C141.208 1276.92 141.004 1276.82 140.73 1276.76L139.821 1276.54C139.321 1276.42 138.954 1276.24 138.72 1275.99C138.488 1275.74 138.372 1275.43 138.372 1275.05C138.372 1274.74 138.458 1274.47 138.631 1274.23C138.806 1274 139.044 1273.81 139.345 1273.68C139.648 1273.54 139.991 1273.47 140.375 1273.47C140.914 1273.47 141.338 1273.59 141.646 1273.83C141.956 1274.07 142.176 1274.38 142.306 1274.77ZM148.696 1279.11C148.203 1279.11 147.771 1279 147.4 1278.76C147.03 1278.53 146.742 1278.2 146.533 1277.78C146.327 1277.36 146.224 1276.86 146.224 1276.3C146.224 1275.73 146.327 1275.24 146.533 1274.81C146.742 1274.39 147.03 1274.06 147.4 1273.83C147.771 1273.59 148.203 1273.47 148.696 1273.47C149.188 1273.47 149.619 1273.59 149.988 1273.83C150.36 1274.06 150.649 1274.39 150.855 1274.81C151.063 1275.24 151.167 1275.73 151.167 1276.3C151.167 1276.86 151.063 1277.36 150.855 1277.78C150.649 1278.2 150.36 1278.53 149.988 1278.76C149.619 1279 149.188 1279.11 148.696 1279.11ZM148.696 1278.36C149.07 1278.36 149.378 1278.26 149.619 1278.07C149.861 1277.88 150.039 1277.63 150.155 1277.32C150.271 1277 150.329 1276.67 150.329 1276.3C150.329 1275.94 150.271 1275.6 150.155 1275.28C150.039 1274.97 149.861 1274.71 149.619 1274.52C149.378 1274.32 149.07 1274.23 148.696 1274.23C148.322 1274.23 148.014 1274.32 147.773 1274.52C147.531 1274.71 147.352 1274.97 147.236 1275.28C147.12 1275.6 147.062 1275.94 147.062 1276.3C147.062 1276.67 147.12 1277 147.236 1277.32C147.352 1277.63 147.531 1277.88 147.773 1278.07C148.014 1278.26 148.322 1278.36 148.696 1278.36ZM153.228 1277.01L153.214 1275.97H153.384L155.771 1273.55H156.808L154.265 1276.12H154.194L153.228 1277.01ZM152.447 1279V1271.73H153.285V1279H152.447ZM155.913 1279L153.782 1276.3L154.379 1275.72L156.978 1279H155.913ZM158.497 1279.06C158.322 1279.06 158.171 1278.99 158.046 1278.87C157.921 1278.74 157.858 1278.59 157.858 1278.42C157.858 1278.24 157.921 1278.09 158.046 1277.97C158.171 1277.84 158.322 1277.78 158.497 1277.78C158.672 1277.78 158.823 1277.84 158.948 1277.97C159.073 1278.09 159.136 1278.24 159.136 1278.42C159.136 1278.53 159.107 1278.64 159.047 1278.74C158.991 1278.83 158.914 1278.91 158.817 1278.97C158.722 1279.03 158.615 1279.06 158.497 1279.06ZM161.251 1279.06C161.076 1279.06 160.925 1278.99 160.8 1278.87C160.674 1278.74 160.612 1278.59 160.612 1278.42C160.612 1278.24 160.674 1278.09 160.8 1277.97C160.925 1277.84 161.076 1277.78 161.251 1277.78C161.426 1277.78 161.576 1277.84 161.702 1277.97C161.827 1278.09 161.89 1278.24 161.89 1278.42C161.89 1278.53 161.86 1278.64 161.801 1278.74C161.744 1278.83 161.668 1278.91 161.57 1278.97C161.476 1279.03 161.369 1279.06 161.251 1279.06Z" fill="black"/>
<path d="M463.631 166.767L462.878 166.98C462.83 166.855 462.761 166.733 462.668 166.614C462.578 166.494 462.455 166.394 462.299 166.316C462.143 166.238 461.943 166.199 461.699 166.199C461.365 166.199 461.087 166.276 460.864 166.43C460.644 166.581 460.534 166.774 460.534 167.009C460.534 167.217 460.61 167.381 460.761 167.502C460.913 167.623 461.15 167.723 461.472 167.804L462.281 168.003C462.769 168.121 463.132 168.302 463.371 168.546C463.611 168.788 463.73 169.099 463.73 169.48C463.73 169.793 463.64 170.072 463.46 170.318C463.283 170.564 463.034 170.759 462.714 170.901C462.395 171.043 462.023 171.114 461.599 171.114C461.043 171.114 460.583 170.993 460.218 170.751C459.853 170.51 459.623 170.157 459.526 169.693L460.321 169.494C460.397 169.788 460.54 170.008 460.751 170.155C460.964 170.302 461.242 170.375 461.585 170.375C461.976 170.375 462.286 170.292 462.516 170.126C462.748 169.958 462.864 169.757 462.864 169.523C462.864 169.333 462.797 169.175 462.665 169.047C462.532 168.917 462.329 168.82 462.054 168.756L461.145 168.543C460.645 168.424 460.278 168.241 460.044 167.992C459.812 167.741 459.696 167.428 459.696 167.051C459.696 166.743 459.782 166.471 459.955 166.234C460.13 165.998 460.368 165.812 460.669 165.677C460.972 165.542 461.315 165.474 461.699 165.474C462.239 165.474 462.662 165.593 462.97 165.83C463.28 166.066 463.5 166.379 463.631 166.767ZM465.83 167.719V171H464.992V163.727H465.83V166.398H465.901C466.029 166.116 466.22 165.892 466.476 165.727C466.734 165.558 467.077 165.474 467.506 165.474C467.878 165.474 468.203 165.549 468.482 165.698C468.762 165.845 468.978 166.071 469.132 166.376C469.289 166.679 469.367 167.065 469.367 167.534V171H468.529V167.591C468.529 167.158 468.416 166.823 468.191 166.586C467.969 166.347 467.66 166.227 467.264 166.227C466.99 166.227 466.744 166.285 466.526 166.401C466.31 166.517 466.14 166.687 466.014 166.909C465.891 167.132 465.83 167.402 465.83 167.719ZM473.187 171.114C472.661 171.114 472.208 170.998 471.827 170.766C471.448 170.531 471.156 170.205 470.95 169.786C470.746 169.364 470.644 168.874 470.644 168.315C470.644 167.757 470.746 167.264 470.95 166.838C471.156 166.41 471.442 166.076 471.809 165.837C472.178 165.595 472.609 165.474 473.102 165.474C473.386 165.474 473.666 165.522 473.943 165.616C474.22 165.711 474.472 165.865 474.7 166.078C474.927 166.289 475.108 166.568 475.243 166.916C475.378 167.264 475.445 167.693 475.445 168.202V168.557H471.241V167.832H474.593C474.593 167.525 474.531 167.25 474.408 167.009C474.288 166.767 474.115 166.576 473.89 166.437C473.667 166.297 473.405 166.227 473.102 166.227C472.768 166.227 472.479 166.31 472.235 166.476C471.994 166.639 471.808 166.852 471.678 167.115C471.547 167.378 471.482 167.66 471.482 167.96V168.443C471.482 168.855 471.553 169.204 471.695 169.491C471.84 169.775 472.04 169.991 472.295 170.141C472.551 170.287 472.848 170.361 473.187 170.361C473.407 170.361 473.606 170.33 473.783 170.268C473.963 170.205 474.118 170.11 474.249 169.984C474.379 169.857 474.479 169.698 474.55 169.509L475.36 169.736C475.275 170.01 475.132 170.252 474.93 170.46C474.729 170.666 474.481 170.827 474.185 170.943C473.889 171.057 473.556 171.114 473.187 171.114ZM479.533 171V165.545H480.342V166.398H480.413C480.527 166.107 480.71 165.88 480.964 165.719C481.217 165.556 481.521 165.474 481.876 165.474C482.236 165.474 482.536 165.556 482.775 165.719C483.016 165.88 483.205 166.107 483.339 166.398H483.396C483.536 166.116 483.746 165.892 484.025 165.727C484.304 165.558 484.639 165.474 485.03 165.474C485.518 165.474 485.916 165.627 486.227 165.933C486.537 166.236 486.692 166.708 486.692 167.349V171H485.854V167.349C485.854 166.947 485.744 166.659 485.523 166.487C485.303 166.314 485.044 166.227 484.746 166.227C484.362 166.227 484.065 166.343 483.854 166.575C483.644 166.805 483.538 167.096 483.538 167.449V171H482.686V167.264C482.686 166.954 482.585 166.704 482.384 166.515C482.183 166.323 481.924 166.227 481.607 166.227C481.389 166.227 481.185 166.285 480.996 166.401C480.809 166.517 480.657 166.678 480.541 166.884C480.428 167.088 480.371 167.323 480.371 167.591V171H479.533ZM489.829 171.128C489.484 171.128 489.17 171.063 488.888 170.933C488.606 170.8 488.383 170.609 488.217 170.361C488.051 170.11 487.968 169.807 487.968 169.452C487.968 169.139 488.03 168.886 488.153 168.692C488.276 168.495 488.441 168.341 488.647 168.23C488.853 168.119 489.08 168.036 489.328 167.982C489.579 167.925 489.832 167.88 490.085 167.847C490.416 167.804 490.685 167.772 490.891 167.751C491.099 167.727 491.251 167.688 491.346 167.634C491.443 167.579 491.491 167.484 491.491 167.349V167.321C491.491 166.971 491.395 166.698 491.203 166.504C491.014 166.31 490.726 166.213 490.341 166.213C489.94 166.213 489.627 166.301 489.4 166.476C489.172 166.651 489.012 166.838 488.92 167.037L488.125 166.753C488.267 166.421 488.456 166.163 488.693 165.979C488.932 165.792 489.192 165.661 489.474 165.588C489.758 165.512 490.038 165.474 490.312 165.474C490.487 165.474 490.689 165.496 490.916 165.538C491.145 165.579 491.367 165.663 491.58 165.79C491.795 165.918 491.974 166.111 492.116 166.369C492.258 166.627 492.329 166.973 492.329 167.406V171H491.491V170.261H491.449C491.392 170.38 491.297 170.506 491.164 170.641C491.032 170.776 490.855 170.891 490.635 170.986C490.415 171.08 490.146 171.128 489.829 171.128ZM489.957 170.375C490.288 170.375 490.568 170.31 490.795 170.18C491.025 170.049 491.198 169.881 491.314 169.675C491.432 169.469 491.491 169.253 491.491 169.026V168.259C491.456 168.301 491.377 168.34 491.257 168.376C491.138 168.409 491.001 168.438 490.845 168.464C490.691 168.488 490.541 168.509 490.394 168.528C490.249 168.545 490.132 168.559 490.042 168.571C489.824 168.599 489.621 168.646 489.431 168.71C489.244 168.771 489.093 168.865 488.977 168.99C488.863 169.113 488.806 169.281 488.806 169.494C488.806 169.786 488.914 170.006 489.13 170.155C489.347 170.302 489.623 170.375 489.957 170.375ZM494.64 169.011L494.626 167.974H494.796L497.183 165.545H498.22L495.677 168.116H495.606L494.64 169.011ZM493.859 171V163.727H494.697V171H493.859ZM497.325 171L495.194 168.301L495.791 167.719L498.39 171H497.325ZM501.361 171.114C500.835 171.114 500.382 170.998 500.001 170.766C499.622 170.531 499.329 170.205 499.123 169.786C498.92 169.364 498.818 168.874 498.818 168.315C498.818 167.757 498.92 167.264 499.123 166.838C499.329 166.41 499.616 166.076 499.983 165.837C500.352 165.595 500.783 165.474 501.275 165.474C501.559 165.474 501.84 165.522 502.117 165.616C502.394 165.711 502.646 165.865 502.873 166.078C503.101 166.289 503.282 166.568 503.417 166.916C503.552 167.264 503.619 167.693 503.619 168.202V168.557H499.415V167.832H502.767C502.767 167.525 502.705 167.25 502.582 167.009C502.461 166.767 502.289 166.576 502.064 166.437C501.841 166.297 501.578 166.227 501.275 166.227C500.942 166.227 500.653 166.31 500.409 166.476C500.167 166.639 499.982 166.852 499.851 167.115C499.721 167.378 499.656 167.66 499.656 167.96V168.443C499.656 168.855 499.727 169.204 499.869 169.491C500.014 169.775 500.214 169.991 500.469 170.141C500.725 170.287 501.022 170.361 501.361 170.361C501.581 170.361 501.78 170.33 501.957 170.268C502.137 170.205 502.292 170.11 502.422 169.984C502.553 169.857 502.653 169.698 502.724 169.509L503.534 169.736C503.449 170.01 503.305 170.252 503.104 170.46C502.903 170.666 502.654 170.827 502.358 170.943C502.063 171.057 501.73 171.114 501.361 171.114ZM508.758 166.767L508.005 166.98C507.957 166.855 507.888 166.733 507.795 166.614C507.705 166.494 507.582 166.394 507.426 166.316C507.27 166.238 507.07 166.199 506.826 166.199C506.492 166.199 506.214 166.276 505.991 166.43C505.771 166.581 505.661 166.774 505.661 167.009C505.661 167.217 505.737 167.381 505.888 167.502C506.04 167.623 506.277 167.723 506.599 167.804L507.408 168.003C507.896 168.121 508.259 168.302 508.498 168.546C508.738 168.788 508.857 169.099 508.857 169.48C508.857 169.793 508.767 170.072 508.587 170.318C508.41 170.564 508.161 170.759 507.841 170.901C507.522 171.043 507.15 171.114 506.726 171.114C506.17 171.114 505.71 170.993 505.345 170.751C504.98 170.51 504.75 170.157 504.653 169.693L505.448 169.494C505.524 169.788 505.667 170.008 505.878 170.155C506.091 170.302 506.369 170.375 506.712 170.375C507.103 170.375 507.413 170.292 507.643 170.126C507.875 169.958 507.991 169.757 507.991 169.523C507.991 169.333 507.924 169.175 507.792 169.047C507.659 168.917 507.456 168.82 507.181 168.756L506.272 168.543C505.772 168.424 505.405 168.241 505.171 167.992C504.939 167.741 504.823 167.428 504.823 167.051C504.823 166.743 504.909 166.471 505.082 166.234C505.257 165.998 505.495 165.812 505.796 165.677C506.099 165.542 506.442 165.474 506.826 165.474C507.366 165.474 507.789 165.593 508.097 165.83C508.407 166.066 508.627 166.379 508.758 166.767ZM512.931 171V165.545H513.741V166.398H513.812C513.925 166.107 514.109 165.88 514.362 165.719C514.616 165.556 514.92 165.474 515.275 165.474C515.635 165.474 515.934 165.556 516.173 165.719C516.415 165.88 516.603 166.107 516.738 166.398H516.795C516.934 166.116 517.144 165.892 517.423 165.727C517.703 165.558 518.038 165.474 518.428 165.474C518.916 165.474 519.315 165.627 519.625 165.933C519.935 166.236 520.09 166.708 520.09 167.349V171H519.252V167.349C519.252 166.947 519.142 166.659 518.922 166.487C518.702 166.314 518.442 166.227 518.144 166.227C517.761 166.227 517.464 166.343 517.253 166.575C517.042 166.805 516.937 167.096 516.937 167.449V171H516.085V167.264C516.085 166.954 515.984 166.704 515.783 166.515C515.581 166.323 515.322 166.227 515.005 166.227C514.787 166.227 514.584 166.285 514.394 166.401C514.207 166.517 514.056 166.678 513.94 166.884C513.826 167.088 513.769 167.323 513.769 167.591V171H512.931ZM523.909 171.114C523.384 171.114 522.931 170.998 522.549 170.766C522.171 170.531 521.878 170.205 521.672 169.786C521.469 169.364 521.367 168.874 521.367 168.315C521.367 167.757 521.469 167.264 521.672 166.838C521.878 166.41 522.165 166.076 522.532 165.837C522.901 165.595 523.332 165.474 523.824 165.474C524.108 165.474 524.389 165.522 524.666 165.616C524.943 165.711 525.195 165.865 525.422 166.078C525.65 166.289 525.831 166.568 525.966 166.916C526.1 167.264 526.168 167.693 526.168 168.202V168.557H521.963V167.832H525.316C525.316 167.525 525.254 167.25 525.131 167.009C525.01 166.767 524.837 166.576 524.613 166.437C524.39 166.297 524.127 166.227 523.824 166.227C523.49 166.227 523.202 166.31 522.958 166.476C522.716 166.639 522.53 166.852 522.4 167.115C522.27 167.378 522.205 167.66 522.205 167.96V168.443C522.205 168.855 522.276 169.204 522.418 169.491C522.562 169.775 522.762 169.991 523.018 170.141C523.274 170.287 523.571 170.361 523.909 170.361C524.13 170.361 524.328 170.33 524.506 170.268C524.686 170.205 524.841 170.11 524.971 169.984C525.101 169.857 525.202 169.698 525.273 169.509L526.083 169.736C525.998 170.01 525.854 170.252 525.653 170.46C525.452 170.666 525.203 170.827 524.907 170.943C524.611 171.057 524.279 171.114 523.909 171.114ZM532.471 171.114C531.96 171.114 531.52 170.993 531.15 170.751C530.781 170.51 530.497 170.177 530.298 169.754C530.099 169.33 530 168.846 530 168.301C530 167.747 530.101 167.258 530.305 166.835C530.511 166.408 530.797 166.076 531.164 165.837C531.534 165.595 531.965 165.474 532.457 165.474C532.841 165.474 533.186 165.545 533.494 165.688C533.802 165.83 534.054 166.028 534.25 166.284C534.447 166.54 534.569 166.838 534.616 167.179H533.778C533.714 166.93 533.572 166.71 533.352 166.518C533.134 166.324 532.841 166.227 532.471 166.227C532.145 166.227 531.858 166.312 531.612 166.483C531.368 166.651 531.177 166.889 531.04 167.197C530.905 167.502 530.838 167.861 530.838 168.273C530.838 168.694 530.904 169.061 531.037 169.374C531.172 169.686 531.361 169.929 531.605 170.102C531.851 170.274 532.14 170.361 532.471 170.361C532.689 170.361 532.887 170.323 533.064 170.247C533.242 170.171 533.392 170.062 533.515 169.92C533.638 169.778 533.726 169.608 533.778 169.409H534.616C534.569 169.731 534.452 170.021 534.265 170.279C534.08 170.535 533.835 170.738 533.529 170.89C533.226 171.039 532.874 171.114 532.471 171.114ZM535.841 171V165.545H536.651V166.369H536.708C536.807 166.099 536.987 165.88 537.248 165.712C537.508 165.544 537.801 165.46 538.128 165.46C538.19 165.46 538.267 165.461 538.359 165.464C538.451 165.466 538.521 165.47 538.569 165.474V166.327C538.54 166.32 538.475 166.309 538.373 166.295C538.274 166.278 538.168 166.27 538.057 166.27C537.792 166.27 537.555 166.326 537.347 166.437C537.141 166.546 536.978 166.697 536.857 166.891C536.739 167.083 536.679 167.302 536.679 167.548V171H535.841ZM541.167 171.128C540.821 171.128 540.508 171.063 540.226 170.933C539.944 170.8 539.721 170.609 539.555 170.361C539.389 170.11 539.306 169.807 539.306 169.452C539.306 169.139 539.368 168.886 539.491 168.692C539.614 168.495 539.779 168.341 539.985 168.23C540.191 168.119 540.418 168.036 540.666 167.982C540.917 167.925 541.169 167.88 541.423 167.847C541.754 167.804 542.023 167.772 542.229 167.751C542.437 167.727 542.589 167.688 542.683 167.634C542.78 167.579 542.829 167.484 542.829 167.349V167.321C542.829 166.971 542.733 166.698 542.541 166.504C542.352 166.31 542.064 166.213 541.678 166.213C541.278 166.213 540.965 166.301 540.737 166.476C540.51 166.651 540.35 166.838 540.258 167.037L539.463 166.753C539.605 166.421 539.794 166.163 540.031 165.979C540.27 165.792 540.53 165.661 540.812 165.588C541.096 165.512 541.375 165.474 541.65 165.474C541.825 165.474 542.026 165.496 542.254 165.538C542.483 165.579 542.705 165.663 542.918 165.79C543.133 165.918 543.312 166.111 543.454 166.369C543.596 166.627 543.667 166.973 543.667 167.406V171H542.829V170.261H542.786C542.73 170.38 542.635 170.506 542.502 170.641C542.37 170.776 542.193 170.891 541.973 170.986C541.753 171.08 541.484 171.128 541.167 171.128ZM541.295 170.375C541.626 170.375 541.906 170.31 542.133 170.18C542.363 170.049 542.535 169.881 542.651 169.675C542.77 169.469 542.829 169.253 542.829 169.026V168.259C542.794 168.301 542.715 168.34 542.595 168.376C542.476 168.409 542.339 168.438 542.183 168.464C542.029 168.488 541.878 168.509 541.732 168.528C541.587 168.545 541.47 168.559 541.38 168.571C541.162 168.599 540.959 168.646 540.769 168.71C540.582 168.771 540.431 168.865 540.315 168.99C540.201 169.113 540.144 169.281 540.144 169.494C540.144 169.786 540.252 170.006 540.468 170.155C540.685 170.302 540.961 170.375 541.295 170.375ZM545.04 171V170.361L548.137 166.384V166.327H545.14V165.545H549.217V166.213L546.205 170.162V170.219H549.316V171H545.04ZM551.147 173.045C551.005 173.045 550.878 173.034 550.767 173.01C550.655 172.989 550.578 172.967 550.536 172.946L550.749 172.207C550.953 172.259 551.132 172.278 551.289 172.264C551.445 172.25 551.583 172.18 551.704 172.055C551.827 171.932 551.94 171.732 552.042 171.455L552.198 171.028L550.181 165.545H551.09L552.596 169.892H552.652L554.158 165.545H555.067L552.752 171.795C552.648 172.077 552.519 172.31 552.365 172.495C552.211 172.682 552.032 172.821 551.828 172.911C551.627 173 551.4 173.045 551.147 173.045Z" fill="black"/>
<circle cx="1368.5" cy="1287.5" r="7.5" transform="rotate(180 1368.5 1287.5)" fill="#9AB121"/>
<path d="M1262.98 1344.11C1262.49 1344.11 1262.06 1344 1261.69 1343.76C1261.32 1343.53 1261.03 1343.2 1260.82 1342.78C1260.61 1342.36 1260.51 1341.86 1260.51 1341.3C1260.51 1340.73 1260.61 1340.24 1260.82 1339.81C1261.03 1339.39 1261.32 1339.06 1261.69 1338.83C1262.06 1338.59 1262.49 1338.47 1262.98 1338.47C1263.48 1338.47 1263.91 1338.59 1264.28 1338.83C1264.65 1339.06 1264.94 1339.39 1265.14 1339.81C1265.35 1340.24 1265.45 1340.73 1265.45 1341.3C1265.45 1341.86 1265.35 1342.36 1265.14 1342.78C1264.94 1343.2 1264.65 1343.53 1264.28 1343.76C1263.91 1344 1263.48 1344.11 1262.98 1344.11ZM1262.98 1343.36C1263.36 1343.36 1263.66 1343.26 1263.91 1343.07C1264.15 1342.88 1264.33 1342.63 1264.44 1342.32C1264.56 1342 1264.62 1341.67 1264.62 1341.3C1264.62 1340.94 1264.56 1340.6 1264.44 1340.28C1264.33 1339.97 1264.15 1339.71 1263.91 1339.52C1263.66 1339.32 1263.36 1339.23 1262.98 1339.23C1262.61 1339.23 1262.3 1339.32 1262.06 1339.52C1261.82 1339.71 1261.64 1339.97 1261.52 1340.28C1261.41 1340.6 1261.35 1340.94 1261.35 1341.3C1261.35 1341.67 1261.41 1342 1261.52 1342.32C1261.64 1342.63 1261.82 1342.88 1262.06 1343.07C1262.3 1343.26 1262.61 1343.36 1262.98 1343.36ZM1266.73 1344V1338.55H1267.54V1339.4H1267.61C1267.73 1339.11 1267.91 1338.88 1268.16 1338.72C1268.42 1338.56 1268.72 1338.47 1269.08 1338.47C1269.44 1338.47 1269.74 1338.56 1269.98 1338.72C1270.22 1338.88 1270.41 1339.11 1270.54 1339.4H1270.6C1270.74 1339.12 1270.95 1338.89 1271.23 1338.73C1271.51 1338.56 1271.84 1338.47 1272.23 1338.47C1272.72 1338.47 1273.12 1338.63 1273.43 1338.93C1273.74 1339.24 1273.89 1339.71 1273.89 1340.35V1344H1273.05V1340.35C1273.05 1339.95 1272.94 1339.66 1272.72 1339.49C1272.5 1339.31 1272.25 1339.23 1271.95 1339.23C1271.56 1339.23 1271.27 1339.34 1271.06 1339.58C1270.84 1339.8 1270.74 1340.1 1270.74 1340.45V1344H1269.89V1340.26C1269.89 1339.95 1269.79 1339.7 1269.59 1339.51C1269.38 1339.32 1269.12 1339.23 1268.81 1339.23C1268.59 1339.23 1268.39 1339.29 1268.2 1339.4C1268.01 1339.52 1267.86 1339.68 1267.74 1339.88C1267.63 1340.09 1267.57 1340.32 1267.57 1340.59V1344H1266.73ZM1277.63 1346.16C1277.22 1346.16 1276.87 1346.11 1276.58 1346C1276.29 1345.9 1276.05 1345.77 1275.85 1345.6C1275.66 1345.43 1275.51 1345.25 1275.4 1345.07L1276.06 1344.6C1276.14 1344.7 1276.24 1344.81 1276.35 1344.94C1276.47 1345.07 1276.63 1345.18 1276.83 1345.27C1277.03 1345.37 1277.3 1345.42 1277.63 1345.42C1278.07 1345.42 1278.43 1345.31 1278.72 1345.1C1279 1344.89 1279.15 1344.55 1279.15 1344.1V1342.99H1279.08C1279.01 1343.09 1278.93 1343.21 1278.81 1343.36C1278.7 1343.51 1278.54 1343.63 1278.33 1343.75C1278.12 1343.86 1277.84 1343.91 1277.48 1343.91C1277.04 1343.91 1276.65 1343.81 1276.3 1343.6C1275.95 1343.39 1275.68 1343.09 1275.47 1342.69C1275.27 1342.3 1275.17 1341.81 1275.17 1341.24C1275.17 1340.69 1275.27 1340.2 1275.46 1339.78C1275.66 1339.37 1275.93 1339.05 1276.28 1338.82C1276.64 1338.59 1277.04 1338.47 1277.5 1338.47C1277.85 1338.47 1278.14 1338.53 1278.34 1338.65C1278.55 1338.77 1278.72 1338.9 1278.83 1339.05C1278.94 1339.2 1279.03 1339.32 1279.09 1339.41H1279.18V1338.55H1279.98V1344.16C1279.98 1344.62 1279.88 1345.01 1279.67 1345.3C1279.45 1345.6 1279.17 1345.81 1278.81 1345.95C1278.46 1346.09 1278.06 1346.16 1277.63 1346.16ZM1277.6 1343.16C1277.93 1343.16 1278.22 1343.08 1278.45 1342.93C1278.68 1342.78 1278.86 1342.56 1278.98 1342.27C1279.1 1341.98 1279.16 1341.63 1279.16 1341.23C1279.16 1340.84 1279.1 1340.49 1278.98 1340.19C1278.87 1339.89 1278.69 1339.65 1278.46 1339.48C1278.23 1339.31 1277.94 1339.23 1277.6 1339.23C1277.24 1339.23 1276.95 1339.32 1276.71 1339.5C1276.48 1339.68 1276.3 1339.92 1276.18 1340.22C1276.07 1340.52 1276.01 1340.86 1276.01 1341.23C1276.01 1341.61 1276.07 1341.94 1276.19 1342.24C1276.31 1342.52 1276.48 1342.75 1276.72 1342.92C1276.95 1343.08 1277.25 1343.16 1277.6 1343.16ZM1288.2 1339.77L1287.44 1339.98C1287.39 1339.85 1287.33 1339.73 1287.23 1339.61C1287.14 1339.49 1287.02 1339.39 1286.86 1339.32C1286.71 1339.24 1286.51 1339.2 1286.26 1339.2C1285.93 1339.2 1285.65 1339.28 1285.43 1339.43C1285.21 1339.58 1285.1 1339.77 1285.1 1340.01C1285.1 1340.22 1285.17 1340.38 1285.33 1340.5C1285.48 1340.62 1285.71 1340.72 1286.04 1340.8L1286.85 1341C1287.33 1341.12 1287.7 1341.3 1287.94 1341.55C1288.18 1341.79 1288.29 1342.1 1288.29 1342.48C1288.29 1342.79 1288.2 1343.07 1288.02 1343.32C1287.85 1343.56 1287.6 1343.76 1287.28 1343.9C1286.96 1344.04 1286.59 1344.11 1286.16 1344.11C1285.61 1344.11 1285.15 1343.99 1284.78 1343.75C1284.42 1343.51 1284.19 1343.16 1284.09 1342.69L1284.89 1342.49C1284.96 1342.79 1285.1 1343.01 1285.32 1343.15C1285.53 1343.3 1285.81 1343.38 1286.15 1343.38C1286.54 1343.38 1286.85 1343.29 1287.08 1343.13C1287.31 1342.96 1287.43 1342.76 1287.43 1342.52C1287.43 1342.33 1287.36 1342.17 1287.23 1342.05C1287.1 1341.92 1286.89 1341.82 1286.62 1341.76L1285.71 1341.54C1285.21 1341.42 1284.84 1341.24 1284.61 1340.99C1284.38 1340.74 1284.26 1340.43 1284.26 1340.05C1284.26 1339.74 1284.35 1339.47 1284.52 1339.23C1284.69 1339 1284.93 1338.81 1285.23 1338.68C1285.54 1338.54 1285.88 1338.47 1286.26 1338.47C1286.8 1338.47 1287.23 1338.59 1287.53 1338.83C1287.84 1339.07 1288.06 1339.38 1288.2 1339.77ZM1290.39 1340.72V1344H1289.56V1336.73H1290.39V1339.4H1290.47C1290.59 1339.12 1290.78 1338.89 1291.04 1338.73C1291.3 1338.56 1291.64 1338.47 1292.07 1338.47C1292.44 1338.47 1292.77 1338.55 1293.05 1338.7C1293.33 1338.84 1293.54 1339.07 1293.7 1339.38C1293.85 1339.68 1293.93 1340.07 1293.93 1340.53V1344H1293.09V1340.59C1293.09 1340.16 1292.98 1339.82 1292.76 1339.59C1292.53 1339.35 1292.22 1339.23 1291.83 1339.23C1291.55 1339.23 1291.31 1339.29 1291.09 1339.4C1290.87 1339.52 1290.7 1339.69 1290.58 1339.91C1290.46 1340.13 1290.39 1340.4 1290.39 1340.72ZM1297.75 1344.11C1297.23 1344.11 1296.77 1344 1296.39 1343.77C1296.01 1343.53 1295.72 1343.2 1295.51 1342.79C1295.31 1342.36 1295.21 1341.87 1295.21 1341.32C1295.21 1340.76 1295.31 1340.26 1295.51 1339.84C1295.72 1339.41 1296.01 1339.08 1296.37 1338.84C1296.74 1338.6 1297.17 1338.47 1297.67 1338.47C1297.95 1338.47 1298.23 1338.52 1298.51 1338.62C1298.78 1338.71 1299.04 1338.87 1299.26 1339.08C1299.49 1339.29 1299.67 1339.57 1299.81 1339.92C1299.94 1340.26 1300.01 1340.69 1300.01 1341.2V1341.56H1295.81V1340.83H1299.16C1299.16 1340.52 1299.1 1340.25 1298.97 1340.01C1298.85 1339.77 1298.68 1339.58 1298.45 1339.44C1298.23 1339.3 1297.97 1339.23 1297.67 1339.23C1297.33 1339.23 1297.04 1339.31 1296.8 1339.48C1296.56 1339.64 1296.37 1339.85 1296.24 1340.12C1296.11 1340.38 1296.05 1340.66 1296.05 1340.96V1341.44C1296.05 1341.86 1296.12 1342.2 1296.26 1342.49C1296.4 1342.77 1296.6 1342.99 1296.86 1343.14C1297.12 1343.29 1297.41 1343.36 1297.75 1343.36C1297.97 1343.36 1298.17 1343.33 1298.35 1343.27C1298.53 1343.2 1298.68 1343.11 1298.81 1342.98C1298.94 1342.86 1299.04 1342.7 1299.11 1342.51L1299.92 1342.74C1299.84 1343.01 1299.7 1343.25 1299.49 1343.46C1299.29 1343.67 1299.05 1343.83 1298.75 1343.94C1298.45 1344.06 1298.12 1344.11 1297.75 1344.11ZM1307.96 1339.77L1307.21 1339.98C1307.16 1339.85 1307.09 1339.73 1307 1339.61C1306.91 1339.49 1306.79 1339.39 1306.63 1339.32C1306.47 1339.24 1306.27 1339.2 1306.03 1339.2C1305.7 1339.2 1305.42 1339.28 1305.19 1339.43C1304.97 1339.58 1304.86 1339.77 1304.86 1340.01C1304.86 1340.22 1304.94 1340.38 1305.09 1340.5C1305.24 1340.62 1305.48 1340.72 1305.8 1340.8L1306.61 1341C1307.1 1341.12 1307.46 1341.3 1307.7 1341.55C1307.94 1341.79 1308.06 1342.1 1308.06 1342.48C1308.06 1342.79 1307.97 1343.07 1307.79 1343.32C1307.61 1343.56 1307.36 1343.76 1307.04 1343.9C1306.72 1344.04 1306.35 1344.11 1305.93 1344.11C1305.37 1344.11 1304.91 1343.99 1304.55 1343.75C1304.18 1343.51 1303.95 1343.16 1303.86 1342.69L1304.65 1342.49C1304.73 1342.79 1304.87 1343.01 1305.08 1343.15C1305.29 1343.3 1305.57 1343.38 1305.92 1343.38C1306.31 1343.38 1306.62 1343.29 1306.85 1343.13C1307.08 1342.96 1307.19 1342.76 1307.19 1342.52C1307.19 1342.33 1307.13 1342.17 1306.99 1342.05C1306.86 1341.92 1306.66 1341.82 1306.38 1341.76L1305.47 1341.54C1304.98 1341.42 1304.61 1341.24 1304.37 1340.99C1304.14 1340.74 1304.03 1340.43 1304.03 1340.05C1304.03 1339.74 1304.11 1339.47 1304.29 1339.23C1304.46 1339 1304.7 1338.81 1305 1338.68C1305.3 1338.54 1305.65 1338.47 1306.03 1338.47C1306.57 1338.47 1306.99 1338.59 1307.3 1338.83C1307.61 1339.07 1307.83 1339.38 1307.96 1339.77ZM1316 1339.77L1315.25 1339.98C1315.2 1339.85 1315.13 1339.73 1315.04 1339.61C1314.95 1339.49 1314.82 1339.39 1314.67 1339.32C1314.51 1339.24 1314.31 1339.2 1314.07 1339.2C1313.73 1339.2 1313.45 1339.28 1313.23 1339.43C1313.01 1339.58 1312.9 1339.77 1312.9 1340.01C1312.9 1340.22 1312.98 1340.38 1313.13 1340.5C1313.28 1340.62 1313.52 1340.72 1313.84 1340.8L1314.65 1341C1315.14 1341.12 1315.5 1341.3 1315.74 1341.55C1315.98 1341.79 1316.1 1342.1 1316.1 1342.48C1316.1 1342.79 1316.01 1343.07 1315.83 1343.32C1315.65 1343.56 1315.4 1343.76 1315.08 1343.9C1314.76 1344.04 1314.39 1344.11 1313.97 1344.11C1313.41 1344.11 1312.95 1343.99 1312.59 1343.75C1312.22 1343.51 1311.99 1343.16 1311.89 1342.69L1312.69 1342.49C1312.76 1342.79 1312.91 1343.01 1313.12 1343.15C1313.33 1343.3 1313.61 1343.38 1313.95 1343.38C1314.34 1343.38 1314.65 1343.29 1314.88 1343.13C1315.11 1342.96 1315.23 1342.76 1315.23 1342.52C1315.23 1342.33 1315.16 1342.17 1315.03 1342.05C1314.9 1341.92 1314.7 1341.82 1314.42 1341.76L1313.51 1341.54C1313.01 1341.42 1312.65 1341.24 1312.41 1340.99C1312.18 1340.74 1312.06 1340.43 1312.06 1340.05C1312.06 1339.74 1312.15 1339.47 1312.32 1339.23C1312.5 1339 1312.74 1338.81 1313.04 1338.68C1313.34 1338.54 1313.68 1338.47 1314.07 1338.47C1314.61 1338.47 1315.03 1338.59 1315.34 1338.83C1315.65 1339.07 1315.87 1339.38 1316 1339.77ZM1319.57 1344.11C1319.08 1344.11 1318.65 1344 1318.28 1343.76C1317.91 1343.53 1317.62 1343.2 1317.41 1342.78C1317.21 1342.36 1317.1 1341.86 1317.1 1341.3C1317.1 1340.73 1317.21 1340.24 1317.41 1339.81C1317.62 1339.39 1317.91 1339.06 1318.28 1338.83C1318.65 1338.59 1319.08 1338.47 1319.57 1338.47C1320.07 1338.47 1320.5 1338.59 1320.87 1338.83C1321.24 1339.06 1321.53 1339.39 1321.73 1339.81C1321.94 1340.24 1322.05 1340.73 1322.05 1341.3C1322.05 1341.86 1321.94 1342.36 1321.73 1342.78C1321.53 1343.2 1321.24 1343.53 1320.87 1343.76C1320.5 1344 1320.07 1344.11 1319.57 1344.11ZM1319.57 1343.36C1319.95 1343.36 1320.26 1343.26 1320.5 1343.07C1320.74 1342.88 1320.92 1342.63 1321.03 1342.32C1321.15 1342 1321.21 1341.67 1321.21 1341.3C1321.21 1340.94 1321.15 1340.6 1321.03 1340.28C1320.92 1339.97 1320.74 1339.71 1320.5 1339.52C1320.26 1339.32 1319.95 1339.23 1319.57 1339.23C1319.2 1339.23 1318.89 1339.32 1318.65 1339.52C1318.41 1339.71 1318.23 1339.97 1318.12 1340.28C1318 1340.6 1317.94 1340.94 1317.94 1341.3C1317.94 1341.67 1318 1342 1318.12 1342.32C1318.23 1342.63 1318.41 1342.88 1318.65 1343.07C1318.89 1343.26 1319.2 1343.36 1319.57 1343.36ZM1325.54 1344.11C1325.05 1344.11 1324.62 1344 1324.25 1343.76C1323.88 1343.53 1323.59 1343.2 1323.38 1342.78C1323.17 1342.36 1323.07 1341.86 1323.07 1341.3C1323.07 1340.73 1323.17 1340.24 1323.38 1339.81C1323.59 1339.39 1323.88 1339.06 1324.25 1338.83C1324.62 1338.59 1325.05 1338.47 1325.54 1338.47C1326.03 1338.47 1326.46 1338.59 1326.83 1338.83C1327.21 1339.06 1327.49 1339.39 1327.7 1339.81C1327.91 1340.24 1328.01 1340.73 1328.01 1341.3C1328.01 1341.86 1327.91 1342.36 1327.7 1342.78C1327.49 1343.2 1327.21 1343.53 1326.83 1343.76C1326.46 1344 1326.03 1344.11 1325.54 1344.11ZM1325.54 1343.36C1325.92 1343.36 1326.22 1343.26 1326.46 1343.07C1326.71 1342.88 1326.89 1342.63 1327 1342.32C1327.12 1342 1327.18 1341.67 1327.18 1341.3C1327.18 1340.94 1327.12 1340.6 1327 1340.28C1326.89 1339.97 1326.71 1339.71 1326.46 1339.52C1326.22 1339.32 1325.92 1339.23 1325.54 1339.23C1325.17 1339.23 1324.86 1339.32 1324.62 1339.52C1324.38 1339.71 1324.2 1339.97 1324.08 1340.28C1323.97 1340.6 1323.91 1340.94 1323.91 1341.3C1323.91 1341.67 1323.97 1342 1324.08 1342.32C1324.2 1342.63 1324.38 1342.88 1324.62 1343.07C1324.86 1343.26 1325.17 1343.36 1325.54 1343.36ZM1331.51 1344.11C1331.02 1344.11 1330.58 1344 1330.21 1343.76C1329.84 1343.53 1329.55 1343.2 1329.35 1342.78C1329.14 1342.36 1329.04 1341.86 1329.04 1341.3C1329.04 1340.73 1329.14 1340.24 1329.35 1339.81C1329.55 1339.39 1329.84 1339.06 1330.21 1338.83C1330.58 1338.59 1331.02 1338.47 1331.51 1338.47C1332 1338.47 1332.43 1338.59 1332.8 1338.83C1333.17 1339.06 1333.46 1339.39 1333.67 1339.81C1333.88 1340.24 1333.98 1340.73 1333.98 1341.3C1333.98 1341.86 1333.88 1342.36 1333.67 1342.78C1333.46 1343.2 1333.17 1343.53 1332.8 1343.76C1332.43 1344 1332 1344.11 1331.51 1344.11ZM1331.51 1343.36C1331.88 1343.36 1332.19 1343.26 1332.43 1343.07C1332.67 1342.88 1332.85 1342.63 1332.97 1342.32C1333.08 1342 1333.14 1341.67 1333.14 1341.3C1333.14 1340.94 1333.08 1340.6 1332.97 1340.28C1332.85 1339.97 1332.67 1339.71 1332.43 1339.52C1332.19 1339.32 1331.88 1339.23 1331.51 1339.23C1331.13 1339.23 1330.83 1339.32 1330.59 1339.52C1330.34 1339.71 1330.16 1339.97 1330.05 1340.28C1329.93 1340.6 1329.87 1340.94 1329.87 1341.3C1329.87 1341.67 1329.93 1342 1330.05 1342.32C1330.16 1342.63 1330.34 1342.88 1330.59 1343.07C1330.83 1343.26 1331.13 1343.36 1331.51 1343.36ZM1335.87 1344.06C1335.69 1344.06 1335.54 1343.99 1335.42 1343.87C1335.29 1343.74 1335.23 1343.59 1335.23 1343.42C1335.23 1343.24 1335.29 1343.09 1335.42 1342.97C1335.54 1342.84 1335.69 1342.78 1335.87 1342.78C1336.05 1342.78 1336.2 1342.84 1336.32 1342.97C1336.45 1343.09 1336.51 1343.24 1336.51 1343.42C1336.51 1343.53 1336.48 1343.64 1336.42 1343.74C1336.36 1343.83 1336.29 1343.91 1336.19 1343.97C1336.09 1344.03 1335.99 1344.06 1335.87 1344.06ZM1338.62 1344.06C1338.45 1344.06 1338.3 1343.99 1338.17 1343.87C1338.05 1343.74 1337.98 1343.59 1337.98 1343.42C1337.98 1343.24 1338.05 1343.09 1338.17 1342.97C1338.3 1342.84 1338.45 1342.78 1338.62 1342.78C1338.8 1342.78 1338.95 1342.84 1339.07 1342.97C1339.2 1343.09 1339.26 1343.24 1339.26 1343.42C1339.26 1343.53 1339.23 1343.64 1339.17 1343.74C1339.12 1343.83 1339.04 1343.91 1338.94 1343.97C1338.85 1344.03 1338.74 1344.06 1338.62 1344.06Z" fill="black"/>
<path d="M1351.23 1306.08C1351.27 1305.53 1350.86 1305.05 1350.31 1305L1341.34 1304.27C1340.79 1304.22 1340.31 1304.63 1340.26 1305.18C1340.22 1305.73 1340.63 1306.21 1341.18 1306.26L1349.15 1306.91L1348.49 1314.89C1348.45 1315.44 1348.86 1315.92 1349.41 1315.97C1349.96 1316.01 1350.44 1315.6 1350.49 1315.05L1351.23 1306.08ZM1329 1324L1329.65 1324.76L1350.88 1306.76L1350.23 1306L1349.58 1305.24L1328.35 1323.24L1329 1324Z" fill="black"/>
<path d="M532.767 593V587.545H533.605V593H532.767ZM533.193 586.636C533.03 586.636 532.889 586.581 532.771 586.469C532.655 586.358 532.597 586.224 532.597 586.068C532.597 585.912 532.655 585.778 532.771 585.667C532.889 585.556 533.03 585.5 533.193 585.5C533.357 585.5 533.496 585.556 533.612 585.667C533.731 585.778 533.79 585.912 533.79 586.068C533.79 586.224 533.731 586.358 533.612 586.469C533.496 586.581 533.357 586.636 533.193 586.636ZM540.325 587.545V588.256H537.498V587.545H540.325ZM538.322 586.239H539.16V591.438C539.16 591.674 539.194 591.852 539.263 591.97C539.334 592.086 539.424 592.164 539.533 592.205C539.644 592.242 539.761 592.261 539.884 592.261C539.977 592.261 540.052 592.257 540.112 592.247C540.171 592.235 540.218 592.226 540.254 592.219L540.424 592.972C540.367 592.993 540.288 593.014 540.186 593.036C540.084 593.059 539.955 593.071 539.799 593.071C539.562 593.071 539.33 593.02 539.103 592.918C538.878 592.817 538.691 592.661 538.542 592.453C538.395 592.245 538.322 591.982 538.322 591.665V586.239ZM542.541 589.719V593H541.703V585.727H542.541V588.398H542.612C542.74 588.116 542.931 587.892 543.187 587.727C543.445 587.558 543.788 587.474 544.217 587.474C544.588 587.474 544.914 587.549 545.193 587.698C545.473 587.845 545.689 588.071 545.843 588.376C545.999 588.679 546.078 589.065 546.078 589.534V593H545.24V589.591C545.24 589.158 545.127 588.823 544.902 588.586C544.68 588.347 544.371 588.227 543.975 588.227C543.701 588.227 543.454 588.285 543.237 588.401C543.021 588.517 542.851 588.687 542.725 588.909C542.602 589.132 542.541 589.402 542.541 589.719ZM547.611 593V587.545H548.449V593H547.611ZM548.037 586.636C547.874 586.636 547.733 586.581 547.614 586.469C547.498 586.358 547.44 586.224 547.44 586.068C547.44 585.912 547.498 585.778 547.614 585.667C547.733 585.556 547.874 585.5 548.037 585.5C548.2 585.5 548.34 585.556 548.456 585.667C548.574 585.778 548.634 585.912 548.634 586.068C548.634 586.224 548.574 586.358 548.456 586.469C548.34 586.581 548.2 586.636 548.037 586.636ZM550.822 589.719V593H549.984V587.545H550.794V588.398H550.865C550.992 588.121 551.186 587.898 551.447 587.73C551.707 587.56 552.044 587.474 552.455 587.474C552.825 587.474 553.148 587.55 553.425 587.702C553.702 587.851 553.917 588.078 554.071 588.384C554.225 588.687 554.302 589.07 554.302 589.534V593H553.464V589.591C553.464 589.162 553.353 588.829 553.13 588.589C552.908 588.348 552.602 588.227 552.214 588.227C551.946 588.227 551.707 588.285 551.497 588.401C551.288 588.517 551.124 588.687 551.003 588.909C550.882 589.132 550.822 589.402 550.822 589.719ZM556.615 591.011L556.6 589.974H556.771L559.157 587.545H560.194L557.652 590.116H557.581L556.615 591.011ZM555.833 593V585.727H556.672V593H555.833ZM559.299 593L557.169 590.301L557.765 589.719L560.365 593H559.299ZM564.923 589.719V593H564.085V585.727H564.923V588.398H564.994C565.122 588.116 565.314 587.892 565.57 587.727C565.828 587.558 566.171 587.474 566.6 587.474C566.971 587.474 567.297 587.549 567.576 587.698C567.856 587.845 568.072 588.071 568.226 588.376C568.382 588.679 568.46 589.065 568.46 589.534V593H567.622V589.591C567.622 589.158 567.51 588.823 567.285 588.586C567.062 588.347 566.753 588.227 566.358 588.227C566.084 588.227 565.837 588.285 565.619 588.401C565.404 588.517 565.234 588.687 565.108 588.909C564.985 589.132 564.923 589.402 564.923 589.719ZM572.281 593.114C571.755 593.114 571.302 592.998 570.92 592.766C570.542 592.531 570.249 592.205 570.043 591.786C569.84 591.364 569.738 590.874 569.738 590.315C569.738 589.757 569.84 589.264 570.043 588.838C570.249 588.41 570.536 588.076 570.903 587.837C571.272 587.595 571.703 587.474 572.195 587.474C572.479 587.474 572.76 587.522 573.037 587.616C573.314 587.711 573.566 587.865 573.793 588.078C574.021 588.289 574.202 588.568 574.337 588.916C574.472 589.264 574.539 589.693 574.539 590.202V590.557H570.335V589.832H573.687C573.687 589.525 573.625 589.25 573.502 589.009C573.381 588.767 573.209 588.576 572.984 588.437C572.761 588.297 572.498 588.227 572.195 588.227C571.862 588.227 571.573 588.31 571.329 588.476C571.087 588.639 570.902 588.852 570.771 589.115C570.641 589.378 570.576 589.66 570.576 589.96V590.443C570.576 590.855 570.647 591.204 570.789 591.491C570.933 591.775 571.134 591.991 571.389 592.141C571.645 592.287 571.942 592.361 572.281 592.361C572.501 592.361 572.7 592.33 572.877 592.268C573.057 592.205 573.212 592.11 573.342 591.984C573.473 591.857 573.573 591.698 573.644 591.509L574.454 591.736C574.369 592.01 574.225 592.252 574.024 592.46C573.823 592.666 573.574 592.827 573.278 592.943C572.982 593.057 572.65 593.114 572.281 593.114ZM579.464 585.727V593H578.626V585.727H579.464ZM580.999 593V587.545H581.838V593H580.999ZM581.426 586.636C581.262 586.636 581.121 586.581 581.003 586.469C580.887 586.358 580.829 586.224 580.829 586.068C580.829 585.912 580.887 585.778 581.003 585.667C581.121 585.556 581.262 585.5 581.426 585.5C581.589 585.5 581.729 585.556 581.845 585.667C581.963 585.778 582.022 585.912 582.022 586.068C582.022 586.224 581.963 586.358 581.845 586.469C581.729 586.581 581.589 586.636 581.426 586.636ZM584.154 591.011L584.14 589.974H584.31L586.696 587.545H587.733L585.191 590.116H585.12L584.154 591.011ZM583.373 593V585.727H584.211V593H583.373ZM586.838 593L584.708 590.301L585.304 589.719L587.904 593H586.838ZM590.874 593.114C590.349 593.114 589.895 592.998 589.514 592.766C589.135 592.531 588.843 592.205 588.637 591.786C588.433 591.364 588.332 590.874 588.332 590.315C588.332 589.757 588.433 589.264 588.637 588.838C588.843 588.41 589.129 588.076 589.496 587.837C589.866 587.595 590.297 587.474 590.789 587.474C591.073 587.474 591.354 587.522 591.631 587.616C591.908 587.711 592.16 587.865 592.387 588.078C592.614 588.289 592.795 588.568 592.93 588.916C593.065 589.264 593.133 589.693 593.133 590.202V590.557H588.928V589.832H592.281C592.281 589.525 592.219 589.25 592.096 589.009C591.975 588.767 591.802 588.576 591.577 588.437C591.355 588.297 591.092 588.227 590.789 588.227C590.455 588.227 590.166 588.31 589.923 588.476C589.681 588.639 589.495 588.852 589.365 589.115C589.235 589.378 589.17 589.66 589.17 589.96V590.443C589.17 590.855 589.241 591.204 589.383 591.491C589.527 591.775 589.727 591.991 589.983 592.141C590.239 592.287 590.536 592.361 590.874 592.361C591.094 592.361 591.293 592.33 591.471 592.268C591.651 592.205 591.806 592.11 591.936 591.984C592.066 591.857 592.167 591.698 592.238 591.509L593.048 591.736C592.962 592.01 592.819 592.252 592.618 592.46C592.417 592.666 592.168 592.827 591.872 592.943C591.576 593.057 591.244 593.114 590.874 593.114ZM598.271 588.767L597.518 588.98C597.471 588.855 597.401 588.733 597.309 588.614C597.219 588.494 597.096 588.394 596.94 588.316C596.783 588.238 596.583 588.199 596.339 588.199C596.006 588.199 595.728 588.276 595.505 588.43C595.285 588.581 595.175 588.774 595.175 589.009C595.175 589.217 595.25 589.381 595.402 589.502C595.554 589.623 595.79 589.723 596.112 589.804L596.922 590.003C597.41 590.121 597.773 590.302 598.012 590.546C598.251 590.788 598.371 591.099 598.371 591.48C598.371 591.793 598.281 592.072 598.101 592.318C597.923 592.564 597.675 592.759 597.355 592.901C597.036 593.043 596.664 593.114 596.24 593.114C595.684 593.114 595.223 592.993 594.859 592.751C594.494 592.51 594.263 592.157 594.166 591.693L594.962 591.494C595.037 591.788 595.181 592.008 595.391 592.155C595.604 592.302 595.883 592.375 596.226 592.375C596.616 592.375 596.927 592.292 597.156 592.126C597.388 591.958 597.504 591.757 597.504 591.523C597.504 591.333 597.438 591.175 597.305 591.047C597.173 590.917 596.969 590.82 596.695 590.756L595.786 590.543C595.286 590.424 594.919 590.241 594.685 589.992C594.453 589.741 594.337 589.428 594.337 589.051C594.337 588.743 594.423 588.471 594.596 588.234C594.771 587.998 595.009 587.812 595.31 587.677C595.613 587.542 595.956 587.474 596.339 587.474C596.879 587.474 597.303 587.593 597.611 587.83C597.921 588.066 598.141 588.379 598.271 588.767ZM602.445 593V587.545H603.254V588.398H603.325C603.439 588.107 603.623 587.88 603.876 587.719C604.129 587.556 604.433 587.474 604.789 587.474C605.148 587.474 605.448 587.556 605.687 587.719C605.928 587.88 606.117 588.107 606.252 588.398H606.308C606.448 588.116 606.658 587.892 606.937 587.727C607.216 587.558 607.551 587.474 607.942 587.474C608.43 587.474 608.829 587.627 609.139 587.933C609.449 588.236 609.604 588.708 609.604 589.349V593H608.766V589.349C608.766 588.947 608.656 588.659 608.436 588.487C608.215 588.314 607.956 588.227 607.658 588.227C607.274 588.227 606.977 588.343 606.767 588.575C606.556 588.805 606.45 589.096 606.45 589.449V593H605.598V589.264C605.598 588.954 605.498 588.704 605.296 588.515C605.095 588.323 604.836 588.227 604.519 588.227C604.301 588.227 604.097 588.285 603.908 588.401C603.721 588.517 603.569 588.678 603.453 588.884C603.34 589.088 603.283 589.323 603.283 589.591V593H602.445ZM613.423 593.114C612.898 593.114 612.444 592.998 612.063 592.766C611.684 592.531 611.392 592.205 611.186 591.786C610.982 591.364 610.881 590.874 610.881 590.315C610.881 589.757 610.982 589.264 611.186 588.838C611.392 588.41 611.678 588.076 612.045 587.837C612.415 587.595 612.845 587.474 613.338 587.474C613.622 587.474 613.903 587.522 614.18 587.616C614.456 587.711 614.709 587.865 614.936 588.078C615.163 588.289 615.344 588.568 615.479 588.916C615.614 589.264 615.682 589.693 615.682 590.202V590.557H611.477V589.832H614.829C614.829 589.525 614.768 589.25 614.645 589.009C614.524 588.767 614.351 588.576 614.126 588.437C613.904 588.297 613.641 588.227 613.338 588.227C613.004 588.227 612.715 588.31 612.471 588.476C612.23 588.639 612.044 588.852 611.914 589.115C611.784 589.378 611.719 589.66 611.719 589.96V590.443C611.719 590.855 611.79 591.204 611.932 591.491C612.076 591.775 612.276 591.991 612.532 592.141C612.787 592.287 613.085 592.361 613.423 592.361C613.643 592.361 613.842 592.33 614.02 592.268C614.2 592.205 614.355 592.11 614.485 591.984C614.615 591.857 614.716 591.698 614.787 591.509L615.596 591.736C615.511 592.01 615.368 592.252 615.167 592.46C614.965 592.666 614.717 592.827 614.421 592.943C614.125 593.057 613.792 593.114 613.423 593.114Z" fill="black"/>
<circle cx="600.5" cy="1619.5" r="7.5" transform="rotate(180 600.5 1619.5)" fill="#F41A92"/>
</g>
<defs>
<clipPath id="clip0_842_245">
<rect width="1440" height="3582" fill="white"/>
</clipPath>
</defs>
</svg>
