<svg width="1440" height="2663" viewBox="0 0 1440 2663" fill="none" xmlns="http://www.w3.org/2000/svg">
<g clip-path="url(#clip0_824_1758)">
<rect width="1440" height="2663" fill="white"/>
<path d="M1448 1323H1259.5V1448.5" stroke="#38AF33" stroke-width="7"/>
<path d="M122.5 703V651.5H0" stroke="#0C55EF" stroke-width="7"/>
<path d="M275.363 -2.02214L275.363 122.993L400.5 122.994L400.5 701.001" stroke="#F763A2" stroke-width="7"/>
<path d="M784 1999L784 2555L928.406 2555L928.406 2687.7" stroke="#0C55EF" stroke-width="7"/>
<path d="M-0.0078125 1404H361V1448" stroke="#F43C04" stroke-width="7"/>
<path d="M1446.51 2246.01L1378.96 2246.01L1378.96 2362.7L1253.81 2362.7L1253.82 2696.51" stroke="#F763A2" stroke-width="7"/>
<path d="M235.631 1391.77L234.878 1391.98C234.83 1391.85 234.761 1391.73 234.668 1391.61C234.578 1391.49 234.455 1391.39 234.299 1391.32C234.143 1391.24 233.943 1391.2 233.699 1391.2C233.365 1391.2 233.087 1391.28 232.864 1391.43C232.644 1391.58 232.534 1391.77 232.534 1392.01C232.534 1392.22 232.61 1392.38 232.761 1392.5C232.913 1392.62 233.15 1392.72 233.472 1392.8L234.281 1393C234.769 1393.12 235.132 1393.3 235.371 1393.55C235.611 1393.79 235.73 1394.1 235.73 1394.48C235.73 1394.79 235.64 1395.07 235.46 1395.32C235.283 1395.56 235.034 1395.76 234.714 1395.9C234.395 1396.04 234.023 1396.11 233.599 1396.11C233.043 1396.11 232.583 1395.99 232.218 1395.75C231.853 1395.51 231.623 1395.16 231.526 1394.69L232.321 1394.49C232.397 1394.79 232.54 1395.01 232.751 1395.15C232.964 1395.3 233.242 1395.38 233.585 1395.38C233.976 1395.38 234.286 1395.29 234.516 1395.13C234.748 1394.96 234.864 1394.76 234.864 1394.52C234.864 1394.33 234.797 1394.17 234.665 1394.05C234.532 1393.92 234.329 1393.82 234.054 1393.76L233.145 1393.54C232.645 1393.42 232.278 1393.24 232.044 1392.99C231.812 1392.74 231.696 1392.43 231.696 1392.05C231.696 1391.74 231.782 1391.47 231.955 1391.23C232.13 1391 232.368 1390.81 232.669 1390.68C232.972 1390.54 233.315 1390.47 233.699 1390.47C234.239 1390.47 234.662 1390.59 234.97 1390.83C235.28 1391.07 235.5 1391.38 235.631 1391.77ZM237.83 1392.72V1396H236.992V1388.73H237.83V1391.4H237.901C238.029 1391.12 238.22 1390.89 238.476 1390.73C238.734 1390.56 239.077 1390.47 239.506 1390.47C239.878 1390.47 240.203 1390.55 240.482 1390.7C240.762 1390.84 240.978 1391.07 241.132 1391.38C241.289 1391.68 241.367 1392.07 241.367 1392.53V1396H240.529V1392.59C240.529 1392.16 240.416 1391.82 240.191 1391.59C239.969 1391.35 239.66 1391.23 239.264 1391.23C238.99 1391.23 238.744 1391.29 238.526 1391.4C238.31 1391.52 238.14 1391.69 238.014 1391.91C237.891 1392.13 237.83 1392.4 237.83 1392.72ZM245.116 1396.11C244.623 1396.11 244.191 1396 243.82 1395.76C243.45 1395.53 243.161 1395.2 242.953 1394.78C242.747 1394.36 242.644 1393.86 242.644 1393.3C242.644 1392.73 242.747 1392.24 242.953 1391.81C243.161 1391.39 243.45 1391.06 243.82 1390.83C244.191 1390.59 244.623 1390.47 245.116 1390.47C245.608 1390.47 246.039 1390.59 246.408 1390.83C246.78 1391.06 247.069 1391.39 247.275 1391.81C247.483 1392.24 247.587 1392.73 247.587 1393.3C247.587 1393.86 247.483 1394.36 247.275 1394.78C247.069 1395.2 246.78 1395.53 246.408 1395.76C246.039 1396 245.608 1396.11 245.116 1396.11ZM245.116 1395.36C245.49 1395.36 245.798 1395.26 246.039 1395.07C246.281 1394.88 246.459 1394.63 246.575 1394.32C246.691 1394 246.749 1393.67 246.749 1393.3C246.749 1392.94 246.691 1392.6 246.575 1392.28C246.459 1391.97 246.281 1391.71 246.039 1391.52C245.798 1391.32 245.49 1391.23 245.116 1391.23C244.742 1391.23 244.434 1391.32 244.192 1391.52C243.951 1391.71 243.772 1391.97 243.656 1392.28C243.54 1392.6 243.482 1392.94 243.482 1393.3C243.482 1393.67 243.54 1394 243.656 1394.32C243.772 1394.63 243.951 1394.88 244.192 1395.07C244.434 1395.26 244.742 1395.36 245.116 1395.36ZM252.304 1393.77V1390.55H253.142V1396H252.304V1395.08H252.247C252.119 1395.35 251.921 1395.59 251.651 1395.78C251.381 1395.98 251.04 1396.07 250.628 1396.07C250.287 1396.07 249.984 1396 249.719 1395.85C249.454 1395.7 249.245 1395.47 249.094 1395.17C248.942 1394.86 248.867 1394.48 248.867 1394.01V1390.55H249.705V1393.95C249.705 1394.35 249.816 1394.67 250.039 1394.91C250.263 1395.14 250.55 1395.26 250.898 1395.26C251.106 1395.26 251.318 1395.21 251.534 1395.1C251.751 1395 251.934 1394.83 252.08 1394.61C252.23 1394.39 252.304 1394.11 252.304 1393.77ZM255.515 1388.73V1396H254.677V1388.73H255.515ZM259.11 1396.11C258.655 1396.11 258.254 1396 257.906 1395.77C257.558 1395.54 257.286 1395.21 257.089 1394.79C256.893 1394.37 256.795 1393.86 256.795 1393.29C256.795 1392.71 256.893 1392.22 257.089 1391.8C257.286 1391.37 257.559 1391.05 257.91 1390.82C258.26 1390.59 258.665 1390.47 259.124 1390.47C259.479 1390.47 259.76 1390.53 259.966 1390.65C260.174 1390.77 260.333 1390.9 260.442 1391.05C260.553 1391.2 260.639 1391.32 260.701 1391.41H260.772V1388.73H261.61V1396H260.8V1395.16H260.701C260.639 1395.26 260.552 1395.39 260.438 1395.54C260.324 1395.69 260.162 1395.82 259.952 1395.94C259.741 1396.06 259.46 1396.11 259.11 1396.11ZM259.224 1395.36C259.56 1395.36 259.844 1395.27 260.076 1395.1C260.308 1394.92 260.484 1394.68 260.605 1394.36C260.726 1394.05 260.786 1393.68 260.786 1393.27C260.786 1392.87 260.727 1392.51 260.608 1392.2C260.49 1391.9 260.315 1391.66 260.083 1391.49C259.851 1391.31 259.564 1391.23 259.224 1391.23C258.868 1391.23 258.573 1391.32 258.336 1391.5C258.101 1391.68 257.925 1391.93 257.807 1392.24C257.691 1392.54 257.633 1392.89 257.633 1393.27C257.633 1393.66 257.692 1394.01 257.81 1394.33C257.931 1394.65 258.108 1394.9 258.343 1395.08C258.58 1395.27 258.873 1395.36 259.224 1395.36ZM266.074 1396V1390.55H266.912V1396H266.074ZM266.5 1389.64C266.336 1389.64 266.196 1389.58 266.077 1389.47C265.961 1389.36 265.903 1389.22 265.903 1389.07C265.903 1388.91 265.961 1388.78 266.077 1388.67C266.196 1388.56 266.336 1388.5 266.5 1388.5C266.663 1388.5 266.803 1388.56 266.919 1388.67C267.037 1388.78 267.096 1388.91 267.096 1389.07C267.096 1389.22 267.037 1389.36 266.919 1389.47C266.803 1389.58 266.663 1389.64 266.5 1389.64ZM269.54 1393.95V1393.91C269.545 1393.46 269.593 1393.1 269.683 1392.83C269.772 1392.56 269.9 1392.35 270.066 1392.18C270.232 1392.02 270.431 1391.86 270.663 1391.72C270.802 1391.64 270.928 1391.54 271.039 1391.42C271.15 1391.3 271.238 1391.17 271.302 1391.01C271.368 1390.86 271.401 1390.69 271.401 1390.5C271.401 1390.27 271.347 1390.07 271.238 1389.9C271.129 1389.73 270.983 1389.6 270.801 1389.5C270.619 1389.41 270.416 1389.37 270.194 1389.37C270 1389.37 269.813 1389.41 269.633 1389.49C269.453 1389.57 269.303 1389.69 269.182 1389.87C269.061 1390.04 268.991 1390.27 268.972 1390.55H268.077C268.096 1390.14 268.201 1389.8 268.39 1389.51C268.582 1389.23 268.834 1389.01 269.146 1388.86C269.461 1388.7 269.81 1388.63 270.194 1388.63C270.611 1388.63 270.973 1388.71 271.281 1388.88C271.591 1389.04 271.83 1389.27 271.998 1389.56C272.168 1389.85 272.254 1390.18 272.254 1390.55C272.254 1390.81 272.213 1391.04 272.133 1391.25C272.055 1391.46 271.941 1391.65 271.792 1391.82C271.645 1391.98 271.468 1392.13 271.259 1392.26C271.051 1392.39 270.884 1392.52 270.759 1392.67C270.633 1392.81 270.542 1392.98 270.485 1393.18C270.428 1393.37 270.397 1393.62 270.393 1393.91V1393.95H269.54ZM269.995 1396.06C269.82 1396.06 269.67 1395.99 269.544 1395.87C269.419 1395.74 269.356 1395.59 269.356 1395.42C269.356 1395.24 269.419 1395.09 269.544 1394.97C269.67 1394.84 269.82 1394.78 269.995 1394.78C270.17 1394.78 270.321 1394.84 270.446 1394.97C270.571 1395.09 270.634 1395.24 270.634 1395.42C270.634 1395.53 270.605 1395.64 270.545 1395.74C270.489 1395.83 270.412 1395.91 270.315 1395.97C270.22 1396.03 270.113 1396.06 269.995 1396.06Z" fill="black"/>
<path d="M1253.77 2351V2345.55H1254.61V2351H1253.77ZM1254.19 2344.64C1254.03 2344.64 1253.89 2344.58 1253.77 2344.47C1253.65 2344.36 1253.6 2344.22 1253.6 2344.07C1253.6 2343.91 1253.65 2343.78 1253.77 2343.67C1253.89 2343.56 1254.03 2343.5 1254.19 2343.5C1254.36 2343.5 1254.5 2343.56 1254.61 2343.67C1254.73 2343.78 1254.79 2343.91 1254.79 2344.07C1254.79 2344.22 1254.73 2344.36 1254.61 2344.47C1254.5 2344.58 1254.36 2344.64 1254.19 2344.64ZM1258.51 2345.55V2346.26H1255.69V2345.55H1258.51ZM1256.51 2344.24H1257.35V2349.44C1257.35 2349.67 1257.38 2349.85 1257.45 2349.97C1257.52 2350.09 1257.61 2350.16 1257.72 2350.2C1257.83 2350.24 1257.95 2350.26 1258.07 2350.26C1258.16 2350.26 1258.24 2350.26 1258.3 2350.25C1258.36 2350.24 1258.41 2350.23 1258.44 2350.22L1258.61 2350.97C1258.55 2350.99 1258.48 2351.01 1258.37 2351.04C1258.27 2351.06 1258.14 2351.07 1257.99 2351.07C1257.75 2351.07 1257.52 2351.02 1257.29 2350.92C1257.07 2350.82 1256.88 2350.66 1256.73 2350.45C1256.58 2350.24 1256.51 2349.98 1256.51 2349.66V2344.24ZM1266.45 2346.77L1265.7 2346.98C1265.65 2346.85 1265.58 2346.73 1265.49 2346.61C1265.4 2346.49 1265.27 2346.39 1265.12 2346.32C1264.96 2346.24 1264.76 2346.2 1264.52 2346.2C1264.18 2346.2 1263.91 2346.28 1263.68 2346.43C1263.46 2346.58 1263.35 2346.77 1263.35 2347.01C1263.35 2347.22 1263.43 2347.38 1263.58 2347.5C1263.73 2347.62 1263.97 2347.72 1264.29 2347.8L1265.1 2348C1265.59 2348.12 1265.95 2348.3 1266.19 2348.55C1266.43 2348.79 1266.55 2349.1 1266.55 2349.48C1266.55 2349.79 1266.46 2350.07 1266.28 2350.32C1266.1 2350.56 1265.85 2350.76 1265.53 2350.9C1265.21 2351.04 1264.84 2351.11 1264.42 2351.11C1263.86 2351.11 1263.4 2350.99 1263.04 2350.75C1262.67 2350.51 1262.44 2350.16 1262.34 2349.69L1263.14 2349.49C1263.22 2349.79 1263.36 2350.01 1263.57 2350.15C1263.78 2350.3 1264.06 2350.38 1264.4 2350.38C1264.79 2350.38 1265.1 2350.29 1265.33 2350.13C1265.57 2349.96 1265.68 2349.76 1265.68 2349.52C1265.68 2349.33 1265.62 2349.17 1265.48 2349.05C1265.35 2348.92 1265.15 2348.82 1264.87 2348.76L1263.96 2348.54C1263.46 2348.42 1263.1 2348.24 1262.86 2347.99C1262.63 2347.74 1262.51 2347.43 1262.51 2347.05C1262.51 2346.74 1262.6 2346.47 1262.77 2346.23C1262.95 2346 1263.19 2345.81 1263.49 2345.68C1263.79 2345.54 1264.13 2345.47 1264.52 2345.47C1265.06 2345.47 1265.48 2345.59 1265.79 2345.83C1266.1 2346.07 1266.32 2346.38 1266.45 2346.77ZM1274.49 2346.77L1273.73 2346.98C1273.69 2346.85 1273.62 2346.73 1273.52 2346.61C1273.43 2346.49 1273.31 2346.39 1273.15 2346.32C1273 2346.24 1272.8 2346.2 1272.55 2346.2C1272.22 2346.2 1271.94 2346.28 1271.72 2346.43C1271.5 2346.58 1271.39 2346.77 1271.39 2347.01C1271.39 2347.22 1271.47 2347.38 1271.62 2347.5C1271.77 2347.62 1272.01 2347.72 1272.33 2347.8L1273.14 2348C1273.62 2348.12 1273.99 2348.3 1274.23 2348.55C1274.47 2348.79 1274.59 2349.1 1274.59 2349.48C1274.59 2349.79 1274.5 2350.07 1274.32 2350.32C1274.14 2350.56 1273.89 2350.76 1273.57 2350.9C1273.25 2351.04 1272.88 2351.11 1272.45 2351.11C1271.9 2351.11 1271.44 2350.99 1271.07 2350.75C1270.71 2350.51 1270.48 2350.16 1270.38 2349.69L1271.18 2349.49C1271.25 2349.79 1271.4 2350.01 1271.61 2350.15C1271.82 2350.3 1272.1 2350.38 1272.44 2350.38C1272.83 2350.38 1273.14 2350.29 1273.37 2350.13C1273.6 2349.96 1273.72 2349.76 1273.72 2349.52C1273.72 2349.33 1273.65 2349.17 1273.52 2349.05C1273.39 2348.92 1273.18 2348.82 1272.91 2348.76L1272 2348.54C1271.5 2348.42 1271.13 2348.24 1270.9 2347.99C1270.67 2347.74 1270.55 2347.43 1270.55 2347.05C1270.55 2346.74 1270.64 2346.47 1270.81 2346.23C1270.99 2346 1271.22 2345.81 1271.52 2345.68C1271.83 2345.54 1272.17 2345.47 1272.55 2345.47C1273.09 2345.47 1273.52 2345.59 1273.83 2345.83C1274.14 2346.07 1274.36 2346.38 1274.49 2346.77ZM1278.06 2351.11C1277.57 2351.11 1277.14 2351 1276.77 2350.76C1276.4 2350.53 1276.11 2350.2 1275.9 2349.78C1275.69 2349.36 1275.59 2348.86 1275.59 2348.3C1275.59 2347.73 1275.69 2347.24 1275.9 2346.81C1276.11 2346.39 1276.4 2346.06 1276.77 2345.83C1277.14 2345.59 1277.57 2345.47 1278.06 2345.47C1278.56 2345.47 1278.99 2345.59 1279.36 2345.83C1279.73 2346.06 1280.02 2346.39 1280.22 2346.81C1280.43 2347.24 1280.53 2347.73 1280.53 2348.3C1280.53 2348.86 1280.43 2349.36 1280.22 2349.78C1280.02 2350.2 1279.73 2350.53 1279.36 2350.76C1278.99 2351 1278.56 2351.11 1278.06 2351.11ZM1278.06 2350.36C1278.44 2350.36 1278.74 2350.26 1278.99 2350.07C1279.23 2349.88 1279.41 2349.63 1279.52 2349.32C1279.64 2349 1279.7 2348.67 1279.7 2348.3C1279.7 2347.94 1279.64 2347.6 1279.52 2347.28C1279.41 2346.97 1279.23 2346.71 1278.99 2346.52C1278.74 2346.32 1278.44 2346.23 1278.06 2346.23C1277.69 2346.23 1277.38 2346.32 1277.14 2346.52C1276.9 2346.71 1276.72 2346.97 1276.6 2347.28C1276.49 2347.6 1276.43 2347.94 1276.43 2348.3C1276.43 2348.67 1276.49 2349 1276.6 2349.32C1276.72 2349.63 1276.9 2349.88 1277.14 2350.07C1277.38 2350.26 1277.69 2350.36 1278.06 2350.36ZM1284.63 2351V2345.55H1285.44V2346.4H1285.51C1285.62 2346.11 1285.8 2345.88 1286.06 2345.72C1286.31 2345.56 1286.62 2345.47 1286.97 2345.47C1287.33 2345.47 1287.63 2345.56 1287.87 2345.72C1288.11 2345.88 1288.3 2346.11 1288.43 2346.4H1288.49C1288.63 2346.12 1288.84 2345.89 1289.12 2345.73C1289.4 2345.56 1289.73 2345.47 1290.12 2345.47C1290.61 2345.47 1291.01 2345.63 1291.32 2345.93C1291.63 2346.24 1291.79 2346.71 1291.79 2347.35V2351H1290.95V2347.35C1290.95 2346.95 1290.84 2346.66 1290.62 2346.49C1290.4 2346.31 1290.14 2346.23 1289.84 2346.23C1289.46 2346.23 1289.16 2346.34 1288.95 2346.58C1288.74 2346.8 1288.63 2347.1 1288.63 2347.45V2351H1287.78V2347.26C1287.78 2346.95 1287.68 2346.7 1287.48 2346.51C1287.28 2346.32 1287.02 2346.23 1286.7 2346.23C1286.48 2346.23 1286.28 2346.29 1286.09 2346.4C1285.9 2346.52 1285.75 2346.68 1285.63 2346.88C1285.52 2347.09 1285.46 2347.32 1285.46 2347.59V2351H1284.63ZM1295.6 2351.11C1295.08 2351.11 1294.63 2351 1294.24 2350.77C1293.87 2350.53 1293.57 2350.2 1293.37 2349.79C1293.16 2349.36 1293.06 2348.87 1293.06 2348.32C1293.06 2347.76 1293.16 2347.26 1293.37 2346.84C1293.57 2346.41 1293.86 2346.08 1294.23 2345.84C1294.6 2345.6 1295.03 2345.47 1295.52 2345.47C1295.8 2345.47 1296.08 2345.52 1296.36 2345.62C1296.64 2345.71 1296.89 2345.87 1297.12 2346.08C1297.34 2346.29 1297.53 2346.57 1297.66 2346.92C1297.8 2347.26 1297.86 2347.69 1297.86 2348.2V2348.56H1293.66V2347.83H1297.01C1297.01 2347.52 1296.95 2347.25 1296.83 2347.01C1296.71 2346.77 1296.53 2346.58 1296.31 2346.44C1296.09 2346.3 1295.82 2346.23 1295.52 2346.23C1295.19 2346.23 1294.9 2346.31 1294.65 2346.48C1294.41 2346.64 1294.23 2346.85 1294.1 2347.12C1293.97 2347.38 1293.9 2347.66 1293.9 2347.96V2348.44C1293.9 2348.86 1293.97 2349.2 1294.11 2349.49C1294.26 2349.77 1294.46 2349.99 1294.71 2350.14C1294.97 2350.29 1295.27 2350.36 1295.6 2350.36C1295.82 2350.36 1296.02 2350.33 1296.2 2350.27C1296.38 2350.2 1296.54 2350.11 1296.67 2349.98C1296.8 2349.86 1296.9 2349.7 1296.97 2349.51L1297.78 2349.74C1297.69 2350.01 1297.55 2350.25 1297.35 2350.46C1297.15 2350.67 1296.9 2350.83 1296.6 2350.94C1296.31 2351.06 1295.97 2351.11 1295.6 2351.11ZM1303 2346.77L1302.25 2346.98C1302.2 2346.85 1302.13 2346.73 1302.04 2346.61C1301.95 2346.49 1301.83 2346.39 1301.67 2346.32C1301.51 2346.24 1301.31 2346.2 1301.07 2346.2C1300.74 2346.2 1300.46 2346.28 1300.24 2346.43C1300.02 2346.58 1299.91 2346.77 1299.91 2347.01C1299.91 2347.22 1299.98 2347.38 1300.13 2347.5C1300.28 2347.62 1300.52 2347.72 1300.84 2347.8L1301.65 2348C1302.14 2348.12 1302.5 2348.3 1302.74 2348.55C1302.98 2348.79 1303.1 2349.1 1303.1 2349.48C1303.1 2349.79 1303.01 2350.07 1302.83 2350.32C1302.65 2350.56 1302.41 2350.76 1302.09 2350.9C1301.77 2351.04 1301.39 2351.11 1300.97 2351.11C1300.41 2351.11 1299.95 2350.99 1299.59 2350.75C1299.22 2350.51 1298.99 2350.16 1298.9 2349.69L1299.69 2349.49C1299.77 2349.79 1299.91 2350.01 1300.12 2350.15C1300.33 2350.3 1300.61 2350.38 1300.96 2350.38C1301.35 2350.38 1301.66 2350.29 1301.89 2350.13C1302.12 2349.96 1302.23 2349.76 1302.23 2349.52C1302.23 2349.33 1302.17 2349.17 1302.04 2349.05C1301.9 2348.92 1301.7 2348.82 1301.43 2348.76L1300.52 2348.54C1300.02 2348.42 1299.65 2348.24 1299.42 2347.99C1299.18 2347.74 1299.07 2347.43 1299.07 2347.05C1299.07 2346.74 1299.15 2346.47 1299.33 2346.23C1299.5 2346 1299.74 2345.81 1300.04 2345.68C1300.34 2345.54 1300.69 2345.47 1301.07 2345.47C1301.61 2345.47 1302.03 2345.59 1302.34 2345.83C1302.65 2346.07 1302.87 2346.38 1303 2346.77ZM1308.23 2346.77L1307.47 2346.98C1307.43 2346.85 1307.36 2346.73 1307.26 2346.61C1307.17 2346.49 1307.05 2346.39 1306.89 2346.32C1306.74 2346.24 1306.54 2346.2 1306.29 2346.2C1305.96 2346.2 1305.68 2346.28 1305.46 2346.43C1305.24 2346.58 1305.13 2346.77 1305.13 2347.01C1305.13 2347.22 1305.21 2347.38 1305.36 2347.5C1305.51 2347.62 1305.75 2347.72 1306.07 2347.8L1306.88 2348C1307.36 2348.12 1307.73 2348.3 1307.97 2348.55C1308.21 2348.79 1308.33 2349.1 1308.33 2349.48C1308.33 2349.79 1308.24 2350.07 1308.06 2350.32C1307.88 2350.56 1307.63 2350.76 1307.31 2350.9C1306.99 2351.04 1306.62 2351.11 1306.2 2351.11C1305.64 2351.11 1305.18 2350.99 1304.81 2350.75C1304.45 2350.51 1304.22 2350.16 1304.12 2349.69L1304.92 2349.49C1304.99 2349.79 1305.14 2350.01 1305.35 2350.15C1305.56 2350.3 1305.84 2350.38 1306.18 2350.38C1306.57 2350.38 1306.88 2350.29 1307.11 2350.13C1307.34 2349.96 1307.46 2349.76 1307.46 2349.52C1307.46 2349.33 1307.39 2349.17 1307.26 2349.05C1307.13 2348.92 1306.92 2348.82 1306.65 2348.76L1305.74 2348.54C1305.24 2348.42 1304.87 2348.24 1304.64 2347.99C1304.41 2347.74 1304.29 2347.43 1304.29 2347.05C1304.29 2346.74 1304.38 2346.47 1304.55 2346.23C1304.73 2346 1304.96 2345.81 1305.26 2345.68C1305.57 2345.54 1305.91 2345.47 1306.29 2345.47C1306.83 2345.47 1307.26 2345.59 1307.57 2345.83C1307.88 2346.07 1308.1 2346.38 1308.23 2346.77ZM1311.87 2351.11C1311.35 2351.11 1310.9 2351 1310.51 2350.77C1310.14 2350.53 1309.84 2350.2 1309.64 2349.79C1309.43 2349.36 1309.33 2348.87 1309.33 2348.32C1309.33 2347.76 1309.43 2347.26 1309.64 2346.84C1309.84 2346.41 1310.13 2346.08 1310.5 2345.84C1310.87 2345.6 1311.3 2345.47 1311.79 2345.47C1312.07 2345.47 1312.35 2345.52 1312.63 2345.62C1312.91 2345.71 1313.16 2345.87 1313.39 2346.08C1313.61 2346.29 1313.8 2346.57 1313.93 2346.92C1314.07 2347.26 1314.13 2347.69 1314.13 2348.2V2348.56H1309.93V2347.83H1313.28C1313.28 2347.52 1313.22 2347.25 1313.1 2347.01C1312.98 2346.77 1312.8 2346.58 1312.58 2346.44C1312.35 2346.3 1312.09 2346.23 1311.79 2346.23C1311.46 2346.23 1311.17 2346.31 1310.92 2346.48C1310.68 2346.64 1310.5 2346.85 1310.37 2347.12C1310.23 2347.38 1310.17 2347.66 1310.17 2347.96V2348.44C1310.17 2348.86 1310.24 2349.2 1310.38 2349.49C1310.53 2349.77 1310.73 2349.99 1310.98 2350.14C1311.24 2350.29 1311.54 2350.36 1311.87 2350.36C1312.09 2350.36 1312.29 2350.33 1312.47 2350.27C1312.65 2350.2 1312.81 2350.11 1312.94 2349.98C1313.07 2349.86 1313.17 2349.7 1313.24 2349.51L1314.05 2349.74C1313.96 2350.01 1313.82 2350.25 1313.62 2350.46C1313.42 2350.67 1313.17 2350.83 1312.87 2350.94C1312.58 2351.06 1312.24 2351.11 1311.87 2351.11ZM1317.47 2351.11C1317.01 2351.11 1316.61 2351 1316.26 2350.77C1315.92 2350.54 1315.64 2350.21 1315.45 2349.79C1315.25 2349.37 1315.15 2348.86 1315.15 2348.29C1315.15 2347.71 1315.25 2347.22 1315.45 2346.8C1315.64 2346.37 1315.92 2346.05 1316.27 2345.82C1316.62 2345.59 1317.02 2345.47 1317.48 2345.47C1317.84 2345.47 1318.12 2345.53 1318.32 2345.65C1318.53 2345.77 1318.69 2345.9 1318.8 2346.05C1318.91 2346.2 1319 2346.32 1319.06 2346.41H1319.13V2343.73H1319.97V2351H1319.16V2350.16H1319.06C1319 2350.26 1318.91 2350.39 1318.8 2350.54C1318.68 2350.69 1318.52 2350.82 1318.31 2350.94C1318.1 2351.06 1317.82 2351.11 1317.47 2351.11ZM1317.58 2350.36C1317.92 2350.36 1318.2 2350.27 1318.43 2350.1C1318.67 2349.92 1318.84 2349.68 1318.96 2349.36C1319.08 2349.05 1319.14 2348.68 1319.14 2348.27C1319.14 2347.87 1319.08 2347.51 1318.97 2347.2C1318.85 2346.9 1318.67 2346.66 1318.44 2346.49C1318.21 2346.31 1317.92 2346.23 1317.58 2346.23C1317.23 2346.23 1316.93 2346.32 1316.69 2346.5C1316.46 2346.68 1316.28 2346.93 1316.16 2347.24C1316.05 2347.54 1315.99 2347.89 1315.99 2348.27C1315.99 2348.66 1316.05 2349.01 1316.17 2349.33C1316.29 2349.65 1316.47 2349.9 1316.7 2350.08C1316.94 2350.27 1317.23 2350.36 1317.58 2350.36ZM1327.87 2348.77V2345.55H1328.71V2351H1327.87V2350.08H1327.81C1327.68 2350.35 1327.49 2350.59 1327.22 2350.78C1326.95 2350.98 1326.6 2351.07 1326.19 2351.07C1325.85 2351.07 1325.55 2351 1325.28 2350.85C1325.02 2350.7 1324.81 2350.47 1324.66 2350.17C1324.51 2349.86 1324.43 2349.48 1324.43 2349.01V2345.55H1325.27V2348.95C1325.27 2349.35 1325.38 2349.67 1325.6 2349.91C1325.83 2350.14 1326.11 2350.26 1326.46 2350.26C1326.67 2350.26 1326.88 2350.21 1327.1 2350.1C1327.32 2350 1327.5 2349.83 1327.64 2349.61C1327.79 2349.39 1327.87 2349.11 1327.87 2348.77ZM1330.24 2353.05V2345.55H1331.05V2346.41H1331.15C1331.21 2346.32 1331.3 2346.2 1331.41 2346.05C1331.52 2345.9 1331.68 2345.77 1331.88 2345.65C1332.09 2345.53 1332.37 2345.47 1332.73 2345.47C1333.19 2345.47 1333.59 2345.59 1333.94 2345.82C1334.29 2346.05 1334.57 2346.37 1334.76 2346.8C1334.96 2347.22 1335.06 2347.71 1335.06 2348.29C1335.06 2348.86 1334.96 2349.37 1334.76 2349.79C1334.57 2350.21 1334.29 2350.54 1333.95 2350.77C1333.6 2351 1333.2 2351.11 1332.74 2351.11C1332.39 2351.11 1332.11 2351.06 1331.9 2350.94C1331.69 2350.82 1331.53 2350.69 1331.41 2350.54C1331.3 2350.39 1331.21 2350.26 1331.15 2350.16H1331.08V2353.05H1330.24ZM1331.07 2348.27C1331.07 2348.68 1331.13 2349.05 1331.25 2349.36C1331.37 2349.68 1331.54 2349.92 1331.78 2350.1C1332.01 2350.27 1332.29 2350.36 1332.63 2350.36C1332.98 2350.36 1333.27 2350.27 1333.51 2350.08C1333.74 2349.9 1333.92 2349.65 1334.04 2349.33C1334.16 2349.01 1334.22 2348.66 1334.22 2348.27C1334.22 2347.89 1334.16 2347.54 1334.04 2347.24C1333.93 2346.93 1333.75 2346.68 1333.51 2346.5C1333.28 2346.32 1332.98 2346.23 1332.63 2346.23C1332.29 2346.23 1332 2346.31 1331.77 2346.49C1331.54 2346.66 1331.36 2346.9 1331.24 2347.2C1331.12 2347.51 1331.07 2347.87 1331.07 2348.27ZM1336.34 2353.05V2345.55H1337.15V2346.41H1337.24C1337.31 2346.32 1337.39 2346.2 1337.5 2346.05C1337.61 2345.9 1337.77 2345.77 1337.98 2345.65C1338.18 2345.53 1338.47 2345.47 1338.82 2345.47C1339.28 2345.47 1339.69 2345.59 1340.04 2345.82C1340.39 2346.05 1340.66 2346.37 1340.86 2346.8C1341.05 2347.22 1341.15 2347.71 1341.15 2348.29C1341.15 2348.86 1341.05 2349.37 1340.86 2349.79C1340.66 2350.21 1340.39 2350.54 1340.04 2350.77C1339.69 2351 1339.29 2351.11 1338.84 2351.11C1338.49 2351.11 1338.2 2351.06 1337.99 2350.94C1337.78 2350.82 1337.62 2350.69 1337.51 2350.54C1337.39 2350.39 1337.31 2350.26 1337.24 2350.16H1337.17V2353.05H1336.34ZM1337.16 2348.27C1337.16 2348.68 1337.22 2349.05 1337.34 2349.36C1337.46 2349.68 1337.64 2349.92 1337.87 2350.1C1338.1 2350.27 1338.39 2350.36 1338.72 2350.36C1339.07 2350.36 1339.36 2350.27 1339.6 2350.08C1339.84 2349.9 1340.01 2349.65 1340.13 2349.33C1340.25 2349.01 1340.31 2348.66 1340.31 2348.27C1340.31 2347.89 1340.25 2347.54 1340.14 2347.24C1340.02 2346.93 1339.84 2346.68 1339.61 2346.5C1339.37 2346.32 1339.08 2346.23 1338.72 2346.23C1338.38 2346.23 1338.09 2346.31 1337.86 2346.49C1337.63 2346.66 1337.46 2346.9 1337.34 2347.2C1337.22 2347.51 1337.16 2347.87 1337.16 2348.27ZM1342.43 2353.05V2345.55H1343.24V2346.41H1343.34C1343.4 2346.32 1343.49 2346.2 1343.59 2346.05C1343.71 2345.9 1343.86 2345.77 1344.07 2345.65C1344.28 2345.53 1344.56 2345.47 1344.91 2345.47C1345.37 2345.47 1345.78 2345.59 1346.13 2345.82C1346.48 2346.05 1346.75 2346.37 1346.95 2346.8C1347.15 2347.22 1347.24 2347.71 1347.24 2348.29C1347.24 2348.86 1347.15 2349.37 1346.95 2349.79C1346.75 2350.21 1346.48 2350.54 1346.13 2350.77C1345.78 2351 1345.38 2351.11 1344.93 2351.11C1344.58 2351.11 1344.3 2351.06 1344.09 2350.94C1343.88 2350.82 1343.71 2350.69 1343.6 2350.54C1343.49 2350.39 1343.4 2350.26 1343.34 2350.16H1343.27V2353.05H1342.43ZM1343.25 2348.27C1343.25 2348.68 1343.31 2349.05 1343.43 2349.36C1343.55 2349.68 1343.73 2349.92 1343.96 2350.1C1344.2 2350.27 1344.48 2350.36 1344.82 2350.36C1345.17 2350.36 1345.46 2350.27 1345.69 2350.08C1345.93 2349.9 1346.11 2349.65 1346.23 2349.33C1346.35 2349.01 1346.41 2348.66 1346.41 2348.27C1346.41 2347.89 1346.35 2347.54 1346.23 2347.24C1346.11 2346.93 1345.94 2346.68 1345.7 2346.5C1345.47 2346.32 1345.17 2346.23 1344.82 2346.23C1344.47 2346.23 1344.19 2346.31 1343.96 2346.49C1343.72 2346.66 1343.55 2346.9 1343.43 2347.2C1343.31 2347.51 1343.25 2347.87 1343.25 2348.27ZM1349.13 2351.06C1348.96 2351.06 1348.81 2350.99 1348.68 2350.87C1348.56 2350.74 1348.49 2350.59 1348.49 2350.42C1348.49 2350.24 1348.56 2350.09 1348.68 2349.97C1348.81 2349.84 1348.96 2349.78 1349.13 2349.78C1349.31 2349.78 1349.46 2349.84 1349.58 2349.97C1349.71 2350.09 1349.77 2350.24 1349.77 2350.42C1349.77 2350.53 1349.74 2350.64 1349.68 2350.74C1349.63 2350.83 1349.55 2350.91 1349.45 2350.97C1349.36 2351.03 1349.25 2351.06 1349.13 2351.06ZM1351.89 2351.06C1351.71 2351.06 1351.56 2350.99 1351.44 2350.87C1351.31 2350.74 1351.25 2350.59 1351.25 2350.42C1351.25 2350.24 1351.31 2350.09 1351.44 2349.97C1351.56 2349.84 1351.71 2349.78 1351.89 2349.78C1352.06 2349.78 1352.21 2349.84 1352.34 2349.97C1352.46 2350.09 1352.53 2350.24 1352.53 2350.42C1352.53 2350.53 1352.5 2350.64 1352.44 2350.74C1352.38 2350.83 1352.3 2350.91 1352.21 2350.97C1352.11 2351.03 1352.01 2351.06 1351.89 2351.06ZM1354.64 2351.06C1354.47 2351.06 1354.32 2350.99 1354.19 2350.87C1354.07 2350.74 1354 2350.59 1354 2350.42C1354 2350.24 1354.07 2350.09 1354.19 2349.97C1354.32 2349.84 1354.47 2349.78 1354.64 2349.78C1354.82 2349.78 1354.97 2349.84 1355.09 2349.97C1355.22 2350.09 1355.28 2350.24 1355.28 2350.42C1355.28 2350.53 1355.25 2350.64 1355.19 2350.74C1355.14 2350.83 1355.06 2350.91 1354.96 2350.97C1354.87 2351.03 1354.76 2351.06 1354.64 2351.06Z" fill="black"/>
<path d="M1198.63 467.767L1197.88 467.98C1197.83 467.855 1197.76 467.733 1197.67 467.614C1197.58 467.494 1197.46 467.394 1197.3 467.316C1197.14 467.238 1196.94 467.199 1196.7 467.199C1196.37 467.199 1196.09 467.276 1195.86 467.43C1195.64 467.581 1195.53 467.774 1195.53 468.009C1195.53 468.217 1195.61 468.381 1195.76 468.502C1195.91 468.623 1196.15 468.723 1196.47 468.804L1197.28 469.003C1197.77 469.121 1198.13 469.302 1198.37 469.546C1198.61 469.788 1198.73 470.099 1198.73 470.48C1198.73 470.793 1198.64 471.072 1198.46 471.318C1198.28 471.564 1198.03 471.759 1197.71 471.901C1197.39 472.043 1197.02 472.114 1196.6 472.114C1196.04 472.114 1195.58 471.993 1195.22 471.751C1194.85 471.51 1194.62 471.157 1194.53 470.693L1195.32 470.494C1195.4 470.788 1195.54 471.008 1195.75 471.155C1195.96 471.302 1196.24 471.375 1196.59 471.375C1196.98 471.375 1197.29 471.292 1197.52 471.126C1197.75 470.958 1197.86 470.757 1197.86 470.523C1197.86 470.333 1197.8 470.175 1197.66 470.047C1197.53 469.917 1197.33 469.82 1197.05 469.756L1196.14 469.543C1195.65 469.424 1195.28 469.241 1195.04 468.992C1194.81 468.741 1194.7 468.428 1194.7 468.051C1194.7 467.743 1194.78 467.471 1194.96 467.234C1195.13 466.998 1195.37 466.812 1195.67 466.677C1195.97 466.542 1196.32 466.474 1196.7 466.474C1197.24 466.474 1197.66 466.593 1197.97 466.83C1198.28 467.066 1198.5 467.379 1198.63 467.767ZM1200.83 468.719V472H1199.99V464.727H1200.83V467.398H1200.9C1201.03 467.116 1201.22 466.892 1201.48 466.727C1201.73 466.558 1202.08 466.474 1202.51 466.474C1202.88 466.474 1203.2 466.549 1203.48 466.698C1203.76 466.845 1203.98 467.071 1204.13 467.376C1204.29 467.679 1204.37 468.065 1204.37 468.534V472H1203.53V468.591C1203.53 468.158 1203.42 467.823 1203.19 467.586C1202.97 467.347 1202.66 467.227 1202.26 467.227C1201.99 467.227 1201.74 467.285 1201.53 467.401C1201.31 467.517 1201.14 467.687 1201.01 467.909C1200.89 468.132 1200.83 468.402 1200.83 468.719ZM1208.19 472.114C1207.66 472.114 1207.21 471.998 1206.83 471.766C1206.45 471.531 1206.16 471.205 1205.95 470.786C1205.75 470.364 1205.64 469.874 1205.64 469.315C1205.64 468.757 1205.75 468.264 1205.95 467.838C1206.16 467.41 1206.44 467.076 1206.81 466.837C1207.18 466.595 1207.61 466.474 1208.1 466.474C1208.39 466.474 1208.67 466.522 1208.94 466.616C1209.22 466.711 1209.47 466.865 1209.7 467.078C1209.93 467.289 1210.11 467.568 1210.24 467.916C1210.38 468.264 1210.45 468.693 1210.45 469.202V469.557H1206.24V468.832H1209.59C1209.59 468.525 1209.53 468.25 1209.41 468.009C1209.29 467.767 1209.11 467.576 1208.89 467.437C1208.67 467.297 1208.4 467.227 1208.1 467.227C1207.77 467.227 1207.48 467.31 1207.24 467.476C1206.99 467.639 1206.81 467.852 1206.68 468.115C1206.55 468.378 1206.48 468.66 1206.48 468.96V469.443C1206.48 469.855 1206.55 470.204 1206.7 470.491C1206.84 470.775 1207.04 470.991 1207.3 471.141C1207.55 471.287 1207.85 471.361 1208.19 471.361C1208.41 471.361 1208.61 471.33 1208.78 471.268C1208.96 471.205 1209.12 471.11 1209.25 470.984C1209.38 470.857 1209.48 470.698 1209.55 470.509L1210.36 470.736C1210.27 471.01 1210.13 471.252 1209.93 471.46C1209.73 471.666 1209.48 471.827 1209.18 471.943C1208.89 472.057 1208.56 472.114 1208.19 472.114ZM1214.53 472V466.545H1215.34V467.398H1215.41C1215.53 467.107 1215.71 466.88 1215.96 466.719C1216.22 466.556 1216.52 466.474 1216.88 466.474C1217.24 466.474 1217.54 466.556 1217.77 466.719C1218.02 466.88 1218.2 467.107 1218.34 467.398H1218.4C1218.54 467.116 1218.75 466.892 1219.02 466.727C1219.3 466.558 1219.64 466.474 1220.03 466.474C1220.52 466.474 1220.92 466.627 1221.23 466.933C1221.54 467.236 1221.69 467.708 1221.69 468.349V472H1220.85V468.349C1220.85 467.947 1220.74 467.659 1220.52 467.487C1220.3 467.314 1220.04 467.227 1219.75 467.227C1219.36 467.227 1219.07 467.343 1218.85 467.575C1218.64 467.805 1218.54 468.096 1218.54 468.449V472H1217.69V468.264C1217.69 467.954 1217.59 467.704 1217.38 467.515C1217.18 467.323 1216.92 467.227 1216.61 467.227C1216.39 467.227 1216.19 467.285 1216 467.401C1215.81 467.517 1215.66 467.678 1215.54 467.884C1215.43 468.088 1215.37 468.323 1215.37 468.591V472H1214.53ZM1224.83 472.128C1224.48 472.128 1224.17 472.063 1223.89 471.933C1223.61 471.8 1223.38 471.609 1223.22 471.361C1223.05 471.11 1222.97 470.807 1222.97 470.452C1222.97 470.139 1223.03 469.886 1223.15 469.692C1223.28 469.495 1223.44 469.341 1223.65 469.23C1223.85 469.119 1224.08 469.036 1224.33 468.982C1224.58 468.925 1224.83 468.88 1225.08 468.847C1225.42 468.804 1225.69 468.772 1225.89 468.751C1226.1 468.727 1226.25 468.688 1226.35 468.634C1226.44 468.579 1226.49 468.484 1226.49 468.349V468.321C1226.49 467.971 1226.4 467.698 1226.2 467.504C1226.01 467.31 1225.73 467.213 1225.34 467.213C1224.94 467.213 1224.63 467.301 1224.4 467.476C1224.17 467.651 1224.01 467.838 1223.92 468.037L1223.12 467.753C1223.27 467.421 1223.46 467.163 1223.69 466.979C1223.93 466.792 1224.19 466.661 1224.47 466.588C1224.76 466.512 1225.04 466.474 1225.31 466.474C1225.49 466.474 1225.69 466.496 1225.92 466.538C1226.15 466.579 1226.37 466.663 1226.58 466.79C1226.8 466.918 1226.97 467.111 1227.12 467.369C1227.26 467.627 1227.33 467.973 1227.33 468.406V472H1226.49V471.261H1226.45C1226.39 471.38 1226.3 471.506 1226.16 471.641C1226.03 471.776 1225.86 471.891 1225.64 471.986C1225.42 472.08 1225.15 472.128 1224.83 472.128ZM1224.96 471.375C1225.29 471.375 1225.57 471.31 1225.8 471.18C1226.02 471.049 1226.2 470.881 1226.31 470.675C1226.43 470.469 1226.49 470.253 1226.49 470.026V469.259C1226.46 469.301 1226.38 469.34 1226.26 469.376C1226.14 469.409 1226 469.438 1225.84 469.464C1225.69 469.488 1225.54 469.509 1225.39 469.528C1225.25 469.545 1225.13 469.559 1225.04 469.571C1224.82 469.599 1224.62 469.646 1224.43 469.71C1224.24 469.771 1224.09 469.865 1223.98 469.99C1223.86 470.113 1223.81 470.281 1223.81 470.494C1223.81 470.786 1223.91 471.006 1224.13 471.155C1224.35 471.302 1224.62 471.375 1224.96 471.375ZM1229.64 470.011L1229.63 468.974H1229.8L1232.18 466.545H1233.22L1230.68 469.116H1230.61L1229.64 470.011ZM1228.86 472V464.727H1229.7V472H1228.86ZM1232.32 472L1230.19 469.301L1230.79 468.719L1233.39 472H1232.32ZM1236.36 472.114C1235.84 472.114 1235.38 471.998 1235 471.766C1234.62 471.531 1234.33 471.205 1234.12 470.786C1233.92 470.364 1233.82 469.874 1233.82 469.315C1233.82 468.757 1233.92 468.264 1234.12 467.838C1234.33 467.41 1234.62 467.076 1234.98 466.837C1235.35 466.595 1235.78 466.474 1236.28 466.474C1236.56 466.474 1236.84 466.522 1237.12 466.616C1237.39 466.711 1237.65 466.865 1237.87 467.078C1238.1 467.289 1238.28 467.568 1238.42 467.916C1238.55 468.264 1238.62 468.693 1238.62 469.202V469.557H1234.41V468.832H1237.77C1237.77 468.525 1237.71 468.25 1237.58 468.009C1237.46 467.767 1237.29 467.576 1237.06 467.437C1236.84 467.297 1236.58 467.227 1236.28 467.227C1235.94 467.227 1235.65 467.31 1235.41 467.476C1235.17 467.639 1234.98 467.852 1234.85 468.115C1234.72 468.378 1234.66 468.66 1234.66 468.96V469.443C1234.66 469.855 1234.73 470.204 1234.87 470.491C1235.01 470.775 1235.21 470.991 1235.47 471.141C1235.72 471.287 1236.02 471.361 1236.36 471.361C1236.58 471.361 1236.78 471.33 1236.96 471.268C1237.14 471.205 1237.29 471.11 1237.42 470.984C1237.55 470.857 1237.65 470.698 1237.72 470.509L1238.53 470.736C1238.45 471.01 1238.31 471.252 1238.1 471.46C1237.9 471.666 1237.65 471.827 1237.36 471.943C1237.06 472.057 1236.73 472.114 1236.36 472.114ZM1243.76 467.767L1243 467.98C1242.96 467.855 1242.89 467.733 1242.8 467.614C1242.71 467.494 1242.58 467.394 1242.43 467.316C1242.27 467.238 1242.07 467.199 1241.83 467.199C1241.49 467.199 1241.21 467.276 1240.99 467.43C1240.77 467.581 1240.66 467.774 1240.66 468.009C1240.66 468.217 1240.74 468.381 1240.89 468.502C1241.04 468.623 1241.28 468.723 1241.6 468.804L1242.41 469.003C1242.9 469.121 1243.26 469.302 1243.5 469.546C1243.74 469.788 1243.86 470.099 1243.86 470.48C1243.86 470.793 1243.77 471.072 1243.59 471.318C1243.41 471.564 1243.16 471.759 1242.84 471.901C1242.52 472.043 1242.15 472.114 1241.73 472.114C1241.17 472.114 1240.71 471.993 1240.34 471.751C1239.98 471.51 1239.75 471.157 1239.65 470.693L1240.45 470.494C1240.52 470.788 1240.67 471.008 1240.88 471.155C1241.09 471.302 1241.37 471.375 1241.71 471.375C1242.1 471.375 1242.41 471.292 1242.64 471.126C1242.87 470.958 1242.99 470.757 1242.99 470.523C1242.99 470.333 1242.92 470.175 1242.79 470.047C1242.66 469.917 1242.46 469.82 1242.18 469.756L1241.27 469.543C1240.77 469.424 1240.41 469.241 1240.17 468.992C1239.94 468.741 1239.82 468.428 1239.82 468.051C1239.82 467.743 1239.91 467.471 1240.08 467.234C1240.26 466.998 1240.5 466.812 1240.8 466.677C1241.1 466.542 1241.44 466.474 1241.83 466.474C1242.37 466.474 1242.79 466.593 1243.1 466.83C1243.41 467.066 1243.63 467.379 1243.76 467.767ZM1247.93 472V466.545H1248.74V467.398H1248.81C1248.93 467.107 1249.11 466.88 1249.36 466.719C1249.62 466.556 1249.92 466.474 1250.27 466.474C1250.63 466.474 1250.93 466.556 1251.17 466.719C1251.41 466.88 1251.6 467.107 1251.74 467.398H1251.79C1251.93 467.116 1252.14 466.892 1252.42 466.727C1252.7 466.558 1253.04 466.474 1253.43 466.474C1253.92 466.474 1254.31 466.627 1254.62 466.933C1254.94 467.236 1255.09 467.708 1255.09 468.349V472H1254.25V468.349C1254.25 467.947 1254.14 467.659 1253.92 467.487C1253.7 467.314 1253.44 467.227 1253.14 467.227C1252.76 467.227 1252.46 467.343 1252.25 467.575C1252.04 467.805 1251.94 468.096 1251.94 468.449V472H1251.08V468.264C1251.08 467.954 1250.98 467.704 1250.78 467.515C1250.58 467.323 1250.32 467.227 1250 467.227C1249.79 467.227 1249.58 467.285 1249.39 467.401C1249.21 467.517 1249.06 467.678 1248.94 467.884C1248.83 468.088 1248.77 468.323 1248.77 468.591V472H1247.93ZM1258.91 472.114C1258.38 472.114 1257.93 471.998 1257.55 471.766C1257.17 471.531 1256.88 471.205 1256.67 470.786C1256.47 470.364 1256.37 469.874 1256.37 469.315C1256.37 468.757 1256.47 468.264 1256.67 467.838C1256.88 467.41 1257.16 467.076 1257.53 466.837C1257.9 466.595 1258.33 466.474 1258.82 466.474C1259.11 466.474 1259.39 466.522 1259.67 466.616C1259.94 466.711 1260.19 466.865 1260.42 467.078C1260.65 467.289 1260.83 467.568 1260.97 467.916C1261.1 468.264 1261.17 468.693 1261.17 469.202V469.557H1256.96V468.832H1260.32C1260.32 468.525 1260.25 468.25 1260.13 468.009C1260.01 467.767 1259.84 467.576 1259.61 467.437C1259.39 467.297 1259.13 467.227 1258.82 467.227C1258.49 467.227 1258.2 467.31 1257.96 467.476C1257.72 467.639 1257.53 467.852 1257.4 468.115C1257.27 468.378 1257.2 468.66 1257.2 468.96V469.443C1257.2 469.855 1257.28 470.204 1257.42 470.491C1257.56 470.775 1257.76 470.991 1258.02 471.141C1258.27 471.287 1258.57 471.361 1258.91 471.361C1259.13 471.361 1259.33 471.33 1259.51 471.268C1259.69 471.205 1259.84 471.11 1259.97 470.984C1260.1 470.857 1260.2 470.698 1260.27 470.509L1261.08 470.736C1261 471.01 1260.85 471.252 1260.65 471.46C1260.45 471.666 1260.2 471.827 1259.91 471.943C1259.61 472.057 1259.28 472.114 1258.91 472.114ZM1267.47 472.114C1266.96 472.114 1266.52 471.993 1266.15 471.751C1265.78 471.51 1265.5 471.177 1265.3 470.754C1265.1 470.33 1265 469.846 1265 469.301C1265 468.747 1265.1 468.258 1265.31 467.835C1265.51 467.408 1265.8 467.076 1266.16 466.837C1266.53 466.595 1266.96 466.474 1267.46 466.474C1267.84 466.474 1268.19 466.545 1268.49 466.688C1268.8 466.83 1269.05 467.028 1269.25 467.284C1269.45 467.54 1269.57 467.838 1269.62 468.179H1268.78C1268.71 467.93 1268.57 467.71 1268.35 467.518C1268.13 467.324 1267.84 467.227 1267.47 467.227C1267.14 467.227 1266.86 467.312 1266.61 467.483C1266.37 467.651 1266.18 467.889 1266.04 468.197C1265.91 468.502 1265.84 468.861 1265.84 469.273C1265.84 469.694 1265.9 470.061 1266.04 470.374C1266.17 470.686 1266.36 470.929 1266.6 471.102C1266.85 471.274 1267.14 471.361 1267.47 471.361C1267.69 471.361 1267.89 471.323 1268.06 471.247C1268.24 471.171 1268.39 471.062 1268.52 470.92C1268.64 470.778 1268.73 470.608 1268.78 470.409H1269.62C1269.57 470.731 1269.45 471.021 1269.26 471.279C1269.08 471.535 1268.83 471.738 1268.53 471.89C1268.23 472.039 1267.87 472.114 1267.47 472.114ZM1270.84 472V466.545H1271.65V467.369H1271.71C1271.81 467.099 1271.99 466.88 1272.25 466.712C1272.51 466.544 1272.8 466.46 1273.13 466.46C1273.19 466.46 1273.27 466.461 1273.36 466.464C1273.45 466.466 1273.52 466.47 1273.57 466.474V467.327C1273.54 467.32 1273.48 467.309 1273.37 467.295C1273.27 467.278 1273.17 467.27 1273.06 467.27C1272.79 467.27 1272.56 467.326 1272.35 467.437C1272.14 467.546 1271.98 467.697 1271.86 467.891C1271.74 468.083 1271.68 468.302 1271.68 468.548V472H1270.84ZM1276.17 472.128C1275.82 472.128 1275.51 472.063 1275.23 471.933C1274.94 471.8 1274.72 471.609 1274.55 471.361C1274.39 471.11 1274.31 470.807 1274.31 470.452C1274.31 470.139 1274.37 469.886 1274.49 469.692C1274.61 469.495 1274.78 469.341 1274.98 469.23C1275.19 469.119 1275.42 469.036 1275.67 468.982C1275.92 468.925 1276.17 468.88 1276.42 468.847C1276.75 468.804 1277.02 468.772 1277.23 468.751C1277.44 468.727 1277.59 468.688 1277.68 468.634C1277.78 468.579 1277.83 468.484 1277.83 468.349V468.321C1277.83 467.971 1277.73 467.698 1277.54 467.504C1277.35 467.31 1277.06 467.213 1276.68 467.213C1276.28 467.213 1275.96 467.301 1275.74 467.476C1275.51 467.651 1275.35 467.838 1275.26 468.037L1274.46 467.753C1274.6 467.421 1274.79 467.163 1275.03 466.979C1275.27 466.792 1275.53 466.661 1275.81 466.588C1276.1 466.512 1276.38 466.474 1276.65 466.474C1276.83 466.474 1277.03 466.496 1277.25 466.538C1277.48 466.579 1277.7 466.663 1277.92 466.79C1278.13 466.918 1278.31 467.111 1278.45 467.369C1278.6 467.627 1278.67 467.973 1278.67 468.406V472H1277.83V471.261H1277.79C1277.73 471.38 1277.63 471.506 1277.5 471.641C1277.37 471.776 1277.19 471.891 1276.97 471.986C1276.75 472.08 1276.48 472.128 1276.17 472.128ZM1276.29 471.375C1276.63 471.375 1276.91 471.31 1277.13 471.18C1277.36 471.049 1277.54 470.881 1277.65 470.675C1277.77 470.469 1277.83 470.253 1277.83 470.026V469.259C1277.79 469.301 1277.72 469.34 1277.59 469.376C1277.48 469.409 1277.34 469.438 1277.18 469.464C1277.03 469.488 1276.88 469.509 1276.73 469.528C1276.59 469.545 1276.47 469.559 1276.38 469.571C1276.16 469.599 1275.96 469.646 1275.77 469.71C1275.58 469.771 1275.43 469.865 1275.31 469.99C1275.2 470.113 1275.14 470.281 1275.14 470.494C1275.14 470.786 1275.25 471.006 1275.47 471.155C1275.69 471.302 1275.96 471.375 1276.29 471.375ZM1280.04 472V471.361L1283.14 467.384V467.327H1280.14V466.545H1284.22V467.213L1281.21 471.162V471.219H1284.32V472H1280.04ZM1286.15 474.045C1286 474.045 1285.88 474.034 1285.77 474.01C1285.66 473.989 1285.58 473.967 1285.54 473.946L1285.75 473.207C1285.95 473.259 1286.13 473.278 1286.29 473.264C1286.44 473.25 1286.58 473.18 1286.7 473.055C1286.83 472.932 1286.94 472.732 1287.04 472.455L1287.2 472.028L1285.18 466.545H1286.09L1287.6 470.892H1287.65L1289.16 466.545H1290.07L1287.75 472.795C1287.65 473.077 1287.52 473.31 1287.36 473.495C1287.21 473.682 1287.03 473.821 1286.83 473.911C1286.63 474 1286.4 474.045 1286.15 474.045Z" fill="black"/>
<path d="M820.548 2543.01L820.534 2541.97H820.705L823.091 2539.55H824.128L821.585 2542.12H821.514L820.548 2543.01ZM819.767 2545V2537.73H820.605V2545H819.767ZM823.233 2545L821.102 2542.3L821.699 2541.72L824.298 2545H823.233ZM827.269 2545.11C826.743 2545.11 826.29 2545 825.909 2544.77C825.53 2544.53 825.238 2544.2 825.032 2543.79C824.828 2543.36 824.726 2542.87 824.726 2542.32C824.726 2541.76 824.828 2541.26 825.032 2540.84C825.238 2540.41 825.524 2540.08 825.891 2539.84C826.26 2539.6 826.691 2539.47 827.184 2539.47C827.468 2539.47 827.748 2539.52 828.025 2539.62C828.302 2539.71 828.554 2539.87 828.782 2540.08C829.009 2540.29 829.19 2540.57 829.325 2540.92C829.46 2541.26 829.527 2541.69 829.527 2542.2V2542.56H825.323V2541.83H828.675C828.675 2541.52 828.614 2541.25 828.49 2541.01C828.37 2540.77 828.197 2540.58 827.972 2540.44C827.749 2540.3 827.487 2540.23 827.184 2540.23C826.85 2540.23 826.561 2540.31 826.317 2540.48C826.076 2540.64 825.89 2540.85 825.76 2541.12C825.629 2541.38 825.564 2541.66 825.564 2541.96V2542.44C825.564 2542.86 825.635 2543.2 825.777 2543.49C825.922 2543.77 826.122 2543.99 826.377 2544.14C826.633 2544.29 826.93 2544.36 827.269 2544.36C827.489 2544.36 827.688 2544.33 827.865 2544.27C828.045 2544.2 828.2 2544.11 828.331 2543.98C828.461 2543.86 828.561 2543.7 828.632 2543.51L829.442 2543.74C829.357 2544.01 829.214 2544.25 829.012 2544.46C828.811 2544.67 828.563 2544.83 828.267 2544.94C827.971 2545.06 827.638 2545.11 827.269 2545.11ZM833.089 2545.11C832.564 2545.11 832.11 2545 831.729 2544.77C831.35 2544.53 831.058 2544.2 830.852 2543.79C830.648 2543.36 830.547 2542.87 830.547 2542.32C830.547 2541.76 830.648 2541.26 830.852 2540.84C831.058 2540.41 831.344 2540.08 831.711 2539.84C832.081 2539.6 832.511 2539.47 833.004 2539.47C833.288 2539.47 833.569 2539.52 833.846 2539.62C834.123 2539.71 834.375 2539.87 834.602 2540.08C834.829 2540.29 835.01 2540.57 835.145 2540.92C835.28 2541.26 835.348 2541.69 835.348 2542.2V2542.56H831.143V2541.83H834.495C834.495 2541.52 834.434 2541.25 834.311 2541.01C834.19 2540.77 834.017 2540.58 833.792 2540.44C833.57 2540.3 833.307 2540.23 833.004 2540.23C832.67 2540.23 832.381 2540.31 832.137 2540.48C831.896 2540.64 831.71 2540.85 831.58 2541.12C831.45 2541.38 831.385 2541.66 831.385 2541.96V2542.44C831.385 2542.86 831.456 2543.2 831.598 2543.49C831.742 2543.77 831.942 2543.99 832.198 2544.14C832.453 2544.29 832.751 2544.36 833.089 2544.36C833.309 2544.36 833.508 2544.33 833.686 2544.27C833.866 2544.2 834.021 2544.11 834.151 2543.98C834.281 2543.86 834.382 2543.7 834.453 2543.51L835.262 2543.74C835.177 2544.01 835.034 2544.25 834.833 2544.46C834.632 2544.67 834.383 2544.83 834.087 2544.94C833.791 2545.06 833.458 2545.11 833.089 2545.11ZM836.623 2547.05V2539.55H837.432V2540.41H837.532C837.593 2540.32 837.678 2540.2 837.787 2540.05C837.899 2539.9 838.057 2539.77 838.263 2539.65C838.471 2539.53 838.753 2539.47 839.108 2539.47C839.568 2539.47 839.972 2539.59 840.323 2539.82C840.673 2540.05 840.947 2540.37 841.143 2540.8C841.34 2541.22 841.438 2541.71 841.438 2542.29C841.438 2542.86 841.34 2543.37 841.143 2543.79C840.947 2544.21 840.674 2544.54 840.326 2544.77C839.978 2545 839.577 2545.11 839.123 2545.11C838.772 2545.11 838.492 2545.06 838.281 2544.94C838.07 2544.82 837.908 2544.69 837.794 2544.54C837.681 2544.39 837.593 2544.26 837.532 2544.16H837.461V2547.05H836.623ZM837.446 2542.27C837.446 2542.68 837.507 2543.05 837.627 2543.36C837.748 2543.68 837.925 2543.92 838.157 2544.1C838.389 2544.27 838.673 2544.36 839.009 2544.36C839.359 2544.36 839.652 2544.27 839.886 2544.08C840.123 2543.9 840.3 2543.65 840.419 2543.33C840.539 2543.01 840.6 2542.66 840.6 2542.27C840.6 2541.89 840.541 2541.54 840.422 2541.24C840.306 2540.93 840.13 2540.68 839.893 2540.5C839.659 2540.32 839.364 2540.23 839.009 2540.23C838.668 2540.23 838.382 2540.31 838.15 2540.49C837.917 2540.66 837.742 2540.9 837.624 2541.2C837.506 2541.51 837.446 2541.87 837.446 2542.27ZM847.73 2547.16C847.326 2547.16 846.978 2547.11 846.686 2547C846.395 2546.9 846.153 2546.77 845.958 2546.6C845.767 2546.43 845.614 2546.25 845.5 2546.07L846.168 2545.6C846.244 2545.7 846.34 2545.81 846.456 2545.94C846.572 2546.07 846.73 2546.18 846.931 2546.27C847.135 2546.37 847.401 2546.42 847.73 2546.42C848.171 2546.42 848.534 2546.31 848.821 2546.1C849.107 2545.89 849.25 2545.55 849.25 2545.1V2543.99H849.179C849.118 2544.09 849.03 2544.21 848.917 2544.36C848.805 2544.51 848.644 2544.63 848.434 2544.75C848.225 2544.86 847.944 2544.91 847.588 2544.91C847.148 2544.91 846.753 2544.81 846.402 2544.6C846.054 2544.39 845.779 2544.09 845.575 2543.69C845.374 2543.3 845.273 2542.81 845.273 2542.24C845.273 2541.69 845.371 2541.2 845.568 2540.78C845.764 2540.37 846.038 2540.05 846.388 2539.82C846.739 2539.59 847.143 2539.47 847.603 2539.47C847.958 2539.47 848.239 2539.53 848.448 2539.65C848.658 2539.77 848.819 2539.9 848.931 2540.05C849.044 2540.2 849.132 2540.32 849.194 2540.41H849.279V2539.55H850.088V2545.16C850.088 2545.62 849.982 2546.01 849.769 2546.3C849.558 2546.6 849.274 2546.81 848.917 2546.95C848.561 2547.09 848.166 2547.16 847.73 2547.16ZM847.702 2544.16C848.038 2544.16 848.322 2544.08 848.554 2543.93C848.786 2543.78 848.963 2543.56 849.083 2543.27C849.204 2542.98 849.265 2542.63 849.265 2542.23C849.265 2541.84 849.205 2541.49 849.087 2541.19C848.969 2540.89 848.793 2540.65 848.561 2540.48C848.329 2540.31 848.043 2540.23 847.702 2540.23C847.347 2540.23 847.051 2540.32 846.814 2540.5C846.58 2540.68 846.404 2540.92 846.285 2541.22C846.169 2541.52 846.111 2541.86 846.111 2542.23C846.111 2542.61 846.17 2542.94 846.289 2543.24C846.409 2543.52 846.587 2543.75 846.821 2543.92C847.058 2544.08 847.352 2544.16 847.702 2544.16ZM853.838 2545.11C853.346 2545.11 852.914 2545 852.542 2544.76C852.173 2544.53 851.884 2544.2 851.676 2543.78C851.47 2543.36 851.367 2542.86 851.367 2542.3C851.367 2541.73 851.47 2541.24 851.676 2540.81C851.884 2540.39 852.173 2540.06 852.542 2539.83C852.914 2539.59 853.346 2539.47 853.838 2539.47C854.331 2539.47 854.762 2539.59 855.131 2539.83C855.503 2540.06 855.792 2540.39 855.998 2540.81C856.206 2541.24 856.31 2541.73 856.31 2542.3C856.31 2542.86 856.206 2543.36 855.998 2543.78C855.792 2544.2 855.503 2544.53 855.131 2544.76C854.762 2545 854.331 2545.11 853.838 2545.11ZM853.838 2544.36C854.212 2544.36 854.52 2544.26 854.762 2544.07C855.003 2543.88 855.182 2543.63 855.298 2543.32C855.414 2543 855.472 2542.67 855.472 2542.3C855.472 2541.94 855.414 2541.6 855.298 2541.28C855.182 2540.97 855.003 2540.71 854.762 2540.52C854.52 2540.32 854.212 2540.23 853.838 2540.23C853.464 2540.23 853.157 2540.32 852.915 2540.52C852.674 2540.71 852.495 2540.97 852.379 2541.28C852.263 2541.6 852.205 2541.94 852.205 2542.3C852.205 2542.67 852.263 2543 852.379 2543.32C852.495 2543.63 852.674 2543.88 852.915 2544.07C853.157 2544.26 853.464 2544.36 853.838 2544.36ZM857.589 2545V2539.55H858.427V2545H857.589ZM858.015 2538.64C857.852 2538.64 857.711 2538.58 857.593 2538.47C857.477 2538.36 857.419 2538.22 857.419 2538.07C857.419 2537.91 857.477 2537.78 857.593 2537.67C857.711 2537.56 857.852 2537.5 858.015 2537.5C858.179 2537.5 858.318 2537.56 858.434 2537.67C858.553 2537.78 858.612 2537.91 858.612 2538.07C858.612 2538.22 858.553 2538.36 858.434 2538.47C858.318 2538.58 858.179 2538.64 858.015 2538.64ZM860.8 2541.72V2545H859.962V2539.55H860.772V2540.4H860.843C860.971 2540.12 861.165 2539.9 861.425 2539.73C861.686 2539.56 862.022 2539.47 862.434 2539.47C862.803 2539.47 863.126 2539.55 863.403 2539.7C863.68 2539.85 863.896 2540.08 864.05 2540.38C864.204 2540.69 864.281 2541.07 864.281 2541.53V2545H863.442V2541.59C863.442 2541.16 863.331 2540.83 863.109 2540.59C862.886 2540.35 862.581 2540.23 862.192 2540.23C861.925 2540.23 861.686 2540.29 861.475 2540.4C861.267 2540.52 861.102 2540.69 860.982 2540.91C860.861 2541.13 860.8 2541.4 860.8 2541.72ZM868.014 2547.16C867.609 2547.16 867.261 2547.11 866.97 2547C866.678 2546.9 866.436 2546.77 866.242 2546.6C866.05 2546.43 865.897 2546.25 865.784 2546.07L866.451 2545.6C866.527 2545.7 866.623 2545.81 866.739 2545.94C866.855 2546.07 867.013 2546.18 867.215 2546.27C867.418 2546.37 867.685 2546.42 868.014 2546.42C868.454 2546.42 868.817 2546.31 869.104 2546.1C869.39 2545.89 869.534 2545.55 869.534 2545.1V2543.99H869.463C869.401 2544.09 869.313 2544.21 869.2 2544.36C869.088 2544.51 868.927 2544.63 868.717 2544.75C868.508 2544.86 868.227 2544.91 867.872 2544.91C867.431 2544.91 867.036 2544.81 866.686 2544.6C866.338 2544.39 866.062 2544.09 865.858 2543.69C865.657 2543.3 865.556 2542.81 865.556 2542.24C865.556 2541.69 865.655 2541.2 865.851 2540.78C866.048 2540.37 866.321 2540.05 866.671 2539.82C867.022 2539.59 867.427 2539.47 867.886 2539.47C868.241 2539.47 868.523 2539.53 868.731 2539.65C868.942 2539.77 869.103 2539.9 869.214 2540.05C869.328 2540.2 869.415 2540.32 869.477 2540.41H869.562V2539.55H870.372V2545.16C870.372 2545.62 870.265 2546.01 870.052 2546.3C869.841 2546.6 869.557 2546.81 869.2 2546.95C868.845 2547.09 868.449 2547.16 868.014 2547.16ZM867.985 2544.16C868.321 2544.16 868.606 2544.08 868.838 2543.93C869.07 2543.78 869.246 2543.56 869.367 2543.27C869.487 2542.98 869.548 2542.63 869.548 2542.23C869.548 2541.84 869.489 2541.49 869.37 2541.19C869.252 2540.89 869.077 2540.65 868.845 2540.48C868.613 2540.31 868.326 2540.23 867.985 2540.23C867.63 2540.23 867.334 2540.32 867.097 2540.5C866.863 2540.68 866.687 2540.92 866.568 2541.22C866.452 2541.52 866.394 2541.86 866.394 2542.23C866.394 2542.61 866.454 2542.94 866.572 2543.24C866.693 2543.52 866.87 2543.75 867.105 2543.92C867.341 2544.08 867.635 2544.16 867.985 2544.16Z" fill="black"/>
<path d="M1250 1422.23H1244.55V1421.39H1250V1422.23ZM1243.64 1421.81C1243.64 1421.97 1243.58 1422.11 1243.47 1422.23C1243.36 1422.35 1243.22 1422.4 1243.07 1422.4C1242.91 1422.4 1242.78 1422.35 1242.67 1422.23C1242.56 1422.11 1242.5 1421.97 1242.5 1421.81C1242.5 1421.64 1242.56 1421.5 1242.67 1421.39C1242.78 1421.27 1242.91 1421.21 1243.07 1421.21C1243.22 1421.21 1243.36 1421.27 1243.47 1421.39C1243.58 1421.5 1243.64 1421.64 1243.64 1421.81ZM1244.55 1414.68H1245.26V1417.5H1244.55V1414.68ZM1243.24 1416.68V1415.84H1248.44C1248.67 1415.84 1248.85 1415.81 1248.97 1415.74C1249.09 1415.67 1249.16 1415.58 1249.2 1415.47C1249.24 1415.36 1249.26 1415.24 1249.26 1415.12C1249.26 1415.02 1249.26 1414.95 1249.25 1414.89C1249.24 1414.83 1249.23 1414.78 1249.22 1414.75L1249.97 1414.58C1249.99 1414.63 1250.01 1414.71 1250.04 1414.81C1250.06 1414.92 1250.07 1415.04 1250.07 1415.2C1250.07 1415.44 1250.02 1415.67 1249.92 1415.9C1249.82 1416.12 1249.66 1416.31 1249.45 1416.46C1249.24 1416.6 1248.98 1416.68 1248.66 1416.68H1243.24ZM1246.72 1412.46H1250V1413.3H1242.73V1412.46H1245.4V1412.39C1245.12 1412.26 1244.89 1412.07 1244.73 1411.81C1244.56 1411.55 1244.47 1411.21 1244.47 1410.78C1244.47 1410.41 1244.55 1410.09 1244.7 1409.81C1244.84 1409.53 1245.07 1409.31 1245.38 1409.16C1245.68 1409 1246.07 1408.92 1246.53 1408.92H1250V1409.76H1246.59C1246.16 1409.76 1245.82 1409.87 1245.59 1410.1C1245.35 1410.32 1245.23 1410.63 1245.23 1411.02C1245.23 1411.3 1245.29 1411.55 1245.4 1411.76C1245.52 1411.98 1245.69 1412.15 1245.91 1412.27C1246.13 1412.4 1246.4 1412.46 1246.72 1412.46ZM1250 1407.39H1244.55V1406.55H1250V1407.39ZM1243.64 1406.96C1243.64 1407.13 1243.58 1407.27 1243.47 1407.39C1243.36 1407.5 1243.22 1407.56 1243.07 1407.56C1242.91 1407.56 1242.78 1407.5 1242.67 1407.39C1242.56 1407.27 1242.5 1407.13 1242.5 1406.96C1242.5 1406.8 1242.56 1406.66 1242.67 1406.54C1242.78 1406.43 1242.91 1406.37 1243.07 1406.37C1243.22 1406.37 1243.36 1406.43 1243.47 1406.54C1243.58 1406.66 1243.64 1406.8 1243.64 1406.96ZM1246.72 1404.18H1250V1405.02H1244.55V1404.21H1245.4V1404.14C1245.12 1404.01 1244.9 1403.81 1244.73 1403.55C1244.56 1403.29 1244.47 1402.96 1244.47 1402.54C1244.47 1402.18 1244.55 1401.85 1244.7 1401.58C1244.85 1401.3 1245.08 1401.08 1245.38 1400.93C1245.69 1400.77 1246.07 1400.7 1246.53 1400.7H1250V1401.54H1246.59C1246.16 1401.54 1245.83 1401.65 1245.59 1401.87C1245.35 1402.09 1245.23 1402.4 1245.23 1402.79C1245.23 1403.05 1245.29 1403.29 1245.4 1403.5C1245.52 1403.71 1245.69 1403.88 1245.91 1404C1246.13 1404.12 1246.4 1404.18 1246.72 1404.18ZM1248.01 1398.39L1246.97 1398.4V1398.23L1244.55 1395.84V1394.81L1247.12 1397.35V1397.42L1248.01 1398.39ZM1250 1399.17H1242.73V1398.33H1250V1399.17ZM1250 1395.7L1247.3 1397.83L1246.72 1397.23L1250 1394.64V1395.7ZM1246.72 1390.08H1250V1390.91H1242.73V1390.08H1245.4V1390.01C1245.12 1389.88 1244.89 1389.69 1244.73 1389.43C1244.56 1389.17 1244.47 1388.83 1244.47 1388.4C1244.47 1388.03 1244.55 1387.7 1244.7 1387.42C1244.84 1387.14 1245.07 1386.93 1245.38 1386.77C1245.68 1386.62 1246.07 1386.54 1246.53 1386.54H1250V1387.38H1246.59C1246.16 1387.38 1245.82 1387.49 1245.59 1387.72C1245.35 1387.94 1245.23 1388.25 1245.23 1388.64C1245.23 1388.92 1245.29 1389.16 1245.4 1389.38C1245.52 1389.6 1245.69 1389.77 1245.91 1389.89C1246.13 1390.01 1246.4 1390.08 1246.72 1390.08ZM1250.11 1382.72C1250.11 1383.25 1250 1383.7 1249.77 1384.08C1249.53 1384.46 1249.2 1384.75 1248.79 1384.96C1248.36 1385.16 1247.87 1385.26 1247.32 1385.26C1246.76 1385.26 1246.26 1385.16 1245.84 1384.96C1245.41 1384.75 1245.08 1384.46 1244.84 1384.1C1244.6 1383.73 1244.47 1383.3 1244.47 1382.8C1244.47 1382.52 1244.52 1382.24 1244.62 1381.96C1244.71 1381.69 1244.87 1381.43 1245.08 1381.21C1245.29 1380.98 1245.57 1380.8 1245.92 1380.66C1246.26 1380.53 1246.69 1380.46 1247.2 1380.46H1247.56V1384.67H1246.83V1381.31C1246.52 1381.31 1246.25 1381.37 1246.01 1381.5C1245.77 1381.62 1245.58 1381.79 1245.44 1382.02C1245.3 1382.24 1245.23 1382.5 1245.23 1382.8C1245.23 1383.14 1245.31 1383.43 1245.48 1383.67C1245.64 1383.91 1245.85 1384.1 1246.12 1384.23C1246.38 1384.36 1246.66 1384.42 1246.96 1384.42H1247.44C1247.86 1384.42 1248.2 1384.35 1248.49 1384.21C1248.77 1384.07 1248.99 1383.87 1249.14 1383.61C1249.29 1383.36 1249.36 1383.06 1249.36 1382.72C1249.36 1382.5 1249.33 1382.3 1249.27 1382.12C1249.2 1381.94 1249.11 1381.79 1248.98 1381.66C1248.86 1381.53 1248.7 1381.43 1248.51 1381.36L1248.74 1380.55C1249.01 1380.63 1249.25 1380.77 1249.46 1380.98C1249.67 1381.18 1249.83 1381.43 1249.94 1381.72C1250.06 1382.02 1250.11 1382.35 1250.11 1382.72ZM1242.73 1375.54H1250V1376.37H1242.73V1375.54ZM1250 1374H1244.55V1373.16H1250V1374ZM1243.64 1373.57C1243.64 1373.74 1243.58 1373.88 1243.47 1374C1243.36 1374.11 1243.22 1374.17 1243.07 1374.17C1242.91 1374.17 1242.78 1374.11 1242.67 1374C1242.56 1373.88 1242.5 1373.74 1242.5 1373.57C1242.5 1373.41 1242.56 1373.27 1242.67 1373.16C1242.78 1373.04 1242.91 1372.98 1243.07 1372.98C1243.22 1372.98 1243.36 1373.04 1243.47 1373.16C1243.58 1373.27 1243.64 1373.41 1243.64 1373.57ZM1248.01 1370.85L1246.97 1370.86V1370.69L1244.55 1368.3V1367.27L1247.12 1369.81V1369.88L1248.01 1370.85ZM1250 1371.63H1242.73V1370.79H1250V1371.63ZM1250 1368.16L1247.3 1370.29L1246.72 1369.7L1250 1367.1V1368.16ZM1250.11 1364.13C1250.11 1364.65 1250 1365.1 1249.77 1365.49C1249.53 1365.86 1249.2 1366.16 1248.79 1366.36C1248.36 1366.57 1247.87 1366.67 1247.32 1366.67C1246.76 1366.67 1246.26 1366.57 1245.84 1366.36C1245.41 1366.16 1245.08 1365.87 1244.84 1365.5C1244.6 1365.13 1244.47 1364.7 1244.47 1364.21C1244.47 1363.93 1244.52 1363.65 1244.62 1363.37C1244.71 1363.09 1244.87 1362.84 1245.08 1362.61C1245.29 1362.39 1245.57 1362.2 1245.92 1362.07C1246.26 1361.93 1246.69 1361.87 1247.2 1361.87H1247.56V1366.07H1246.83V1362.72C1246.52 1362.72 1246.25 1362.78 1246.01 1362.9C1245.77 1363.02 1245.58 1363.2 1245.44 1363.42C1245.3 1363.65 1245.23 1363.91 1245.23 1364.21C1245.23 1364.54 1245.31 1364.83 1245.48 1365.08C1245.64 1365.32 1245.85 1365.5 1246.12 1365.63C1246.38 1365.77 1246.66 1365.83 1246.96 1365.83H1247.44C1247.86 1365.83 1248.2 1365.76 1248.49 1365.62C1248.77 1365.47 1248.99 1365.27 1249.14 1365.02C1249.29 1364.76 1249.36 1364.46 1249.36 1364.13C1249.36 1363.91 1249.33 1363.71 1249.27 1363.53C1249.2 1363.35 1249.11 1363.19 1248.98 1363.06C1248.86 1362.93 1248.7 1362.83 1248.51 1362.76L1248.74 1361.95C1249.01 1362.04 1249.25 1362.18 1249.46 1362.38C1249.67 1362.58 1249.83 1362.83 1249.94 1363.13C1250.06 1363.42 1250.11 1363.76 1250.11 1364.13ZM1245.77 1356.73L1245.98 1357.48C1245.85 1357.53 1245.73 1357.6 1245.61 1357.69C1245.49 1357.78 1245.39 1357.9 1245.32 1358.06C1245.24 1358.22 1245.2 1358.42 1245.2 1358.66C1245.2 1358.99 1245.28 1359.27 1245.43 1359.5C1245.58 1359.72 1245.77 1359.83 1246.01 1359.83C1246.22 1359.83 1246.38 1359.75 1246.5 1359.6C1246.62 1359.45 1246.72 1359.21 1246.8 1358.89L1247 1358.08C1247.12 1357.59 1247.3 1357.23 1247.55 1356.99C1247.79 1356.75 1248.1 1356.63 1248.48 1356.63C1248.79 1356.63 1249.07 1356.72 1249.32 1356.9C1249.56 1357.08 1249.76 1357.33 1249.9 1357.64C1250.04 1357.96 1250.11 1358.34 1250.11 1358.76C1250.11 1359.32 1249.99 1359.78 1249.75 1360.14C1249.51 1360.51 1249.16 1360.74 1248.69 1360.83L1248.49 1360.04C1248.79 1359.96 1249.01 1359.82 1249.15 1359.61C1249.3 1359.4 1249.38 1359.12 1249.38 1358.77C1249.38 1358.38 1249.29 1358.07 1249.13 1357.84C1248.96 1357.61 1248.76 1357.5 1248.52 1357.5C1248.33 1357.5 1248.17 1357.56 1248.05 1357.69C1247.92 1357.83 1247.82 1358.03 1247.76 1358.31L1247.54 1359.21C1247.42 1359.71 1247.24 1360.08 1246.99 1360.32C1246.74 1360.55 1246.43 1360.66 1246.05 1360.66C1245.74 1360.66 1245.47 1360.58 1245.23 1360.4C1245 1360.23 1244.81 1359.99 1244.68 1359.69C1244.54 1359.39 1244.47 1359.04 1244.47 1358.66C1244.47 1358.12 1244.59 1357.7 1244.83 1357.39C1245.07 1357.08 1245.38 1356.86 1245.77 1356.73ZM1250 1352.56H1244.55V1351.75H1245.4V1351.67C1245.11 1351.56 1244.88 1351.38 1244.72 1351.12C1244.56 1350.87 1244.47 1350.57 1244.47 1350.21C1244.47 1349.85 1244.56 1349.55 1244.72 1349.31C1244.88 1349.07 1245.11 1348.88 1245.4 1348.75V1348.69C1245.12 1348.55 1244.89 1348.34 1244.73 1348.06C1244.56 1347.78 1244.47 1347.45 1244.47 1347.06C1244.47 1346.57 1244.63 1346.17 1244.93 1345.86C1245.24 1345.55 1245.71 1345.4 1246.35 1345.4H1250V1346.23H1246.35C1245.95 1346.23 1245.66 1346.34 1245.49 1346.56C1245.31 1346.78 1245.23 1347.04 1245.23 1347.34C1245.23 1347.73 1245.34 1348.02 1245.58 1348.23C1245.8 1348.44 1246.1 1348.55 1246.45 1348.55H1250V1349.4H1246.26C1245.95 1349.4 1245.7 1349.5 1245.51 1349.7C1245.32 1349.9 1245.23 1350.16 1245.23 1350.48C1245.23 1350.7 1245.29 1350.9 1245.4 1351.09C1245.52 1351.28 1245.68 1351.43 1245.88 1351.55C1246.09 1351.66 1246.32 1351.72 1246.59 1351.72H1250V1352.56ZM1250.11 1341.58C1250.11 1342.1 1250 1342.56 1249.77 1342.94C1249.53 1343.32 1249.2 1343.61 1248.79 1343.81C1248.36 1344.02 1247.87 1344.12 1247.32 1344.12C1246.76 1344.12 1246.26 1344.02 1245.84 1343.81C1245.41 1343.61 1245.08 1343.32 1244.84 1342.95C1244.6 1342.59 1244.47 1342.15 1244.47 1341.66C1244.47 1341.38 1244.52 1341.1 1244.62 1340.82C1244.71 1340.54 1244.87 1340.29 1245.08 1340.06C1245.29 1339.84 1245.57 1339.66 1245.92 1339.52C1246.26 1339.39 1246.69 1339.32 1247.2 1339.32H1247.56V1343.52H1246.83V1340.17C1246.52 1340.17 1246.25 1340.23 1246.01 1340.36C1245.77 1340.48 1245.58 1340.65 1245.44 1340.87C1245.3 1341.1 1245.23 1341.36 1245.23 1341.66C1245.23 1342 1245.31 1342.28 1245.48 1342.53C1245.64 1342.77 1245.85 1342.96 1246.12 1343.09C1246.38 1343.22 1246.66 1343.28 1246.96 1343.28H1247.44C1247.86 1343.28 1248.2 1343.21 1248.49 1343.07C1248.77 1342.92 1248.99 1342.72 1249.14 1342.47C1249.29 1342.21 1249.36 1341.92 1249.36 1341.58C1249.36 1341.36 1249.33 1341.16 1249.27 1340.98C1249.2 1340.8 1249.11 1340.65 1248.98 1340.52C1248.86 1340.38 1248.7 1340.28 1248.51 1340.21L1248.74 1339.4C1249.01 1339.49 1249.25 1339.63 1249.46 1339.83C1249.67 1340.03 1249.83 1340.28 1249.94 1340.58C1250.06 1340.87 1250.11 1341.21 1250.11 1341.58Z" fill="black"/>
<path d="M1440.01 484.5L1144.5 484.5V701" stroke="#FBB20E" stroke-width="7"/>
</g>
<defs>
<clipPath id="clip0_824_1758">
<rect width="1440" height="2663" fill="white"/>
</clipPath>
</defs>
</svg>
