<svg width="1440" height="2946" viewBox="0 0 1440 2946" fill="none" xmlns="http://www.w3.org/2000/svg">
<g clip-path="url(#clip0_845_830)">
<rect width="1440" height="2946" fill="white"/>
<path d="M1261 1440H1320V1623.5H1440M240 1741L1320 1741V1440" stroke="#38AF33" stroke-width="7"/>
<path d="M1320 960V720L116.5 724L355.5 723.204V652" stroke="#38AF33" stroke-width="7"/>
<path d="M0 194.5H34V651H355" stroke="#F763A2" stroke-width="7"/>
<path d="M487.501 0.0216171L487.499 651L354.999 651" stroke="#0C28EF" stroke-width="7"/>
<circle cx="355.5" cy="650.5" r="7.5" transform="rotate(180 355.5 650.5)" fill="#825CC9"/>
<path d="M1083.5 1021V1080H119.5V1380H180" stroke="#F43C04" stroke-width="7"/>
<path d="M1090 1077V1080H1320V1380H180" stroke="#0C55EF" stroke-width="7"/>
<line x1="1322" y1="1136.5" x2="1440" y2="1136.5" stroke="#0C55EF" stroke-width="7"/>
<path d="M300 1383.5V1440H120M240 1741H120V1440H1260" stroke="#F763A2" stroke-width="7"/>
<line x1="196" y1="2162.5" x2="436" y2="2162.5" stroke="#FBB20E" stroke-width="7"/>
<line x1="436" y1="2162.5" x2="676" y2="2162.5" stroke="#0C55EF" stroke-width="7"/>
<line x1="676" y1="2162.5" x2="916" y2="2162.5" stroke="#38AF33" stroke-width="7"/>
<line x1="916" y1="2162.5" x2="1440" y2="2162.5" stroke="#F763A2" stroke-width="7"/>
<circle cx="435.5" cy="2162.5" r="7.5" transform="rotate(180 435.5 2162.5)" fill="#825CC9"/>
<circle cx="197.5" cy="2162.5" r="7.5" transform="rotate(180 197.5 2162.5)" fill="#FBB20E"/>
<circle cx="674.5" cy="2162.5" r="7.5" transform="rotate(180 674.5 2162.5)" fill="#228291"/>
<circle cx="435.5" cy="2162.5" r="7.5" transform="rotate(180 435.5 2162.5)" fill="#84847F"/>
<circle cx="915.5" cy="2162.5" r="7.5" transform="rotate(180 915.5 2162.5)" fill="#86C655"/>
<line x1="197.5" y1="2155" x2="197.5" y2="1975" stroke="#B2AAAA"/>
<line x1="435.5" y1="2155" x2="435.5" y2="1975" stroke="#B2AAAA"/>
<line x1="674.5" y1="2155" x2="674.5" y2="1975" stroke="#B2AAAA"/>
<line x1="915.5" y1="2155" x2="915.5" y2="1975" stroke="#B2AAAA"/>
<line x1="903.5" y1="2460" x2="903.5" y2="2946" stroke="#0C55EF" stroke-width="7"/>
<path d="M1440 962.413H1320V1021L120 1021V730" stroke="#FBB20E" stroke-width="7"/>
<circle cx="120.5" cy="726.5" r="7.5" transform="rotate(180 120.5 726.5)" fill="#9AB121"/>
<circle cx="1319.5" cy="961.5" r="7.5" transform="rotate(180 1319.5 961.5)" fill="#9AB121"/>
<circle cx="1083.5" cy="1020.5" r="7.5" transform="rotate(180 1083.5 1020.5)" fill="#F27107"/>
<circle cx="299.5" cy="1381.5" r="7.5" transform="rotate(180 299.5 1381.5)" fill="#825CC9"/>
<circle cx="179.5" cy="1379.5" r="7.5" transform="rotate(180 179.5 1379.5)" fill="#AA1CC4"/>
<circle cx="1083.5" cy="1078.5" r="7.5" transform="rotate(180 1083.5 1078.5)" fill="#AA1CC4"/>
<circle cx="240.5" cy="1740.5" r="7.5" transform="rotate(180 240.5 1740.5)" fill="#86C655"/>
<circle cx="1259.5" cy="1439.5" r="7.5" transform="rotate(180 1259.5 1439.5)" fill="#86C655"/>
<path d="M68.767 1426V1420.55H69.5767V1421.4H69.6477C69.7614 1421.11 69.9448 1420.88 70.1982 1420.72C70.4515 1420.56 70.7557 1420.47 71.1108 1420.47C71.4706 1420.47 71.7701 1420.56 72.0092 1420.72C72.2507 1420.88 72.4389 1421.11 72.5739 1421.4H72.6307C72.7704 1421.12 72.9799 1420.89 73.2592 1420.73C73.5386 1420.56 73.8736 1420.47 74.2642 1420.47C74.7519 1420.47 75.1508 1420.63 75.4609 1420.93C75.7711 1421.24 75.9261 1421.71 75.9261 1422.35V1426H75.0881V1422.35C75.0881 1421.95 74.978 1421.66 74.7578 1421.49C74.5376 1421.31 74.2784 1421.23 73.9801 1421.23C73.5966 1421.23 73.2995 1421.34 73.0888 1421.58C72.8781 1421.8 72.7727 1422.1 72.7727 1422.45V1426H71.9205V1422.26C71.9205 1421.95 71.8198 1421.7 71.6186 1421.51C71.4174 1421.32 71.1581 1421.23 70.8409 1421.23C70.6231 1421.23 70.4195 1421.29 70.2301 1421.4C70.0431 1421.52 69.8916 1421.68 69.7756 1421.88C69.6619 1422.09 69.6051 1422.32 69.6051 1422.59V1426H68.767ZM77.4585 1426V1420.55H78.2681V1421.4H78.3391C78.4528 1421.11 78.6362 1420.88 78.8896 1420.72C79.1429 1420.56 79.4471 1420.47 79.8022 1420.47C80.1621 1420.47 80.4615 1420.56 80.7006 1420.72C80.9421 1420.88 81.1303 1421.11 81.2653 1421.4H81.3221C81.4618 1421.12 81.6713 1420.89 81.9506 1420.73C82.23 1420.56 82.565 1420.47 82.9556 1420.47C83.4433 1420.47 83.8422 1420.63 84.1523 1420.93C84.4625 1421.24 84.6175 1421.71 84.6175 1422.35V1426H83.7795V1422.35C83.7795 1421.95 83.6694 1421.66 83.4492 1421.49C83.229 1421.31 82.9698 1421.23 82.6715 1421.23C82.288 1421.23 81.9909 1421.34 81.7802 1421.58C81.5695 1421.8 81.4641 1422.1 81.4641 1422.45V1426H80.6119V1422.26C80.6119 1421.95 80.5112 1421.7 80.31 1421.51C80.1088 1421.32 79.8496 1421.23 79.5323 1421.23C79.3145 1421.23 79.1109 1421.29 78.9215 1421.4C78.7345 1421.52 78.583 1421.68 78.467 1421.88C78.3533 1422.09 78.2965 1422.32 78.2965 1422.59V1426H77.4585ZM86.1499 1426V1420.55H86.9595V1421.4H87.0305C87.1442 1421.11 87.3277 1420.88 87.581 1420.72C87.8343 1420.56 88.1385 1420.47 88.4936 1420.47C88.8535 1420.47 89.1529 1420.56 89.392 1420.72C89.6335 1420.88 89.8217 1421.11 89.9567 1421.4H90.0135C90.1532 1421.12 90.3627 1420.89 90.642 1420.73C90.9214 1420.56 91.2564 1420.47 91.647 1420.47C92.1347 1420.47 92.5336 1420.63 92.8438 1420.93C93.1539 1421.24 93.3089 1421.71 93.3089 1422.35V1426H92.4709V1422.35C92.4709 1421.95 92.3608 1421.66 92.1406 1421.49C91.9205 1421.31 91.6612 1421.23 91.3629 1421.23C90.9794 1421.23 90.6823 1421.34 90.4716 1421.58C90.2609 1421.8 90.1555 1422.1 90.1555 1422.45V1426H89.3033V1422.26C89.3033 1421.95 89.2027 1421.7 89.0014 1421.51C88.8002 1421.32 88.541 1421.23 88.2237 1421.23C88.0059 1421.23 87.8023 1421.29 87.6129 1421.4C87.4259 1421.52 87.2744 1421.68 87.1584 1421.88C87.0447 1422.09 86.9879 1422.32 86.9879 1422.59V1426H86.1499ZM97.6538 1426V1420.55H98.4918V1426H97.6538ZM98.0799 1419.64C97.9165 1419.64 97.7757 1419.58 97.6573 1419.47C97.5413 1419.36 97.4833 1419.22 97.4833 1419.07C97.4833 1418.91 97.5413 1418.78 97.6573 1418.67C97.7757 1418.56 97.9165 1418.5 98.0799 1418.5C98.2433 1418.5 98.3829 1418.56 98.4989 1418.67C98.6173 1418.78 98.6765 1418.91 98.6765 1419.07C98.6765 1419.22 98.6173 1419.36 98.4989 1419.47C98.3829 1419.58 98.2433 1419.64 98.0799 1419.64ZM102.086 1426.11C101.632 1426.11 101.231 1426 100.883 1425.77C100.535 1425.54 100.262 1425.21 100.066 1424.79C99.8694 1424.37 99.7711 1423.86 99.7711 1423.29C99.7711 1422.71 99.8694 1422.22 100.066 1421.8C100.262 1421.37 100.536 1421.05 100.886 1420.82C101.237 1420.59 101.641 1420.47 102.101 1420.47C102.456 1420.47 102.736 1420.53 102.942 1420.65C103.151 1420.77 103.309 1420.9 103.418 1421.05C103.529 1421.2 103.616 1421.32 103.677 1421.41H103.748V1418.73H104.586V1426H103.777V1425.16H103.677C103.616 1425.26 103.528 1425.39 103.415 1425.54C103.301 1425.69 103.139 1425.82 102.928 1425.94C102.717 1426.06 102.437 1426.11 102.086 1426.11ZM102.2 1425.36C102.536 1425.36 102.82 1425.27 103.052 1425.1C103.284 1424.92 103.461 1424.68 103.581 1424.36C103.702 1424.05 103.763 1423.68 103.763 1423.27C103.763 1422.87 103.703 1422.51 103.585 1422.2C103.467 1421.9 103.291 1421.66 103.059 1421.49C102.827 1421.31 102.541 1421.23 102.2 1421.23C101.845 1421.23 101.549 1421.32 101.312 1421.5C101.078 1421.68 100.902 1421.93 100.783 1422.24C100.667 1422.54 100.609 1422.89 100.609 1423.27C100.609 1423.66 100.668 1424.01 100.787 1424.33C100.907 1424.65 101.085 1424.9 101.319 1425.08C101.556 1425.27 101.85 1425.36 102.2 1425.36ZM107.019 1424.01L107.005 1422.97H107.175L109.562 1420.55H110.599L108.056 1423.12H107.985L107.019 1424.01ZM106.238 1426V1418.73H107.076V1426H106.238ZM109.704 1426L107.573 1423.3L108.17 1422.72L110.769 1426H109.704ZM118.353 1421.77L117.6 1421.98C117.553 1421.85 117.483 1421.73 117.391 1421.61C117.301 1421.49 117.178 1421.39 117.022 1421.32C116.865 1421.24 116.665 1421.2 116.422 1421.2C116.088 1421.2 115.81 1421.28 115.587 1421.43C115.367 1421.58 115.257 1421.77 115.257 1422.01C115.257 1422.22 115.333 1422.38 115.484 1422.5C115.636 1422.62 115.872 1422.72 116.194 1422.8L117.004 1423C117.492 1423.12 117.855 1423.3 118.094 1423.55C118.333 1423.79 118.453 1424.1 118.453 1424.48C118.453 1424.79 118.363 1425.07 118.183 1425.32C118.005 1425.56 117.757 1425.76 117.437 1425.9C117.118 1426.04 116.746 1426.11 116.322 1426.11C115.766 1426.11 115.305 1425.99 114.941 1425.75C114.576 1425.51 114.345 1425.16 114.248 1424.69L115.044 1424.49C115.119 1424.79 115.263 1425.01 115.473 1425.15C115.686 1425.3 115.965 1425.38 116.308 1425.38C116.699 1425.38 117.009 1425.29 117.238 1425.13C117.47 1424.96 117.586 1424.76 117.586 1424.52C117.586 1424.33 117.52 1424.17 117.387 1424.05C117.255 1423.92 117.051 1423.82 116.777 1423.76L115.868 1423.54C115.368 1423.42 115.001 1423.24 114.767 1422.99C114.535 1422.74 114.419 1422.43 114.419 1422.05C114.419 1421.74 114.505 1421.47 114.678 1421.23C114.853 1421 115.091 1420.81 115.392 1420.68C115.695 1420.54 116.038 1420.47 116.422 1420.47C116.961 1420.47 117.385 1420.59 117.693 1420.83C118.003 1421.07 118.223 1421.38 118.353 1421.77ZM120.552 1422.72V1426H119.714V1418.73H120.552V1421.4H120.623C120.751 1421.12 120.943 1420.89 121.199 1420.73C121.457 1420.56 121.8 1420.47 122.229 1420.47C122.6 1420.47 122.926 1420.55 123.205 1420.7C123.484 1420.84 123.701 1421.07 123.855 1421.38C124.011 1421.68 124.089 1422.07 124.089 1422.53V1426H123.251V1422.59C123.251 1422.16 123.139 1421.82 122.914 1421.59C122.691 1421.35 122.382 1421.23 121.987 1421.23C121.712 1421.23 121.466 1421.29 121.248 1421.4C121.033 1421.52 120.863 1421.69 120.737 1421.91C120.614 1422.13 120.552 1422.4 120.552 1422.72ZM127.909 1426.11C127.384 1426.11 126.931 1426 126.549 1425.77C126.171 1425.53 125.878 1425.2 125.672 1424.79C125.469 1424.36 125.367 1423.87 125.367 1423.32C125.367 1422.76 125.469 1422.26 125.672 1421.84C125.878 1421.41 126.165 1421.08 126.532 1420.84C126.901 1420.6 127.332 1420.47 127.824 1420.47C128.108 1420.47 128.389 1420.52 128.666 1420.62C128.943 1420.71 129.195 1420.87 129.422 1421.08C129.65 1421.29 129.831 1421.57 129.966 1421.92C130.1 1422.26 130.168 1422.69 130.168 1423.2V1423.56H125.963V1422.83H129.316C129.316 1422.52 129.254 1422.25 129.131 1422.01C129.01 1421.77 128.837 1421.58 128.613 1421.44C128.39 1421.3 128.127 1421.23 127.824 1421.23C127.49 1421.23 127.202 1421.31 126.958 1421.48C126.716 1421.64 126.53 1421.85 126.4 1422.12C126.27 1422.38 126.205 1422.66 126.205 1422.96V1423.44C126.205 1423.86 126.276 1424.2 126.418 1424.49C126.562 1424.77 126.762 1424.99 127.018 1425.14C127.274 1425.29 127.571 1425.36 127.909 1425.36C128.13 1425.36 128.328 1425.33 128.506 1425.27C128.686 1425.2 128.841 1425.11 128.971 1424.98C129.101 1424.86 129.202 1424.7 129.273 1424.51L130.083 1424.74C129.998 1425.01 129.854 1425.25 129.653 1425.46C129.452 1425.67 129.203 1425.83 128.907 1425.94C128.611 1426.06 128.279 1426.11 127.909 1426.11ZM135.306 1421.77L134.554 1421.98C134.506 1421.85 134.436 1421.73 134.344 1421.61C134.254 1421.49 134.131 1421.39 133.975 1421.32C133.819 1421.24 133.618 1421.2 133.375 1421.2C133.041 1421.2 132.763 1421.28 132.54 1421.43C132.32 1421.58 132.21 1421.77 132.21 1422.01C132.21 1422.22 132.286 1422.38 132.437 1422.5C132.589 1422.62 132.825 1422.72 133.147 1422.8L133.957 1423C134.445 1423.12 134.808 1423.3 135.047 1423.55C135.286 1423.79 135.406 1424.1 135.406 1424.48C135.406 1424.79 135.316 1425.07 135.136 1425.32C134.958 1425.56 134.71 1425.76 134.39 1425.9C134.071 1426.04 133.699 1426.11 133.275 1426.11C132.719 1426.11 132.258 1425.99 131.894 1425.75C131.529 1425.51 131.298 1425.16 131.201 1424.69L131.997 1424.49C132.073 1424.79 132.216 1425.01 132.426 1425.15C132.64 1425.3 132.918 1425.38 133.261 1425.38C133.652 1425.38 133.962 1425.29 134.191 1425.13C134.423 1424.96 134.539 1424.76 134.539 1424.52C134.539 1424.33 134.473 1424.17 134.341 1424.05C134.208 1423.92 134.004 1423.82 133.73 1423.76L132.821 1423.54C132.321 1423.42 131.954 1423.24 131.72 1422.99C131.488 1422.74 131.372 1422.43 131.372 1422.05C131.372 1421.74 131.458 1421.47 131.631 1421.23C131.806 1421 132.044 1420.81 132.345 1420.68C132.648 1420.54 132.991 1420.47 133.375 1420.47C133.914 1420.47 134.338 1420.59 134.646 1420.83C134.956 1421.07 135.176 1421.38 135.306 1421.77ZM141.696 1426.11C141.203 1426.11 140.771 1426 140.4 1425.76C140.03 1425.53 139.742 1425.2 139.533 1424.78C139.327 1424.36 139.224 1423.86 139.224 1423.3C139.224 1422.73 139.327 1422.24 139.533 1421.81C139.742 1421.39 140.03 1421.06 140.4 1420.83C140.771 1420.59 141.203 1420.47 141.696 1420.47C142.188 1420.47 142.619 1420.59 142.988 1420.83C143.36 1421.06 143.649 1421.39 143.855 1421.81C144.063 1422.24 144.167 1422.73 144.167 1423.3C144.167 1423.86 144.063 1424.36 143.855 1424.78C143.649 1425.2 143.36 1425.53 142.988 1425.76C142.619 1426 142.188 1426.11 141.696 1426.11ZM141.696 1425.36C142.07 1425.36 142.378 1425.26 142.619 1425.07C142.861 1424.88 143.039 1424.63 143.155 1424.32C143.271 1424 143.329 1423.67 143.329 1423.3C143.329 1422.94 143.271 1422.6 143.155 1422.28C143.039 1421.97 142.861 1421.71 142.619 1421.52C142.378 1421.32 142.07 1421.23 141.696 1421.23C141.322 1421.23 141.014 1421.32 140.773 1421.52C140.531 1421.71 140.352 1421.97 140.236 1422.28C140.12 1422.6 140.062 1422.94 140.062 1423.3C140.062 1423.67 140.12 1424 140.236 1424.32C140.352 1424.63 140.531 1424.88 140.773 1425.07C141.014 1425.26 141.322 1425.36 141.696 1425.36ZM146.228 1424.01L146.214 1422.97H146.384L148.771 1420.55H149.808L147.265 1423.12H147.194L146.228 1424.01ZM145.447 1426V1418.73H146.285V1426H145.447ZM148.913 1426L146.782 1423.3L147.379 1422.72L149.978 1426H148.913ZM151.497 1426.06C151.322 1426.06 151.171 1425.99 151.046 1425.87C150.921 1425.74 150.858 1425.59 150.858 1425.42C150.858 1425.24 150.921 1425.09 151.046 1424.97C151.171 1424.84 151.322 1424.78 151.497 1424.78C151.672 1424.78 151.823 1424.84 151.948 1424.97C152.073 1425.09 152.136 1425.24 152.136 1425.42C152.136 1425.53 152.107 1425.64 152.047 1425.74C151.991 1425.83 151.914 1425.91 151.817 1425.97C151.722 1426.03 151.615 1426.06 151.497 1426.06ZM154.251 1426.06C154.076 1426.06 153.925 1425.99 153.8 1425.87C153.674 1425.74 153.612 1425.59 153.612 1425.42C153.612 1425.24 153.674 1425.09 153.8 1424.97C153.925 1424.84 154.076 1424.78 154.251 1424.78C154.426 1424.78 154.576 1424.84 154.702 1424.97C154.827 1425.09 154.89 1425.24 154.89 1425.42C154.89 1425.53 154.86 1425.64 154.801 1425.74C154.744 1425.83 154.668 1425.91 154.57 1425.97C154.476 1426.03 154.369 1426.06 154.251 1426.06Z" fill="black"/>
<path d="M170.58 1389.1C170.59 1388.55 170.15 1388.09 169.598 1388.08L160.599 1387.93C160.047 1387.92 159.591 1388.36 159.582 1388.91C159.573 1389.47 160.013 1389.92 160.565 1389.93L168.564 1390.07L168.428 1398.06C168.418 1398.62 168.858 1399.07 169.411 1399.08C169.963 1399.09 170.418 1398.65 170.427 1398.1L170.58 1389.1ZM151.003 1407.04L151.698 1407.76L170.276 1389.8L169.581 1389.08L168.886 1388.36L150.308 1406.32L151.003 1407.04Z" fill="black"/>
<path d="M993.003 1758L991.341 1752.55H992.222L993.401 1756.72H993.457L994.622 1752.55H995.517L996.668 1756.71H996.724L997.903 1752.55H998.784L997.122 1758H996.298L995.105 1753.81H995.02L993.827 1758H993.003ZM1000.73 1754.72V1758H999.892V1750.73H1000.73V1753.4H1000.8C1000.93 1753.12 1001.12 1752.89 1001.38 1752.73C1001.63 1752.56 1001.98 1752.47 1002.41 1752.47C1002.78 1752.47 1003.1 1752.55 1003.38 1752.7C1003.66 1752.84 1003.88 1753.07 1004.03 1753.38C1004.19 1753.68 1004.27 1754.07 1004.27 1754.53V1758H1003.43V1754.59C1003.43 1754.16 1003.32 1753.82 1003.09 1753.59C1002.87 1753.35 1002.56 1753.23 1002.16 1753.23C1001.89 1753.23 1001.64 1753.29 1001.43 1753.4C1001.21 1753.52 1001.04 1753.69 1000.91 1753.91C1000.79 1754.13 1000.73 1754.4 1000.73 1754.72ZM1007.41 1758.13C1007.06 1758.13 1006.75 1758.06 1006.46 1757.93C1006.18 1757.8 1005.96 1757.61 1005.79 1757.36C1005.63 1757.11 1005.54 1756.81 1005.54 1756.45C1005.54 1756.14 1005.61 1755.89 1005.73 1755.69C1005.85 1755.5 1006.02 1755.34 1006.22 1755.23C1006.43 1755.12 1006.66 1755.04 1006.9 1754.98C1007.16 1754.92 1007.41 1754.88 1007.66 1754.85C1007.99 1754.8 1008.26 1754.77 1008.47 1754.75C1008.68 1754.73 1008.83 1754.69 1008.92 1754.63C1009.02 1754.58 1009.07 1754.48 1009.07 1754.35V1754.32C1009.07 1753.97 1008.97 1753.7 1008.78 1753.5C1008.59 1753.31 1008.3 1753.21 1007.92 1753.21C1007.52 1753.21 1007.2 1753.3 1006.98 1753.48C1006.75 1753.65 1006.59 1753.84 1006.5 1754.04L1005.7 1753.75C1005.84 1753.42 1006.03 1753.16 1006.27 1752.98C1006.51 1752.79 1006.77 1752.66 1007.05 1752.59C1007.33 1752.51 1007.61 1752.47 1007.89 1752.47C1008.06 1752.47 1008.26 1752.5 1008.49 1752.54C1008.72 1752.58 1008.94 1752.66 1009.16 1752.79C1009.37 1752.92 1009.55 1753.11 1009.69 1753.37C1009.83 1753.63 1009.91 1753.97 1009.91 1754.41V1758H1009.07V1757.26H1009.02C1008.97 1757.38 1008.87 1757.51 1008.74 1757.64C1008.61 1757.78 1008.43 1757.89 1008.21 1757.99C1007.99 1758.08 1007.72 1758.13 1007.41 1758.13ZM1007.53 1757.38C1007.86 1757.38 1008.14 1757.31 1008.37 1757.18C1008.6 1757.05 1008.77 1756.88 1008.89 1756.68C1009.01 1756.47 1009.07 1756.25 1009.07 1756.03V1755.26C1009.03 1755.3 1008.95 1755.34 1008.83 1755.38C1008.71 1755.41 1008.58 1755.44 1008.42 1755.46C1008.27 1755.49 1008.12 1755.51 1007.97 1755.53C1007.83 1755.54 1007.71 1755.56 1007.62 1755.57C1007.4 1755.6 1007.2 1755.65 1007.01 1755.71C1006.82 1755.77 1006.67 1755.86 1006.55 1755.99C1006.44 1756.11 1006.38 1756.28 1006.38 1756.49C1006.38 1756.79 1006.49 1757.01 1006.71 1757.15C1006.92 1757.3 1007.2 1757.38 1007.53 1757.38ZM1013.81 1752.55V1753.26H1010.98V1752.55H1013.81ZM1011.8 1751.24H1012.64V1756.44C1012.64 1756.67 1012.68 1756.85 1012.75 1756.97C1012.82 1757.09 1012.91 1757.16 1013.02 1757.2C1013.13 1757.24 1013.24 1757.26 1013.37 1757.26C1013.46 1757.26 1013.53 1757.26 1013.59 1757.25C1013.65 1757.24 1013.7 1757.23 1013.74 1757.22L1013.91 1757.97C1013.85 1757.99 1013.77 1758.01 1013.67 1758.04C1013.57 1758.06 1013.44 1758.07 1013.28 1758.07C1013.04 1758.07 1012.81 1758.02 1012.59 1757.92C1012.36 1757.82 1012.17 1757.66 1012.02 1757.45C1011.88 1757.24 1011.8 1756.98 1011.8 1756.66V1751.24ZM1019.12 1758L1017.45 1752.55H1018.33L1019.51 1756.72H1019.57L1020.74 1752.55H1021.63L1022.78 1756.71H1022.84L1024.02 1752.55H1024.9L1023.24 1758H1022.41L1021.22 1753.81H1021.13L1019.94 1758H1019.12ZM1027.61 1758.13C1027.26 1758.13 1026.95 1758.06 1026.67 1757.93C1026.39 1757.8 1026.16 1757.61 1026 1757.36C1025.83 1757.11 1025.75 1756.81 1025.75 1756.45C1025.75 1756.14 1025.81 1755.89 1025.93 1755.69C1026.06 1755.5 1026.22 1755.34 1026.43 1755.23C1026.63 1755.12 1026.86 1755.04 1027.11 1754.98C1027.36 1754.92 1027.61 1754.88 1027.87 1754.85C1028.2 1754.8 1028.47 1754.77 1028.67 1754.75C1028.88 1754.73 1029.03 1754.69 1029.13 1754.63C1029.22 1754.58 1029.27 1754.48 1029.27 1754.35V1754.32C1029.27 1753.97 1029.18 1753.7 1028.98 1753.5C1028.8 1753.31 1028.51 1753.21 1028.12 1753.21C1027.72 1753.21 1027.41 1753.3 1027.18 1753.48C1026.95 1753.65 1026.79 1753.84 1026.7 1754.04L1025.91 1753.75C1026.05 1753.42 1026.24 1753.16 1026.47 1752.98C1026.71 1752.79 1026.97 1752.66 1027.26 1752.59C1027.54 1752.51 1027.82 1752.47 1028.09 1752.47C1028.27 1752.47 1028.47 1752.5 1028.7 1752.54C1028.93 1752.58 1029.15 1752.66 1029.36 1752.79C1029.58 1752.92 1029.76 1753.11 1029.9 1753.37C1030.04 1753.63 1030.11 1753.97 1030.11 1754.41V1758H1029.27V1757.26H1029.23C1029.17 1757.38 1029.08 1757.51 1028.95 1757.64C1028.81 1757.78 1028.64 1757.89 1028.42 1757.99C1028.2 1758.08 1027.93 1758.13 1027.61 1758.13ZM1027.74 1757.38C1028.07 1757.38 1028.35 1757.31 1028.58 1757.18C1028.81 1757.05 1028.98 1756.88 1029.09 1756.68C1029.21 1756.47 1029.27 1756.25 1029.27 1756.03V1755.26C1029.24 1755.3 1029.16 1755.34 1029.04 1755.38C1028.92 1755.41 1028.78 1755.44 1028.63 1755.46C1028.47 1755.49 1028.32 1755.51 1028.18 1755.53C1028.03 1755.54 1027.91 1755.56 1027.82 1755.57C1027.61 1755.6 1027.4 1755.65 1027.21 1755.71C1027.03 1755.77 1026.87 1755.86 1026.76 1755.99C1026.64 1756.11 1026.59 1756.28 1026.59 1756.49C1026.59 1756.79 1026.7 1757.01 1026.91 1757.15C1027.13 1757.3 1027.4 1757.38 1027.74 1757.38ZM1035.5 1753.77L1034.75 1753.98C1034.7 1753.85 1034.63 1753.73 1034.54 1753.61C1034.45 1753.49 1034.33 1753.39 1034.17 1753.32C1034.02 1753.24 1033.82 1753.2 1033.57 1753.2C1033.24 1753.2 1032.96 1753.28 1032.74 1753.43C1032.52 1753.58 1032.41 1753.77 1032.41 1754.01C1032.41 1754.22 1032.48 1754.38 1032.63 1754.5C1032.79 1754.62 1033.02 1754.72 1033.34 1754.8L1034.15 1755C1034.64 1755.12 1035.01 1755.3 1035.24 1755.55C1035.48 1755.79 1035.6 1756.1 1035.6 1756.48C1035.6 1756.79 1035.51 1757.07 1035.33 1757.32C1035.16 1757.56 1034.91 1757.76 1034.59 1757.9C1034.27 1758.04 1033.9 1758.11 1033.47 1758.11C1032.92 1758.11 1032.46 1757.99 1032.09 1757.75C1031.73 1757.51 1031.5 1757.16 1031.4 1756.69L1032.19 1756.49C1032.27 1756.79 1032.41 1757.01 1032.62 1757.15C1032.84 1757.3 1033.11 1757.38 1033.46 1757.38C1033.85 1757.38 1034.16 1757.29 1034.39 1757.13C1034.62 1756.96 1034.74 1756.76 1034.74 1756.52C1034.74 1756.33 1034.67 1756.17 1034.54 1756.05C1034.41 1755.92 1034.2 1755.82 1033.93 1755.76L1033.02 1755.54C1032.52 1755.42 1032.15 1755.24 1031.92 1754.99C1031.69 1754.74 1031.57 1754.43 1031.57 1754.05C1031.57 1753.74 1031.66 1753.47 1031.83 1753.23C1032 1753 1032.24 1752.81 1032.54 1752.68C1032.85 1752.54 1033.19 1752.47 1033.57 1752.47C1034.11 1752.47 1034.54 1752.59 1034.84 1752.83C1035.15 1753.07 1035.37 1753.38 1035.5 1753.77ZM1039.68 1758V1752.55H1040.52V1758H1039.68ZM1040.1 1751.64C1039.94 1751.64 1039.8 1751.58 1039.68 1751.47C1039.56 1751.36 1039.51 1751.22 1039.51 1751.07C1039.51 1750.91 1039.56 1750.78 1039.68 1750.67C1039.8 1750.56 1039.94 1750.5 1040.1 1750.5C1040.27 1750.5 1040.41 1750.56 1040.52 1750.67C1040.64 1750.78 1040.7 1750.91 1040.7 1751.07C1040.7 1751.22 1040.64 1751.36 1040.52 1751.47C1040.41 1751.58 1040.27 1751.64 1040.1 1751.64ZM1044.42 1752.55V1753.26H1041.6V1752.55H1044.42ZM1042.42 1751.24H1043.26V1756.44C1043.26 1756.67 1043.29 1756.85 1043.36 1756.97C1043.43 1757.09 1043.52 1757.16 1043.63 1757.2C1043.74 1757.24 1043.86 1757.26 1043.98 1757.26C1044.07 1757.26 1044.15 1757.26 1044.21 1757.25C1044.27 1757.24 1044.32 1757.23 1044.35 1757.22L1044.52 1757.97C1044.47 1757.99 1044.39 1758.01 1044.28 1758.04C1044.18 1758.06 1044.05 1758.07 1043.9 1758.07C1043.66 1758.07 1043.43 1758.02 1043.2 1757.92C1042.98 1757.82 1042.79 1757.66 1042.64 1757.45C1042.49 1757.24 1042.42 1756.98 1042.42 1756.66V1751.24ZM1046.78 1755.95V1755.91C1046.78 1755.46 1046.83 1755.1 1046.92 1754.83C1047.01 1754.56 1047.14 1754.35 1047.3 1754.18C1047.47 1754.02 1047.67 1753.86 1047.9 1753.72C1048.04 1753.64 1048.16 1753.54 1048.28 1753.42C1048.39 1753.3 1048.47 1753.17 1048.54 1753.01C1048.6 1752.86 1048.64 1752.69 1048.64 1752.5C1048.64 1752.27 1048.58 1752.07 1048.47 1751.9C1048.37 1751.73 1048.22 1751.6 1048.04 1751.5C1047.86 1751.41 1047.65 1751.37 1047.43 1751.37C1047.24 1751.37 1047.05 1751.41 1046.87 1751.49C1046.69 1751.57 1046.54 1751.69 1046.42 1751.87C1046.3 1752.04 1046.23 1752.27 1046.21 1752.55H1045.31C1045.33 1752.14 1045.44 1751.8 1045.63 1751.51C1045.82 1751.23 1046.07 1751.01 1046.38 1750.86C1046.7 1750.7 1047.05 1750.63 1047.43 1750.63C1047.85 1750.63 1048.21 1750.71 1048.52 1750.88C1048.83 1751.04 1049.07 1751.27 1049.23 1751.56C1049.4 1751.85 1049.49 1752.18 1049.49 1752.55C1049.49 1752.81 1049.45 1753.04 1049.37 1753.25C1049.29 1753.46 1049.18 1753.65 1049.03 1753.82C1048.88 1753.98 1048.7 1754.13 1048.5 1754.26C1048.29 1754.39 1048.12 1754.52 1047.99 1754.67C1047.87 1754.81 1047.78 1754.98 1047.72 1755.18C1047.66 1755.37 1047.63 1755.62 1047.63 1755.91V1755.95H1046.78ZM1047.23 1758.06C1047.06 1758.06 1046.91 1757.99 1046.78 1757.87C1046.65 1757.74 1046.59 1757.59 1046.59 1757.42C1046.59 1757.24 1046.65 1757.09 1046.78 1756.97C1046.91 1756.84 1047.06 1756.78 1047.23 1756.78C1047.41 1756.78 1047.56 1756.84 1047.68 1756.97C1047.81 1757.09 1047.87 1757.24 1047.87 1757.42C1047.87 1757.53 1047.84 1757.64 1047.78 1757.74C1047.72 1757.83 1047.65 1757.91 1047.55 1757.97C1047.46 1758.03 1047.35 1758.06 1047.23 1758.06ZM1051.85 1755.95V1755.91C1051.85 1755.46 1051.9 1755.1 1051.99 1754.83C1052.08 1754.56 1052.21 1754.35 1052.37 1754.18C1052.54 1754.02 1052.74 1753.86 1052.97 1753.72C1053.11 1753.64 1053.23 1753.54 1053.34 1753.42C1053.46 1753.3 1053.54 1753.17 1053.61 1753.01C1053.67 1752.86 1053.71 1752.69 1053.71 1752.5C1053.71 1752.27 1053.65 1752.07 1053.54 1751.9C1053.43 1751.73 1053.29 1751.6 1053.11 1751.5C1052.92 1751.41 1052.72 1751.37 1052.5 1751.37C1052.3 1751.37 1052.12 1751.41 1051.94 1751.49C1051.76 1751.57 1051.61 1751.69 1051.49 1751.87C1051.37 1752.04 1051.3 1752.27 1051.28 1752.55H1050.38C1050.4 1752.14 1050.51 1751.8 1050.69 1751.51C1050.89 1751.23 1051.14 1751.01 1051.45 1750.86C1051.77 1750.7 1052.12 1750.63 1052.5 1750.63C1052.92 1750.63 1053.28 1750.71 1053.59 1750.88C1053.9 1751.04 1054.13 1751.27 1054.3 1751.56C1054.47 1751.85 1054.56 1752.18 1054.56 1752.55C1054.56 1752.81 1054.52 1753.04 1054.44 1753.25C1054.36 1753.46 1054.25 1753.65 1054.1 1753.82C1053.95 1753.98 1053.77 1754.13 1053.56 1754.26C1053.36 1754.39 1053.19 1754.52 1053.06 1754.67C1052.94 1754.81 1052.85 1754.98 1052.79 1755.18C1052.73 1755.37 1052.7 1755.62 1052.7 1755.91V1755.95H1051.85ZM1052.3 1758.06C1052.12 1758.06 1051.97 1757.99 1051.85 1757.87C1051.72 1757.74 1051.66 1757.59 1051.66 1757.42C1051.66 1757.24 1051.72 1757.09 1051.85 1756.97C1051.97 1756.84 1052.12 1756.78 1052.3 1756.78C1052.47 1756.78 1052.63 1756.84 1052.75 1756.97C1052.88 1757.09 1052.94 1757.24 1052.94 1757.42C1052.94 1757.53 1052.91 1757.64 1052.85 1757.74C1052.79 1757.83 1052.72 1757.91 1052.62 1757.97C1052.52 1758.03 1052.42 1758.06 1052.3 1758.06Z" fill="black"/>
<path d="M821.767 1035V1029.55H822.605V1035H821.767ZM822.193 1028.64C822.03 1028.64 821.889 1028.58 821.771 1028.47C821.655 1028.36 821.597 1028.22 821.597 1028.07C821.597 1027.91 821.655 1027.78 821.771 1027.67C821.889 1027.56 822.03 1027.5 822.193 1027.5C822.357 1027.5 822.496 1027.56 822.612 1027.67C822.731 1027.78 822.79 1027.91 822.79 1028.07C822.79 1028.22 822.731 1028.36 822.612 1028.47C822.496 1028.58 822.357 1028.64 822.193 1028.64ZM826.512 1029.55V1030.26H823.686V1029.55H826.512ZM824.509 1028.24H825.347V1033.44C825.347 1033.67 825.382 1033.85 825.45 1033.97C825.521 1034.09 825.611 1034.16 825.72 1034.2C825.832 1034.24 825.949 1034.26 826.072 1034.26C826.164 1034.26 826.24 1034.26 826.299 1034.25C826.358 1034.24 826.406 1034.23 826.441 1034.22L826.612 1034.97C826.555 1034.99 826.476 1035.01 826.374 1035.04C826.272 1035.06 826.143 1035.07 825.987 1035.07C825.75 1035.07 825.518 1035.02 825.291 1034.92C825.066 1034.82 824.879 1034.66 824.73 1034.45C824.583 1034.24 824.509 1033.98 824.509 1033.66V1028.24ZM834.449 1030.77L833.696 1030.98C833.649 1030.85 833.579 1030.73 833.487 1030.61C833.397 1030.49 833.274 1030.39 833.117 1030.32C832.961 1030.24 832.761 1030.2 832.517 1030.2C832.183 1030.2 831.905 1030.28 831.683 1030.43C831.463 1030.58 831.352 1030.77 831.352 1031.01C831.352 1031.22 831.428 1031.38 831.58 1031.5C831.731 1031.62 831.968 1031.72 832.29 1031.8L833.1 1032C833.587 1032.12 833.951 1032.3 834.19 1032.55C834.429 1032.79 834.548 1033.1 834.548 1033.48C834.548 1033.79 834.459 1034.07 834.279 1034.32C834.101 1034.56 833.852 1034.76 833.533 1034.9C833.213 1035.04 832.842 1035.11 832.418 1035.11C831.861 1035.11 831.401 1034.99 831.036 1034.75C830.672 1034.51 830.441 1034.16 830.344 1033.69L831.139 1033.49C831.215 1033.79 831.358 1034.01 831.569 1034.15C831.782 1034.3 832.06 1034.38 832.404 1034.38C832.794 1034.38 833.104 1034.29 833.334 1034.13C833.566 1033.96 833.682 1033.76 833.682 1033.52C833.682 1033.33 833.616 1033.17 833.483 1033.05C833.351 1032.92 833.147 1032.82 832.872 1032.76L831.963 1032.54C831.464 1032.42 831.097 1032.24 830.862 1031.99C830.63 1031.74 830.514 1031.43 830.514 1031.05C830.514 1030.74 830.601 1030.47 830.774 1030.23C830.949 1030 831.187 1029.81 831.487 1029.68C831.79 1029.54 832.134 1029.47 832.517 1029.47C833.057 1029.47 833.481 1029.59 833.789 1029.83C834.099 1030.07 834.319 1030.38 834.449 1030.77ZM842.486 1030.77L841.733 1030.98C841.686 1030.85 841.616 1030.73 841.524 1030.61C841.434 1030.49 841.311 1030.39 841.154 1030.32C840.998 1030.24 840.798 1030.2 840.554 1030.2C840.221 1030.2 839.942 1030.28 839.72 1030.43C839.5 1030.58 839.39 1030.77 839.39 1031.01C839.39 1031.22 839.465 1031.38 839.617 1031.5C839.768 1031.62 840.005 1031.72 840.327 1031.8L841.137 1032C841.624 1032.12 841.988 1032.3 842.227 1032.55C842.466 1032.79 842.586 1033.1 842.586 1033.48C842.586 1033.79 842.496 1034.07 842.316 1034.32C842.138 1034.56 841.89 1034.76 841.57 1034.9C841.25 1035.04 840.879 1035.11 840.455 1035.11C839.899 1035.11 839.438 1034.99 839.074 1034.75C838.709 1034.51 838.478 1034.16 838.381 1033.69L839.176 1033.49C839.252 1033.79 839.395 1034.01 839.606 1034.15C839.819 1034.3 840.097 1034.38 840.441 1034.38C840.831 1034.38 841.141 1034.29 841.371 1034.13C841.603 1033.96 841.719 1033.76 841.719 1033.52C841.719 1033.33 841.653 1033.17 841.52 1033.05C841.388 1032.92 841.184 1032.82 840.909 1032.76L840 1032.54C839.501 1032.42 839.134 1032.24 838.9 1031.99C838.667 1031.74 838.551 1031.43 838.551 1031.05C838.551 1030.74 838.638 1030.47 838.811 1030.23C838.986 1030 839.224 1029.81 839.525 1029.68C839.828 1029.54 840.171 1029.47 840.554 1029.47C841.094 1029.47 841.518 1029.59 841.826 1029.83C842.136 1030.07 842.356 1030.38 842.486 1030.77ZM846.063 1035.11C845.571 1035.11 845.139 1035 844.767 1034.76C844.398 1034.53 844.109 1034.2 843.9 1033.78C843.694 1033.36 843.591 1032.86 843.591 1032.3C843.591 1031.73 843.694 1031.24 843.9 1030.81C844.109 1030.39 844.398 1030.06 844.767 1029.83C845.139 1029.59 845.571 1029.47 846.063 1029.47C846.555 1029.47 846.986 1029.59 847.356 1029.83C847.727 1030.06 848.016 1030.39 848.222 1030.81C848.43 1031.24 848.535 1031.73 848.535 1032.3C848.535 1032.86 848.43 1033.36 848.222 1033.78C848.016 1034.2 847.727 1034.53 847.356 1034.76C846.986 1035 846.555 1035.11 846.063 1035.11ZM846.063 1034.36C846.437 1034.36 846.745 1034.26 846.986 1034.07C847.228 1033.88 847.407 1033.63 847.523 1033.32C847.639 1033 847.697 1032.67 847.697 1032.3C847.697 1031.94 847.639 1031.6 847.523 1031.28C847.407 1030.97 847.228 1030.71 846.986 1030.52C846.745 1030.32 846.437 1030.23 846.063 1030.23C845.689 1030.23 845.381 1030.32 845.14 1030.52C844.898 1030.71 844.72 1030.97 844.604 1031.28C844.488 1031.6 844.43 1031.94 844.43 1032.3C844.43 1032.67 844.488 1033 844.604 1033.32C844.72 1033.63 844.898 1033.88 845.14 1034.07C845.381 1034.26 845.689 1034.36 846.063 1034.36ZM852.626 1035V1029.55H853.436V1030.4H853.507C853.621 1030.11 853.804 1029.88 854.058 1029.72C854.311 1029.56 854.615 1029.47 854.97 1029.47C855.33 1029.47 855.629 1029.56 855.869 1029.72C856.11 1029.88 856.298 1030.11 856.433 1030.4H856.49C856.63 1030.12 856.839 1029.89 857.119 1029.73C857.398 1029.56 857.733 1029.47 858.124 1029.47C858.611 1029.47 859.01 1029.63 859.32 1029.93C859.63 1030.24 859.786 1030.71 859.786 1031.35V1035H858.947V1031.35C858.947 1030.95 858.837 1030.66 858.617 1030.49C858.397 1030.31 858.138 1030.23 857.839 1030.23C857.456 1030.23 857.159 1030.34 856.948 1030.58C856.737 1030.8 856.632 1031.1 856.632 1031.45V1035H855.78V1031.26C855.78 1030.95 855.679 1030.7 855.478 1030.51C855.277 1030.32 855.018 1030.23 854.7 1030.23C854.482 1030.23 854.279 1030.29 854.089 1030.4C853.902 1030.52 853.751 1030.68 853.635 1030.88C853.521 1031.09 853.464 1031.32 853.464 1031.59V1035H852.626ZM863.605 1035.11C863.079 1035.11 862.626 1035 862.245 1034.77C861.866 1034.53 861.574 1034.2 861.368 1033.79C861.164 1033.36 861.062 1032.87 861.062 1032.32C861.062 1031.76 861.164 1031.26 861.368 1030.84C861.574 1030.41 861.86 1030.08 862.227 1029.84C862.596 1029.6 863.027 1029.47 863.52 1029.47C863.804 1029.47 864.084 1029.52 864.361 1029.62C864.638 1029.71 864.89 1029.87 865.118 1030.08C865.345 1030.29 865.526 1030.57 865.661 1030.92C865.796 1031.26 865.863 1031.69 865.863 1032.2V1032.56H861.659V1031.83H865.011C865.011 1031.52 864.949 1031.25 864.826 1031.01C864.706 1030.77 864.533 1030.58 864.308 1030.44C864.085 1030.3 863.823 1030.23 863.52 1030.23C863.186 1030.23 862.897 1030.31 862.653 1030.48C862.412 1030.64 862.226 1030.85 862.096 1031.12C861.965 1031.38 861.9 1031.66 861.9 1031.96V1032.44C861.9 1032.86 861.971 1033.2 862.113 1033.49C862.258 1033.77 862.458 1033.99 862.713 1034.14C862.969 1034.29 863.266 1034.36 863.605 1034.36C863.825 1034.36 864.024 1034.33 864.201 1034.27C864.381 1034.2 864.536 1034.11 864.667 1033.98C864.797 1033.86 864.897 1033.7 864.968 1033.51L865.778 1033.74C865.693 1034.01 865.55 1034.25 865.348 1034.46C865.147 1034.67 864.899 1034.83 864.603 1034.94C864.307 1035.06 863.974 1035.11 863.605 1035.11ZM871.002 1030.77L870.249 1030.98C870.202 1030.85 870.132 1030.73 870.039 1030.61C869.949 1030.49 869.826 1030.39 869.67 1030.32C869.514 1030.24 869.314 1030.2 869.07 1030.2C868.736 1030.2 868.458 1030.28 868.235 1030.43C868.015 1030.58 867.905 1030.77 867.905 1031.01C867.905 1031.22 867.981 1031.38 868.132 1031.5C868.284 1031.62 868.521 1031.72 868.843 1031.8L869.652 1032C870.14 1032.12 870.503 1032.3 870.743 1032.55C870.982 1032.79 871.101 1033.1 871.101 1033.48C871.101 1033.79 871.011 1034.07 870.831 1034.32C870.654 1034.56 870.405 1034.76 870.086 1034.9C869.766 1035.04 869.394 1035.11 868.971 1035.11C868.414 1035.11 867.954 1034.99 867.589 1034.75C867.225 1034.51 866.994 1034.16 866.897 1033.69L867.692 1033.49C867.768 1033.79 867.911 1034.01 868.122 1034.15C868.335 1034.3 868.613 1034.38 868.956 1034.38C869.347 1034.38 869.657 1034.29 869.887 1034.13C870.119 1033.96 870.235 1033.76 870.235 1033.52C870.235 1033.33 870.168 1033.17 870.036 1033.05C869.903 1032.92 869.7 1032.82 869.425 1032.76L868.516 1032.54C868.016 1032.42 867.65 1032.24 867.415 1031.99C867.183 1031.74 867.067 1031.43 867.067 1031.05C867.067 1030.74 867.154 1030.47 867.326 1030.23C867.502 1030 867.739 1029.81 868.04 1029.68C868.343 1029.54 868.686 1029.47 869.07 1029.47C869.61 1029.47 870.033 1029.59 870.341 1029.83C870.651 1030.07 870.872 1030.38 871.002 1030.77ZM876.226 1030.77L875.474 1030.98C875.426 1030.85 875.356 1030.73 875.264 1030.61C875.174 1030.49 875.051 1030.39 874.895 1030.32C874.738 1030.24 874.538 1030.2 874.295 1030.2C873.961 1030.2 873.683 1030.28 873.46 1030.43C873.24 1030.58 873.13 1030.77 873.13 1031.01C873.13 1031.22 873.206 1031.38 873.357 1031.5C873.509 1031.62 873.745 1031.72 874.067 1031.8L874.877 1032C875.365 1032.12 875.728 1032.3 875.967 1032.55C876.206 1032.79 876.326 1033.1 876.326 1033.48C876.326 1033.79 876.236 1034.07 876.056 1034.32C875.878 1034.56 875.63 1034.76 875.31 1034.9C874.991 1035.04 874.619 1035.11 874.195 1035.11C873.639 1035.11 873.178 1034.99 872.814 1034.75C872.449 1034.51 872.218 1034.16 872.121 1033.69L872.917 1033.49C872.992 1033.79 873.136 1034.01 873.346 1034.15C873.559 1034.3 873.838 1034.38 874.181 1034.38C874.572 1034.38 874.882 1034.29 875.111 1034.13C875.343 1033.96 875.459 1033.76 875.459 1033.52C875.459 1033.33 875.393 1033.17 875.26 1033.05C875.128 1032.92 874.924 1032.82 874.65 1032.76L873.741 1032.54C873.241 1032.42 872.874 1032.24 872.64 1031.99C872.408 1031.74 872.292 1031.43 872.292 1031.05C872.292 1030.74 872.378 1030.47 872.551 1030.23C872.726 1030 872.964 1029.81 873.265 1029.68C873.568 1029.54 873.911 1029.47 874.295 1029.47C874.834 1029.47 875.258 1029.59 875.566 1029.83C875.876 1030.07 876.096 1030.38 876.226 1030.77ZM879.874 1035.11C879.349 1035.11 878.895 1035 878.514 1034.77C878.135 1034.53 877.843 1034.2 877.637 1033.79C877.433 1033.36 877.332 1032.87 877.332 1032.32C877.332 1031.76 877.433 1031.26 877.637 1030.84C877.843 1030.41 878.129 1030.08 878.496 1029.84C878.866 1029.6 879.297 1029.47 879.789 1029.47C880.073 1029.47 880.354 1029.52 880.631 1029.62C880.908 1029.71 881.16 1029.87 881.387 1030.08C881.614 1030.29 881.795 1030.57 881.93 1030.92C882.065 1031.26 882.133 1031.69 882.133 1032.2V1032.56H877.928V1031.83H881.281C881.281 1031.52 881.219 1031.25 881.096 1031.01C880.975 1030.77 880.802 1030.58 880.577 1030.44C880.355 1030.3 880.092 1030.23 879.789 1030.23C879.455 1030.23 879.166 1030.31 878.923 1030.48C878.681 1030.64 878.495 1030.85 878.365 1031.12C878.235 1031.38 878.17 1031.66 878.17 1031.96V1032.44C878.17 1032.86 878.241 1033.2 878.383 1033.49C878.527 1033.77 878.727 1033.99 878.983 1034.14C879.239 1034.29 879.536 1034.36 879.874 1034.36C880.094 1034.36 880.293 1034.33 880.471 1034.27C880.651 1034.2 880.806 1034.11 880.936 1033.98C881.066 1033.86 881.167 1033.7 881.238 1033.51L882.048 1033.74C881.962 1034.01 881.819 1034.25 881.618 1034.46C881.417 1034.67 881.168 1034.83 880.872 1034.94C880.576 1035.06 880.244 1035.11 879.874 1035.11ZM885.467 1035.11C885.013 1035.11 884.612 1035 884.263 1034.77C883.915 1034.54 883.643 1034.21 883.447 1033.79C883.25 1033.37 883.152 1032.86 883.152 1032.29C883.152 1031.71 883.25 1031.22 883.447 1030.8C883.643 1030.37 883.917 1030.05 884.267 1029.82C884.617 1029.59 885.022 1029.47 885.482 1029.47C885.837 1029.47 886.117 1029.53 886.323 1029.65C886.531 1029.77 886.69 1029.9 886.799 1030.05C886.91 1030.2 886.997 1030.32 887.058 1030.41H887.129V1027.73H887.967V1035H887.158V1034.16H887.058C886.997 1034.26 886.909 1034.39 886.795 1034.54C886.682 1034.69 886.52 1034.82 886.309 1034.94C886.098 1035.06 885.818 1035.11 885.467 1035.11ZM885.581 1034.36C885.917 1034.36 886.201 1034.27 886.433 1034.1C886.665 1033.92 886.842 1033.68 886.962 1033.36C887.083 1033.05 887.143 1032.68 887.143 1032.27C887.143 1031.87 887.084 1031.51 886.966 1031.2C886.848 1030.9 886.672 1030.66 886.44 1030.49C886.208 1030.31 885.922 1030.23 885.581 1030.23C885.226 1030.23 884.93 1030.32 884.693 1030.5C884.459 1030.68 884.282 1030.93 884.164 1031.24C884.048 1031.54 883.99 1031.89 883.99 1032.27C883.99 1032.66 884.049 1033.01 884.168 1033.33C884.288 1033.65 884.466 1033.9 884.7 1034.08C884.937 1034.27 885.231 1034.36 885.581 1034.36ZM895.869 1032.77V1029.55H896.707V1035H895.869V1034.08H895.812C895.684 1034.35 895.485 1034.59 895.215 1034.78C894.945 1034.98 894.604 1035.07 894.192 1035.07C893.852 1035.07 893.549 1035 893.283 1034.85C893.018 1034.7 892.81 1034.47 892.658 1034.17C892.507 1033.86 892.431 1033.48 892.431 1033.01V1029.55H893.269V1032.95C893.269 1033.35 893.38 1033.67 893.603 1033.91C893.828 1034.14 894.114 1034.26 894.462 1034.26C894.671 1034.26 894.883 1034.21 895.098 1034.1C895.316 1034 895.498 1033.83 895.645 1033.61C895.794 1033.39 895.869 1033.11 895.869 1032.77ZM898.242 1037.05V1029.55H899.051V1030.41H899.151C899.212 1030.32 899.298 1030.2 899.406 1030.05C899.518 1029.9 899.676 1029.77 899.882 1029.65C900.091 1029.53 900.372 1029.47 900.727 1029.47C901.187 1029.47 901.592 1029.59 901.942 1029.82C902.292 1030.05 902.566 1030.37 902.762 1030.8C902.959 1031.22 903.057 1031.71 903.057 1032.29C903.057 1032.86 902.959 1033.37 902.762 1033.79C902.566 1034.21 902.294 1034.54 901.945 1034.77C901.597 1035 901.196 1035.11 900.742 1035.11C900.391 1035.11 900.111 1035.06 899.9 1034.94C899.689 1034.82 899.527 1034.69 899.414 1034.54C899.3 1034.39 899.212 1034.26 899.151 1034.16H899.08V1037.05H898.242ZM899.066 1032.27C899.066 1032.68 899.126 1033.05 899.247 1033.36C899.367 1033.68 899.544 1033.92 899.776 1034.1C900.008 1034.27 900.292 1034.36 900.628 1034.36C900.978 1034.36 901.271 1034.27 901.505 1034.08C901.742 1033.9 901.919 1033.65 902.038 1033.33C902.159 1033.01 902.219 1032.66 902.219 1032.27C902.219 1031.89 902.16 1031.54 902.041 1031.24C901.925 1030.93 901.749 1030.68 901.512 1030.5C901.278 1030.32 900.983 1030.23 900.628 1030.23C900.287 1030.23 900.001 1030.31 899.769 1030.49C899.537 1030.66 899.361 1030.9 899.243 1031.2C899.125 1031.51 899.066 1031.87 899.066 1032.27ZM904.335 1037.05V1029.55H905.145V1030.41H905.244C905.306 1030.32 905.391 1030.2 905.5 1030.05C905.611 1029.9 905.77 1029.77 905.976 1029.65C906.184 1029.53 906.466 1029.47 906.821 1029.47C907.28 1029.47 907.685 1029.59 908.036 1029.82C908.386 1030.05 908.66 1030.37 908.856 1030.8C909.052 1031.22 909.151 1031.71 909.151 1032.29C909.151 1032.86 909.052 1033.37 908.856 1033.79C908.66 1034.21 908.387 1034.54 908.039 1034.77C907.691 1035 907.29 1035.11 906.835 1035.11C906.485 1035.11 906.204 1035.06 905.994 1034.94C905.783 1034.82 905.621 1034.69 905.507 1034.54C905.394 1034.39 905.306 1034.26 905.244 1034.16H905.173V1037.05H904.335ZM905.159 1032.27C905.159 1032.68 905.22 1033.05 905.34 1033.36C905.461 1033.68 905.637 1033.92 905.869 1034.1C906.102 1034.27 906.386 1034.36 906.722 1034.36C907.072 1034.36 907.365 1034.27 907.599 1034.08C907.836 1033.9 908.013 1033.65 908.132 1033.33C908.252 1033.01 908.313 1032.66 908.313 1032.27C908.313 1031.89 908.253 1031.54 908.135 1031.24C908.019 1030.93 907.843 1030.68 907.606 1030.5C907.372 1030.32 907.077 1030.23 906.722 1030.23C906.381 1030.23 906.094 1030.31 905.862 1030.49C905.63 1030.66 905.455 1030.9 905.337 1031.2C905.218 1031.51 905.159 1031.87 905.159 1032.27ZM910.429 1037.05V1029.55H911.239V1030.41H911.338C911.4 1030.32 911.485 1030.2 911.594 1030.05C911.705 1029.9 911.864 1029.77 912.07 1029.65C912.278 1029.53 912.56 1029.47 912.915 1029.47C913.374 1029.47 913.779 1029.59 914.129 1029.82C914.48 1030.05 914.753 1030.37 914.95 1030.8C915.146 1031.22 915.244 1031.71 915.244 1032.29C915.244 1032.86 915.146 1033.37 914.95 1033.79C914.753 1034.21 914.481 1034.54 914.133 1034.77C913.785 1035 913.384 1035.11 912.929 1035.11C912.579 1035.11 912.298 1035.06 912.088 1034.94C911.877 1034.82 911.715 1034.69 911.601 1034.54C911.487 1034.39 911.4 1034.26 911.338 1034.16H911.267V1037.05H910.429ZM911.253 1032.27C911.253 1032.68 911.313 1033.05 911.434 1033.36C911.555 1033.68 911.731 1033.92 911.963 1034.1C912.195 1034.27 912.479 1034.36 912.816 1034.36C913.166 1034.36 913.458 1034.27 913.693 1034.08C913.929 1033.9 914.107 1033.65 914.225 1033.33C914.346 1033.01 914.406 1032.66 914.406 1032.27C914.406 1031.89 914.347 1031.54 914.229 1031.24C914.113 1030.93 913.936 1030.68 913.7 1030.5C913.465 1030.32 913.171 1030.23 912.816 1030.23C912.475 1030.23 912.188 1030.31 911.956 1030.49C911.724 1030.66 911.549 1030.9 911.431 1031.2C911.312 1031.51 911.253 1031.87 911.253 1032.27ZM917.134 1035.06C916.959 1035.06 916.808 1034.99 916.683 1034.87C916.557 1034.74 916.494 1034.59 916.494 1034.42C916.494 1034.24 916.557 1034.09 916.683 1033.97C916.808 1033.84 916.959 1033.78 917.134 1033.78C917.309 1033.78 917.459 1033.84 917.585 1033.97C917.71 1034.09 917.773 1034.24 917.773 1034.42C917.773 1034.53 917.743 1034.64 917.684 1034.74C917.627 1034.83 917.55 1034.91 917.453 1034.97C917.359 1035.03 917.252 1035.06 917.134 1035.06ZM919.888 1035.06C919.712 1035.06 919.562 1034.99 919.437 1034.87C919.311 1034.74 919.248 1034.59 919.248 1034.42C919.248 1034.24 919.311 1034.09 919.437 1033.97C919.562 1033.84 919.712 1033.78 919.888 1033.78C920.063 1033.78 920.213 1033.84 920.339 1033.97C920.464 1034.09 920.527 1034.24 920.527 1034.42C920.527 1034.53 920.497 1034.64 920.438 1034.74C920.381 1034.83 920.304 1034.91 920.207 1034.97C920.113 1035.03 920.006 1035.06 919.888 1035.06ZM922.642 1035.06C922.466 1035.06 922.316 1034.99 922.191 1034.87C922.065 1034.74 922.002 1034.59 922.002 1034.42C922.002 1034.24 922.065 1034.09 922.191 1033.97C922.316 1033.84 922.466 1033.78 922.642 1033.78C922.817 1033.78 922.967 1033.84 923.093 1033.97C923.218 1034.09 923.281 1034.24 923.281 1034.42C923.281 1034.53 923.251 1034.64 923.192 1034.74C923.135 1034.83 923.058 1034.91 922.961 1034.97C922.866 1035.03 922.76 1035.06 922.642 1035.06Z" fill="black"/>
<path d="M367 659.941C367.031 659.389 367.503 658.968 368.055 658.999L377.04 659.509C377.592 659.54 378.013 660.013 377.982 660.564C377.951 661.116 377.478 661.537 376.927 661.506L368.94 661.052L368.486 669.039C368.455 669.591 367.982 670.012 367.431 669.981C366.88 669.95 366.458 669.477 366.489 668.926L367 659.941ZM386.367 680.578L385.621 681.244L367.252 660.663L367.998 659.997L368.744 659.331L387.113 679.912L386.367 680.578Z" fill="black"/>
<path d="M394.003 691L392.341 685.545H393.222L394.401 689.722H394.457L395.622 685.545H396.517L397.668 689.707H397.724L398.903 685.545H399.784L398.122 691H397.298L396.105 686.81H396.02L394.827 691H394.003ZM401.73 687.719V691H400.892V683.727H401.73V686.398H401.801C401.929 686.116 402.121 685.892 402.376 685.727C402.634 685.558 402.978 685.474 403.406 685.474C403.778 685.474 404.103 685.549 404.383 685.698C404.662 685.845 404.879 686.071 405.033 686.376C405.189 686.679 405.267 687.065 405.267 687.534V691H404.429V687.591C404.429 687.158 404.317 686.823 404.092 686.586C403.869 686.347 403.56 686.227 403.165 686.227C402.89 686.227 402.644 686.285 402.426 686.401C402.211 686.517 402.04 686.687 401.915 686.909C401.792 687.132 401.73 687.402 401.73 687.719ZM408.405 691.128C408.06 691.128 407.746 691.063 407.464 690.933C407.183 690.8 406.959 690.609 406.793 690.361C406.627 690.11 406.545 689.807 406.545 689.452C406.545 689.139 406.606 688.886 406.729 688.692C406.852 688.495 407.017 688.341 407.223 688.23C407.429 688.119 407.656 688.036 407.905 687.982C408.156 687.925 408.408 687.88 408.661 687.847C408.992 687.804 409.261 687.772 409.467 687.751C409.675 687.727 409.827 687.688 409.922 687.634C410.019 687.579 410.067 687.484 410.067 687.349V687.321C410.067 686.971 409.971 686.698 409.78 686.504C409.59 686.31 409.303 686.213 408.917 686.213C408.517 686.213 408.203 686.301 407.976 686.476C407.748 686.651 407.589 686.838 407.496 687.037L406.701 686.753C406.843 686.421 407.032 686.163 407.269 685.979C407.508 685.792 407.769 685.661 408.05 685.588C408.334 685.512 408.614 685.474 408.888 685.474C409.064 685.474 409.265 685.496 409.492 685.538C409.722 685.579 409.943 685.663 410.156 685.79C410.372 685.918 410.55 686.111 410.692 686.369C410.834 686.627 410.905 686.973 410.905 687.406V691H410.067V690.261H410.025C409.968 690.38 409.873 690.506 409.741 690.641C409.608 690.776 409.432 690.891 409.211 690.986C408.991 691.08 408.723 691.128 408.405 691.128ZM408.533 690.375C408.865 690.375 409.144 690.31 409.371 690.18C409.601 690.049 409.774 689.881 409.89 689.675C410.008 689.469 410.067 689.253 410.067 689.026V688.259C410.032 688.301 409.954 688.34 409.833 688.376C409.715 688.409 409.577 688.438 409.421 688.464C409.267 688.488 409.117 688.509 408.97 688.528C408.826 688.545 408.708 688.559 408.618 688.571C408.401 688.599 408.197 688.646 408.008 688.71C407.821 688.771 407.669 688.865 407.553 688.99C407.439 689.113 407.383 689.281 407.383 689.494C407.383 689.786 407.49 690.006 407.706 690.155C407.924 690.302 408.199 690.375 408.533 690.375ZM414.807 685.545V686.256H411.98V685.545H414.807ZM412.804 684.239H413.642V689.438C413.642 689.674 413.677 689.852 413.745 689.97C413.816 690.086 413.906 690.164 414.015 690.205C414.127 690.242 414.244 690.261 414.367 690.261C414.459 690.261 414.535 690.257 414.594 690.247C414.653 690.235 414.701 690.226 414.736 690.219L414.907 690.972C414.85 690.993 414.77 691.014 414.669 691.036C414.567 691.059 414.438 691.071 414.282 691.071C414.045 691.071 413.813 691.02 413.586 690.918C413.361 690.817 413.174 690.661 413.025 690.453C412.878 690.245 412.804 689.982 412.804 689.665V684.239ZM420.116 691L418.454 685.545H419.335L420.514 689.722H420.571L421.735 685.545H422.63L423.781 689.707H423.838L425.017 685.545H425.897L424.235 691H423.412L422.218 686.81H422.133L420.94 691H420.116ZM428.61 691.128C428.265 691.128 427.951 691.063 427.669 690.933C427.388 690.8 427.164 690.609 426.998 690.361C426.833 690.11 426.75 689.807 426.75 689.452C426.75 689.139 426.811 688.886 426.934 688.692C427.057 688.495 427.222 688.341 427.428 688.23C427.634 688.119 427.861 688.036 428.11 687.982C428.361 687.925 428.613 687.88 428.866 687.847C429.198 687.804 429.466 687.772 429.672 687.751C429.881 687.727 430.032 687.688 430.127 687.634C430.224 687.579 430.272 687.484 430.272 687.349V687.321C430.272 686.971 430.176 686.698 429.985 686.504C429.795 686.31 429.508 686.213 429.122 686.213C428.722 686.213 428.408 686.301 428.181 686.476C427.953 686.651 427.794 686.838 427.701 687.037L426.906 686.753C427.048 686.421 427.237 686.163 427.474 685.979C427.713 685.792 427.974 685.661 428.255 685.588C428.539 685.512 428.819 685.474 429.093 685.474C429.269 685.474 429.47 685.496 429.697 685.538C429.927 685.579 430.148 685.663 430.361 685.79C430.577 685.918 430.755 686.111 430.897 686.369C431.039 686.627 431.11 686.973 431.11 687.406V691H430.272V690.261H430.23C430.173 690.38 430.078 690.506 429.946 690.641C429.813 690.776 429.637 690.891 429.417 690.986C429.196 691.08 428.928 691.128 428.61 691.128ZM428.738 690.375C429.07 690.375 429.349 690.31 429.576 690.18C429.806 690.049 429.979 689.881 430.095 689.675C430.213 689.469 430.272 689.253 430.272 689.026V688.259C430.237 688.301 430.159 688.34 430.038 688.376C429.92 688.409 429.782 688.438 429.626 688.464C429.472 688.488 429.322 688.509 429.175 688.528C429.031 688.545 428.913 688.559 428.824 688.571C428.606 688.599 428.402 688.646 428.213 688.71C428.026 688.771 427.874 688.865 427.758 688.99C427.645 689.113 427.588 689.281 427.588 689.494C427.588 689.786 427.695 690.006 427.911 690.155C428.129 690.302 428.404 690.375 428.738 690.375ZM436.504 686.767L435.751 686.98C435.704 686.855 435.634 686.733 435.541 686.614C435.451 686.494 435.328 686.394 435.172 686.316C435.016 686.238 434.816 686.199 434.572 686.199C434.238 686.199 433.96 686.276 433.737 686.43C433.517 686.581 433.407 686.774 433.407 687.009C433.407 687.217 433.483 687.381 433.634 687.502C433.786 687.623 434.023 687.723 434.345 687.804L435.154 688.003C435.642 688.121 436.005 688.302 436.244 688.546C436.484 688.788 436.603 689.099 436.603 689.48C436.603 689.793 436.513 690.072 436.333 690.318C436.156 690.564 435.907 690.759 435.588 690.901C435.268 691.043 434.896 691.114 434.472 691.114C433.916 691.114 433.456 690.993 433.091 690.751C432.727 690.51 432.496 690.157 432.399 689.693L433.194 689.494C433.27 689.788 433.413 690.008 433.624 690.155C433.837 690.302 434.115 690.375 434.458 690.375C434.849 690.375 435.159 690.292 435.389 690.126C435.621 689.958 435.737 689.757 435.737 689.523C435.737 689.333 435.67 689.175 435.538 689.047C435.405 688.917 435.202 688.82 434.927 688.756L434.018 688.543C433.518 688.424 433.151 688.241 432.917 687.992C432.685 687.741 432.569 687.428 432.569 687.051C432.569 686.743 432.655 686.471 432.828 686.234C433.003 685.998 433.241 685.812 433.542 685.677C433.845 685.542 434.188 685.474 434.572 685.474C435.112 685.474 435.535 685.593 435.843 685.83C436.153 686.066 436.374 686.379 436.504 686.767ZM440.677 691V685.545H441.515V691H440.677ZM441.103 684.636C440.94 684.636 440.799 684.581 440.681 684.469C440.565 684.358 440.507 684.224 440.507 684.068C440.507 683.912 440.565 683.778 440.681 683.667C440.799 683.556 440.94 683.5 441.103 683.5C441.267 683.5 441.406 683.556 441.522 683.667C441.641 683.778 441.7 683.912 441.7 684.068C441.7 684.224 441.641 684.358 441.522 684.469C441.406 684.581 441.267 684.636 441.103 684.636ZM445.422 685.545V686.256H442.596V685.545H445.422ZM443.42 684.239H444.258V689.438C444.258 689.674 444.292 689.852 444.361 689.97C444.432 690.086 444.522 690.164 444.631 690.205C444.742 690.242 444.859 690.261 444.982 690.261C445.074 690.261 445.15 690.257 445.209 690.247C445.269 690.235 445.316 690.226 445.351 690.219L445.522 690.972C445.465 690.993 445.386 691.014 445.284 691.036C445.182 691.059 445.053 691.071 444.897 691.071C444.66 691.071 444.428 691.02 444.201 690.918C443.976 690.817 443.789 690.661 443.64 690.453C443.493 690.245 443.42 689.982 443.42 689.665V684.239ZM447.777 688.955V688.912C447.782 688.46 447.829 688.1 447.919 687.832C448.009 687.565 448.137 687.348 448.302 687.183C448.468 687.017 448.667 686.864 448.899 686.724C449.039 686.639 449.164 686.539 449.275 686.423C449.387 686.304 449.474 686.168 449.538 686.014C449.604 685.86 449.638 685.69 449.638 685.503C449.638 685.271 449.583 685.07 449.474 684.899C449.365 684.729 449.22 684.597 449.037 684.505C448.855 684.413 448.653 684.366 448.43 684.366C448.236 684.366 448.049 684.407 447.869 684.487C447.689 684.568 447.539 684.694 447.418 684.867C447.297 685.04 447.228 685.266 447.209 685.545H446.314C446.333 685.143 446.437 684.799 446.626 684.512C446.818 684.226 447.07 684.007 447.383 683.855C447.698 683.704 448.047 683.628 448.43 683.628C448.847 683.628 449.209 683.711 449.517 683.876C449.827 684.042 450.066 684.269 450.234 684.558C450.405 684.847 450.49 685.176 450.49 685.545C450.49 685.806 450.45 686.041 450.369 686.252C450.291 686.463 450.177 686.651 450.028 686.817C449.881 686.982 449.704 687.129 449.496 687.257C449.287 687.387 449.12 687.525 448.995 687.669C448.869 687.811 448.778 687.98 448.721 688.177C448.665 688.373 448.634 688.618 448.629 688.912V688.955H447.777ZM448.231 691.057C448.056 691.057 447.906 690.994 447.78 690.869C447.655 690.743 447.592 690.593 447.592 690.418C447.592 690.242 447.655 690.092 447.78 689.967C447.906 689.841 448.056 689.778 448.231 689.778C448.407 689.778 448.557 689.841 448.682 689.967C448.808 690.092 448.871 690.242 448.871 690.418C448.871 690.534 448.841 690.64 448.782 690.737C448.725 690.834 448.648 690.912 448.551 690.972C448.456 691.028 448.35 691.057 448.231 691.057ZM452.845 688.955V688.912C452.85 688.46 452.897 688.1 452.987 687.832C453.077 687.565 453.205 687.348 453.371 687.183C453.536 687.017 453.735 686.864 453.967 686.724C454.107 686.639 454.232 686.539 454.344 686.423C454.455 686.304 454.543 686.168 454.607 686.014C454.673 685.86 454.706 685.69 454.706 685.503C454.706 685.271 454.652 685.07 454.543 684.899C454.434 684.729 454.288 684.597 454.106 684.505C453.924 684.413 453.721 684.366 453.499 684.366C453.304 684.366 453.117 684.407 452.938 684.487C452.758 684.568 452.607 684.694 452.487 684.867C452.366 685.04 452.296 685.266 452.277 685.545H451.382C451.401 685.143 451.505 684.799 451.695 684.512C451.886 684.226 452.138 684.007 452.451 683.855C452.766 683.704 453.115 683.628 453.499 683.628C453.915 683.628 454.277 683.711 454.585 683.876C454.895 684.042 455.134 684.269 455.303 684.558C455.473 684.847 455.558 685.176 455.558 685.545C455.558 685.806 455.518 686.041 455.438 686.252C455.359 686.463 455.246 686.651 455.097 686.817C454.95 686.982 454.772 687.129 454.564 687.257C454.356 687.387 454.189 687.525 454.063 687.669C453.938 687.811 453.847 687.98 453.79 688.177C453.733 688.373 453.702 688.618 453.697 688.912V688.955H452.845ZM453.3 691.057C453.125 691.057 452.974 690.994 452.849 690.869C452.723 690.743 452.661 690.593 452.661 690.418C452.661 690.242 452.723 690.092 452.849 689.967C452.974 689.841 453.125 689.778 453.3 689.778C453.475 689.778 453.625 689.841 453.751 689.967C453.876 690.092 453.939 690.242 453.939 690.418C453.939 690.534 453.909 690.64 453.85 690.737C453.793 690.834 453.716 690.912 453.619 690.972C453.525 691.028 453.418 691.057 453.3 691.057Z" fill="black"/>
<path d="M479 108.233H473.545V107.395H479V108.233ZM472.636 107.807C472.636 107.97 472.581 108.111 472.469 108.229C472.358 108.345 472.224 108.403 472.068 108.403C471.912 108.403 471.778 108.345 471.667 108.229C471.556 108.111 471.5 107.97 471.5 107.807C471.5 107.643 471.556 107.504 471.667 107.388C471.778 107.269 471.912 107.21 472.068 107.21C472.224 107.21 472.358 107.269 472.469 107.388C472.581 107.504 472.636 107.643 472.636 107.807ZM473.545 100.675H474.256V103.502H473.545V100.675ZM472.239 102.678V101.84H477.438C477.674 101.84 477.852 101.806 477.97 101.737C478.086 101.666 478.164 101.576 478.205 101.467C478.242 101.356 478.261 101.239 478.261 101.116C478.261 101.023 478.257 100.948 478.247 100.888C478.235 100.829 478.226 100.782 478.219 100.746L478.972 100.576C478.993 100.633 479.014 100.712 479.036 100.814C479.059 100.916 479.071 101.045 479.071 101.201C479.071 101.438 479.02 101.67 478.918 101.897C478.817 102.122 478.661 102.309 478.453 102.458C478.245 102.605 477.982 102.678 477.665 102.678H472.239ZM475.719 98.4593H479V99.2974H471.727V98.4593H474.398V98.3883C474.116 98.2605 473.892 98.0687 473.727 97.813C473.558 97.555 473.474 97.2117 473.474 96.7832C473.474 96.4115 473.549 96.086 473.698 95.8066C473.845 95.5273 474.071 95.3107 474.376 95.1568C474.679 95.0005 475.065 94.9224 475.534 94.9224H479V95.7605H475.591C475.158 95.7605 474.823 95.8729 474.586 96.0978C474.347 96.3204 474.227 96.6293 474.227 97.0247C474.227 97.2993 474.285 97.5455 474.401 97.7633C474.517 97.9788 474.687 98.1492 474.909 98.2747C475.132 98.3978 475.402 98.4593 475.719 98.4593ZM479 93.3892H473.545V92.5511H479V93.3892ZM472.636 92.9631C472.636 93.1264 472.581 93.2673 472.469 93.3857C472.358 93.5017 472.224 93.5597 472.068 93.5597C471.912 93.5597 471.778 93.5017 471.667 93.3857C471.556 93.2673 471.5 93.1264 471.5 92.9631C471.5 92.7997 471.556 92.66 471.667 92.544C471.778 92.4257 471.912 92.3665 472.068 92.3665C472.224 92.3665 472.358 92.4257 472.469 92.544C472.581 92.66 472.636 92.7997 472.636 92.9631ZM475.719 90.1781H479V91.0162H473.545V90.2065H474.398V90.1355C474.121 90.0076 473.898 89.8135 473.73 89.5531C473.56 89.2927 473.474 88.9565 473.474 88.5446C473.474 88.1752 473.55 87.8521 473.702 87.5751C473.851 87.2981 474.078 87.0827 474.384 86.9288C474.687 86.7749 475.07 86.698 475.534 86.698H479V87.536H475.591C475.162 87.536 474.829 87.6473 474.589 87.8699C474.348 88.0924 474.227 88.3978 474.227 88.786C474.227 89.0536 474.285 89.2927 474.401 89.5034C474.517 89.7117 474.687 89.8762 474.909 89.997C475.132 90.1177 475.402 90.1781 475.719 90.1781ZM477.011 84.3853L475.974 84.3995V84.229L473.545 81.8427V80.8058L476.116 83.3484V83.4194L477.011 84.3853ZM479 85.1665H471.727V84.3285H479V85.1665ZM479 81.7006L476.301 83.8313L475.719 83.2347L479 80.6353V81.7006ZM475.719 76.0765H479V76.9146H471.727V76.0765H474.398V76.0055C474.116 75.8777 473.892 75.6859 473.727 75.4302C473.558 75.1722 473.474 74.8289 473.474 74.4004C473.474 74.0287 473.549 73.7032 473.698 73.4238C473.845 73.1445 474.071 72.9279 474.376 72.774C474.679 72.6177 475.065 72.5396 475.534 72.5396H479V73.3777H475.591C475.158 73.3777 474.823 73.4901 474.586 73.715C474.347 73.9376 474.227 74.2465 474.227 74.6419C474.227 74.9165 474.285 75.1627 474.401 75.3805C474.517 75.5959 474.687 75.7664 474.909 75.8919C475.132 76.015 475.402 76.0765 475.719 76.0765ZM479.114 68.7195C479.114 69.245 478.998 69.6984 478.766 70.0795C478.531 70.4583 478.205 70.7507 477.786 70.9567C477.364 71.1603 476.874 71.2621 476.315 71.2621C475.757 71.2621 475.264 71.1603 474.838 70.9567C474.41 70.7507 474.076 70.4643 473.837 70.0973C473.595 69.728 473.474 69.2971 473.474 68.8047C473.474 68.5206 473.522 68.2401 473.616 67.9631C473.711 67.6861 473.865 67.4339 474.078 67.2067C474.289 66.9794 474.568 66.7983 474.916 66.6634C475.264 66.5284 475.693 66.4609 476.202 66.4609H476.557V70.6655H475.832V67.3132C475.525 67.3132 475.25 67.3748 475.009 67.4979C474.767 67.6186 474.576 67.7914 474.437 68.0163C474.297 68.2389 474.227 68.5017 474.227 68.8047C474.227 69.1385 474.31 69.4273 474.476 69.6712C474.639 69.9126 474.852 70.0985 475.115 70.2287C475.378 70.3589 475.66 70.424 475.96 70.424H476.443C476.855 70.424 477.204 70.353 477.491 70.2109C477.775 70.0665 477.991 69.8665 478.141 69.6108C478.287 69.3551 478.361 69.058 478.361 68.7195C478.361 68.4993 478.33 68.3004 478.268 68.1229C478.205 67.9429 478.11 67.7879 477.984 67.6577C477.857 67.5275 477.698 67.4268 477.509 67.3558L477.736 66.5462C478.01 66.6314 478.252 66.7746 478.46 66.9759C478.666 67.1771 478.827 67.4257 478.943 67.7216C479.057 68.0175 479.114 68.3501 479.114 68.7195ZM471.727 61.5355H479V62.3736H471.727V61.5355ZM479 60.0005H473.545V59.1625H479V60.0005ZM472.636 59.5744C472.636 59.7377 472.581 59.8786 472.469 59.997C472.358 60.113 472.224 60.171 472.068 60.171C471.912 60.171 471.778 60.113 471.667 59.997C471.556 59.8786 471.5 59.7377 471.5 59.5744C471.5 59.411 471.556 59.2714 471.667 59.1554C471.778 59.037 471.912 58.9778 472.068 58.9778C472.224 58.9778 472.358 59.037 472.469 59.1554C472.581 59.2714 472.636 59.411 472.636 59.5744ZM477.011 56.8462L475.974 56.8604V56.69L473.545 54.3036V53.2667L476.116 55.8093V55.8803L477.011 56.8462ZM479 57.6275H471.727V56.7894H479V57.6275ZM479 54.1616L476.301 56.2923L475.719 55.6957L479 53.0962V54.1616ZM479.114 50.1257C479.114 50.6513 478.998 51.1046 478.766 51.4858C478.531 51.8646 478.205 52.157 477.786 52.3629C477.364 52.5665 476.874 52.6683 476.315 52.6683C475.757 52.6683 475.264 52.5665 474.838 52.3629C474.41 52.157 474.076 51.8705 473.837 51.5036C473.595 51.1342 473.474 50.7034 473.474 50.2109C473.474 49.9268 473.522 49.6463 473.616 49.3693C473.711 49.0923 473.865 48.8402 474.078 48.6129C474.289 48.3857 474.568 48.2045 474.916 48.0696C475.264 47.9347 475.693 47.8672 476.202 47.8672H476.557V52.0717H475.832V48.7195C475.525 48.7195 475.25 48.781 475.009 48.9041C474.767 49.0249 474.576 49.1977 474.437 49.4226C474.297 49.6451 474.227 49.9079 474.227 50.2109C474.227 50.5447 474.31 50.8336 474.476 51.0774C474.639 51.3189 474.852 51.5047 475.115 51.6349C475.378 51.7652 475.66 51.8303 475.96 51.8303H476.443C476.855 51.8303 477.204 51.7592 477.491 51.6172C477.775 51.4728 477.991 51.2727 478.141 51.017C478.287 50.7614 478.361 50.4643 478.361 50.1257C478.361 49.9055 478.33 49.7067 478.268 49.5291C478.205 49.3492 478.11 49.1941 477.984 49.0639C477.857 48.9337 477.698 48.8331 477.509 48.7621L477.736 47.9524C478.01 48.0376 478.252 48.1809 478.46 48.3821C478.666 48.5833 478.827 48.8319 478.943 49.1278C479.057 49.4238 479.114 49.7564 479.114 50.1257ZM474.767 42.7287L474.98 43.4815C474.855 43.5289 474.733 43.5987 474.614 43.6911C474.494 43.781 474.394 43.9041 474.316 44.0604C474.238 44.2166 474.199 44.4167 474.199 44.6605C474.199 44.9943 474.276 45.2725 474.43 45.495C474.581 45.7152 474.774 45.8253 475.009 45.8253C475.217 45.8253 475.381 45.7495 475.502 45.598C475.623 45.4465 475.723 45.2098 475.804 44.8878L476.003 44.0781C476.121 43.5904 476.302 43.227 476.546 42.9879C476.788 42.7488 477.099 42.6293 477.48 42.6293C477.793 42.6293 478.072 42.7192 478.318 42.8991C478.564 43.0767 478.759 43.3253 478.901 43.6449C479.043 43.9645 479.114 44.3362 479.114 44.7599C479.114 45.3163 478.993 45.7768 478.751 46.1413C478.51 46.5059 478.157 46.7367 477.693 46.8338L477.494 46.0384C477.788 45.9626 478.008 45.8194 478.155 45.6087C478.302 45.3956 478.375 45.1174 478.375 44.7741C478.375 44.3835 478.292 44.0734 478.126 43.8438C477.958 43.6117 477.757 43.4957 477.523 43.4957C477.333 43.4957 477.175 43.562 477.047 43.6946C476.917 43.8272 476.82 44.0308 476.756 44.3054L476.543 45.2145C476.424 45.714 476.241 46.081 475.992 46.3153C475.741 46.5473 475.428 46.6634 475.051 46.6634C474.743 46.6634 474.471 46.5769 474.234 46.4041C473.998 46.2289 473.812 45.991 473.677 45.6903C473.542 45.3873 473.474 45.044 473.474 44.6605C473.474 44.1207 473.593 43.697 473.83 43.3892C474.066 43.0791 474.379 42.8589 474.767 42.7287ZM479 38.5552H473.545V37.7456H474.398V37.6745C474.107 37.5609 473.88 37.3774 473.719 37.1241C473.556 36.8708 473.474 36.5666 473.474 36.2115C473.474 35.8516 473.556 35.5521 473.719 35.313C473.88 35.0716 474.107 34.8833 474.398 34.7484V34.6916C474.116 34.5519 473.892 34.3424 473.727 34.063C473.558 33.7837 473.474 33.4487 473.474 33.0581C473.474 32.5704 473.627 32.1715 473.933 31.8613C474.236 31.5512 474.708 31.3961 475.349 31.3961H479V32.2342H475.349C474.947 32.2342 474.659 32.3443 474.487 32.5645C474.314 32.7846 474.227 33.0439 474.227 33.3422C474.227 33.7257 474.343 34.0228 474.575 34.2335C474.805 34.4442 475.096 34.5495 475.449 34.5495H479V35.4018H475.264C474.954 35.4018 474.704 35.5024 474.515 35.7037C474.323 35.9049 474.227 36.1641 474.227 36.4814C474.227 36.6992 474.285 36.9028 474.401 37.0922C474.517 37.2792 474.678 37.4307 474.884 37.5467C475.088 37.6603 475.323 37.7172 475.591 37.7172H479V38.5552ZM479.114 27.5769C479.114 28.1025 478.998 28.5558 478.766 28.937C478.531 29.3158 478.205 29.6081 477.786 29.8141C477.364 30.0177 476.874 30.1195 476.315 30.1195C475.757 30.1195 475.264 30.0177 474.838 29.8141C474.41 29.6081 474.076 29.3217 473.837 28.9547C473.595 28.5854 473.474 28.1545 473.474 27.6621C473.474 27.378 473.522 27.0975 473.616 26.8205C473.711 26.5435 473.865 26.2914 474.078 26.0641C474.289 25.8368 474.568 25.6557 474.916 25.5208C475.264 25.3858 475.693 25.3184 476.202 25.3184H476.557V29.5229H475.832V26.1706C475.525 26.1706 475.25 26.2322 475.009 26.3553C474.767 26.476 474.576 26.6489 474.437 26.8738C474.297 27.0963 474.227 27.3591 474.227 27.6621C474.227 27.9959 474.31 28.2847 474.476 28.5286C474.639 28.7701 474.852 28.9559 475.115 29.0861C475.378 29.2163 475.66 29.2814 475.96 29.2814H476.443C476.855 29.2814 477.204 29.2104 477.491 29.0684C477.775 28.9239 477.991 28.7239 478.141 28.4682C478.287 28.2125 478.361 27.9154 478.361 27.5769C478.361 27.3567 478.33 27.1578 478.268 26.9803C478.205 26.8004 478.11 26.6453 477.984 26.5151C477.857 26.3849 477.698 26.2843 477.509 26.2132L477.736 25.4036C478.01 25.4888 478.252 25.632 478.46 25.8333C478.666 26.0345 478.827 26.2831 478.943 26.579C479.057 26.8749 479.114 27.2076 479.114 27.5769Z" fill="black"/>
<path d="M895.011 2799.45L893.974 2799.47V2799.3L891.545 2796.91V2795.87L894.116 2798.41V2798.49L895.011 2799.45ZM897 2800.23H889.727V2799.39H897V2800.23ZM897 2796.77L894.301 2798.9L893.719 2798.3L897 2795.7V2796.77ZM897 2794.79H891.545V2793.96H897V2794.79ZM890.636 2794.37C890.636 2794.53 890.581 2794.67 890.469 2794.79C890.358 2794.91 890.224 2794.96 890.068 2794.96C889.912 2794.96 889.778 2794.91 889.667 2794.79C889.556 2794.67 889.5 2794.53 889.5 2794.37C889.5 2794.2 889.556 2794.06 889.667 2793.95C889.778 2793.83 889.912 2793.77 890.068 2793.77C890.224 2793.77 890.358 2793.83 890.469 2793.95C890.581 2794.06 890.636 2794.2 890.636 2794.37ZM892.767 2788.56L892.98 2789.31C892.855 2789.36 892.733 2789.43 892.614 2789.52C892.494 2789.61 892.394 2789.73 892.316 2789.89C892.238 2790.04 892.199 2790.24 892.199 2790.49C892.199 2790.82 892.276 2791.1 892.43 2791.32C892.581 2791.54 892.774 2791.65 893.009 2791.65C893.217 2791.65 893.381 2791.58 893.502 2791.43C893.623 2791.27 893.723 2791.04 893.804 2790.72L894.003 2789.91C894.121 2789.42 894.302 2789.06 894.546 2788.82C894.788 2788.58 895.099 2788.46 895.48 2788.46C895.793 2788.46 896.072 2788.55 896.318 2788.73C896.564 2788.9 896.759 2789.15 896.901 2789.47C897.043 2789.79 897.114 2790.16 897.114 2790.59C897.114 2791.14 896.993 2791.6 896.751 2791.97C896.51 2792.33 896.157 2792.56 895.693 2792.66L895.494 2791.87C895.788 2791.79 896.008 2791.65 896.155 2791.44C896.302 2791.22 896.375 2790.95 896.375 2790.6C896.375 2790.21 896.292 2789.9 896.126 2789.67C895.958 2789.44 895.757 2789.32 895.523 2789.32C895.333 2789.32 895.175 2789.39 895.047 2789.52C894.917 2789.66 894.82 2789.86 894.756 2790.13L894.543 2791.04C894.424 2791.54 894.241 2791.91 893.992 2792.14C893.741 2792.38 893.428 2792.49 893.051 2792.49C892.743 2792.49 892.471 2792.41 892.234 2792.23C891.998 2792.06 891.812 2791.82 891.677 2791.52C891.542 2791.22 891.474 2790.87 891.474 2790.49C891.474 2789.95 891.593 2789.53 891.83 2789.22C892.066 2788.91 892.379 2788.69 892.767 2788.56ZM892.767 2783.33L892.98 2784.09C892.855 2784.13 892.733 2784.2 892.614 2784.29C892.494 2784.38 892.394 2784.51 892.316 2784.66C892.238 2784.82 892.199 2785.02 892.199 2785.26C892.199 2785.6 892.276 2785.88 892.43 2786.1C892.581 2786.32 892.774 2786.43 893.009 2786.43C893.217 2786.43 893.381 2786.35 893.502 2786.2C893.623 2786.05 893.723 2785.81 893.804 2785.49L894.003 2784.68C894.121 2784.19 894.302 2783.83 894.546 2783.59C894.788 2783.35 895.099 2783.23 895.48 2783.23C895.793 2783.23 896.072 2783.32 896.318 2783.5C896.564 2783.68 896.759 2783.93 896.901 2784.25C897.043 2784.57 897.114 2784.94 897.114 2785.36C897.114 2785.92 896.993 2786.38 896.751 2786.74C896.51 2787.11 896.157 2787.34 895.693 2787.44L895.494 2786.64C895.788 2786.57 896.008 2786.42 896.155 2786.21C896.302 2786 896.375 2785.72 896.375 2785.38C896.375 2784.99 896.292 2784.68 896.126 2784.45C895.958 2784.22 895.757 2784.1 895.523 2784.1C895.333 2784.1 895.175 2784.17 895.047 2784.3C894.917 2784.43 894.82 2784.63 894.756 2784.91L894.543 2785.82C894.424 2786.32 894.241 2786.68 893.992 2786.92C893.741 2787.15 893.428 2787.27 893.051 2787.27C892.743 2787.27 892.471 2787.18 892.234 2787.01C891.998 2786.83 891.812 2786.59 891.677 2786.29C891.542 2785.99 891.474 2785.65 891.474 2785.26C891.474 2784.72 891.593 2784.3 891.83 2783.99C892.066 2783.68 892.379 2783.46 892.767 2783.33ZM889.727 2780.86L894.955 2780.93V2781.76L889.727 2781.83V2780.86ZM897.057 2781.35C897.057 2781.52 896.994 2781.67 896.869 2781.8C896.743 2781.92 896.593 2781.99 896.418 2781.99C896.242 2781.99 896.092 2781.92 895.967 2781.8C895.841 2781.67 895.778 2781.52 895.778 2781.35C895.778 2781.17 895.841 2781.02 895.967 2780.9C896.092 2780.77 896.242 2780.71 896.418 2780.71C896.534 2780.71 896.64 2780.74 896.737 2780.8C896.834 2780.85 896.912 2780.93 896.972 2781.03C897.028 2781.12 897.057 2781.23 897.057 2781.35Z" fill="black"/>
<path d="M1365 917L1363.34 911.545H1364.22L1365.4 915.722H1365.46L1366.62 911.545H1367.52L1368.67 915.707H1368.72L1369.9 911.545H1370.78L1369.12 917H1368.3L1367.11 912.81H1367.02L1365.83 917H1365ZM1372.73 913.719V917H1371.89V909.727H1372.73V912.398H1372.8C1372.93 912.116 1373.12 911.892 1373.38 911.727C1373.63 911.558 1373.98 911.474 1374.41 911.474C1374.78 911.474 1375.1 911.549 1375.38 911.698C1375.66 911.845 1375.88 912.071 1376.03 912.376C1376.19 912.679 1376.27 913.065 1376.27 913.534V917H1375.43V913.591C1375.43 913.158 1375.32 912.823 1375.09 912.586C1374.87 912.347 1374.56 912.227 1374.16 912.227C1373.89 912.227 1373.64 912.285 1373.43 912.401C1373.21 912.517 1373.04 912.687 1372.91 912.909C1372.79 913.132 1372.73 913.402 1372.73 913.719ZM1379.41 917.128C1379.06 917.128 1378.75 917.063 1378.46 916.933C1378.18 916.8 1377.96 916.609 1377.79 916.361C1377.63 916.11 1377.54 915.807 1377.54 915.452C1377.54 915.139 1377.61 914.886 1377.73 914.692C1377.85 914.495 1378.02 914.341 1378.22 914.23C1378.43 914.119 1378.66 914.036 1378.9 913.982C1379.16 913.925 1379.41 913.88 1379.66 913.847C1379.99 913.804 1380.26 913.772 1380.47 913.751C1380.68 913.727 1380.83 913.688 1380.92 913.634C1381.02 913.579 1381.07 913.484 1381.07 913.349V913.321C1381.07 912.971 1380.97 912.698 1380.78 912.504C1380.59 912.31 1380.3 912.213 1379.92 912.213C1379.52 912.213 1379.2 912.301 1378.98 912.476C1378.75 912.651 1378.59 912.838 1378.5 913.037L1377.7 912.753C1377.84 912.421 1378.03 912.163 1378.27 911.979C1378.51 911.792 1378.77 911.661 1379.05 911.588C1379.33 911.512 1379.61 911.474 1379.89 911.474C1380.06 911.474 1380.26 911.496 1380.49 911.538C1380.72 911.579 1380.94 911.663 1381.16 911.79C1381.37 911.918 1381.55 912.111 1381.69 912.369C1381.83 912.627 1381.91 912.973 1381.91 913.406V917H1381.07V916.261H1381.02C1380.97 916.38 1380.87 916.506 1380.74 916.641C1380.61 916.776 1380.43 916.891 1380.21 916.986C1379.99 917.08 1379.72 917.128 1379.41 917.128ZM1379.53 916.375C1379.86 916.375 1380.14 916.31 1380.37 916.18C1380.6 916.049 1380.77 915.881 1380.89 915.675C1381.01 915.469 1381.07 915.253 1381.07 915.026V914.259C1381.03 914.301 1380.95 914.34 1380.83 914.376C1380.71 914.409 1380.58 914.438 1380.42 914.464C1380.27 914.488 1380.12 914.509 1379.97 914.528C1379.83 914.545 1379.71 914.559 1379.62 914.571C1379.4 914.599 1379.2 914.646 1379.01 914.71C1378.82 914.771 1378.67 914.865 1378.55 914.99C1378.44 915.113 1378.38 915.281 1378.38 915.494C1378.38 915.786 1378.49 916.006 1378.71 916.155C1378.92 916.302 1379.2 916.375 1379.53 916.375ZM1385.81 911.545V912.256H1382.98V911.545H1385.81ZM1383.8 910.239H1384.64V915.438C1384.64 915.674 1384.68 915.852 1384.75 915.97C1384.82 916.086 1384.91 916.164 1385.02 916.205C1385.13 916.242 1385.24 916.261 1385.37 916.261C1385.46 916.261 1385.53 916.257 1385.59 916.247C1385.65 916.235 1385.7 916.226 1385.74 916.219L1385.91 916.972C1385.85 916.993 1385.77 917.014 1385.67 917.036C1385.57 917.059 1385.44 917.071 1385.28 917.071C1385.04 917.071 1384.81 917.02 1384.59 916.918C1384.36 916.817 1384.17 916.661 1384.02 916.453C1383.88 916.245 1383.8 915.982 1383.8 915.665V910.239ZM1391.49 917.128C1391.14 917.128 1390.83 917.063 1390.54 916.933C1390.26 916.8 1390.04 916.609 1389.87 916.361C1389.71 916.11 1389.62 915.807 1389.62 915.452C1389.62 915.139 1389.69 914.886 1389.81 914.692C1389.93 914.495 1390.1 914.341 1390.3 914.23C1390.51 914.119 1390.74 914.036 1390.98 913.982C1391.24 913.925 1391.49 913.88 1391.74 913.847C1392.07 913.804 1392.34 913.772 1392.55 913.751C1392.76 913.727 1392.91 913.688 1393 913.634C1393.1 913.579 1393.15 913.484 1393.15 913.349V913.321C1393.15 912.971 1393.05 912.698 1392.86 912.504C1392.67 912.31 1392.38 912.213 1392 912.213C1391.6 912.213 1391.28 912.301 1391.06 912.476C1390.83 912.651 1390.67 912.838 1390.58 913.037L1389.78 912.753C1389.92 912.421 1390.11 912.163 1390.35 911.979C1390.59 911.792 1390.85 911.661 1391.13 911.588C1391.41 911.512 1391.69 911.474 1391.97 911.474C1392.14 911.474 1392.34 911.496 1392.57 911.538C1392.8 911.579 1393.02 911.663 1393.24 911.79C1393.45 911.918 1393.63 912.111 1393.77 912.369C1393.91 912.627 1393.99 912.973 1393.99 913.406V917H1393.15V916.261H1393.1C1393.05 916.38 1392.95 916.506 1392.82 916.641C1392.69 916.776 1392.51 916.891 1392.29 916.986C1392.07 917.08 1391.8 917.128 1391.49 917.128ZM1391.61 916.375C1391.94 916.375 1392.22 916.31 1392.45 916.18C1392.68 916.049 1392.85 915.881 1392.97 915.675C1393.09 915.469 1393.15 915.253 1393.15 915.026V914.259C1393.11 914.301 1393.03 914.34 1392.91 914.376C1392.79 914.409 1392.66 914.438 1392.5 914.464C1392.35 914.488 1392.2 914.509 1392.05 914.528C1391.91 914.545 1391.79 914.559 1391.7 914.571C1391.48 914.599 1391.28 914.646 1391.09 914.71C1390.9 914.771 1390.75 914.865 1390.63 914.99C1390.52 915.113 1390.46 915.281 1390.46 915.494C1390.46 915.786 1390.57 916.006 1390.79 916.155C1391 916.302 1391.28 916.375 1391.61 916.375ZM1399.17 913.719V917H1398.33V911.545H1399.14V912.398H1399.21C1399.34 912.121 1399.53 911.898 1399.79 911.73C1400.05 911.56 1400.39 911.474 1400.8 911.474C1401.17 911.474 1401.49 911.55 1401.77 911.702C1402.05 911.851 1402.26 912.078 1402.41 912.384C1402.57 912.687 1402.65 913.07 1402.65 913.534V917H1401.81V913.591C1401.81 913.162 1401.7 912.829 1401.47 912.589C1401.25 912.348 1400.95 912.227 1400.56 912.227C1400.29 912.227 1400.05 912.285 1399.84 912.401C1399.63 912.517 1399.47 912.687 1399.35 912.909C1399.23 913.132 1399.17 913.402 1399.17 913.719ZM1404.18 917V911.545H1405.02V917H1404.18ZM1404.6 910.636C1404.44 910.636 1404.3 910.581 1404.18 910.469C1404.06 910.358 1404.01 910.224 1404.01 910.068C1404.01 909.912 1404.06 909.778 1404.18 909.667C1404.3 909.556 1404.44 909.5 1404.6 909.5C1404.77 909.5 1404.91 909.556 1405.02 909.667C1405.14 909.778 1405.2 909.912 1405.2 910.068C1405.2 910.224 1405.14 910.358 1405.02 910.469C1404.91 910.581 1404.77 910.636 1404.6 910.636ZM1408.75 919.159C1408.35 919.159 1408 919.107 1407.71 919.003C1407.42 918.901 1407.17 918.766 1406.98 918.598C1406.79 918.432 1406.64 918.255 1406.52 918.065L1407.19 917.597C1407.27 917.696 1407.36 917.81 1407.48 917.938C1407.59 918.068 1407.75 918.18 1407.95 918.275C1408.16 918.372 1408.42 918.42 1408.75 918.42C1409.19 918.42 1409.56 918.314 1409.84 918.101C1410.13 917.888 1410.27 917.554 1410.27 917.099V915.991H1410.2C1410.14 916.091 1410.05 916.214 1409.94 916.361C1409.83 916.505 1409.67 916.634 1409.46 916.748C1409.25 916.859 1408.97 916.915 1408.61 916.915C1408.17 916.915 1407.77 916.811 1407.42 916.602C1407.08 916.394 1406.8 916.091 1406.6 915.693C1406.4 915.295 1406.29 914.812 1406.29 914.244C1406.29 913.686 1406.39 913.199 1406.59 912.785C1406.79 912.368 1407.06 912.046 1407.41 911.819C1407.76 911.589 1408.16 911.474 1408.62 911.474C1408.98 911.474 1409.26 911.534 1409.47 911.652C1409.68 911.768 1409.84 911.901 1409.95 912.05C1410.07 912.196 1410.15 912.317 1410.22 912.412H1410.3V911.545H1411.11V917.156C1411.11 917.625 1411 918.006 1410.79 918.3C1410.58 918.596 1410.3 918.812 1409.94 918.95C1409.58 919.089 1409.19 919.159 1408.75 919.159ZM1408.72 916.162C1409.06 916.162 1409.34 916.085 1409.58 915.931C1409.81 915.777 1409.98 915.556 1410.1 915.267C1410.23 914.978 1410.29 914.633 1410.29 914.23C1410.29 913.837 1410.23 913.49 1410.11 913.19C1409.99 912.889 1409.81 912.653 1409.58 912.483C1409.35 912.312 1409.06 912.227 1408.72 912.227C1408.37 912.227 1408.07 912.317 1407.84 912.497C1407.6 912.677 1407.43 912.919 1407.31 913.222C1407.19 913.525 1407.13 913.861 1407.13 914.23C1407.13 914.609 1407.19 914.944 1407.31 915.235C1407.43 915.524 1407.61 915.751 1407.84 915.917C1408.08 916.08 1408.37 916.162 1408.72 916.162ZM1413.48 913.719V917H1412.64V909.727H1413.48V912.398H1413.55C1413.68 912.116 1413.87 911.892 1414.13 911.727C1414.39 911.558 1414.73 911.474 1415.16 911.474C1415.53 911.474 1415.86 911.549 1416.13 911.698C1416.41 911.845 1416.63 912.071 1416.78 912.376C1416.94 912.679 1417.02 913.065 1417.02 913.534V917H1416.18V913.591C1416.18 913.158 1416.07 912.823 1415.84 912.586C1415.62 912.347 1415.31 912.227 1414.92 912.227C1414.64 912.227 1414.4 912.285 1414.18 912.401C1413.96 912.517 1413.79 912.687 1413.67 912.909C1413.54 913.132 1413.48 913.402 1413.48 913.719ZM1420.92 911.545V912.256H1418.1V911.545H1420.92ZM1418.92 910.239H1419.76V915.438C1419.76 915.674 1419.79 915.852 1419.86 915.97C1419.93 916.086 1420.02 916.164 1420.13 916.205C1420.24 916.242 1420.36 916.261 1420.48 916.261C1420.58 916.261 1420.65 916.257 1420.71 916.247C1420.77 916.235 1420.82 916.226 1420.85 916.219L1421.02 916.972C1420.97 916.993 1420.89 917.014 1420.79 917.036C1420.68 917.059 1420.56 917.071 1420.4 917.071C1420.16 917.071 1419.93 917.02 1419.7 916.918C1419.48 916.817 1419.29 916.661 1419.14 916.453C1418.99 916.245 1418.92 915.982 1418.92 915.665V910.239ZM1426.6 917.128C1426.26 917.128 1425.94 917.063 1425.66 916.933C1425.38 916.8 1425.16 916.609 1424.99 916.361C1424.82 916.11 1424.74 915.807 1424.74 915.452C1424.74 915.139 1424.8 914.886 1424.93 914.692C1425.05 914.495 1425.21 914.341 1425.42 914.23C1425.63 914.119 1425.85 914.036 1426.1 913.982C1426.35 913.925 1426.6 913.88 1426.86 913.847C1427.19 913.804 1427.46 913.772 1427.66 913.751C1427.87 913.727 1428.02 913.688 1428.12 913.634C1428.22 913.579 1428.26 913.484 1428.26 913.349V913.321C1428.26 912.971 1428.17 912.698 1427.98 912.504C1427.79 912.31 1427.5 912.213 1427.11 912.213C1426.71 912.213 1426.4 912.301 1426.17 912.476C1425.95 912.651 1425.79 912.838 1425.69 913.037L1424.9 912.753C1425.04 912.421 1425.23 912.163 1425.47 911.979C1425.71 911.792 1425.97 911.661 1426.25 911.588C1426.53 911.512 1426.81 911.474 1427.09 911.474C1427.26 911.474 1427.46 911.496 1427.69 911.538C1427.92 911.579 1428.14 911.663 1428.35 911.79C1428.57 911.918 1428.75 912.111 1428.89 912.369C1429.03 912.627 1429.1 912.973 1429.1 913.406V917H1428.26V916.261H1428.22C1428.17 916.38 1428.07 916.506 1427.94 916.641C1427.81 916.776 1427.63 916.891 1427.41 916.986C1427.19 917.08 1426.92 917.128 1426.6 917.128ZM1426.73 916.375C1427.06 916.375 1427.34 916.31 1427.57 916.18C1427.8 916.049 1427.97 915.881 1428.09 915.675C1428.21 915.469 1428.26 915.253 1428.26 915.026V914.259C1428.23 914.301 1428.15 914.34 1428.03 914.376C1427.91 914.409 1427.77 914.438 1427.62 914.464C1427.46 914.488 1427.31 914.509 1427.17 914.528C1427.02 914.545 1426.91 914.559 1426.82 914.571C1426.6 914.599 1426.39 914.646 1426.2 914.71C1426.02 914.771 1425.87 914.865 1425.75 914.99C1425.64 915.113 1425.58 915.281 1425.58 915.494C1425.58 915.786 1425.69 916.006 1425.9 916.155C1426.12 916.302 1426.4 916.375 1426.73 916.375ZM1431.47 913.719V917H1430.63V909.727H1431.47V912.398H1431.54C1431.67 912.116 1431.86 911.892 1432.12 911.727C1432.37 911.558 1432.72 911.474 1433.15 911.474C1433.52 911.474 1433.84 911.549 1434.12 911.698C1434.4 911.845 1434.62 912.071 1434.77 912.376C1434.93 912.679 1435.01 913.065 1435.01 913.534V917H1434.17V913.591C1434.17 913.158 1434.06 912.823 1433.83 912.586C1433.61 912.347 1433.3 912.227 1432.91 912.227C1432.63 912.227 1432.38 912.285 1432.17 912.401C1431.95 912.517 1431.78 912.687 1431.66 912.909C1431.53 913.132 1431.47 913.402 1431.47 913.719Z" fill="black"/>
<path d="M1341 943.923C1340.96 944.474 1341.37 944.955 1341.92 944.997L1350.9 945.687C1351.45 945.73 1351.93 945.318 1351.97 944.767C1352.01 944.216 1351.6 943.736 1351.05 943.693L1343.07 943.08L1343.69 935.103C1343.73 934.553 1343.32 934.072 1342.77 934.029C1342.22 933.987 1341.74 934.399 1341.69 934.95L1341 943.923ZM1363 926L1362.35 925.241L1341.35 943.241L1342 944L1342.65 944.759L1363.65 926.759L1363 926Z" fill="black"/>
<path d="M1361.77 2176V2170.55H1362.61V2176H1361.77ZM1362.19 2169.64C1362.03 2169.64 1361.89 2169.58 1361.77 2169.47C1361.65 2169.36 1361.6 2169.22 1361.6 2169.07C1361.6 2168.91 1361.65 2168.78 1361.77 2168.67C1361.89 2168.56 1362.03 2168.5 1362.19 2168.5C1362.36 2168.5 1362.5 2168.56 1362.61 2168.67C1362.73 2168.78 1362.79 2168.91 1362.79 2169.07C1362.79 2169.22 1362.73 2169.36 1362.61 2169.47C1362.5 2169.58 1362.36 2169.64 1362.19 2169.64ZM1368.19 2176L1366.53 2170.55H1367.41L1368.59 2174.72H1368.64L1369.81 2170.55H1370.7L1371.85 2174.71H1371.91L1373.09 2170.55H1373.97L1372.31 2176H1371.48L1370.29 2171.81H1370.21L1369.01 2176H1368.19ZM1377.11 2176.11C1376.62 2176.11 1376.18 2176 1375.81 2175.76C1375.44 2175.53 1375.15 2175.2 1374.95 2174.78C1374.74 2174.36 1374.64 2173.86 1374.64 2173.3C1374.64 2172.73 1374.74 2172.24 1374.95 2171.81C1375.15 2171.39 1375.44 2171.06 1375.81 2170.83C1376.18 2170.59 1376.62 2170.47 1377.11 2170.47C1377.6 2170.47 1378.03 2170.59 1378.4 2170.83C1378.77 2171.06 1379.06 2171.39 1379.27 2171.81C1379.48 2172.24 1379.58 2172.73 1379.58 2173.3C1379.58 2173.86 1379.48 2174.36 1379.27 2174.78C1379.06 2175.2 1378.77 2175.53 1378.4 2175.76C1378.03 2176 1377.6 2176.11 1377.11 2176.11ZM1377.11 2175.36C1377.48 2175.36 1377.79 2175.26 1378.03 2175.07C1378.27 2174.88 1378.45 2174.63 1378.57 2174.32C1378.68 2174 1378.74 2173.67 1378.74 2173.3C1378.74 2172.94 1378.68 2172.6 1378.57 2172.28C1378.45 2171.97 1378.27 2171.71 1378.03 2171.52C1377.79 2171.32 1377.48 2171.23 1377.11 2171.23C1376.73 2171.23 1376.43 2171.32 1376.18 2171.52C1375.94 2171.71 1375.76 2171.97 1375.65 2172.28C1375.53 2172.6 1375.47 2172.94 1375.47 2173.3C1375.47 2173.67 1375.53 2174 1375.65 2174.32C1375.76 2174.63 1375.94 2174.88 1376.18 2175.07C1376.43 2175.26 1376.73 2175.36 1377.11 2175.36ZM1381.7 2172.72V2176H1380.86V2170.55H1381.67V2171.4H1381.74C1381.87 2171.12 1382.06 2170.9 1382.32 2170.73C1382.58 2170.56 1382.92 2170.47 1383.33 2170.47C1383.7 2170.47 1384.02 2170.55 1384.3 2170.7C1384.58 2170.85 1384.79 2171.08 1384.95 2171.38C1385.1 2171.69 1385.18 2172.07 1385.18 2172.53V2176H1384.34V2172.59C1384.34 2172.16 1384.23 2171.83 1384.01 2171.59C1383.78 2171.35 1383.48 2171.23 1383.09 2171.23C1382.82 2171.23 1382.58 2171.29 1382.37 2171.4C1382.16 2171.52 1382 2171.69 1381.88 2171.91C1381.76 2172.13 1381.7 2172.4 1381.7 2172.72ZM1389.08 2170.55V2171.26H1386.25V2170.55H1389.08ZM1387.08 2169.24H1387.92V2174.44C1387.92 2174.67 1387.95 2174.85 1388.02 2174.97C1388.09 2175.09 1388.18 2175.16 1388.29 2175.2C1388.4 2175.24 1388.52 2175.26 1388.64 2175.26C1388.73 2175.26 1388.81 2175.26 1388.87 2175.25C1388.93 2175.24 1388.97 2175.23 1389.01 2175.22L1389.18 2175.97C1389.12 2175.99 1389.04 2176.01 1388.94 2176.04C1388.84 2176.06 1388.71 2176.07 1388.56 2176.07C1388.32 2176.07 1388.09 2176.02 1387.86 2175.92C1387.63 2175.82 1387.45 2175.66 1387.3 2175.45C1387.15 2175.24 1387.08 2174.98 1387.08 2174.66V2169.24ZM1395.36 2178.16C1394.95 2178.16 1394.6 2178.11 1394.31 2178C1394.02 2177.9 1393.78 2177.77 1393.58 2177.6C1393.39 2177.43 1393.24 2177.25 1393.13 2177.07L1393.79 2176.6C1393.87 2176.7 1393.96 2176.81 1394.08 2176.94C1394.2 2177.07 1394.36 2177.18 1394.56 2177.27C1394.76 2177.37 1395.03 2177.42 1395.36 2177.42C1395.8 2177.42 1396.16 2177.31 1396.45 2177.1C1396.73 2176.89 1396.88 2176.55 1396.88 2176.1V2174.99H1396.8C1396.74 2175.09 1396.66 2175.21 1396.54 2175.36C1396.43 2175.51 1396.27 2175.63 1396.06 2175.75C1395.85 2175.86 1395.57 2175.91 1395.21 2175.91C1394.77 2175.91 1394.38 2175.81 1394.03 2175.6C1393.68 2175.39 1393.4 2175.09 1393.2 2174.69C1393 2174.3 1392.9 2173.81 1392.9 2173.24C1392.9 2172.69 1393 2172.2 1393.19 2171.78C1393.39 2171.37 1393.66 2171.05 1394.01 2170.82C1394.36 2170.59 1394.77 2170.47 1395.23 2170.47C1395.58 2170.47 1395.86 2170.53 1396.07 2170.65C1396.28 2170.77 1396.44 2170.9 1396.56 2171.05C1396.67 2171.2 1396.76 2171.32 1396.82 2171.41H1396.9V2170.55H1397.71V2176.16C1397.71 2176.62 1397.61 2177.01 1397.39 2177.3C1397.18 2177.6 1396.9 2177.81 1396.54 2177.95C1396.19 2178.09 1395.79 2178.16 1395.36 2178.16ZM1395.33 2175.16C1395.66 2175.16 1395.95 2175.08 1396.18 2174.93C1396.41 2174.78 1396.59 2174.56 1396.71 2174.27C1396.83 2173.98 1396.89 2173.63 1396.89 2173.23C1396.89 2172.84 1396.83 2172.49 1396.71 2172.19C1396.59 2171.89 1396.42 2171.65 1396.19 2171.48C1395.95 2171.31 1395.67 2171.23 1395.33 2171.23C1394.97 2171.23 1394.68 2171.32 1394.44 2171.5C1394.2 2171.68 1394.03 2171.92 1393.91 2172.22C1393.79 2172.52 1393.74 2172.86 1393.74 2173.23C1393.74 2173.61 1393.8 2173.94 1393.91 2174.24C1394.03 2174.52 1394.21 2174.75 1394.45 2174.92C1394.68 2175.08 1394.98 2175.16 1395.33 2175.16ZM1401.46 2176.11C1400.97 2176.11 1400.54 2176 1400.17 2175.76C1399.8 2175.53 1399.51 2175.2 1399.3 2174.78C1399.09 2174.36 1398.99 2173.86 1398.99 2173.3C1398.99 2172.73 1399.09 2172.24 1399.3 2171.81C1399.51 2171.39 1399.8 2171.06 1400.17 2170.83C1400.54 2170.59 1400.97 2170.47 1401.46 2170.47C1401.96 2170.47 1402.39 2170.59 1402.76 2170.83C1403.13 2171.06 1403.42 2171.39 1403.62 2171.81C1403.83 2172.24 1403.94 2172.73 1403.94 2173.3C1403.94 2173.86 1403.83 2174.36 1403.62 2174.78C1403.42 2175.2 1403.13 2175.53 1402.76 2175.76C1402.39 2176 1401.96 2176.11 1401.46 2176.11ZM1401.46 2175.36C1401.84 2175.36 1402.15 2175.26 1402.39 2175.07C1402.63 2174.88 1402.81 2174.63 1402.92 2174.32C1403.04 2174 1403.1 2173.67 1403.1 2173.3C1403.1 2172.94 1403.04 2172.6 1402.92 2172.28C1402.81 2171.97 1402.63 2171.71 1402.39 2171.52C1402.15 2171.32 1401.84 2171.23 1401.46 2171.23C1401.09 2171.23 1400.78 2171.32 1400.54 2171.52C1400.3 2171.71 1400.12 2171.97 1400 2172.28C1399.89 2172.6 1399.83 2172.94 1399.83 2173.3C1399.83 2173.67 1399.89 2174 1400 2174.32C1400.12 2174.63 1400.3 2174.88 1400.54 2175.07C1400.78 2175.26 1401.09 2175.36 1401.46 2175.36Z" fill="black"/>
<path d="M659.5 720V640.5H1242.5V716.5" stroke="#38AF33" stroke-width="7"/>
<path d="M492 179.5H660V2.5" stroke="#0C55EF" stroke-width="7"/>
</g>
<defs>
<clipPath id="clip0_845_830">
<rect width="1440" height="2946" fill="white"/>
</clipPath>
</defs>
</svg>
